<?xml version="1.0" encoding="UTF-8" standalone="no"?>
<svg
   inkscape:label="LA410-complettTree"
   sodipodi:docname="toy.Glas.01.Engrave.svg"
   inkscape:version="1.1.1 (eb90963e84, 2021-10-02)"
   id="svg1004"
   version="1.1"
   viewBox="0 0 119.83986 343.49211"
   height="343.49213mm"
   width="119.83987mm"
   xmlns:inkscape="http://www.inkscape.org/namespaces/inkscape"
   xmlns:sodipodi="http://sodipodi.sourceforge.net/DTD/sodipodi-0.dtd"
   xmlns="http://www.w3.org/2000/svg"
   xmlns:svg="http://www.w3.org/2000/svg">
  <defs
     id="defs27" />
  <sodipodi:namedview
     id="namedview25"
     pagecolor="#ffffff"
     bordercolor="#666666"
     borderopacity="1.0"
     inkscape:pageshadow="2"
     inkscape:pageopacity="0.0"
     inkscape:pagecheckerboard="0"
     inkscape:document-units="mm" />
  <g
     inkscape:groupmode="layer"
     id="layer15"
     inkscape:label="Glas"
     transform="translate(-2846.0375,-1339.6984)"
     style="display:inline">
    <g
       inkscape:groupmode="layer"
       id="layer37"
       inkscape:label="01"
       style="display:inline">
      <g
         id="layer17"
         inkscape:groupmode="layer"
         inkscape:label="Engrave"
         transform="translate(596.5275,1199.7434)">
        <g
           aria-label="Glas. Page 01"
           id="text30498"
           style="font-size:22.5778px;line-height:1.25;font-family:Calibri;-inkscape-font-specification:Calibri;letter-spacing:0px;word-spacing:0px;display:inline;fill:none;stroke:#0000bf;stroke-width:0.5;stroke-miterlimit:4;stroke-dasharray:none">
          <path
             d="m 2261.37,143.237 c 0,0.139 -0.01,0.264 -0.02,0.375 -0.02,0.103 -0.04,0.191 -0.07,0.264 -0.03,0.066 -0.07,0.114 -0.11,0.144 -0.04,0.029 -0.09,0.044 -0.14,0.044 -0.09,0 -0.24,-0.07 -0.44,-0.21 -0.21,-0.14 -0.49,-0.294 -0.83,-0.463 -0.35,-0.169 -0.76,-0.323 -1.25,-0.463 -0.47,-0.14 -1.04,-0.209 -1.71,-0.209 -0.78,0 -1.49,0.143 -2.11,0.43 -0.63,0.286 -1.16,0.683 -1.59,1.19 -0.43,0.507 -0.77,1.11 -1,1.808 -0.23,0.698 -0.34,1.455 -0.34,2.271 0,0.912 0.12,1.72 0.37,2.426 0.26,0.705 0.61,1.3 1.06,1.785 0.45,0.485 0.98,0.853 1.6,1.103 0.62,0.25 1.31,0.375 2.05,0.375 0.44,0 0.88,-0.052 1.33,-0.155 0.46,-0.11 0.88,-0.272 1.27,-0.485 v -4.156 h -3.31 c -0.12,0 -0.22,-0.062 -0.28,-0.187 -0.06,-0.125 -0.09,-0.32 -0.09,-0.585 0,-0.139 0.01,-0.257 0.02,-0.352 0.01,-0.103 0.04,-0.184 0.07,-0.243 0.03,-0.066 0.07,-0.114 0.12,-0.143 0.04,-0.03 0.1,-0.044 0.16,-0.044 h 4.53 c 0.08,0 0.17,0.014 0.25,0.044 0.08,0.029 0.15,0.073 0.22,0.132 0.06,0.059 0.11,0.14 0.15,0.243 0.04,0.103 0.06,0.22 0.06,0.352 v 5.435 c 0,0.191 -0.04,0.357 -0.1,0.497 -0.07,0.139 -0.21,0.264 -0.42,0.374 -0.22,0.103 -0.49,0.217 -0.83,0.342 -0.34,0.125 -0.69,0.232 -1.05,0.32 -0.36,0.088 -0.72,0.154 -1.09,0.198 -0.37,0.044 -0.73,0.066 -1.09,0.066 -1.1,0 -2.09,-0.169 -2.95,-0.507 -0.87,-0.345 -1.61,-0.834 -2.21,-1.466 -0.59,-0.632 -1.05,-1.389 -1.37,-2.271 -0.31,-0.882 -0.47,-1.867 -0.47,-2.955 0,-1.132 0.17,-2.157 0.51,-3.075 0.34,-0.919 0.82,-1.702 1.44,-2.349 0.63,-0.646 1.37,-1.146 2.24,-1.499 0.87,-0.36 1.84,-0.54 2.9,-0.54 0.54,0 1.05,0.048 1.53,0.143 0.48,0.096 0.9,0.21 1.27,0.342 0.37,0.125 0.69,0.264 0.94,0.419 0.25,0.147 0.43,0.268 0.53,0.364 0.09,0.095 0.16,0.205 0.19,0.33 0.04,0.125 0.06,0.305 0.06,0.541 z"
             id="path7707"
             style="stroke-width:0.5;stroke-miterlimit:4;stroke-dasharray:none" />
          <path
             d="m 2266.51,155.286 c 0,0.059 -0.02,0.11 -0.05,0.155 -0.03,0.036 -0.08,0.069 -0.14,0.099 -0.07,0.029 -0.16,0.051 -0.28,0.066 -0.11,0.014 -0.27,0.022 -0.45,0.022 -0.18,0 -0.32,-0.008 -0.44,-0.022 -0.12,-0.015 -0.21,-0.037 -0.29,-0.066 -0.06,-0.03 -0.11,-0.063 -0.14,-0.099 -0.02,-0.044 -0.03,-0.096 -0.03,-0.155 v -14.728 c 0,-0.059 0.01,-0.11 0.03,-0.154 0.03,-0.044 0.08,-0.081 0.14,-0.111 0.08,-0.029 0.17,-0.051 0.29,-0.066 0.12,-0.014 0.26,-0.022 0.44,-0.022 0.18,0 0.34,0.008 0.45,0.022 0.12,0.015 0.21,0.037 0.28,0.066 0.06,0.03 0.11,0.066 0.14,0.111 0.03,0.044 0.05,0.095 0.05,0.154 z"
             id="path7709"
             style="stroke-width:0.5;stroke-miterlimit:4;stroke-dasharray:none" />
          <path
             d="m 2277.34,155.297 c 0,0.089 -0.03,0.155 -0.09,0.199 -0.05,0.044 -0.13,0.077 -0.24,0.099 -0.1,0.022 -0.25,0.033 -0.45,0.033 -0.19,0 -0.34,-0.011 -0.46,-0.033 -0.11,-0.022 -0.19,-0.055 -0.25,-0.099 -0.05,-0.044 -0.07,-0.11 -0.07,-0.199 v -0.992 c -0.44,0.463 -0.92,0.823 -1.46,1.081 -0.53,0.257 -1.09,0.386 -1.68,0.386 -0.53,0 -1,-0.07 -1.43,-0.21 -0.42,-0.132 -0.78,-0.327 -1.08,-0.584 -0.29,-0.257 -0.52,-0.574 -0.69,-0.948 -0.16,-0.375 -0.24,-0.801 -0.24,-1.279 0,-0.559 0.11,-1.044 0.34,-1.455 0.23,-0.412 0.55,-0.754 0.98,-1.026 0.43,-0.272 0.95,-0.474 1.56,-0.606 0.62,-0.14 1.32,-0.209 2.09,-0.209 h 1.37 v -0.772 c 0,-0.382 -0.05,-0.72 -0.13,-1.014 -0.08,-0.294 -0.21,-0.537 -0.39,-0.728 -0.18,-0.198 -0.41,-0.345 -0.7,-0.441 -0.28,-0.103 -0.64,-0.154 -1.06,-0.154 -0.44,0 -0.85,0.055 -1.21,0.165 -0.35,0.103 -0.66,0.221 -0.94,0.353 -0.26,0.125 -0.48,0.242 -0.67,0.353 -0.17,0.102 -0.31,0.154 -0.39,0.154 -0.06,0 -0.11,-0.015 -0.16,-0.044 -0.04,-0.029 -0.08,-0.074 -0.12,-0.132 -0.03,-0.059 -0.05,-0.132 -0.07,-0.221 -0.01,-0.095 -0.02,-0.198 -0.02,-0.309 0,-0.183 0.01,-0.327 0.03,-0.43 0.03,-0.11 0.1,-0.213 0.19,-0.308 0.1,-0.096 0.28,-0.206 0.52,-0.331 0.24,-0.132 0.52,-0.25 0.84,-0.353 0.31,-0.11 0.66,-0.198 1.03,-0.264 0.38,-0.074 0.76,-0.111 1.14,-0.111 0.71,0 1.32,0.081 1.82,0.243 0.5,0.162 0.9,0.401 1.21,0.717 0.31,0.308 0.53,0.694 0.67,1.157 0.14,0.463 0.21,1.003 0.21,1.621 z m -1.81,-4.531 h -1.55 c -0.5,0 -0.93,0.044 -1.3,0.133 -0.37,0.081 -0.67,0.206 -0.92,0.375 -0.24,0.161 -0.42,0.36 -0.54,0.595 -0.11,0.228 -0.16,0.492 -0.16,0.794 0,0.514 0.16,0.926 0.48,1.234 0.33,0.302 0.79,0.452 1.38,0.452 0.48,0 0.92,-0.121 1.33,-0.364 0.41,-0.242 0.84,-0.613 1.28,-1.113 z"
             id="path7711"
             style="stroke-width:0.5;stroke-miterlimit:4;stroke-dasharray:none" />
          <path
             d="m 2286.91,152.585 c 0,0.508 -0.09,0.96 -0.28,1.356 -0.19,0.397 -0.45,0.732 -0.8,1.004 -0.34,0.272 -0.76,0.477 -1.23,0.617 -0.48,0.14 -1.01,0.209 -1.58,0.209 -0.35,0 -0.69,-0.029 -1.01,-0.088 -0.32,-0.051 -0.61,-0.117 -0.86,-0.198 -0.25,-0.088 -0.47,-0.176 -0.64,-0.264 -0.18,-0.096 -0.31,-0.181 -0.39,-0.254 -0.08,-0.074 -0.14,-0.176 -0.18,-0.309 -0.03,-0.132 -0.05,-0.312 -0.05,-0.54 0,-0.14 0.01,-0.257 0.02,-0.353 0.02,-0.095 0.03,-0.172 0.06,-0.231 0.02,-0.059 0.05,-0.099 0.08,-0.121 0.05,-0.03 0.1,-0.045 0.15,-0.045 0.08,0 0.2,0.052 0.35,0.155 0.16,0.095 0.36,0.202 0.59,0.319 0.23,0.118 0.51,0.228 0.82,0.331 0.32,0.096 0.68,0.144 1.09,0.144 0.31,0 0.59,-0.033 0.84,-0.099 0.25,-0.066 0.47,-0.162 0.65,-0.287 0.19,-0.132 0.33,-0.298 0.42,-0.496 0.1,-0.199 0.15,-0.434 0.15,-0.706 0,-0.279 -0.07,-0.514 -0.22,-0.705 -0.14,-0.191 -0.32,-0.36 -0.56,-0.507 -0.23,-0.147 -0.5,-0.276 -0.79,-0.386 -0.3,-0.118 -0.6,-0.239 -0.92,-0.364 -0.31,-0.125 -0.61,-0.265 -0.91,-0.419 -0.3,-0.162 -0.56,-0.356 -0.8,-0.584 -0.23,-0.228 -0.42,-0.5 -0.57,-0.816 -0.14,-0.316 -0.21,-0.695 -0.21,-1.136 0,-0.389 0.08,-0.76 0.22,-1.113 0.16,-0.36 0.38,-0.672 0.69,-0.937 0.3,-0.272 0.67,-0.489 1.12,-0.65 0.46,-0.162 0.99,-0.243 1.59,-0.243 0.26,0 0.53,0.022 0.79,0.066 0.27,0.044 0.51,0.099 0.72,0.165 0.21,0.066 0.39,0.14 0.54,0.221 0.15,0.073 0.27,0.139 0.34,0.198 0.08,0.059 0.13,0.11 0.15,0.155 0.03,0.044 0.05,0.095 0.06,0.154 0.01,0.051 0.03,0.117 0.03,0.198 0.02,0.081 0.02,0.18 0.02,0.298 0,0.125 0,0.235 -0.02,0.331 0,0.088 -0.02,0.161 -0.05,0.22 -0.02,0.059 -0.05,0.103 -0.09,0.132 -0.04,0.022 -0.08,0.033 -0.12,0.033 -0.07,0 -0.16,-0.04 -0.29,-0.121 -0.12,-0.081 -0.28,-0.165 -0.48,-0.253 -0.2,-0.096 -0.44,-0.184 -0.71,-0.265 -0.26,-0.081 -0.57,-0.121 -0.91,-0.121 -0.31,0 -0.58,0.037 -0.82,0.11 -0.23,0.066 -0.43,0.165 -0.58,0.298 -0.15,0.125 -0.26,0.275 -0.35,0.452 -0.07,0.176 -0.11,0.367 -0.11,0.573 0,0.287 0.08,0.529 0.22,0.728 0.15,0.191 0.34,0.36 0.58,0.507 0.23,0.147 0.5,0.279 0.8,0.397 0.3,0.117 0.61,0.238 0.92,0.363 0.31,0.125 0.62,0.265 0.92,0.419 0.31,0.155 0.58,0.342 0.82,0.563 0.23,0.22 0.42,0.485 0.56,0.793 0.15,0.309 0.22,0.676 0.22,1.103 z"
             id="path7713"
             style="stroke-width:0.5;stroke-miterlimit:4;stroke-dasharray:none" />
          <path
             d="m 2291.86,154.36 c 0,0.522 -0.09,0.871 -0.26,1.048 -0.17,0.169 -0.48,0.253 -0.94,0.253 -0.44,0 -0.75,-0.084 -0.91,-0.253 -0.17,-0.169 -0.26,-0.507 -0.26,-1.015 0,-0.521 0.09,-0.867 0.26,-1.036 0.17,-0.176 0.49,-0.264 0.94,-0.264 0.44,0 0.75,0.084 0.92,0.253 0.17,0.169 0.25,0.507 0.25,1.014 z"
             id="path7715"
             style="stroke-width:0.5;stroke-miterlimit:4;stroke-dasharray:none" />
          <path
             d="m 2309.29,145.475 c 0,0.713 -0.12,1.356 -0.35,1.929 -0.24,0.573 -0.57,1.062 -1.02,1.466 -0.43,0.404 -0.97,0.717 -1.61,0.937 -0.63,0.221 -1.38,0.331 -2.27,0.331 h -1.62 v 5.137 c 0,0.059 -0.02,0.11 -0.05,0.155 -0.03,0.044 -0.08,0.08 -0.16,0.11 -0.06,0.022 -0.16,0.04 -0.28,0.055 -0.12,0.022 -0.27,0.033 -0.45,0.033 -0.19,0 -0.34,-0.011 -0.47,-0.033 -0.12,-0.015 -0.21,-0.033 -0.28,-0.055 -0.08,-0.029 -0.13,-0.066 -0.16,-0.11 -0.03,-0.044 -0.04,-0.096 -0.04,-0.155 v -13.163 c 0,-0.294 0.07,-0.503 0.23,-0.628 0.15,-0.125 0.33,-0.187 0.52,-0.187 h 3.05 c 0.31,0 0.6,0.014 0.88,0.044 0.29,0.022 0.62,0.077 1.01,0.165 0.39,0.081 0.78,0.239 1.18,0.474 0.4,0.228 0.74,0.511 1.02,0.849 0.28,0.338 0.49,0.731 0.64,1.179 0.15,0.441 0.23,0.93 0.23,1.467 z m -1.99,0.154 c 0,-0.581 -0.11,-1.066 -0.33,-1.455 -0.22,-0.39 -0.49,-0.68 -0.81,-0.871 -0.32,-0.191 -0.65,-0.312 -0.99,-0.364 -0.34,-0.051 -0.67,-0.077 -0.99,-0.077 h -1.76 v 5.722 h 1.71 c 0.58,0 1.05,-0.074 1.42,-0.221 0.39,-0.147 0.71,-0.349 0.96,-0.606 0.26,-0.265 0.46,-0.577 0.59,-0.937 0.13,-0.368 0.2,-0.764 0.2,-1.191 z"
             id="path7717"
             style="stroke-width:0.5;stroke-miterlimit:4;stroke-dasharray:none" />
          <path
             d="m 2318.97,155.297 c 0,0.089 -0.03,0.155 -0.09,0.199 -0.06,0.044 -0.14,0.077 -0.24,0.099 -0.1,0.022 -0.25,0.033 -0.45,0.033 -0.19,0 -0.35,-0.011 -0.46,-0.033 -0.11,-0.022 -0.2,-0.055 -0.25,-0.099 -0.05,-0.044 -0.07,-0.11 -0.07,-0.199 v -0.992 c -0.44,0.463 -0.92,0.823 -1.46,1.081 -0.53,0.257 -1.09,0.386 -1.69,0.386 -0.52,0 -0.99,-0.07 -1.42,-0.21 -0.42,-0.132 -0.78,-0.327 -1.08,-0.584 -0.29,-0.257 -0.52,-0.574 -0.69,-0.948 -0.16,-0.375 -0.25,-0.801 -0.25,-1.279 0,-0.559 0.12,-1.044 0.35,-1.455 0.22,-0.412 0.55,-0.754 0.98,-1.026 0.42,-0.272 0.95,-0.474 1.56,-0.606 0.62,-0.14 1.31,-0.209 2.09,-0.209 h 1.36 v -0.772 c 0,-0.382 -0.04,-0.72 -0.12,-1.014 -0.08,-0.294 -0.21,-0.537 -0.39,-0.728 -0.18,-0.198 -0.41,-0.345 -0.7,-0.441 -0.29,-0.103 -0.64,-0.154 -1.06,-0.154 -0.45,0 -0.85,0.055 -1.21,0.165 -0.35,0.103 -0.67,0.221 -0.94,0.353 -0.26,0.125 -0.49,0.242 -0.67,0.353 -0.18,0.102 -0.31,0.154 -0.4,0.154 -0.06,0 -0.11,-0.015 -0.15,-0.044 -0.05,-0.029 -0.09,-0.074 -0.12,-0.132 -0.03,-0.059 -0.05,-0.132 -0.07,-0.221 -0.01,-0.095 -0.02,-0.198 -0.02,-0.309 0,-0.183 0.01,-0.327 0.03,-0.43 0.03,-0.11 0.09,-0.213 0.19,-0.308 0.1,-0.096 0.28,-0.206 0.52,-0.331 0.24,-0.132 0.52,-0.25 0.84,-0.353 0.31,-0.11 0.66,-0.198 1.03,-0.264 0.38,-0.074 0.76,-0.111 1.14,-0.111 0.71,0 1.32,0.081 1.82,0.243 0.5,0.162 0.9,0.401 1.21,0.717 0.31,0.308 0.53,0.694 0.67,1.157 0.14,0.463 0.21,1.003 0.21,1.621 z m -1.81,-4.531 h -1.55 c -0.5,0 -0.93,0.044 -1.3,0.133 -0.37,0.081 -0.67,0.206 -0.92,0.375 -0.24,0.161 -0.42,0.36 -0.54,0.595 -0.11,0.228 -0.16,0.492 -0.16,0.794 0,0.514 0.16,0.926 0.48,1.234 0.33,0.302 0.79,0.452 1.38,0.452 0.48,0 0.92,-0.121 1.32,-0.364 0.41,-0.242 0.84,-0.613 1.29,-1.113 z"
             id="path7719"
             style="stroke-width:0.5;stroke-miterlimit:4;stroke-dasharray:none" />
          <path
             d="m 2330.6,145.817 c 0,0.257 -0.04,0.444 -0.11,0.562 -0.06,0.11 -0.15,0.165 -0.26,0.165 h -1.43 c 0.26,0.265 0.44,0.559 0.54,0.882 0.11,0.316 0.16,0.647 0.16,0.992 0,0.574 -0.09,1.081 -0.28,1.522 -0.18,0.441 -0.44,0.815 -0.79,1.124 -0.34,0.301 -0.74,0.533 -1.21,0.695 -0.47,0.161 -1,0.242 -1.57,0.242 -0.4,0 -0.79,-0.051 -1.16,-0.154 -0.36,-0.11 -0.64,-0.246 -0.83,-0.408 -0.14,0.132 -0.25,0.283 -0.33,0.452 -0.09,0.169 -0.13,0.364 -0.13,0.584 0,0.257 0.12,0.471 0.36,0.64 0.24,0.169 0.56,0.261 0.96,0.275 l 2.59,0.111 c 0.49,0.014 0.94,0.084 1.35,0.209 0.41,0.118 0.77,0.29 1.07,0.518 0.3,0.221 0.54,0.496 0.71,0.827 0.17,0.323 0.25,0.702 0.25,1.135 0,0.456 -0.09,0.89 -0.29,1.301 -0.19,0.412 -0.48,0.772 -0.88,1.081 -0.39,0.316 -0.89,0.562 -1.5,0.738 -0.61,0.184 -1.33,0.276 -2.16,0.276 -0.8,0 -1.48,-0.07 -2.05,-0.21 -0.56,-0.132 -1.02,-0.316 -1.38,-0.551 -0.36,-0.235 -0.62,-0.518 -0.78,-0.849 -0.16,-0.323 -0.24,-0.676 -0.24,-1.058 0,-0.243 0.03,-0.478 0.09,-0.706 0.06,-0.227 0.14,-0.444 0.26,-0.65 0.13,-0.206 0.28,-0.401 0.45,-0.584 0.19,-0.191 0.4,-0.379 0.63,-0.562 -0.36,-0.184 -0.63,-0.416 -0.8,-0.695 -0.17,-0.279 -0.26,-0.581 -0.26,-0.904 0,-0.448 0.1,-0.849 0.28,-1.202 0.18,-0.352 0.41,-0.669 0.68,-0.948 -0.23,-0.272 -0.41,-0.577 -0.54,-0.915 -0.13,-0.345 -0.2,-0.76 -0.2,-1.246 0,-0.565 0.1,-1.073 0.29,-1.521 0.19,-0.448 0.46,-0.827 0.79,-1.135 0.34,-0.309 0.75,-0.544 1.22,-0.706 0.47,-0.169 0.99,-0.254 1.55,-0.254 0.3,0 0.58,0.019 0.84,0.055 0.26,0.03 0.51,0.074 0.74,0.133 h 3 c 0.12,0 0.21,0.062 0.27,0.187 0.07,0.118 0.1,0.302 0.1,0.551 z m -2.84,2.612 c 0,-0.676 -0.19,-1.201 -0.57,-1.576 -0.36,-0.382 -0.89,-0.573 -1.57,-0.573 -0.35,0 -0.66,0.058 -0.93,0.176 -0.25,0.118 -0.47,0.279 -0.65,0.485 -0.17,0.206 -0.3,0.445 -0.38,0.717 -0.08,0.264 -0.13,0.543 -0.13,0.837 0,0.655 0.19,1.169 0.56,1.544 0.37,0.375 0.89,0.562 1.56,0.562 0.36,0 0.67,-0.055 0.94,-0.165 0.26,-0.118 0.48,-0.276 0.65,-0.474 0.18,-0.206 0.3,-0.441 0.38,-0.706 0.09,-0.264 0.14,-0.54 0.14,-0.827 z m 0.91,7.861 c 0,-0.427 -0.17,-0.754 -0.53,-0.981 -0.34,-0.236 -0.81,-0.361 -1.41,-0.375 l -2.57,-0.088 c -0.23,0.183 -0.43,0.36 -0.58,0.529 -0.15,0.161 -0.27,0.316 -0.35,0.463 -0.09,0.154 -0.15,0.305 -0.19,0.452 -0.03,0.147 -0.05,0.297 -0.05,0.452 0,0.478 0.25,0.838 0.73,1.08 0.49,0.25 1.16,0.375 2.03,0.375 0.55,0 1.01,-0.055 1.38,-0.165 0.37,-0.103 0.68,-0.243 0.9,-0.419 0.23,-0.177 0.39,-0.379 0.49,-0.607 0.1,-0.227 0.15,-0.466 0.15,-0.716 z"
             id="path7721"
             style="stroke-width:0.5;stroke-miterlimit:4;stroke-dasharray:none" />
          <path
             d="m 2341.22,149.895 c 0,0.287 -0.08,0.493 -0.22,0.618 -0.14,0.118 -0.3,0.176 -0.49,0.176 h -6.5 c 0,0.551 0.05,1.048 0.16,1.489 0.11,0.44 0.3,0.819 0.55,1.135 0.26,0.316 0.6,0.559 1.01,0.728 0.41,0.169 0.91,0.253 1.51,0.253 0.47,0 0.89,-0.037 1.25,-0.11 0.37,-0.081 0.69,-0.169 0.95,-0.265 0.27,-0.095 0.5,-0.18 0.66,-0.253 0.18,-0.081 0.31,-0.121 0.4,-0.121 0.05,0 0.1,0.014 0.13,0.044 0.05,0.022 0.08,0.058 0.1,0.11 0.02,0.051 0.04,0.125 0.05,0.22 0.01,0.089 0.02,0.199 0.02,0.331 0,0.096 -0.01,0.18 -0.01,0.254 -0.01,0.066 -0.02,0.128 -0.04,0.187 0,0.051 -0.02,0.099 -0.05,0.143 -0.02,0.044 -0.06,0.088 -0.1,0.133 -0.04,0.036 -0.15,0.102 -0.35,0.198 -0.2,0.088 -0.46,0.176 -0.77,0.265 -0.32,0.088 -0.69,0.165 -1.11,0.231 -0.41,0.074 -0.85,0.11 -1.32,0.11 -0.82,0 -1.53,-0.114 -2.15,-0.341 -0.61,-0.228 -1.12,-0.566 -1.54,-1.015 -0.42,-0.448 -0.74,-1.01 -0.95,-1.686 -0.21,-0.676 -0.32,-1.463 -0.32,-2.359 0,-0.853 0.11,-1.617 0.33,-2.294 0.22,-0.683 0.54,-1.26 0.95,-1.73 0.42,-0.478 0.92,-0.842 1.51,-1.092 0.59,-0.257 1.24,-0.386 1.97,-0.386 0.78,0 1.44,0.125 1.99,0.375 0.55,0.25 1,0.588 1.35,1.014 0.36,0.419 0.61,0.915 0.77,1.489 0.17,0.566 0.26,1.172 0.26,1.819 z m -1.83,-0.54 c 0.02,-0.955 -0.19,-1.705 -0.64,-2.249 -0.44,-0.543 -1.1,-0.815 -1.97,-0.815 -0.45,0 -0.85,0.084 -1.18,0.253 -0.34,0.169 -0.63,0.393 -0.85,0.673 -0.23,0.279 -0.41,0.606 -0.53,0.981 -0.13,0.367 -0.2,0.753 -0.21,1.157 z"
             id="path7723"
             style="stroke-width:0.5;stroke-miterlimit:4;stroke-dasharray:none" />
          <path
             d="m 2358.06,148.396 c 0,1.095 -0.09,2.095 -0.26,2.999 -0.17,0.904 -0.46,1.683 -0.86,2.337 -0.4,0.647 -0.92,1.15 -1.57,1.51 -0.64,0.353 -1.44,0.529 -2.39,0.529 -0.9,0 -1.65,-0.158 -2.27,-0.474 -0.61,-0.323 -1.1,-0.793 -1.48,-1.411 -0.37,-0.624 -0.64,-1.389 -0.8,-2.293 -0.16,-0.911 -0.23,-1.955 -0.23,-3.131 0,-1.087 0.08,-2.083 0.26,-2.987 0.18,-0.912 0.46,-1.691 0.86,-2.337 0.4,-0.655 0.92,-1.158 1.57,-1.511 0.64,-0.36 1.44,-0.54 2.38,-0.54 0.9,0 1.66,0.162 2.27,0.485 0.62,0.316 1.11,0.787 1.49,1.411 0.37,0.618 0.64,1.382 0.79,2.293 0.16,0.904 0.24,1.944 0.24,3.12 z m -1.94,0.133 c 0,-0.713 -0.02,-1.353 -0.07,-1.919 -0.06,-0.566 -0.13,-1.065 -0.24,-1.499 -0.09,-0.434 -0.22,-0.805 -0.38,-1.113 -0.16,-0.316 -0.34,-0.574 -0.56,-0.772 -0.22,-0.206 -0.48,-0.353 -0.76,-0.441 -0.28,-0.096 -0.6,-0.143 -0.95,-0.143 -0.63,0 -1.13,0.146 -1.52,0.441 -0.39,0.294 -0.7,0.698 -0.93,1.212 -0.22,0.515 -0.37,1.117 -0.45,1.808 -0.08,0.691 -0.12,1.433 -0.12,2.227 0,1.066 0.05,1.973 0.16,2.723 0.11,0.742 0.29,1.349 0.52,1.819 0.24,0.47 0.55,0.812 0.92,1.025 0.37,0.213 0.82,0.32 1.35,0.32 0.41,0 0.77,-0.066 1.08,-0.198 0.32,-0.133 0.59,-0.32 0.81,-0.563 0.22,-0.25 0.41,-0.547 0.56,-0.893 0.15,-0.345 0.26,-0.727 0.35,-1.146 0.09,-0.419 0.15,-0.871 0.18,-1.356 0.03,-0.493 0.05,-1.003 0.05,-1.532 z"
             id="path7725"
             style="stroke-width:0.5;stroke-miterlimit:4;stroke-dasharray:none" />
          <path
             d="m 2369.07,154.812 c 0,0.14 -0.02,0.258 -0.04,0.353 -0.02,0.096 -0.05,0.173 -0.09,0.232 -0.03,0.058 -0.08,0.102 -0.13,0.132 -0.04,0.022 -0.09,0.033 -0.14,0.033 h -7.45 c -0.06,0 -0.1,-0.011 -0.15,-0.033 -0.04,-0.029 -0.09,-0.074 -0.13,-0.132 -0.04,-0.059 -0.07,-0.136 -0.09,-0.232 -0.02,-0.095 -0.03,-0.213 -0.03,-0.353 0,-0.132 0.01,-0.246 0.03,-0.341 0.02,-0.096 0.05,-0.173 0.08,-0.232 0.04,-0.066 0.08,-0.114 0.12,-0.143 0.05,-0.037 0.11,-0.055 0.17,-0.055 h 2.97 v -10.848 l -2.75,1.643 c -0.14,0.073 -0.26,0.117 -0.35,0.132 -0.08,0.014 -0.14,0 -0.19,-0.044 -0.05,-0.052 -0.09,-0.132 -0.11,-0.243 -0.02,-0.11 -0.03,-0.25 -0.03,-0.419 0,-0.125 0.01,-0.231 0.02,-0.319 0.01,-0.089 0.03,-0.162 0.05,-0.221 0.02,-0.059 0.05,-0.11 0.09,-0.154 0.04,-0.044 0.1,-0.088 0.16,-0.132 l 3.29,-2.106 c 0.03,-0.022 0.06,-0.041 0.11,-0.055 0.04,-0.015 0.1,-0.03 0.16,-0.044 0.07,-0.015 0.15,-0.022 0.24,-0.022 0.08,-0.008 0.19,-0.011 0.33,-0.011 0.17,0 0.32,0.007 0.44,0.022 0.12,0.014 0.21,0.036 0.27,0.066 0.07,0.022 0.11,0.055 0.14,0.099 0.02,0.036 0.03,0.077 0.03,0.121 v 12.535 h 2.58 c 0.06,0 0.11,0.018 0.16,0.055 0.05,0.029 0.1,0.077 0.12,0.143 0.04,0.059 0.07,0.136 0.08,0.232 0.02,0.095 0.03,0.209 0.03,0.341 z"
             id="path7727"
             style="stroke-width:0.5;stroke-miterlimit:4;stroke-dasharray:none" />
        </g>
        <path
           style="display:inline;fill:none;stroke:#000000;stroke-width:0.5;stroke-linecap:butt;stroke-linejoin:miter;stroke-miterlimit:4;stroke-dasharray:none;stroke-dashoffset:0;stroke-opacity:1"
           d="m 2306.05,337.135 h 62.7"
           id="path32719" />
      </g>
    </g>
  </g>
</svg>
