<?xml version="1.0" encoding="UTF-8" standalone="no"?>
<svg
   inkscape:label="LA410-complettTree"
   sodipodi:docname="toy.Wood3mm.01.Engrave.svg"
   inkscape:version="1.1.1 (eb90963e84, 2021-10-02)"
   id="svg1004"
   version="1.1"
   viewBox="0 0 241.50088 265.51427"
   height="265.51428mm"
   width="241.5009mm"
   xmlns:inkscape="http://www.inkscape.org/namespaces/inkscape"
   xmlns:sodipodi="http://sodipodi.sourceforge.net/DTD/sodipodi-0.dtd"
   xmlns="http://www.w3.org/2000/svg"
   xmlns:svg="http://www.w3.org/2000/svg">
  <defs
     id="defs25" />
  <sodipodi:namedview
     id="namedview23"
     pagecolor="#ffffff"
     bordercolor="#666666"
     borderopacity="1.0"
     inkscape:pageshadow="2"
     inkscape:pageopacity="0.0"
     inkscape:pagecheckerboard="0"
     inkscape:document-units="mm" />
  <g
     inkscape:groupmode="layer"
     id="layer19"
     inkscape:label="Wood3mm"
     transform="translate(-2261.6552,-1520.241)"
     style="display:inline">
    <g
       inkscape:groupmode="layer"
       id="layer34"
       inkscape:label="01"
       style="display:inline">
      <g
         id="layer3"
         inkscape:label="Engrave"
         style="display:inline"
         inkscape:groupmode="layer"
         transform="translate(596.5275,1199.7434)">
        <path
           style="fill:#3737cd;fill-opacity:0.917647;stroke-width:0.5;stroke-miterlimit:4;stroke-dasharray:none"
           d="m 1728.6504,541.2585 c -1.3424,0 -1.5975,-1.58775 -0.3489,-2.17121 0.7788,-0.36394 1.214,-1.39879 1.5115,-3.59448 0.2298,-1.69586 0.7049,-3.25875 1.0558,-3.47306 0.351,-0.21432 0.5151,-0.0191 0.3647,0.43388 -0.1503,0.45296 0.024,0.82356 0.3881,0.82356 0.4991,0 0.5367,-0.2798 0.1532,-1.14019 -0.2795,-0.6271 -0.7044,-1.14019 -0.9441,-1.14019 -0.6756,0 -1.7434,2.28927 -1.3818,2.96245 0.1774,0.33035 0.013,0.47237 -0.3663,0.31559 -0.379,-0.15677 -0.6392,0.18566 -0.5783,0.76098 0.078,0.73562 -0.331,0.88949 -1.3779,0.51852 -1.9059,-0.67538 -2.1905,-1.13697 -0.701,-1.13697 0.802,0 1.5637,-0.96037 2.4205,-3.05188 1.2582,-3.07131 1.2643,-3.21406 0.4054,-9.41893 -0.1647,-1.18998 -0.028,-1.78154 0.4115,-1.78154 0.3978,0 0.6636,0.87384 0.6722,2.20911 0.033,5.13806 0.4796,7.34852 1.7836,8.82312 1.5044,1.70119 2.4755,1.93821 2.4755,0.60422 0,-0.49808 -0.2584,-0.62844 -0.5741,-0.28967 -0.3158,0.33876 -0.1091,-0.33676 0.4593,-1.50115 1.3015,-2.66636 1.432,-8.4841 0.2296,-10.23976 -0.7439,-1.08625 -0.7524,-1.04998 -0.1148,0.48702 0.6124,1.47613 0.6124,1.5801 0,0.93578 -1.7648,-1.85682 -1.8901,-2.35162 -1.045,-4.12619 0.7997,-1.67927 0.7933,-1.69063 -0.3329,-0.59252 -1.0345,1.0087 -1.0883,0.98437 -0.5435,-0.24574 0.5379,-1.2143 0.4236,-1.32346 -1.0334,-0.987 -0.9304,0.21485 -1.6382,0.005 -1.6382,-0.48498 0,-1.89493 -1.9009,0.12914 -2.416,2.57256 -0.1962,0.93079 -0.2768,0.82653 -0.3035,-0.3925 -0.036,-1.64254 -0.043,-1.64255 -0.6876,-10e-4 -0.3583,0.91223 -0.816,1.35213 -1.0172,0.97757 -0.5902,-1.09884 0.5544,-3.59801 1.6139,-3.52409 0.5353,0.0374 0.9733,-0.25124 0.9733,-0.64133 0,-1.69245 -2.1801,-0.49181 -3.3704,1.85617 -1.2651,2.49576 -2.5259,3.56104 -1.8677,1.57815 0.1927,-0.58049 0.127,-0.75631 -0.1594,-0.42672 -0.2679,0.3083 -0.3874,1.2709 -0.2654,2.1391 0.1599,1.13868 -0.1401,1.83528 -1.0766,2.49988 -1.9219,1.36392 -4.8795,2.15395 -4.5697,1.22065 0.145,-0.43686 1.1427,-1.0138 2.217,-1.28209 1.0743,-0.26829 2.0271,-0.89984 2.1173,-1.40343 0.09,-0.5036 0.4046,-0.66438 0.6988,-0.35729 0.3747,0.39119 0.3689,0.22462 -0.019,-0.5564 -0.4386,-0.88191 -0.3121,-1.65084 0.6056,-3.68141 1.3359,-2.95586 1.2008,-5.91261 -0.3979,-8.70942 -0.6807,-1.19075 -0.7935,-1.25383 -0.3714,-0.20768 0.3334,0.82643 0.6284,3.07564 0.6555,4.99824 0.041,2.9241 -0.1949,3.90181 -1.4441,5.97988 -1.9431,3.23241 -3.8341,3.22714 -7.6821,-0.0214 -2.0451,-1.72642 -3.0671,-2.20752 -3.2863,-1.54697 -0.1751,0.52728 -0.065,1.11604 0.2451,1.30834 0.4208,0.26117 0.3806,0.86915 -0.1591,2.40252 -0.6962,1.97844 -0.6679,2.11476 0.781,3.75955 0.8269,0.93866 1.9685,1.7081 2.5369,1.70986 0.5684,0.002 1.0334,0.36125 1.0334,0.79886 0,0.43762 -0.465,0.97816 -1.0334,1.2012 -0.5716,0.22429 -0.3308,0.34641 0.5387,0.27326 0.8828,-0.0743 1.6642,-0.6532 1.782,-1.32023 0.1272,-0.72012 0.01,-0.95282 -0.3091,-0.59089 -0.7167,0.82472 -0.6504,-0.55247 0.1213,-2.51727 0.5942,-1.51305 0.6349,-1.43482 0.5667,1.09036 -0.093,3.43206 -0.7066,4.57638 -2.506,4.67163 -0.8039,0.0426 -1.304,0.44018 -1.1473,0.91222 0.1528,0.46023 -0.01,0.64255 -0.3603,0.40516 -0.3509,-0.23738 -0.6006,-0.78464 -0.555,-1.21613 0.046,-0.43148 -0.3393,-0.84375 -0.8556,-0.91616 -1.0971,-0.15387 -1.1252,-0.2173 1.1812,2.67057 2.4177,3.02731 1.4418,2.85869 -1.1225,-0.19393 -3.3287,-3.96271 -6.8648,-10.35241 -6.8619,-12.39961 0.01,-4.94369 0.9141,-7.80356 3.1116,-9.80886 15.8765,-14.48748 34.283,-23.76917 50.3937,-25.41154 6.4662,-0.65919 6.339,-0.54399 13.5287,-12.2513 2.6412,-4.30069 5.0514,-7.81943 5.3561,-7.81943 0.6096,0 0.5846,2.12806 -0.037,3.18203 -0.2162,0.36636 -0.2317,0.1467 -0.034,-0.48814 0.598,-1.92418 -1.1964,0.22357 -2.5062,2.99979 l -1.1466,2.43016 1.4162,-2.37823 c 0.836,-1.40387 1.7065,-2.17086 2.1247,-1.87208 32.0887,-4.97797 3.4771,-2.1395 6.494,3.31971 1.1467,2.07497 3.2623,5.22769 4.7013,7.00604 1.439,1.77836 2.7127,3.9193 2.8304,4.75767 0.2307,1.64231 0.4007,1.7224 7.9209,3.73162 7.6104,2.03331 26.3044,8.74955 35.5954,12.78847 3.27,1.42147 6.4295,2.20604 8.9563,2.22397 3.5924,0.0255 4.4825,-0.35504 11.1501,-4.76659 3.9853,-2.63685 9.3591,-5.91961 11.9417,-7.29501 2.5826,-1.3754 5.7037,-3.12246 6.9359,-3.88235 2.0207,-1.24616 2.31,-1.25205 2.9502,-0.0601 0.6402,1.19197 0.5816,1.4123 -0.5978,2.24715 -0.7192,0.50908 -1.9434,0.69395 -2.7205,0.41083 -1.0118,-0.36862 -1.2241,-0.27393 -0.7479,0.33349 0.5253,0.67015 0.3807,0.95686 -0.689,1.36537 -0.7446,0.2844 -2.4146,1.08582 -3.711,1.78092 -1.2964,0.69511 -2.7,1.01887 -3.119,0.71947 -0.4191,-0.29941 -0.729,-0.20855 -0.6888,0.20189 0.173,1.76433 -0.082,2.16631 -0.735,1.15759 -0.5932,-0.91654 -0.6527,-0.83498 -0.3917,0.53665 0.2521,1.3254 0.196,1.42444 -0.311,0.54853 -0.8192,-1.41517 -1.3849,-1.36035 -1.0829,0.10494 0.1331,0.64562 1.2633,2.2089 2.5117,3.47393 2.4367,2.46926 2.972,3.50324 1.1435,2.20889 -0.9466,-0.67008 -1.0804,-0.57482 -0.8388,0.5972 0.2207,1.07087 0.097,1.25853 -0.5324,0.80871 -0.6125,-0.4376 -0.752,-0.25633 -0.5514,0.71676 0.2374,1.15186 0.097,1.14702 -1.2119,-0.0418 l -1.4804,-1.34427 1.1482,1.74274 c 1.4804,2.24684 0.7171,2.26039 -1.6143,0.0286 -1.5011,-1.4369 -1.6466,-1.47536 -0.809,-0.21378 1.191,1.79385 0.781,4.08988 -0.5593,3.13225 -0.5516,-0.39405 -0.7361,-0.28164 -0.5346,0.32557 0.1694,0.51009 0.048,1.14915 -0.2691,1.42014 -0.3173,0.271 -0.1119,0.27793 0.4564,0.0154 0.5717,-0.26403 1.0335,-0.0814 1.0335,0.40863 0,0.48726 0.3616,0.65907 0.8037,0.3818 0.5006,-0.31399 0.3247,0.30233 -0.4663,1.63398 -1.1745,1.9774 -1.203,2.17074 -0.3788,2.57204 0.61,0.29701 0.8176,0.0768 0.6579,-0.69788 -0.157,-0.76189 0.518,-1.54713 2.0652,-2.40259 1.2641,-0.69894 2.6977,-1.66879 3.1859,-2.15522 1.1381,-1.13403 4.882,-6.94393 4.4747,-6.94393 -0.1696,0 0.3057,-0.96203 1.0563,-2.13785 2.6521,-4.15487 2.0856,-2.06221 -1.018,3.76096 -1.894,3.55347 -3.0125,6.29489 -2.8133,6.89501 0.1819,0.54791 -0.044,1.7678 -0.5028,2.71086 m -0.1047,4.16355 0.7325,2.77921 c 0.403,1.52857 0.9555,3.06193 1.2279,3.40747 0.2964,0.37605 0.1594,0.63352 -0.3413,0.64136 -0.4601,0.007 -1.1466,-0.56413 -1.5255,-1.26962 -0.3789,-0.70549 -0.5456,-1.28271 -0.3703,-1.28271 0.1753,0 0.035,-0.65109 -0.3116,-1.44686 -0.4284,-0.98313 -0.4464,-1.24103 -0.056,-0.80468 0.8367,0.93598 0.7022,0.089 -0.203,-1.2781 -0.4274,-0.6455 -0.6353,-0.73294 -0.462,-0.19432 0.1734,0.53863 -0.011,1.21205 -0.4087,1.4965 -0.9844,0.70333 -1.108,0.66 -1.108,-0.38843 0,-0.49809 0.2386,-0.63104 0.5303,-0.29544 0.3311,0.38107 0.4054,0.23425 0.1979,-0.39106 -0.1828,-0.55067 -0.5172,-0.78849 -0.7432,-0.5285 -0.2259,0.25999 -0.8561,-0.35638 -1.4003,-1.3697 -0.7828,-1.45734 -0.861,-1.99032 -0.3746,-2.55012 0.3383,-0.38924 0.4906,-0.93936 0.3386,-1.22249 -0.1521,-0.28314 -0.6438,0.16904 -1.0927,1.00483 -0.4489,0.83579 -1.557,1.60785 -2.4624,1.7157 -1.2178,0.14505 -1.4679,-0.024 -0.9609,-0.64974 0.498,-0.61453 0.34,-0.69644 -0.5777,-0.29956 -1.627,0.70368 -1.6377,-0.27138 -0.016,-1.4197 1.952,-1.38176 0.439,-2.5197 -3.1625,-2.37849 -2.6214,0.10278 -3.0971,0.3608 -3.2977,1.78867 -0.1681,1.19687 -0.486,1.51986 -1.1245,1.14255 -0.4896,-0.28932 -1.4486,-0.13074 -2.1311,0.35238 -1.2713,0.89993 -2.5547,-0.34801 -2.5547,-2.48405 0,-0.8734 -0.5222,-1.16451 -1.26,-0.70244 -0.4793,0.30022 -0.1328,2.65236 0.5021,3.40747 0.3395,0.40386 0.2411,0.63294 -0.2756,0.64136 -0.442,0.007 -0.8037,-0.58684 -0.8037,-1.32009 0,-0.73325 -0.2082,-1.09367 -0.4626,-0.80094 -0.2544,0.29273 -0.5885,-0.0792 -0.7425,-0.8265 -0.2253,-1.09294 -0.4125,-1.15417 -0.9569,-0.31297 -0.5904,0.9123 -0.5723,1.18791 0.1415,2.15967 0.45,0.61266 0.604,1.11392 0.3423,1.11392 -0.5037,0 -1.9962,-2.74761 -1.9962,-3.67484 0,-0.30095 0.31,-0.32569 0.689,-0.055 0.3789,0.27072 0.6889,0.0662 0.6889,-0.45441 0,-1.27117 -1.0569,-1.2022 -1.7644,0.11515 -0.4542,0.8456 -0.647,0.83089 -0.9468,-0.0723 -0.2779,-0.83733 -0.4552,-0.61171 -0.6773,0.86229 -0.2803,1.85914 -0.3434,1.8935 -0.9182,0.49986 -0.3394,-0.82307 -0.9439,-1.4965 -1.3432,-1.4965 -0.3993,0 -0.8674,-0.42589 -1.0402,-0.94643 -0.219,-0.65977 -0.4338,-0.59502 -0.709,0.21378 -0.265,0.77854 -0.3972,0.82473 -0.4019,0.1404 0,-0.5609 -0.4204,-0.87161 -0.9256,-0.69045 -0.5052,0.18115 -0.9218,-0.12955 -0.9256,-0.69046 0,-0.61468 -0.1839,-0.51024 -0.4523,0.26289 -0.3435,0.98976 -0.4468,1.01769 -0.4523,0.12229 0,-0.70838 -0.292,-0.9568 -0.7386,-0.63771 -2.3714,1.69425 -2.898,1.5728 -3.2098,-0.74027 l -0.307,-2.27755 -0.5168,1.91287 c -0.7408,2.74249 -1.6649,3.04765 -1.6649,0.5498 0,-1.93064 -0.1605,-2.06524 -2.4113,-2.02319 -1.3263,0.0248 -2.6864,0.54214 -3.0225,1.14969 -0.8297,1.49976 -1.4462,0.60952 -1.5014,-2.16832 l -0.046,-2.30117 -0.3678,2.13785 c -0.2022,1.17582 -0.3915,1.56063 -0.4205,0.85514 -0.047,-1.14018 -0.1023,-1.14018 -0.4981,0 -0.3805,1.09621 -0.4462,1.06512 -0.4522,-0.21378 0,-0.82308 -0.2654,-1.50239 -0.5812,-1.50959 -0.3888,-0.009 -0.356,-0.26989 0.1015,-0.80865 0.3716,-0.43755 0.5173,-1.09051 0.3236,-1.45103 -0.1936,-0.36051 -0.7532,-0.18903 -1.2435,0.38108 -1.1571,1.34542 -1.25,1.31768 -1.5401,-0.45995 -0.1343,-0.82307 -0.1869,-0.26617 -0.1168,1.23755 0.07,1.50373 -0.042,2.53925 -0.2487,2.30117 -0.2069,-0.23808 -0.393,0.0709 -0.4135,0.68652 -0.021,0.61567 -0.3072,-0.0207 -0.6371,-1.41412 -0.3298,-1.39343 -0.4976,-3.02888 -0.3728,-3.63434 0.127,-0.61626 -0.098,-1.10084 -0.5112,-1.10084 -0.406,0 -0.7381,0.42598 -0.7381,0.94663 0,0.52065 -0.31,0.72513 -0.6889,0.45441 -0.495,-0.35361 -0.689,0.088 -0.689,1.56832 0,1.1333 -0.1768,2.26402 -0.3929,2.51271 -0.48,0.55225 -0.097,-3.83357 0.4473,-5.12576 0.2424,-0.57546 0.1321,-0.92641 -0.2913,-0.92641 -0.4422,0 -0.7029,0.92616 -0.7421,2.63669 l -0.061,2.63668 -0.2841,-2.92502 c -0.1562,-1.60876 -0.5711,-3.10173 -0.922,-3.31771 -0.387,-0.23817 -0.5119,-0.0125 -0.3174,0.57338 0.1939,0.58392 -0.013,0.96608 -0.5219,0.96608 -0.7044,0 -0.8407,0.68813 -0.8309,4.19382 0.01,2.3066 -0.1433,4.01555 -0.3327,3.79767 -0.1895,-0.21789 -0.3445,-1.17056 -0.3445,-2.11706 0,-0.94649 -0.2916,-2.26386 -0.648,-2.92748 -0.3565,-0.66362 -0.5452,-1.93955 -0.4193,-2.8354 0.3893,-2.77206 -0.7898,-3.086 -1.8954,-0.50462 -1.066,2.4893 -2.5488,3.53981 -2.5488,1.80581 0,-0.55074 -0.435,-1.50713 -0.9667,-2.12531 -0.5316,-0.61819 -0.8359,-0.73006 -0.6761,-0.24861 0.1599,0.48145 -0.1802,1.33709 -0.7557,1.90143 -0.5754,0.56434 -1.1981,1.44947 -1.3837,1.96697 -0.207,0.57736 -0.3401,0.35232 -0.3445,-0.58242 0,-0.83784 -0.317,-1.74484 -0.6959,-2.01556 -0.379,-0.27072 -0.689,-1.00556 -0.689,-1.63298 0,-0.62741 -0.2288,-1.40406 -0.5085,-1.72588 -0.339,-0.39012 -0.4094,-0.004 -0.2111,1.15955 0.2123,1.24498 9e-4,2.13138 -0.7379,3.09481 -1.1524,1.50287 -1.5987,0.80358 -1.9098,-2.99244 -0.089,-1.08357 -0.4339,-2.13916 -0.7668,-2.34575 -0.4079,-0.25317 -0.5082,0.0951 -0.3076,1.06818 0.1758,0.85302 0.1118,1.23003 -0.1565,0.92136 -0.2497,-0.28735 -0.4606,0.17368 -0.4686,1.02451 -0.01,0.85083 -0.3181,2.29394 -0.689,3.20691 -0.7991,1.96705 -0.8518,1.45825 -0.1864,-1.80008 0.2683,-1.31412 0.3443,-2.12185 0.1687,-1.79495 -0.1756,0.32691 -0.7288,-0.37487 -1.2292,-1.55951 -0.5005,-1.18464 -1.0193,-1.95051 -1.1528,-1.70195 -0.1335,0.24857 0.023,1.04776 0.3475,1.77598 0.3246,0.72823 0.4574,1.57129 0.2951,1.87347 -0.1623,0.30219 -0.2951,0.10048 -0.2951,-0.44823 0,-0.54872 -0.31,-0.99767 -0.6889,-0.99767 -0.379,0 -0.689,-0.41303 -0.689,-0.91784 0,-0.50481 -0.3617,-0.78815 -0.8038,-0.62964 -1.2783,0.45837 -0.9804,2.84167 0.3445,2.75565 0.896,-0.0582 1.163,0.37132 1.2155,1.95531 0.056,1.69557 -0.044,1.85773 -0.6091,0.98468 -0.539,-0.83294 -0.7611,-0.79587 -1.0937,0.18254 -0.3579,1.05313 -0.4192,1.04531 -0.4313,-0.055 -0.013,-1.14019 -0.063,-1.14019 -0.4593,0 -0.3712,1.06949 -0.4554,0.99841 -0.5066,-0.42757 -0.034,-0.94066 -0.03,-2.03874 0.01,-2.44019 0.2565,-2.6659 -1.5314,-5.10028 -2.258,-3.07435 -0.5825,1.62419 -4.1336,1.21919 -4.1336,-0.47145 0,-2.47703 -0.7793,-1.25367 -0.818,1.28421 -0.021,1.4118 -0.179,3.38671 -0.3498,4.38869 -0.2492,1.4621 -0.3992,1.58843 -0.7595,0.63986 -0.3386,-0.89145 -0.3982,-0.74409 -0.2424,0.59963 0.2327,2.00775 -0.8524,2.52595 -1.25,0.59694 -0.1343,-0.65153 -0.062,-0.97486 0.1609,-0.71852 0.6187,0.71202 1.0703,-3.80793 0.5067,-5.07231 -0.2724,-0.611 -0.4363,-1.63242 -0.3643,-2.26984 0.1015,-0.89799 -0.6964,-1.16215 -3.5434,-1.17319 -4.7921,-0.0186 -4.8758,0.0291 -6.0857,3.46713 -1.0696,3.03956 -1.2962,4.21911 -0.6725,3.5015 0.1985,-0.22839 0.3609,0.32062 0.3609,1.22003 0,1.03115 -0.161,1.33559 -0.4357,0.82406 -0.2748,-0.51152 -0.6626,0.003 -1.0499,1.39268 -0.7822,2.80724 -0.7714,3.30363 0.1077,4.94031 0.7443,1.38589 0.3587,1.73392 -0.9139,0.82473 -0.8669,-0.61943 -0.9282,-2.3308 -0.1748,-4.88179 0.717,-2.42761 0.8436,-7.54057 0.2226,-8.98929 -0.3911,-0.91231 -0.6484,-0.74425 -1.3093,0.85514 -0.4523,1.09483 -0.827,1.55221 -0.8326,1.01641 -0.01,-0.53581 0.3794,-1.87017 0.8557,-2.96526 0.6416,-1.47527 1.0283,-1.76294 1.4927,-1.11045 0.79,1.10994 2.2455,1.05536 2.1588,-0.081 -0.036,-0.47032 -0.4696,-0.72762 -0.9637,-0.57176 -0.5078,0.16016 -0.7758,-0.0859 -0.6165,-0.56593 0.167,-0.50299 2.9669,-0.82533 6.8669,-0.79053 3.6217,0.0323 6.8334,-0.22717 7.1371,-0.57663 0.3037,-0.34946 0.8365,-0.1961 1.184,0.3408 0.4874,0.75312 0.7313,0.64481 1.0676,-0.47401 0.4991,-1.66034 1.4754,-0.92527 1.4754,1.11079 0,1.21349 0.096,1.2021 0.871,-0.10275 0.6498,-1.09482 0.9204,-1.19139 1.0656,-0.38024 0.1854,1.03562 2.3406,1.51672 8.3976,1.87458 1.9107,0.11289 2.2738,0.38707 2.1615,1.63218 -0.074,0.82307 0.081,1.4965 0.3445,1.4965 0.2637,-10e-6 0.4794,-0.57723 0.4794,-1.28272 0,-2.14092 1.9545,-1.4596 3.0665,1.06893 l 1.0341,2.35164 0.024,-2.13786 c 0.017,-1.53855 0.1348,-1.81108 0.4202,-0.97216 0.3349,0.98415 0.4294,0.98415 0.6068,0 0.1771,-0.98253 0.3966,-0.98077 1.3968,0.0112 0.6527,0.64729 1.0858,1.6666 0.9625,2.26514 -0.3081,1.49468 0.7189,2.52909 1.348,1.35776 0.3754,-0.69878 0.3647,-0.95166 -0.04,-0.95166 -0.3031,0 -0.5511,-0.76962 -0.5511,-1.71028 0,-1.14018 -0.3062,-1.71028 -0.9186,-1.71028 -0.5052,0 -0.9186,-0.38481 -0.9186,-0.85514 0,-1.14143 0.5287,-1.07784 2.2514,0.27081 0.791,0.61927 1.297,1.3889 1.1244,1.71028 -0.1726,0.32138 -0.073,0.58433 0.222,0.58433 0.2947,0 0.5359,-0.32068 0.5359,-0.71261 0,-0.39194 0.2985,-0.71262 0.6634,-0.71262 0.3649,0 0.6504,0.22447 0.6345,0.49883 -0.1141,1.97199 0.182,3.20678 0.7689,3.20678 0.8292,0 0.8797,-0.72797 0.1454,-2.0951 -0.9497,-1.76821 -0.078,-2.05162 2.2872,-0.74377 1.2615,0.69748 3.452,1.53762 4.8679,1.86699 1.4159,0.32937 2.5743,0.98644 2.5743,1.46017 0,0.55255 0.2114,0.53477 0.5896,-0.0496 0.3712,-0.57356 0.8389,-0.61957 1.263,-0.12423 0.3705,0.43269 1.0353,0.57715 1.4773,0.32103 0.5252,-0.30428 0.8038,-0.0104 0.8038,0.84782 0,0.85303 0.2578,1.12933 0.7353,0.78816 0.4044,-0.28894 0.9054,-0.013 1.1132,0.61321 0.3117,0.93897 0.5049,0.94245 1.1019,0.0199 0.5166,-0.79821 0.8917,-0.85944 1.3096,-0.21378 0.3221,0.49768 1.6792,1.17497 3.0158,1.5051 1.3366,0.33012 2.7217,1.14289 3.0779,1.80615 0.4631,0.86217 0.887,0.96752 1.4871,0.36956 0.5141,-0.51234 1.0967,-0.53326 1.5035,-0.054 0.996,1.17316 3.0076,0.96614 3.6036,-0.37083 0.4193,-0.94068 0.2912,-1.26285 -0.6327,-1.5917 -0.6371,-0.22677 -1.1584,-0.071 -1.1584,0.34621 0,0.41719 -0.6411,0.14134 -1.4245,-0.61299 -0.7835,-0.75433 -2.1786,-1.43763 -3.1003,-1.51845 -0.9216,-0.0808 -1.7791,-0.35889 -1.9054,-0.61792 -0.4064,-0.83353 -5.12,-2.54501 -5.5731,-2.0236 -0.2409,0.27718 -0.7134,0.0784 -1.05,-0.4418 -0.3366,-0.52017 -1.7523,-1.03431 -3.146,-1.14255 -1.3951,-0.10835 -2.4189,-0.55033 -2.2779,-0.98346 0.1408,-0.43268 -0.081,-0.54569 -0.4935,-0.25114 -0.4123,0.29455 -0.8779,0.14913 -1.0347,-0.32316 -0.1567,-0.4723 -0.6284,-0.78116 -1.0481,-0.68637 -0.4197,0.0948 -1.0731,-0.0431 -1.452,-0.30638 -1.2013,-0.83469 -7.4624,-2.42298 -7.7129,-1.95656 -0.1322,0.24602 -0.466,0.11699 -0.7418,-0.28674 -0.2759,-0.40373 -2.5684,-1.18721 -5.0945,-1.74107 -2.5262,-0.55386 -5.1976,-1.18609 -5.9365,-1.40495 -0.7389,-0.21886 -6.5092,-0.64827 -12.8229,-0.95424 -10.6133,-0.51435 -11.4571,-0.44842 -11.1846,0.87379 0.274,1.32971 0.1936,1.33272 -1.1462,0.0428 -1.2898,-1.24189 -2.2632,-1.28105 -9.2883,-0.37366 -6.4247,0.82983 -15.0164,3.10084 -12.785,3.37939 0.3158,0.0394 0.5741,0.47919 0.5741,0.97727 0,0.49809 -0.1649,0.71589 -0.3664,0.484 -0.2015,-0.23189 -0.6665,-0.031 -1.0334,0.44631 -0.4669,0.60758 0.1377,0.71393 2.0157,0.35455 2.3998,-0.45926 2.6091,-0.37639 1.9848,0.78593 -0.3838,0.71462 -1.3844,1.34484 -2.2234,1.40049 -1.764,0.11699 -4.6558,1.35726 -3.5158,1.50793 0.421,0.0556 0.8741,0.58219 1.0068,1.1701 0.1727,0.76548 0.3857,0.6441 0.75,-0.42757 0.2798,-0.82308 0.8602,-1.46612 1.2897,-1.42899 0.4785,0.0414 0.5586,0.23454 0.2068,0.49883 -0.6732,0.50578 -0.7467,3.58729 -0.1289,5.40643 0.3059,0.90058 0.1509,1.8248 -0.5331,3.18042 -0.5303,1.05101 -1.1408,1.70767 -1.3567,1.45925 -0.5542,-0.63772 -0.4893,0.83737 0.084,1.9044 0.3092,0.57566 0.3267,1.61971 0.05,2.97503 -0.4706,2.30425 -1.9453,2.94304 -3.4145,1.47905 -0.8384,-0.83539 -0.8817,-0.69156 -0.5931,1.96694 0.1712,1.57753 0.419,5.36952 0.5507,8.42665 0.2115,4.91157 0.089,6.10575 -1.056,10.26169 -1.0218,3.71009 -5.2668,6.64875 -3.2474,6.39143 l 115.7267,-14.74625 m -139.0361,2.36868 c -0.1561,-0.47033 -0.4906,-0.85514 -0.7432,-0.85514 -0.2526,0 -0.3315,0.38481 -0.1754,0.85514 0.1561,0.47032 0.4905,0.85514 0.7432,0.85514 0.2526,0 0.3315,-0.38482 0.1754,-0.85514 z m 26.7137,-3.63435 c -0.1275,-0.58791 -0.2317,-0.10689 -0.2317,1.06892 0,1.17582 0.1042,1.65684 0.2317,1.06893 0.1274,-0.58791 0.1274,-1.54994 0,-2.13785 z m -29.6389,-0.0787 c -0.2814,-0.63119 -0.405,-1.34598 -0.2748,-1.58843 0.1302,-0.24245 -0.1299,-0.97667 -0.5781,-1.6316 -0.741,-1.08278 -0.7577,-1.05506 -0.1845,0.30571 0.3467,0.82308 0.4764,1.4965 0.2882,1.4965 -0.1881,0 -0.085,0.57722 0.2297,1.28271 0.3144,0.70549 0.6751,1.28271 0.8014,1.28271 0.1263,0 -6e-4,-0.51642 -0.2819,-1.1476 z m 0.1753,-6.22443 c -0.4032,-1.14555 -0.6177,-2.43018 -0.4768,-2.85472 0.1409,-0.42455 0.061,-0.99717 -0.1788,-1.27251 -0.6775,-0.7796 -1.0381,0.99759 -0.5476,2.69929 0.2427,0.8422 0.5583,2.22909 0.7012,3.08197 0.143,0.85289 0.4794,1.29827 0.7475,0.98974 0.3255,-0.37458 0.2439,-1.25295 -0.2455,-2.64377 z m 11.5818,1.72454 c -0.1527,-0.28415 -0.5488,-0.31454 -0.8804,-0.0675 -0.3664,0.27298 -0.2575,0.47561 0.2775,0.51665 0.4842,0.0371 0.7555,-0.16499 0.6029,-0.44914 z m -2.7443,-1.43801 c 0.419,-0.0296 0.3877,-0.42812 -0.1149,-1.46198 -1.0366,-2.1326 -0.8875,-6.58887 0.2586,-7.73088 0.7385,-0.73589 1.1976,-0.64322 2.0668,0.41719 1.3568,1.65515 1.4338,4.15536 0.1989,6.45462 -1.1399,2.12233 -1.1497,2.56543 -0.056,2.56543 1.0584,0 2.1456,-2.1743 1.4737,-2.9474 -0.3097,-0.35636 -0.297,-1.21775 0.038,-2.58702 0.7291,-2.97922 0.2032,-4.55168 -1.7506,-5.2341 -1.5714,-0.54886 -1.8343,-0.34892 -3.0209,2.29743 -0.7148,1.59423 -1.0879,3.03004 -0.8291,3.19069 0.2589,0.16064 0.4675,0.93343 0.4636,1.71731 -0.01,1.14307 -0.086,1.19185 -0.408,0.2464 -0.2734,-0.80364 -0.3823,-0.32328 -0.3421,1.50923 0.045,2.04448 0.2251,2.55825 0.7526,2.1459 0.3814,-0.29818 0.9527,-0.56045 1.2695,-0.58282 z m -1.4427,-1.62238 c 0.1326,-0.39961 0.4336,-0.50517 0.6687,-0.23458 0.601,0.69149 0.5333,0.96115 -0.2412,0.96115 -0.3678,0 -0.5602,-0.32696 -0.4275,-0.72657 z m -1.501,-2.01826 c -0.1496,-0.72577 -0.3705,-1.13619 -0.4909,-0.91203 -0.1204,0.22415 -0.083,0.81797 0.084,1.31959 0.4529,1.36434 0.7176,1.09929 0.407,-0.40756 z m 150.4787,-1.98615 1.0686,-2.87817 -1.1025,1.06757 c -2.001,1.93747 -2.3155,2.65813 -1.7317,3.96776 0.2917,0.65445 0.5678,1.08441 0.6137,0.95546 0.046,-0.12894 0.5641,-1.52962 1.1519,-3.11262 z m 3.112,2.6753 c -1.3262,0.17274 -0.2411,0.31407 2.4113,0.31407 5.8818,-0.067 0.4315,-0.66232 -2.4113,-0.31407 z m -155.1594,-4.25978 c 0.018,-0.57315 -0.2471,-0.84248 -0.5885,-0.59851 -0.3974,0.2839 -0.5364,1.26606 -0.3863,2.72847 0.2118,2.06229 0.2691,2.1206 0.5886,0.59851 0.1947,-0.92751 0.3685,-2.15532 0.3862,-2.72847 z m 22.9971,2.7019 c 0,-0.73324 -0.19,-1.11452 -0.4223,-0.84728 -0.2322,0.26725 -0.7342,-0.0949 -1.1154,-0.80467 -0.8401,-1.56409 -2.4435,-1.69474 -2.7202,-0.22165 -0.1472,0.7835 -0.4431,0.66933 -1.1079,-0.42757 -0.4989,-0.82307 -1.0458,-1.49649 -1.2153,-1.49649 -0.1696,0 -0.3052,0.67342 -0.3013,1.49649 0,1.09093 0.1076,1.20133 0.3783,0.40736 0.2828,-0.82963 0.5773,-0.66527 1.2359,0.6898 0.5791,1.19132 1.2002,1.62217 1.8803,1.30435 0.5586,-0.26102 1.4977,-0.1148 2.0869,0.32493 0.5892,0.43973 1.123,0.8239 1.1862,0.85371 0.063,0.0298 0.1148,-0.54573 0.1148,-1.27898 z m -7.609,-1.3141 c 0.6283,-1.09167 0.1348,-1.63083 -0.9911,-1.08267 -0.5399,0.26286 -1.0979,1.04239 -1.2401,1.73229 -0.1984,0.96263 -0.019,1.11956 0.772,0.67476 0.5668,-0.31878 1.2234,-0.91475 1.4592,-1.32438 z m 12.368,-2.05599 c 0.3103,-1.50542 -0.092,-3.84814 -0.6601,-3.84814 -0.2176,0 -0.2637,-0.64034 -0.1024,-1.42299 0.1865,-0.90522 0.112,-1.21443 -0.2049,-0.84981 -0.2739,0.31525 -0.6028,0.0898 -0.7307,-0.50108 -0.1279,-0.59084 -0.2489,-0.23113 -0.2689,0.79935 -0.02,1.03048 0.1845,2.12764 0.4544,2.43814 0.2698,0.31049 0.3725,1.13755 0.2281,1.83791 -0.2877,1.39589 0.035,2.82933 0.6371,2.82933 0.2107,0 0.502,-0.57722 0.6474,-1.28271 z m 106.3458,-1.65103 c -0.1208,-0.22497 -0.4933,0.43929 -0.8278,1.47613 -0.5809,1.80119 -0.5711,1.81942 0.2197,0.40904 0.4553,-0.81187 0.7289,-1.6602 0.6081,-1.88517 z m -119.4104,0.0636 c -0.5166,-0.82266 -3.1768,-1.26565 -3.1768,-0.52903 0,0.45857 0.7578,0.83377 1.6841,0.83377 0.9262,0 1.598,-0.13714 1.4927,-0.30474 z m 3.1513,-0.68595 c -0.7414,-0.87595 -2.0741,-0.9203 -2.3514,-0.0782 -0.1161,0.35274 0.4975,0.67067 1.3636,0.7065 0.9705,0.0401 1.3495,-0.20091 0.9878,-0.62826 z m 3.652,0.47404 c -0.1526,-0.28416 -0.5487,-0.31454 -0.8803,-0.0675 -0.3664,0.27298 -0.2576,0.47561 0.2775,0.51664 0.4842,0.0371 0.7554,-0.16498 0.6028,-0.44913 z m 115.6372,-0.33849 c 0.1562,-0.47033 -0.051,-0.85514 -0.4592,-0.85514 -0.4088,0 -0.6155,0.38481 -0.4593,0.85514 0.1561,0.47032 0.3628,0.85514 0.4593,0.85514 0.096,0 0.3031,-0.38482 0.4592,-0.85514 z m -134.5768,-0.84535 c 0.1609,-0.48475 -0.024,-0.62811 -0.4322,-0.33608 -0.7957,0.56849 -0.9413,1.18143 -0.2806,1.18143 0.2377,0 0.5585,-0.38041 0.7128,-0.84535 z m 23.0445,-1.23021 c -0.2894,-1.14155 -0.5988,-1.94018 -0.6877,-1.77473 -0.2851,0.53075 0.4293,3.85029 0.8286,3.85029 0.2118,0 0.1484,-0.934 -0.1409,-2.07556 z m 105.2559,0.25973 c -0.4439,-0.52389 -0.3385,-0.72702 0.3822,-0.7365 0.5473,-0.007 1.0999,0.46792 1.2281,1.05583 0.1706,0.78307 0.3344,0.80953 0.6123,0.0989 0.2087,-0.5335 0.7928,-1.16228 1.2981,-1.39729 0.5052,-0.23502 -1.0449,-0.4772 -3.4447,-0.53818 -2.3999,-0.061 -4.7767,-0.24279 -5.2819,-0.40403 -0.5053,-0.16124 -0.6603,-0.12777 -0.3445,0.0744 0.3158,0.20215 0.5741,0.71451 0.5741,1.1386 0,0.42408 0.5929,0.5503 1.3174,0.28048 0.8486,-0.31598 1.5385,-0.0501 1.9385,0.74716 0.3415,0.68075 1.0063,1.05015 1.4772,0.82089 0.6641,-0.32338 0.7187,-0.57907 0.2432,-1.14026 z m 12.9362,0.44162 c 0,-0.92281 0.2477,-1.19727 0.7539,-0.83556 0.6154,0.43965 0.6524,0.31077 0.2012,-0.70129 -0.3839,-0.86138 -1.0566,-1.08769 -2.2032,-0.74126 -1.1967,0.3616 -1.559,0.22309 -1.3177,-0.50387 0.1831,-0.55141 0.5252,-0.78116 0.7604,-0.51057 0.2351,0.27059 0.4275,0.0845 0.4275,-0.41362 0,-0.49809 -0.31,-0.90561 -0.6889,-0.90561 -0.3789,0 -0.6889,0.40752 -0.6889,0.90561 0,0.49808 -0.2584,0.61662 -0.5742,0.26342 -0.334,-0.37361 -0.2859,0.0299 0.1149,0.96478 0.617,1.43923 0.613,1.55414 -0.038,1.10082 -0.4473,-0.31133 -0.7273,-0.0438 -0.7273,0.69503 0,1.45558 0.086,1.47118 1.1702,0.21109 0.9511,-1.10592 2.5684,-0.35642 2.1235,0.98406 -0.1573,0.47365 -0.067,0.86118 0.2005,0.86118 0.2675,0 0.4864,-0.61839 0.4864,-1.37421 z m -125.068,-0.718 c 3.7204,-0.10781 4.7405,-0.92726 2.2411,-1.80025 -0.9907,-0.34603 -2.7331,-0.0827 -4.2954,0.6492 -1.4458,0.67726 -3.1454,0.97439 -3.7769,0.66028 -2.3188,-1.15331 -4.8133,-1.82773 -4.4856,-1.21274 0.6572,1.23335 4.7324,2.85267 5.8635,2.32994 0.6315,-0.29186 2.6355,-0.57375 4.4533,-0.62643 z m 105.6523,-1.32836 c -0.6423,-0.94065 -1.2902,-1.71028 -1.4398,-1.71028 -0.1497,0 -0.2721,0.76963 -0.2721,1.71028 0,1.34657 0.3062,1.71028 1.4399,1.71028 h 1.4398 z m 14.3979,0.61998 c -0.019,-0.34099 -0.034,-1.21991 -0.034,-1.95316 0,-0.73324 -0.21,-1.09147 -0.4668,-0.79605 -0.2567,0.29542 -0.3663,0.83976 -0.2435,1.20965 0.1228,0.36989 -0.3389,0.50693 -1.0259,0.30454 l -1.2492,-0.36798 1.1482,1.25788 c 1.1824,1.29525 1.9321,1.4335 1.8717,0.34512 z m -131.7403,-0.33296 c -0.3173,-0.2382 -0.4616,-0.78063 -0.3206,-1.2054 0.141,-0.42477 -0.082,-0.53076 -0.4949,-0.23553 -0.6013,0.4296 -0.629,0.68115 -0.1387,1.25982 0.3369,0.39768 0.8193,0.69856 1.0719,0.66863 0.2526,-0.0299 0.1997,-0.24931 -0.1177,-0.48752 z m 17.1305,-1.08526 c -0.1665,-0.50162 -0.6522,-0.8998 -1.0794,-0.88484 -0.6819,0.0239 -0.6686,0.17931 0.1084,1.27387 0.9439,1.32954 1.4713,1.11822 0.971,-0.38903 z m 6.1746,1.01203 c 0,-0.35275 -0.1818,-1.15464 -0.3954,-1.78198 -0.3165,-0.92973 -0.4368,-0.90567 -0.6502,0.13018 -0.1441,0.69894 -0.1384,1.50083 0.013,1.78198 0.3862,0.71911 1.0414,0.63654 1.033,-0.13018 z m 75.3315,-1.06893 c 0,-0.94065 -0.2067,-1.71028 -0.4593,-1.71028 -0.2526,0 -0.4593,0.76963 -0.4593,1.71028 0,0.94066 0.2067,1.71028 0.4593,1.71028 0.2526,0 0.4593,-0.76962 0.4593,-1.71028 z m -93.7346,-1.09712 c -0.1052,-0.13308 -0.5927,-0.80651 -1.0833,-1.49649 -0.4905,-0.68999 -0.7476,-0.80637 -0.5712,-0.25863 0.1763,0.54773 0.061,1.19078 -0.2563,1.42898 -0.3174,0.2382 0.026,0.46348 0.7626,0.50061 0.7368,0.0371 1.2535,-0.0414 1.1482,-0.17447 z m 4.0476,-0.27467 c -0.1526,-0.28415 -0.5488,-0.31453 -0.8803,-0.0675 -0.3664,0.27298 -0.2576,0.47561 0.2774,0.51665 0.4842,0.0371 0.7555,-0.16498 0.6029,-0.44914 z m 128.0382,-0.33849 c -0.1561,-0.47033 -0.4906,-0.85514 -0.7432,-0.85514 -0.2526,0 -0.3315,0.38481 -0.1754,0.85514 0.1561,0.47033 0.4905,0.85514 0.7431,0.85514 0.2527,0 0.3316,-0.38481 0.1755,-0.85514 z m -119.1872,-0.85514 c 0,-0.47033 -0.3617,-0.84925 -0.8038,-0.84205 -0.6869,0.0112 -0.7036,0.13363 -0.1148,0.84205 0.8668,1.04294 0.9186,1.04294 0.9186,0 z m 3.9518,-1.47868 c -0.4668,-0.86927 -0.8521,0.43945 -0.469,1.59345 0.2894,0.87175 0.3976,0.87242 0.5531,0.003 0.1064,-0.59414 0.068,-1.31274 -0.084,-1.5969 z m -7.3965,0.62354 c 0.579,-0.46324 0.6639,-0.73493 0.2296,-0.73493 -0.3789,0 -1.1023,0.33072 -1.6075,0.73493 -0.579,0.46324 -0.6639,0.73493 -0.2297,0.73493 0.3789,0 1.1023,-0.33072 1.6076,-0.73493 z m 77.2457,-1.01548 c -0.1466,-0.68218 -0.2554,-0.47954 -0.2775,0.51665 -0.02,0.90146 0.089,1.40652 0.2413,1.12237 0.1526,-0.28416 0.1689,-1.02172 0.036,-1.63902 z m 43.9673,1.13901 c 0.1336,-0.40239 -0.2676,-0.54993 -0.8915,-0.32788 -0.6239,0.22205 -1.1343,0.55127 -1.1343,0.73161 0,0.66166 1.7906,0.30481 2.0258,-0.40373 z m 2.1078,0.40875 c 0,-0.17758 -0.3617,-0.851 -0.8037,-1.4965 -0.7285,-1.06369 -0.7448,-1.03344 -0.1735,0.32286 0.6001,1.42445 0.9772,1.87745 0.9772,1.17364 z m 1.9492,-0.24526 c -0.3174,-0.2382 -0.454,-0.80373 -0.3036,-1.25673 0.1677,-0.50521 0.5282,-0.42987 0.9325,0.1949 0.3626,0.56019 0.792,0.77128 0.9543,0.4691 0.1623,-0.30219 0.042,-0.54943 -0.2679,-0.54943 -0.3096,0 -0.429,-0.4035 -0.2653,-0.89667 0.2035,-0.61297 0.5027,-0.57984 0.9457,0.10471 0.5109,0.78941 0.6481,0.71837 0.6481,-0.33558 0,-1.89656 -0.8406,-2.62305 -1.6277,-1.4068 -0.5302,0.81934 -0.6703,0.7903 -0.6758,-0.14016 -0.01,-0.92183 -0.1026,-0.89843 -0.4523,0.10907 -0.2449,0.7055 -0.4484,0.94699 -0.4523,0.53665 0,-0.41033 -0.2844,-0.31747 -0.6234,0.20637 -0.339,0.52383 -0.7855,0.66716 -0.9922,0.31849 -0.2067,-0.34866 -0.2251,-0.14664 -0.041,0.44894 0.1843,0.59558 0.5058,0.8864 0.7145,0.64627 0.2086,-0.24014 0.4979,0.1384 0.6427,0.84119 0.1449,0.70279 0.5282,1.24742 0.8519,1.21029 0.4646,-0.0533 0.467,-0.15878 0.012,-0.50061 z m -99.4654,-2.15764 c -0.1466,-0.68218 -0.2554,-0.47955 -0.2775,0.51665 -0.02,0.90146 0.089,1.40652 0.2413,1.12237 0.1526,-0.28416 0.1689,-1.02172 0.036,-1.63902 z m -23.4029,0.49883 c -0.1526,-0.28416 -0.5488,-0.31454 -0.8803,-0.0675 -0.3664,0.27298 -0.2576,0.47561 0.2775,0.51664 0.4841,0.0371 0.7554,-0.16498 0.6028,-0.44913 z m 36.2536,-3.1177 c -0.1274,-0.58791 -0.2316,-0.10689 -0.2316,1.06892 0,1.17582 0.1042,1.65684 0.2316,1.06893 0.1274,-0.58791 0.1274,-1.54994 0,-2.13785 z m 24.4978,0.21378 c 0,-0.47032 -0.2189,-0.85514 -0.4864,-0.85514 -0.2675,0 -0.3587,0.38482 -0.2025,0.85514 0.1561,0.47033 0.375,0.85514 0.4864,0.85514 0.1114,0 0.2025,-0.38481 0.2025,-0.85514 z m -36.2843,-0.85514 c 0,-0.47032 -0.2189,-0.85514 -0.4864,-0.85514 -0.2676,0 -0.3587,0.38482 -0.2026,0.85514 0.1561,0.47033 0.375,0.85514 0.4864,0.85514 0.1114,0 0.2026,-0.38481 0.2026,-0.85514 z m -20.617,-2.47633 c 0.098,0.12935 0.5917,-0.22192 1.0969,-0.78059 0.7658,-0.84687 0.5749,-0.92514 -1.1482,-0.4707 -2.1475,0.56632 -3.011,1.1622 -1.6841,1.1622 0.421,0 0.7686,0.48102 0.7725,1.06893 0.01,0.7994 0.1051,0.78098 0.3958,-0.073 0.2139,-0.62808 0.469,-1.03614 0.5671,-0.9068 z m 32.5586,-0.13956 c 0,-0.44257 -0.2066,-0.80467 -0.4593,-0.80467 -0.2526,0 -0.4593,0.59993 -0.4593,1.33318 0,0.73325 0.2067,1.09535 0.4593,0.80467 0.2527,-0.29068 0.4593,-0.89061 0.4593,-1.33318 z m 3.5825,0.73458 c 0.3032,-0.56439 0.5446,-1.62263 0.5366,-2.35163 -0.012,-1.05237 -0.1536,-0.98346 -0.6889,0.33447 -0.3709,0.91296 -0.6744,1.37127 -0.6744,1.01845 0,-0.35281 -0.21,-0.39977 -0.4668,-0.10435 -0.4865,0.55986 -0.1902,2.12923 0.4021,2.12923 0.1871,0 0.5883,-0.46177 0.8914,-1.02617 z m -39.0726,-0.34562 c -0.1526,-0.28415 -0.5488,-0.31453 -0.8803,-0.0675 -0.3664,0.27298 -0.2576,0.47561 0.2775,0.51665 0.4841,0.0371 0.7554,-0.16498 0.6028,-0.44914 z m 32.7344,-8.81926 c 0,-0.88362 4.3125,-6.81056 5.442,-7.47924 0.6526,-0.38633 0.6623,-0.32021 0.069,0.47371 -0.3789,0.5075 -0.5019,0.92861 -0.2733,0.93581 0.2287,0.007 0.035,0.79629 -0.4303,1.75354 -0.4809,0.98935 -1.1497,1.5234 -1.5499,1.23751 -0.3871,-0.27661 -0.557,-0.22938 -0.3774,0.10495 0.1796,0.33433 0.076,1.17072 -0.2311,1.85866 -0.3219,0.72233 0.1027,0.50332 1.005,-0.51836 1.6267,-1.84186 2.4444,-1.76387 2.0407,0.19465 -0.3814,1.85075 4.3441,1.73014 5.4914,-0.14016 0.8675,-1.41414 0.8963,-1.41086 0.6059,0.069 -0.2779,1.41613 -0.027,1.53692 2.8363,1.36403 1.7277,-0.10432 3.3818,0.0872 3.6759,0.42555 0.294,0.33838 0.9527,0.36818 1.4637,0.0662 0.7911,-0.46746 0.3981,-1.31572 -2.645,-5.70955 -1.9658,-2.83828 -3.8431,-5.35843 -4.1717,-5.60034 -0.3286,-0.2419 -1.1037,0.44557 -1.7223,1.52771 -0.6187,1.08214 -1.1249,1.68959 -1.1249,1.34988 0,-0.33971 0.5684,-1.54907 1.2631,-2.68746 0.9767,-1.60066 1.087,-2.07594 0.4864,-2.09684 -0.4272,-0.0149 -0.9242,-0.47129 -1.1044,-1.01429 -0.2225,-0.67015 -0.1205,-0.75477 0.3173,-0.26342 0.5481,0.615 0.551,0.5077 0.019,-0.7136 -0.3444,-0.79059 -0.8375,-1.19422 -1.0958,-0.89695 -0.2584,0.29726 -0.9067,0.59723 -1.4407,0.66658 -0.534,0.0694 -0.9231,0.57035 -0.8646,1.11332 0.1132,1.04988 -2.4211,4.77142 -3.4385,5.04944 -0.7969,0.21775 -4.4756,6.42422 -4.4771,7.55343 -4e-4,0.48291 -0.3477,0.88292 -0.7713,0.88892 -1.25,0.0177 -1.3504,0.89013 -0.1243,1.07907 0.6196,0.0955 1.1265,-0.17083 1.1265,-0.59177 z m 9.3759,-2.9473 c -0.1528,-0.74153 -0.66,-1.13233 -1.2124,-0.93424 -0.9145,0.32787 -0.9101,0.26193 0.1163,-1.77241 1.1349,-2.24904 1.8428,-2.93167 0.94,-0.90638 -1.0811,2.42544 0.4817,2.43355 1.8406,0.01 0.7373,-1.31519 1.3405,-1.94332 1.3405,-1.39584 0,0.54748 -0.5149,1.6236 -1.1442,2.39138 -0.6294,0.76778 -1.0394,1.7121 -0.9111,2.09848 0.1282,0.38638 0.022,0.9459 -0.2369,1.24337 -0.2585,0.29747 -0.5882,-0.0328 -0.7328,-0.73392 z m -4.2651,1.38016 c 0.5713,-1.3563 0.5551,-1.38654 -0.1734,-0.32286 -0.7651,1.11713 -1.0084,1.81936 -0.6304,1.81936 0.095,0 0.4571,-0.67342 0.8038,-1.4965 z m -3.0372,-6.89972 c -0.1257,-0.23397 0.022,-1.03802 0.3278,-1.78679 0.3059,-0.74876 0.029,-0.48873 -0.6164,0.57785 -0.645,1.06658 -1.1726,2.51123 -1.1726,3.21033 0,1.06945 0.134,1.04526 0.8448,-0.15245 0.4647,-0.78295 0.7421,-1.61498 0.6164,-1.84894 z m 4.7424,-5.14529 c -0.2154,-0.15775 -0.2473,-0.73497 -0.071,-1.28271 0.1764,-0.54774 -0.034,-0.46003 -0.4675,0.1949 -0.4336,0.65493 -0.6795,1.39333 -0.5465,1.64088 0.133,0.24756 -0.1204,1.23412 -0.563,2.19237 -0.6012,1.30156 -0.4451,1.21097 0.6174,-0.35818 0.7822,-1.15524 1.2459,-2.2295 1.0305,-2.38726 z m 3.2885,-4.22289 c 0,-0.73356 -0.059,-1.17341 -0.13,-0.97744 -0.071,0.19597 -0.4107,1.03854 -0.7539,1.87238 -0.5432,1.3199 -0.5264,1.44638 0.13,0.97744 0.4146,-0.29625 0.7539,-1.13882 0.7539,-1.87238 z m 22.2648,73.04712 c -1.1685,0.83486 -1.1883,-1.55032 -0.036,-4.3626 1.4089,-3.43912 2.4588,-3.26526 4.2542,0.70447 1.0396,2.29867 1.1006,2.71699 0.4318,2.96122 -0.4284,0.15642 -1.1096,-0.22675 -1.514,-0.85148 m -1.213,0.78086 c -0.1275,-0.58791 -0.2317,-0.10689 -0.2317,1.06893 0,1.17582 0.1042,1.65683 0.2317,1.06893 0.1274,-0.58791 0.1274,-1.54995 0,-2.13786 z m 2.4516,-0.96422 c 0,-0.17757 -0.3617,-0.85099 -0.8038,-1.49649 -0.7285,-1.06369 -0.7447,-1.03344 -0.1734,0.32286 0.6,1.42445 0.9772,1.87744 0.9772,1.17363 z m -20.4387,15.80466 c -1.2631,-0.86084 -3.0199,-2.05524 -3.904,-2.65421 -2.0854,-1.41275 -2.9823,-2.98673 -1.2753,-2.23815 0.9969,0.4372 1.1967,0.28604 0.9843,-0.74474 -0.3006,-1.4584 0.1247,-1.60033 3.9654,-1.32325 1.3893,0.10024 2.7328,0.55892 2.9854,1.0193 0.3018,0.55006 0.066,0.77154 -0.689,0.646 -1.8966,-0.31556 -4.8733,0.17527 -4.1336,0.68161 0.3789,0.25941 0.9989,0.96868 1.3779,1.57615 0.994,1.59364 3.4562,2.65626 3.005,1.29688 -0.6581,-1.98256 2.1422,-0.5727 2.8549,1.43737 0.6679,1.88376 0.645,1.92348 -1.0961,1.89614 -0.9782,-0.0153 -2.8118,-0.73224 -4.0749,-1.5931 z m 5.7412,-1.42244 c 0,-0.73325 0.2067,-1.09535 0.4593,-0.80467 0.2526,0.29068 0.4593,0.89061 0.4593,1.33318 0,0.44257 -0.2067,0.80467 -0.4593,0.80467 -0.2526,0 -0.4593,-0.59993 -0.4593,-1.33318 z m -23.5102,-1.81639 c 0.3316,-0.24703 0.7277,-0.21665 0.8803,0.0675 0.1526,0.28416 -0.1186,0.48626 -0.6028,0.44913 -0.5351,-0.041 -0.6439,-0.24366 -0.2775,-0.51664 z m 4.1337,0 c 0.3315,-0.24703 0.7277,-0.21665 0.8803,0.0675 0.1526,0.28416 -0.1187,0.48626 -0.6028,0.44913 -0.5351,-0.041 -0.6439,-0.24366 -0.2775,-0.51664 z m -12.6594,-0.86046 c 0.4421,-0.21509 1.1655,-0.21509 1.6076,0 0.442,0.21509 0.08,0.39108 -0.8038,0.39108 -0.8841,0 -1.2458,-0.17599 -0.8038,-0.39108 z m -23.9491,-5.05683 c -0.3519,-0.20897 -0.5514,-0.54456 -0.4434,-0.74576 0.1081,-0.2012 1.2228,0.15826 2.4771,0.7988 1.3528,0.69085 1.8134,1.16827 1.1323,1.17358 -1.253,0.0272 -2.1472,-0.62078 -3.166,-1.22662 z m 14.103,0.78646 c 0.3315,-0.24703 0.7277,-0.21665 0.8803,0.0675 0.1526,0.28416 -0.1187,0.48627 -0.6028,0.44914 -0.5351,-0.041 -0.6439,-0.24367 -0.2775,-0.51665 z m 2.2601,-1.23224 c 0.3116,-0.58442 0.6822,-0.84716 0.8236,-0.58388 0.1414,0.26329 -0.1135,0.74145 -0.5665,1.06258 -0.6546,0.46408 -0.7073,0.36585 -0.2571,-0.4787 z m -18.8235,-0.46023 c 0.3158,-0.23723 0.8325,-0.23723 1.1483,0 0.3157,0.23723 0.057,0.43132 -0.5741,0.43132 -0.6316,0 -0.8899,-0.19409 -0.5742,-0.43132 z m 83.2634,-2.53274 c -1.1801,-1.8488 -1.7322,-2.15423 -3.1355,-1.73452 -1.1713,0.35036 -1.488,0.25407 -1.0142,-0.30838 0.3789,-0.4498 1.2573,-0.82371 1.952,-0.83091 0.6947,-0.007 1.2631,-0.39791 1.2631,-0.86823 0,-1.2949 1.1904,-1.02333 1.8329,0.41815 0.6155,1.38071 1.5846,0.88363 1.1034,-0.56594 -0.1615,-0.48662 0.2549,-0.21549 0.9255,0.60249 1.3461,1.64221 1.3268,1.99532 -0.1376,2.5204 -0.6408,0.22977 -0.882,0.0217 -0.6801,-0.58651 0.1926,-0.58033 0.1013,-0.69918 -0.2375,-0.30925 -0.3027,0.34833 -0.903,0.14025 -1.334,-0.46239 -0.708,-0.98987 -0.7171,-0.96038 -0.095,0.30526 0.3789,0.77054 1.309,1.99774 2.0668,2.72711 l 1.3779,1.32613 -1.2278,0.005 c -0.6754,0.003 -1.8724,-1.00451 -2.6602,-2.23867 z m 4.5882,1.60259 c 0.01,-0.35275 0.7813,-1.32221 1.7224,-2.15437 l 1.711,-1.51301 -1.3779,2.15012 c -1.3969,2.17984 -2.076,2.68111 -2.0555,1.51726 z m -11.953,-2.29408 c 1.9217,-1.44666 2.6593,-1.65424 2.0439,-0.57522 -0.24,0.42077 -1.1597,0.99462 -2.0439,1.27522 l -1.6075,0.51017 z m -87.2661,-0.5242 c -0.5032,-0.63392 -0.3174,-0.71326 0.6889,-0.29418 1.6888,0.70333 2.0554,1.19277 0.8803,1.1753 -0.4841,-0.007 -1.1903,-0.40371 -1.5692,-0.88112 z m 149.5007,0.28106 c -3.4906,-0.90413 -18.5519,-9.31889 -21.947,-12.26176 l -1.2787,-1.10838 1.5083,-1.21248 c 0.8296,-0.66686 2.5418,-1.77282 3.8048,-2.45768 1.2631,-0.68486 2.9042,-1.68772 3.6468,-2.22858 l 1.3503,-0.98338 -2.206,-1.04776 c -1.2133,-0.57627 -2.5443,-0.83235 -2.9578,-0.56908 -0.5339,0.33991 -0.4856,0.0814 0.1667,-0.89188 0.8225,-1.22711 0.8345,-1.37341 0.1149,-1.39776 -0.4421,-0.015 -0.8038,-0.63118 -0.8038,-1.36938 0,-0.90277 0.3383,-1.25273 1.0334,-1.06893 0.7765,0.20532 0.9977,0.75168 0.8897,2.19733 -0.079,1.05824 0.076,1.92407 0.3445,1.92407 0.2685,0 0.4882,-0.38482 0.4882,-0.85515 0,-1.22221 2.4313,-1.05783 3.376,0.22825 0.7491,1.01987 0.7424,1.19003 -0.1142,2.90197 -1.1031,2.20442 -0.8344,2.85577 1.178,2.85577 1.1657,0 1.5224,0.35706 1.4948,1.4965 -0.022,0.89399 -0.1296,1.06614 -0.268,0.42757 -0.1274,-0.58791 -0.8223,-1.06893 -1.5441,-1.06893 -1.4043,0 -2.209,1.28102 -1.2548,1.99731 0.3406,0.25568 0.2395,0.46075 -0.2469,0.5006 -0.4532,0.0371 -0.7646,-0.4135 -0.6921,-1.00141 0.072,-0.58791 -0.025,-1.1943 -0.2171,-1.34753 -0.5916,-0.47226 -3.0895,0.79843 -3.0895,1.57163 0,1.18248 2.0041,2.05036 2.2006,0.95297 0.2607,-1.45666 1.0145,-0.24881 1.0145,1.62577 0,1.17786 -0.2241,1.49196 -0.8038,1.12702 -0.542,-0.34115 -0.4669,-0.0377 0.2304,0.93152 0.5689,0.79061 1.2406,1.20006 1.4928,0.90989 0.6429,-0.73986 0.5716,-2.76455 -0.1157,-3.28086 -0.3244,-0.24374 -0.2019,-0.46068 0.2818,-0.49883 0.6885,-0.0543 0.8177,0.417 0.6607,2.40924 -0.1413,1.7918 -0.029,2.35773 0.4071,2.04636 0.3313,-0.23671 0.617,-1.06264 0.6347,-1.8354 0.025,-1.0783 0.1157,-1.00732 0.3908,0.30528 0.1971,0.94065 0.5443,1.7292 0.7715,1.75232 0.2271,0.0231 0.9053,0.3538 1.5071,0.73484 0.8476,0.53673 0.9511,0.86144 0.4593,1.44137 -0.4799,0.5658 -0.4911,0.75175 -0.046,0.76165 0.3239,0.007 0.7758,-0.85274 1.0043,-1.91097 0.3345,-1.54948 0.421,-1.6229 0.4445,-0.37711 0.016,0.85083 0.2358,1.30914 0.4884,1.01846 0.2526,-0.29068 0.4593,-0.12098 0.4593,0.3771 0,0.49809 0.5683,0.91151 1.263,0.91871 1.5767,0.0163 3.1511,1.62291 1.7224,1.75759 -0.6532,0.0616 -0.5205,0.31968 0.4593,0.89332 0.7578,0.4437 2.3079,0.61051 3.4447,0.37068 1.4568,-0.30735 1.7957,-0.20629 1.1482,0.34238 -0.7426,0.62936 -0.5678,0.78994 0.9132,0.83853 l 1.8317,0.0601 -1.7566,-2.32701 c -0.9661,-1.27985 -1.5254,-2.4705 -1.2428,-2.64588 0.7191,-0.44631 3.6992,3.93935 3.6992,5.44398 0,1.24779 -2.351,1.50415 -5.7411,0.62604 z m -17.5709,-12.78208 c -0.3174,-0.23821 -0.4721,-0.74916 -0.3439,-1.13545 0.1282,-0.3863 -0.2211,-0.48119 -0.7763,-0.21087 -0.9633,0.46903 -0.9686,0.52125 -0.1154,1.14286 0.4916,0.35825 1.1006,0.64804 1.3532,0.64396 0.2527,-0.004 0.1997,-0.2023 -0.1176,-0.4405 z m 0.6822,-12.77564 c -0.1526,-0.28416 -0.5488,-0.31454 -0.8803,-0.0675 -0.3664,0.27299 -0.2576,0.47562 0.2775,0.51665 0.4841,0.0371 0.7554,-0.16498 0.6028,-0.44914 z m -112.2185,21.8024 c -0.4324,-0.88963 -1.0642,-1.61752 -1.404,-1.61752 -1.3665,0 -0.5291,-2.54351 1.1046,-3.35526 5.5507,-2.75783 8.2154,-3.56876 12.7455,-3.87864 5.0654,-0.34649 4.8803,-0.0905 -0.6889,0.95297 -2.3227,0.43517 -2.7306,0.7009 -1.8372,1.19704 1.0958,0.60862 1.1011,0.6416 0.1148,0.72295 -0.5684,0.0469 -1.0334,0.47005 -1.0334,0.94038 0,0.47033 -0.2288,0.85514 -0.5085,0.85514 -0.2796,0 -0.3894,-0.57722 -0.244,-1.28271 0.161,-0.78135 9e-4,-1.28271 -0.4102,-1.28271 -0.389,0 -0.6807,0.8145 -0.6891,1.92407 -0.014,1.7817 -0.06,1.81333 -0.6248,0.42757 -0.3355,-0.82308 -0.8973,-1.49061 -1.2484,-1.48341 -0.5304,0.0109 -0.5335,0.13674 -0.019,0.74411 0.4311,0.50865 0.082,0.91811 -1.1483,1.34614 -1.8629,0.64824 -2.916,1.81541 -2.916,3.23195 0,0.46759 0.4137,0.64877 0.9192,0.40261 0.5056,-0.24616 0.8189,-0.14508 0.6961,0.22461 -0.5042,1.51901 -2.0552,1.48075 -2.8086,-0.0693 z m 13.135,1.46697 c 0,-0.18485 0.3208,-0.56525 0.7128,-0.84535 0.4088,-0.29203 0.5931,-0.14866 0.4322,0.33608 -0.2697,0.81256 -1.145,1.20186 -1.145,0.50927 z m 114.9475,-1.11167 c 0.4469,-0.21681 1.0669,-0.20256 1.3779,0.0317 0.3109,0.23425 -0.055,0.41164 -0.8125,0.39421 -0.7579,-0.0174 -1.0123,-0.20908 -0.5654,-0.42589 z m -149.2711,-0.85514 c 0.4469,-0.21681 1.067,-0.20256 1.3779,0.0317 0.311,0.23425 -0.055,0.41164 -0.8125,0.39422 -0.7578,-0.0174 -1.0122,-0.20908 -0.5654,-0.4259 z m 99.0843,0.25653 c 0,-0.18485 0.3208,-0.56525 0.7128,-0.84535 0.4088,-0.29203 0.5931,-0.14867 0.4322,0.33608 -0.2697,0.81256 -1.145,1.20186 -1.145,0.50927 z m -62.6938,-1.37421 c 0.1561,-0.47032 0.4905,-0.85514 0.7431,-0.85514 0.2526,0 0.3316,0.38482 0.1755,0.85514 -0.1562,0.47033 -0.4906,0.85514 -0.7432,0.85514 -0.2526,0 -0.3315,-0.38481 -0.1754,-0.85514 z m -40.418,-1.71028 1.3779,-0.65279 -1.3779,-0.18641 c -1.3638,-0.18451 -1.3662,-0.19342 -0.2297,-0.87108 0.6315,-0.37656 1.9083,-0.72302 2.8373,-0.7699 1.2299,-0.0621 1.9396,-0.67833 2.6108,-2.26717 0.507,-1.20007 1.0042,-2.0659 1.1049,-1.92407 0.1006,0.14183 0.7456,-0.89657 1.4332,-2.30756 l 1.2503,-2.56542 -1.3806,4.66235 c -2.2441,7.57853 -2.3772,7.7508 -5.8994,7.63602 -2.3977,-0.0781 -2.7909,-0.24983 -1.7268,-0.75397 z m 36.6288,0.26567 c 0.4421,-0.21509 1.1654,-0.21509 1.6075,0 0.4421,0.21509 0.08,0.39108 -0.8037,0.39108 -0.8842,0 -1.2459,-0.17599 -0.8038,-0.39108 z m 117.6945,-0.26567 c 0.7989,-0.63918 0.7391,-0.75387 -0.4593,-0.88028 -1.338,-0.14113 -1.3446,-0.1626 -0.2297,-0.74083 1.0131,-0.52537 1.0487,-0.66669 0.3031,-1.20024 -0.4649,-0.33262 -1.0501,-0.36904 -1.3005,-0.0809 -0.2646,0.30448 -0.3915,-0.31355 -0.303,-1.47593 0.1235,-1.62297 -0.1074,-2.10487 -1.2257,-2.55772 l -1.3779,-0.55797 1.419,-0.10118 c 1.1035,-0.0787 1.7978,0.66129 3.1239,3.32976 1.7856,3.5932 1.8283,5.16134 0.1378,5.06037 -0.9702,-0.058 -0.9734,-0.0865 -0.088,-0.79504 z m -36.8402,-1.96271 c -1.0635,-1.03698 -1.9542,-2.26379 -1.9793,-2.72624 -0.07,-1.29467 3.9475,-2.94172 8.2763,-3.39284 l 3.904,-0.40685 -4.1336,1.12946 c -5.2927,1.44615 -7.1191,2.21143 -7.1191,2.98295 0,0.3403 0.8784,1.44029 1.952,2.44443 1.0736,1.00414 1.7453,1.83219 1.4927,1.84011 -0.2526,0.008 -1.3295,-0.83403 -2.393,-1.87102 z m -102.2966,-1.36825 c -0.1398,-0.42104 0.044,-0.97866 0.4088,-1.23916 0.4422,-0.31593 0.5778,-0.0611 0.4075,0.76554 -0.2961,1.43648 -0.4643,1.53409 -0.8163,0.47362 z m 2.0193,-1.33259 c 0.2711,-0.60811 0.3691,-1.82786 0.2178,-2.71054 -0.258,-1.50554 -0.2297,-1.50115 0.4576,0.0708 0.8696,1.98908 0.7423,3.22332 -0.3637,3.52555 -0.6104,0.16679 -0.6856,-0.047 -0.3117,-0.88582 z m 23.3557,0.65883 c 0.3316,-0.24703 0.7277,-0.21665 0.8803,0.0675 0.1526,0.28416 -0.1186,0.48627 -0.6028,0.44914 -0.5351,-0.041 -0.6439,-0.24366 -0.2775,-0.51665 z m 109.522,-0.86359 c 0.4469,-0.21681 1.067,-0.20255 1.3779,0.0317 0.311,0.23424 -0.055,0.41163 -0.8125,0.39421 -0.7578,-0.0174 -1.0123,-0.20909 -0.5654,-0.4259 z m -149.5094,-1.68402 c 0.3157,-0.23722 0.8325,-0.23722 1.1482,0 0.3158,0.23723 0.057,0.43132 -0.5741,0.43132 -0.6315,0 -0.8899,-0.19409 -0.5741,-0.43132 z m 2.8706,-0.2888 c 0,-0.47032 0.2189,-0.85514 0.4864,-0.85514 0.2675,0 0.3586,0.38482 0.2025,0.85514 -0.1561,0.47033 -0.375,0.85515 -0.4864,0.85515 -0.1114,0 -0.2025,-0.38482 -0.2025,-0.85515 z m 1.3779,-1.19122 c 0,-0.18484 0.3207,-0.56525 0.7128,-0.84534 0.4087,-0.29203 0.5931,-0.14867 0.4322,0.33608 -0.2698,0.81256 -1.145,1.20185 -1.145,0.50926 z m -8.191,-1.26829 c -0.4856,-0.57308 -0.4482,-0.84058 0.1805,-1.28974 0.4363,-0.31169 0.9014,-0.36524 1.0337,-0.11901 0.1322,0.24624 -0.013,0.4477 -0.3225,0.4477 -0.3096,0 -0.4352,0.38481 -0.2791,0.85514 0.3435,1.03483 0.196,1.06032 -0.6126,0.10591 z m 32.0657,-10.37753 c -0.8878,-1.02154 -0.4311,-1.62766 0.6671,-0.88538 0.4885,0.33016 0.6853,0.83368 0.4374,1.11894 -0.2479,0.28527 -0.7449,0.18016 -1.1045,-0.23356 z m 2.3051,-1.70035 c 0,-0.47033 0.2189,-0.85514 0.4864,-0.85514 0.2675,0 0.3587,0.38481 0.2026,0.85514 -0.1562,0.47033 -0.375,0.85514 -0.4864,0.85514 -0.1114,0 -0.2026,-0.38481 -0.2026,-0.85514 z m -4.2997,-1.28271 c -0.1454,-0.70549 -0.042,-1.28271 0.2303,-1.28271 0.3031,0 0.3788,-0.85932 0.1954,-2.21965 -0.1646,-1.22081 -0.075,-2.72258 0.199,-3.33727 0.7432,-1.66724 3.0498,0.70784 3.329,3.42789 0.2876,2.80056 -0.6534,4.27658 -1.9211,3.01342 -0.7664,-0.76366 -0.948,-0.69313 -0.948,0.36823 0,1.68405 -0.7395,1.70456 -1.0846,0.0301 z m 2.8604,-2.04911 c 0.4757,-0.56109 0.5069,-1.127 0.1288,-2.33855 -0.2743,-0.87908 -0.505,-1.29618 -0.5127,-0.92688 -0.01,0.36929 -0.4227,0.26418 -0.9222,-0.23358 -0.7364,-0.73376 -0.8668,-0.65855 -0.689,0.39749 0.1207,0.71637 0.3162,1.87971 0.4346,2.58521 0.2437,1.45264 0.6521,1.58777 1.5605,0.51631 z m 4.7304,1.96642 c -1.0981,-1.43199 -1.2645,-5.46652 -0.2511,-6.08503 0.3208,-0.19575 0.4331,0.4742 0.2987,1.78243 -0.1557,1.51718 0.054,2.36404 0.7587,3.06643 0.5356,0.53371 1.1763,0.73747 1.4237,0.45279 0.7041,-0.81024 0.5272,-3.97074 -0.284,-5.07524 -0.6365,-0.86651 -0.6575,-1.47366 -0.158,-4.57765 0.4443,-2.7608 0.7107,-3.3703 1.1659,-2.667 0.69,1.06624 0.1138,4.76181 -0.6893,4.42076 -0.2769,-0.11758 -0.5034,0.38763 -0.5034,1.12268 0,1.37533 1.7968,1.47996 2.3316,0.13577 0.1457,-0.36609 0.5089,0.33185 0.8073,1.55097 0.338,1.38153 0.3611,2.008 0.061,1.6629 -0.3122,-0.35923 -0.392,0.2974 -0.2271,1.86959 0.2074,1.97758 0.09,1.79416 -0.6387,-0.99728 -0.8089,-3.09905 -0.8864,-3.19952 -0.8245,-1.06892 0.038,1.2934 0.2689,2.35164 0.5141,2.35164 0.2451,0 0,0.76962 -0.5403,1.71028 -1.1918,2.06727 -1.869,2.13924 -3.2449,0.34488 z m 27.941,-1.62759 c 0,-0.70549 0.2002,-1.28271 0.4449,-1.28271 0.2447,0 0.3259,0.57722 0.1805,1.28271 -0.1454,0.70549 -0.3456,1.28271 -0.4449,1.28271 -0.099,0 -0.1805,-0.57722 -0.1805,-1.28271 z m -17.9546,-1.13615 c 0.7397,-2.57357 1.4901,-3.21408 1.0254,-0.87531 -0.2101,1.05786 -0.6408,2.08392 -0.957,2.28014 -0.4422,0.2745 -0.458,-0.0495 -0.069,-1.40483 z m 22.5476,0.70858 c 0,-0.47033 0.2189,-0.85514 0.4864,-0.85514 0.2675,0 0.3586,0.38481 0.2025,0.85514 -0.1561,0.47032 -0.375,0.85514 -0.4864,0.85514 -0.1114,0 -0.2025,-0.38482 -0.2025,-0.85514 z m 11.2089,-0.5701 c -0.1022,-0.6271 -0.2979,-1.79107 -0.4348,-2.58658 -0.1519,-0.88244 0.2063,-0.53184 0.9186,0.8992 1.3755,2.7634 1.3854,2.82757 0.4348,2.82757 -0.403,0 -0.8164,-0.51308 -0.9186,-1.14019 z m 6.9332,0.5701 c -0.3592,-1.08227 0.2488,-1.08227 1.1483,0 0.5937,0.71438 0.5816,0.83076 -0.088,0.84204 -0.4272,0.007 -0.9044,-0.37172 -1.0605,-0.84204 z m 10.1341,-0.60448 c -0.2493,-1.21874 -0.1965,-1.31697 0.2571,-0.4787 0.3139,0.58007 0.455,1.27009 0.3136,1.53337 -0.1414,0.26329 -0.3982,-0.21131 -0.5707,-1.05467 z m -41.5958,-0.2002 c 0,-0.44257 0.2043,-1.03977 0.454,-1.32712 0.2604,-0.29959 0.3374,0.0437 0.1805,0.80467 -0.3053,1.48146 -0.6345,1.75252 -0.6345,0.52245 z m -1.1358,-1.11939 c -0.1036,-0.58791 -0.2548,-1.83786 -0.3362,-2.77767 -0.089,-1.03051 -0.504,-1.70936 -1.0451,-1.71029 -0.7565,-0.001 -0.9047,-0.63399 -0.9445,-4.03113 -0.026,-2.21628 0.177,-4.18975 0.451,-4.38548 0.3074,-0.21964 0.476,0.83193 0.4403,2.74689 -0.039,2.09776 0.01,2.34105 0.1371,0.75113 0.1072,-1.2934 0.3527,-2.35164 0.5456,-2.35164 0.1928,0 0.2593,1.15797 0.1478,2.57326 -0.1116,1.41529 -10e-4,3.05074 0.2445,3.63435 0.5017,1.18967 1.1418,6.61951 0.7805,6.61951 -0.128,0 -0.3174,-0.48102 -0.421,-1.06893 z m -2.9616,-1.14019 c 0.022,-0.99619 0.1309,-1.19882 0.2775,-0.51665 0.1327,0.61731 0.1163,1.35487 -0.036,1.63902 -0.1526,0.28416 -0.2612,-0.22091 -0.2412,-1.12237 z m 12.8603,0.78256 c -0.02,-0.54944 -0.1552,-1.70388 -0.3006,-2.56542 -0.2513,-1.48899 -0.2383,-1.49086 0.2621,-0.0377 0.2896,0.84079 0.4249,1.99523 0.3006,2.56542 -0.163,0.74824 -0.236,0.75874 -0.2621,0.0377 z m 84.9334,-0.28373 c 0.3789,-0.45592 0.8956,-0.82895 1.1482,-0.82895 0.2526,0 0.1493,0.37303 -0.2296,0.82895 -0.3789,0.45593 -0.8956,0.82895 -1.1483,0.82895 -0.2526,0 -0.1492,-0.37302 0.2297,-0.82895 z m -56.2826,-1.76717 c -0.1665,-0.50162 -0.2042,-1.09544 -0.084,-1.31959 0.1204,-0.22416 0.3413,0.18625 0.4909,0.91203 0.3105,1.50685 0.046,1.7719 -0.4071,0.40756 z m -62.2519,-3.14989 c -0.02,-1.2934 -0.1405,-1.87062 -0.2679,-1.28271 -0.1275,0.58791 -0.6795,1.03855 -1.2268,1.00142 -0.5474,-0.0371 -0.7368,-0.26161 -0.4211,-0.49884 0.3158,-0.23722 0.5742,-0.97647 0.5742,-1.64277 0,-0.66629 0.155,-1.23742 0.3444,-1.26916 0.1895,-0.0317 1.0162,-0.22091 1.8372,-0.42037 1.6193,-0.3934 2.0715,0.85196 0.5741,1.581 -1.0188,0.49604 -1.2683,3.62267 -0.3444,4.31673 0.3429,0.25767 0.2505,0.4585 -0.2297,0.49883 -0.5713,0.048 -0.8143,-0.61267 -0.84,-2.28413 z m 3.4395,1.37173 c -0.1511,-0.45517 -0.1436,-1.79998 0.017,-2.98848 0.2196,-1.62844 0.1453,-1.99744 -0.3012,-1.49752 -0.4372,0.48952 -0.4273,0.28419 0.038,-0.78349 0.3467,-0.79578 0.9151,-1.44687 1.2631,-1.44687 0.5688,0 0.6934,0.86071 0.8241,5.69068 0.042,1.55023 -1.3996,2.3536 -1.8404,1.02568 z m 1.5034,-1.74585 c -0.1466,-0.68217 -0.2554,-0.47954 -0.2774,0.51665 -0.02,0.90146 0.089,1.40653 0.2412,1.12237 0.1526,-0.28416 0.1689,-1.02172 0.036,-1.63902 z m 4.2792,-0.1663 c 0,-0.70549 0.2067,-1.52054 0.4593,-1.81121 0.2527,-0.29068 0.4593,0.0487 0.4593,0.7542 0,0.70549 -0.2066,1.52054 -0.4593,1.81122 -0.2526,0.29068 -0.4593,-0.0487 -0.4593,-0.75421 z m 7.8769,-2.05184 c 0.064,-2.9467 0.085,-2.99177 0.284,-0.61451 0.1899,2.26391 0.259,2.36441 0.5878,0.85514 0.3615,-1.65872 0.3737,-1.65504 0.405,0.12229 0.018,1.00792 -0.2778,2.05408 -0.6567,2.3248 -0.5428,0.38781 -0.6743,-0.18231 -0.6201,-2.68772 z m 101.035,-0.0745 c -0.9584,-1.37226 -0.9958,-1.62663 -0.3112,-2.11577 0.428,-0.3058 1.163,-0.17256 1.6334,0.29608 1.2034,1.19914 2.2855,1.12292 1.3748,-0.0968 -0.573,-0.7674 -0.5474,-0.83716 0.1524,-0.41447 0.4627,0.27953 1.0392,0.50823 1.2811,0.50823 0.2419,0 0.1795,0.51901 -0.1388,1.15335 -0.3183,0.63435 -0.9788,0.95854 -1.4678,0.72044 -0.595,-0.28967 -0.7804,-0.10539 -0.5606,0.55693 0.5073,1.52829 -0.7413,1.14164 -1.9633,-0.60796 z m 1.3191,-0.44855 c 0,-0.18485 -0.3208,-0.56525 -0.7128,-0.84535 -0.4088,-0.29203 -0.5931,-0.14867 -0.4322,0.33608 0.2697,0.81256 1.145,1.20186 1.145,0.50927 z m -110.6756,-1.54775 c -0.01,-0.33062 0.2252,-1.58126 0.5184,-2.77921 0.6425,-2.62559 1.7891,-2.97288 1.4325,-0.43389 -0.1348,0.95931 -0.3534,1.54251 -0.4858,1.296 -0.1324,-0.24651 -0.5129,0.21925 -0.8456,1.03501 -0.3327,0.81576 -0.6115,1.2127 -0.6195,0.88209 z m 9.6306,-0.17616 c 0,-0.16281 0.31,-0.77507 0.6889,-1.36058 0.3971,-0.6136 0.6889,-0.69671 0.6889,-0.1962 0,0.4776 -0.31,1.08986 -0.6889,1.36058 -0.3789,0.27073 -0.6889,0.35902 -0.6889,0.1962 z m 108.3351,-0.79394 c 0.3467,-0.78198 0.5017,-1.42178 0.3445,-1.42178 -0.1572,0 0.1447,-0.80169 0.671,-1.78154 0.5263,-0.97985 1.0808,-1.55077 1.2323,-1.26872 0.3629,0.67576 -1.3707,4.96614 -2.2171,5.48704 -0.5639,0.34697 -0.5684,0.19775 -0.031,-1.015 z m -125.0491,-2.63886 c 0.216,-1.04605 2.1982,-1.51459 3.7389,-0.88376 1.849,0.75711 1.0861,1.67173 -1.4506,1.7389 -1.594,0.0422 -2.4105,-0.26294 -2.2883,-0.85514 z m 38.3009,-3.05862 c 0,-0.47033 0.3222,-0.85514 0.716,-0.85514 0.3938,0 0.5883,0.38481 0.4322,0.85514 -0.1561,0.47032 -0.4784,0.85514 -0.7161,0.85514 -0.2377,0 -0.4321,-0.38482 -0.4321,-0.85514 z"
           id="path1803" />
        <g
           aria-label="Wood 3 mm. Page 02"
           id="text7755"
           style="font-size:22.5778px;line-height:1.25;font-family:Calibri;-inkscape-font-specification:Calibri;letter-spacing:0px;word-spacing:0px;display:inline;fill:none;stroke:#0000bf;stroke-width:0.5;stroke-miterlimit:4;stroke-dasharray:none">
          <path
             d="m 1680.2603,335.64138 q -0.044,0.15434 -0.1323,0.25356 -0.088,0.0882 -0.2426,0.14331 -0.1543,0.0441 -0.3858,0.0661 -0.2205,0.022 -0.5512,0.022 -0.3418,0 -0.5843,-0.022 -0.2315,-0.022 -0.3859,-0.0661 -0.1543,-0.0551 -0.2315,-0.14331 -0.077,-0.0992 -0.1212,-0.25356 l -2.9876,-10.77076 h -0.022 l -2.7561,10.77076 q -0.033,0.15434 -0.1102,0.25356 -0.077,0.0882 -0.2205,0.14331 -0.1433,0.0441 -0.3748,0.0661 -0.2205,0.022 -0.5733,0.022 -0.3638,0 -0.6063,-0.022 -0.2426,-0.022 -0.3969,-0.0661 -0.1543,-0.0551 -0.2425,-0.14331 -0.077,-0.0992 -0.1103,-0.25356 l -3.7703,-13.17406 q -0.066,-0.25356 -0.077,-0.39688 0,-0.14331 0.088,-0.22048 0.099,-0.0772 0.3087,-0.0992 0.2095,-0.0221 0.5623,-0.0221 0.3417,0 0.5401,0.0221 0.1985,0.011 0.2977,0.0551 0.1102,0.0441 0.1433,0.12127 0.044,0.0772 0.066,0.19844 l 3.208,11.95036 h 0.011 l 3.0427,-11.92832 q 0.033,-0.12126 0.077,-0.19843 0.055,-0.0882 0.1654,-0.13229 0.1103,-0.0441 0.3087,-0.0661 0.2095,-0.0221 0.5402,-0.0221 0.3087,0 0.4851,0.0221 0.1874,0.022 0.2976,0.0661 0.1103,0.0441 0.1544,0.13229 0.055,0.0772 0.088,0.19843 l 3.2743,11.92832 h 0.022 l 3.1419,-11.93934 q 0.033,-0.11024 0.066,-0.18741 0.033,-0.0882 0.1323,-0.13229 0.1102,-0.0441 0.2976,-0.0661 0.1985,-0.0221 0.5182,-0.0221 0.3307,0 0.5181,0.0331 0.1985,0.0221 0.2867,0.0992 0.088,0.0772 0.077,0.22049 0,0.14332 -0.055,0.39687 z"
             id="path7509"
             style="stroke-width:0.5;stroke-miterlimit:4;stroke-dasharray:none" />
          <path
             d="m 1694.7572,330.71351 q 0,1.21267 -0.3197,2.23794 -0.3197,1.01423 -0.9591,1.75286 -0.6284,0.73863 -1.5875,1.15756 -0.9481,0.40789 -2.2048,0.40789 -1.2237,0 -2.1388,-0.3638 -0.904,-0.3638 -1.5103,-1.05833 -0.6063,-0.69453 -0.904,-1.68672 -0.2976,-0.99219 -0.2976,-2.24896 0,-1.21268 0.3086,-2.22692 0.3197,-1.02526 0.9481,-1.76389 0.6394,-0.73863 1.5875,-1.14652 0.9481,-0.4079 2.2159,-0.4079 1.2237,0 2.1277,0.3638 0.915,0.3638 1.5214,1.05833 0.6063,0.69453 0.904,1.68672 0.3086,0.99219 0.3086,2.23794 z m -1.9182,0.12127 q 0,-0.80478 -0.1543,-1.52136 -0.1433,-0.71658 -0.4851,-1.25677 -0.3418,-0.54019 -0.926,-0.84887 -0.5843,-0.31971 -1.4553,-0.31971 -0.8047,0 -1.389,0.28663 -0.5733,0.28664 -0.9481,0.8158 -0.3748,0.51815 -0.5622,1.23473 -0.1764,0.71658 -0.1764,1.56545 0,0.8158 0.1433,1.53238 0.1543,0.71658 0.4961,1.25677 0.3528,0.52917 0.937,0.84887 0.5843,0.30868 1.4553,0.30868 0.7937,0 1.378,-0.28663 0.5843,-0.28663 0.9591,-0.80477 0.3748,-0.51815 0.5512,-1.23473 0.1764,-0.71658 0.1764,-1.57647 z"
             id="path7511"
             style="stroke-width:0.5;stroke-miterlimit:4;stroke-dasharray:none" />
          <path
             d="m 1706.6635,330.71351 q 0,1.21267 -0.3197,2.23794 -0.3197,1.01423 -0.9591,1.75286 -0.6284,0.73863 -1.5875,1.15756 -0.9481,0.40789 -2.2049,0.40789 -1.2237,0 -2.1387,-0.3638 -0.904,-0.3638 -1.5103,-1.05833 -0.6064,-0.69453 -0.904,-1.68672 -0.2977,-0.99219 -0.2977,-2.24896 0,-1.21268 0.3087,-2.22692 0.3197,-1.02526 0.9481,-1.76389 0.6394,-0.73863 1.5875,-1.14652 0.9481,-0.4079 2.2159,-0.4079 1.2237,0 2.1277,0.3638 0.915,0.3638 1.5213,1.05833 0.6064,0.69453 0.904,1.68672 0.3087,0.99219 0.3087,2.23794 z m -1.9182,0.12127 q 0,-0.80478 -0.1544,-1.52136 -0.1433,-0.71658 -0.485,-1.25677 -0.3418,-0.54019 -0.9261,-0.84887 -0.5843,-0.31971 -1.4552,-0.31971 -0.8048,0 -1.3891,0.28663 -0.5732,0.28664 -0.948,0.8158 -0.3749,0.51815 -0.5623,1.23473 -0.1764,0.71658 -0.1764,1.56545 0,0.8158 0.1433,1.53238 0.1544,0.71658 0.4961,1.25677 0.3528,0.52917 0.9371,0.84887 0.5843,0.30868 1.4552,0.30868 0.7938,0 1.3781,-0.28663 0.5842,-0.28663 0.9591,-0.80477 0.3748,-0.51815 0.5512,-1.23473 0.1764,-0.71658 0.1764,-1.57647 z"
             id="path7513"
             style="stroke-width:0.5;stroke-miterlimit:4;stroke-dasharray:none" />
          <path
             d="m 1717.8422,335.78469 q 0,0.0882 -0.044,0.15435 -0.033,0.0661 -0.1323,0.11024 -0.088,0.0331 -0.2426,0.0551 -0.1543,0.022 -0.3748,0.022 -0.2315,0 -0.3858,-0.022 -0.1544,-0.022 -0.2536,-0.0551 -0.099,-0.0441 -0.1433,-0.11024 -0.044,-0.0661 -0.044,-0.15435 v -1.31189 q -0.7827,0.84887 -1.6316,1.32292 -0.8379,0.47404 -1.8411,0.47404 -1.0914,0 -1.8631,-0.41892 -0.7717,-0.42995 -1.2568,-1.14653 -0.474,-0.7276 -0.6945,-1.69774 -0.2205,-0.98117 -0.2205,-2.06155 0,-1.27882 0.2756,-2.30408 0.2756,-1.03629 0.8158,-1.76389 0.5402,-0.72761 1.334,-1.11346 0.8048,-0.39687 1.8521,-0.39687 0.8709,0 1.5875,0.38585 0.7276,0.37482 1.4331,1.11345 v -5.76572 q 0,-0.0772 0.033,-0.14331 0.044,-0.0772 0.1543,-0.11024 0.1103,-0.0441 0.2756,-0.0661 0.1764,-0.0331 0.441,-0.0331 0.2756,0 0.452,0.0331 0.1764,0.0221 0.2756,0.0661 0.099,0.0331 0.1433,0.11024 0.055,0.0661 0.055,0.14331 z m -1.8301,-6.97839 q -0.7386,-0.91502 -1.4331,-1.38906 -0.6835,-0.48507 -1.4332,-0.48507 -0.6945,0 -1.1796,0.33073 -0.4851,0.33073 -0.7937,0.87092 -0.2977,0.54019 -0.441,1.2237 -0.1323,0.68351 -0.1323,1.38906 0,0.74966 0.1102,1.46624 0.1213,0.71658 0.4079,1.27882 0.2867,0.55121 0.7607,0.89297 0.4741,0.33073 1.1906,0.33073 0.3638,0 0.6946,-0.0992 0.3417,-0.0992 0.6945,-0.33073 0.3528,-0.23151 0.7386,-0.59532 0.3859,-0.37482 0.8158,-0.91501 z"
             id="path7515"
             style="stroke-width:0.5;stroke-miterlimit:4;stroke-dasharray:none" />
          <path
             d="m 1734.6983,331.98131 q 0,0.98116 -0.3417,1.77491 -0.3418,0.78273 -0.9812,1.34497 -0.6394,0.56224 -1.5765,0.87092 -0.937,0.29765 -2.1166,0.29765 -0.7166,0 -1.345,-0.12126 -0.6174,-0.11025 -1.1024,-0.26459 -0.4851,-0.16536 -0.8048,-0.33073 -0.3197,-0.17638 -0.4079,-0.25356 -0.077,-0.0772 -0.1213,-0.15434 -0.044,-0.0772 -0.077,-0.18741 -0.033,-0.11024 -0.055,-0.26458 -0.011,-0.16537 -0.011,-0.39688 0,-0.39687 0.077,-0.55121 0.077,-0.15434 0.2205,-0.15434 0.099,0 0.3858,0.17638 0.2977,0.17639 0.7497,0.38586 0.463,0.19843 1.0693,0.37482 0.6174,0.17639 1.3671,0.17639 0.7276,0 1.2788,-0.18741 0.5512,-0.18741 0.926,-0.52917 0.3748,-0.34175 0.5623,-0.80477 0.1874,-0.47405 0.1874,-1.02527 0,-0.60633 -0.2426,-1.0914 -0.2315,-0.48507 -0.6945,-0.83785 -0.452,-0.35278 -1.1245,-0.54019 -0.6614,-0.18742 -1.5103,-0.18742 h -1.356 q -0.088,0 -0.1764,-0.0331 -0.077,-0.0441 -0.1433,-0.13229 -0.055,-0.0882 -0.099,-0.23151 -0.033,-0.14332 -0.033,-0.37483 0,-0.20946 0.033,-0.34175 0.033,-0.14332 0.088,-0.22049 0.066,-0.0882 0.1433,-0.12127 0.077,-0.0441 0.1764,-0.0441 h 1.2457 q 0.7276,0 1.3009,-0.18742 0.5843,-0.18741 0.9812,-0.54019 0.4079,-0.35278 0.6173,-0.83785 0.2205,-0.49609 0.2205,-1.10243 0,-0.44097 -0.1433,-0.83785 -0.1433,-0.4079 -0.43,-0.70555 -0.2866,-0.29766 -0.7386,-0.46302 -0.441,-0.17639 -1.0252,-0.17639 -0.6395,0 -1.1796,0.19844 -0.5292,0.18741 -0.9481,0.4079 -0.419,0.22048 -0.6946,0.41892 -0.2756,0.18741 -0.3858,0.18741 -0.077,0 -0.1433,-0.022 -0.055,-0.0331 -0.099,-0.11024 -0.033,-0.0882 -0.055,-0.23151 -0.011,-0.15434 -0.011,-0.39688 0,-0.16536 0.011,-0.28663 0.011,-0.13229 0.044,-0.22048 0.033,-0.0992 0.077,-0.17639 0.044,-0.0772 0.1433,-0.17639 0.1102,-0.11025 0.43,-0.30868 0.3197,-0.19844 0.7827,-0.38585 0.474,-0.19844 1.0804,-0.33073 0.6173,-0.1323 1.3229,-0.1323 0.9922,0 1.7418,0.25356 0.7497,0.25356 1.2458,0.71658 0.5071,0.46303 0.7496,1.11346 0.2536,0.63941 0.2536,1.42214 0,0.67248 -0.1764,1.25677 -0.1764,0.57326 -0.5181,1.02526 -0.3418,0.44097 -0.8379,0.76068 -0.4961,0.30868 -1.1465,0.42995 v 0.0221 q 0.7386,0.0772 1.3449,0.37482 0.6174,0.28663 1.0584,0.72761 0.4409,0.44097 0.6835,1.03628 0.2535,0.58429 0.2535,1.25678 z"
             id="path7517"
             style="stroke-width:0.5;stroke-miterlimit:4;stroke-dasharray:none" />
          <path
             d="m 1757.5738,335.78469 q 0,0.0882 -0.044,0.15435 -0.044,0.0551 -0.1433,0.0992 -0.099,0.0441 -0.2756,0.0661 -0.1764,0.022 -0.441,0.022 -0.2756,0 -0.452,-0.022 -0.1764,-0.022 -0.2866,-0.0661 -0.099,-0.0441 -0.1433,-0.0992 -0.044,-0.0661 -0.044,-0.15435 v -6.0303 q 0,-0.62838 -0.1103,-1.14653 -0.1102,-0.51814 -0.3528,-0.89297 -0.2425,-0.37482 -0.6173,-0.57326 -0.3748,-0.19844 -0.882,-0.19844 -0.6284,0 -1.2678,0.48507 -0.6283,0.48507 -1.389,1.42214 v 6.93429 q 0,0.0882 -0.044,0.15435 -0.044,0.0551 -0.1544,0.0992 -0.099,0.0441 -0.2756,0.0661 -0.1764,0.022 -0.4409,0.022 -0.2536,0 -0.441,-0.022 -0.1764,-0.022 -0.2866,-0.0661 -0.099,-0.0441 -0.1434,-0.0992 -0.033,-0.0661 -0.033,-0.15435 v -6.0303 q 0,-0.62838 -0.1213,-1.14653 -0.1213,-0.51814 -0.3638,-0.89297 -0.2425,-0.37482 -0.6174,-0.57326 -0.3638,-0.19844 -0.8709,-0.19844 -0.6284,0 -1.2678,0.48507 -0.6394,0.48507 -1.3891,1.42214 v 6.93429 q 0,0.0882 -0.044,0.15435 -0.044,0.0551 -0.1434,0.0992 -0.099,0.0441 -0.2756,0.0661 -0.1764,0.022 -0.452,0.022 -0.2646,0 -0.4409,-0.022 -0.1764,-0.022 -0.2867,-0.0661 -0.099,-0.0441 -0.1433,-0.0992 -0.033,-0.0661 -0.033,-0.15435 v -9.92188 q 0,-0.0882 0.033,-0.14332 0.033,-0.0661 0.1323,-0.11024 0.099,-0.0551 0.2536,-0.0661 0.1543,-0.022 0.4079,-0.022 0.2425,0 0.3968,0.022 0.1654,0.011 0.2536,0.0661 0.088,0.0441 0.1213,0.11024 0.044,0.0551 0.044,0.14332 v 1.31189 q 0.8378,-0.93706 1.6205,-1.36701 0.7938,-0.44097 1.5986,-0.44097 0.6173,0 1.1024,0.14331 0.4961,0.14332 0.8709,0.4079 0.3748,0.25356 0.6394,0.61736 0.2646,0.35278 0.441,0.79375 0.4961,-0.54019 0.9371,-0.91501 0.452,-0.37483 0.8599,-0.60634 0.4189,-0.23151 0.8047,-0.33073 0.3969,-0.11024 0.7938,-0.11024 0.9591,0 1.6095,0.34175 0.6505,0.33073 1.0473,0.89297 0.4079,0.56224 0.5733,1.32292 0.1764,0.74965 0.1764,1.5875 z"
             id="path7519"
             style="stroke-width:0.5;stroke-miterlimit:4;stroke-dasharray:none" />
          <path
             d="m 1775.6096,335.78469 q 0,0.0882 -0.044,0.15435 -0.044,0.0551 -0.1433,0.0992 -0.099,0.0441 -0.2756,0.0661 -0.1764,0.022 -0.441,0.022 -0.2756,0 -0.452,-0.022 -0.1764,-0.022 -0.2866,-0.0661 -0.099,-0.0441 -0.1434,-0.0992 -0.044,-0.0661 -0.044,-0.15435 v -6.0303 q 0,-0.62838 -0.1102,-1.14653 -0.1102,-0.51814 -0.3528,-0.89297 -0.2425,-0.37482 -0.6173,-0.57326 -0.3749,-0.19844 -0.882,-0.19844 -0.6284,0 -1.2678,0.48507 -0.6284,0.48507 -1.389,1.42214 v 6.93429 q 0,0.0882 -0.044,0.15435 -0.044,0.0551 -0.1544,0.0992 -0.099,0.0441 -0.2756,0.0661 -0.1764,0.022 -0.441,0.022 -0.2535,0 -0.4409,-0.022 -0.1764,-0.022 -0.2867,-0.0661 -0.099,-0.0441 -0.1433,-0.0992 -0.033,-0.0661 -0.033,-0.15435 v -6.0303 q 0,-0.62838 -0.1212,-1.14653 -0.1213,-0.51814 -0.3638,-0.89297 -0.2426,-0.37482 -0.6174,-0.57326 -0.3638,-0.19844 -0.8709,-0.19844 -0.6284,0 -1.2678,0.48507 -0.6394,0.48507 -1.3891,1.42214 v 6.93429 q 0,0.0882 -0.044,0.15435 -0.044,0.0551 -0.1433,0.0992 -0.099,0.0441 -0.2756,0.0661 -0.1764,0.022 -0.452,0.022 -0.2646,0 -0.441,-0.022 -0.1763,-0.022 -0.2866,-0.0661 -0.099,-0.0441 -0.1433,-0.0992 -0.033,-0.0661 -0.033,-0.15435 v -9.92188 q 0,-0.0882 0.033,-0.14332 0.033,-0.0661 0.1323,-0.11024 0.099,-0.0551 0.2535,-0.0661 0.1544,-0.022 0.4079,-0.022 0.2426,0 0.3969,0.022 0.1654,0.011 0.2536,0.0661 0.088,0.0441 0.1212,0.11024 0.044,0.0551 0.044,0.14332 v 1.31189 q 0.8379,-0.93706 1.6206,-1.36701 0.7938,-0.44097 1.5985,-0.44097 0.6174,0 1.1025,0.14331 0.4961,0.14332 0.8709,0.4079 0.3748,0.25356 0.6394,0.61736 0.2646,0.35278 0.441,0.79375 0.4961,-0.54019 0.937,-0.91501 0.452,-0.37483 0.8599,-0.60634 0.419,-0.23151 0.8048,-0.33073 0.3969,-0.11024 0.7938,-0.11024 0.9591,0 1.6095,0.34175 0.6505,0.33073 1.0473,0.89297 0.4079,0.56224 0.5733,1.32292 0.1764,0.74965 0.1764,1.5875 z"
             id="path7521"
             style="stroke-width:0.5;stroke-miterlimit:4;stroke-dasharray:none" />
          <path
             d="m 1781.2761,334.85865 q 0,0.78273 -0.2646,1.04731 -0.2536,0.25356 -0.9371,0.25356 -0.6614,0 -0.915,-0.25356 -0.2535,-0.25356 -0.2535,-1.01423 0,-0.78273 0.2535,-1.03629 0.2646,-0.26458 0.9481,-0.26458 0.6615,0 0.915,0.25356 0.2536,0.25355 0.2536,1.01423 z"
             id="path7523"
             style="stroke-width:0.5;stroke-miterlimit:4;stroke-dasharray:none" />
          <path
             d="m 1798.7055,325.97305 q 0,1.06936 -0.3528,1.92926 -0.3527,0.8599 -1.0142,1.46623 -0.6504,0.60634 -1.6095,0.93707 -0.9481,0.33073 -2.271,0.33073 h -1.6206 v 5.13733 q 0,0.0882 -0.055,0.15434 -0.044,0.0662 -0.1544,0.11024 -0.099,0.0331 -0.2866,0.0551 -0.1764,0.0331 -0.452,0.0331 -0.2756,0 -0.463,-0.0331 -0.1764,-0.0221 -0.2867,-0.0551 -0.1102,-0.0441 -0.1543,-0.11024 -0.044,-0.0661 -0.044,-0.15434 v -13.16303 q 0,-0.44098 0.2315,-0.62839 0.2315,-0.18741 0.5181,-0.18741 h 3.0538 q 0.463,0 0.8819,0.0441 0.43,0.0331 1.0032,0.16537 0.5843,0.12127 1.1796,0.47404 0.6064,0.34176 1.0253,0.84888 0.4189,0.50712 0.6394,1.1796 0.2315,0.66146 0.2315,1.46623 z m -1.9954,0.15434 q 0,-0.87092 -0.3307,-1.45521 -0.3197,-0.58429 -0.8048,-0.87092 -0.474,-0.28663 -0.9922,-0.3638 -0.5071,-0.0772 -0.9922,-0.0772 h -1.7528 v 5.72162 h 1.7087 q 0.8599,0 1.4222,-0.22049 0.5732,-0.22048 0.9591,-0.60633 0.3859,-0.39688 0.5843,-0.93707 0.1984,-0.55122 0.1984,-1.19063 z"
             id="path7525"
             style="stroke-width:0.5;stroke-miterlimit:4;stroke-dasharray:none" />
          <path
             d="m 1808.3849,335.79572 q 0,0.13229 -0.088,0.19844 -0.088,0.0661 -0.2426,0.0992 -0.1543,0.0331 -0.452,0.0331 -0.2866,0 -0.463,-0.0331 -0.1653,-0.0331 -0.2425,-0.0992 -0.077,-0.0662 -0.077,-0.19844 v -0.99219 q -0.6504,0.69453 -1.4552,1.08038 -0.7937,0.38585 -1.6867,0.38585 -0.7827,0 -1.4221,-0.20946 -0.6284,-0.19843 -1.0804,-0.58429 -0.441,-0.38585 -0.6946,-0.94809 -0.2425,-0.56224 -0.2425,-1.27882 0,-0.83785 0.3418,-1.45521 0.3417,-0.61736 0.9811,-1.02526 0.6394,-0.4079 1.5655,-0.60634 0.926,-0.20946 2.0836,-0.20946 h 1.367 v -0.7717 q 0,-0.57327 -0.1213,-1.01424 -0.1213,-0.44097 -0.3969,-0.7276 -0.2645,-0.29766 -0.6945,-0.44098 -0.4299,-0.15434 -1.0583,-0.15434 -0.6725,0 -1.2127,0.16537 -0.5292,0.15434 -0.9371,0.35278 -0.3968,0.18741 -0.6725,0.35277 -0.2645,0.15435 -0.3968,0.15435 -0.088,0 -0.1544,-0.0441 -0.066,-0.0441 -0.1212,-0.13229 -0.044,-0.0882 -0.066,-0.22049 -0.022,-0.14332 -0.022,-0.30868 0,-0.27561 0.033,-0.42995 0.044,-0.16536 0.1875,-0.30868 0.1543,-0.14332 0.5181,-0.33073 0.3638,-0.19844 0.8378,-0.35278 0.4741,-0.16536 1.0363,-0.26458 0.5623,-0.11024 1.1355,-0.11024 1.0694,0 1.8191,0.24253 0.7496,0.24254 1.2126,0.71658 0.463,0.46302 0.6725,1.15755 0.2095,0.69454 0.2095,1.62058 z m -1.808,-4.531 h -1.5544 q -0.7497,0 -1.3009,0.1323 -0.5512,0.12126 -0.915,0.37482 -0.3638,0.24254 -0.5402,0.59532 -0.1654,0.34175 -0.1654,0.79375 0,0.7717 0.4851,1.23472 0.4961,0.452 1.378,0.452 0.7166,0 1.3229,-0.3638 0.6174,-0.36381 1.2899,-1.11346 z"
             id="path7527"
             style="stroke-width:0.5;stroke-miterlimit:4;stroke-dasharray:none" />
          <path
             d="m 1820.0155,326.31481 q 0,0.38585 -0.1102,0.56224 -0.099,0.16536 -0.2646,0.16536 h -1.4221 q 0.3858,0.39688 0.5402,0.88195 0.1543,0.47404 0.1543,0.99219 0,0.85989 -0.2756,1.52135 -0.2756,0.66146 -0.7938,1.12448 -0.5071,0.452 -1.2126,0.69453 -0.7056,0.24254 -1.5655,0.24254 -0.6063,0 -1.1575,-0.15434 -0.5402,-0.16537 -0.8379,-0.4079 -0.1984,0.19844 -0.3307,0.452 -0.1213,0.25355 -0.1213,0.58428 0,0.38586 0.3528,0.63941 0.3638,0.25356 0.9591,0.27561 l 2.5907,0.11025 q 0.7387,0.022 1.356,0.20946 0.6174,0.17639 1.0694,0.51814 0.452,0.33073 0.7055,0.82682 0.2536,0.48507 0.2536,1.13551 0,0.68351 -0.2866,1.30087 -0.2867,0.61736 -0.882,1.08038 -0.5843,0.47405 -1.4993,0.73863 -0.915,0.27561 -2.1608,0.27561 -1.2016,0 -2.0505,-0.20946 -0.8378,-0.19844 -1.378,-0.55122 -0.5402,-0.35278 -0.7827,-0.84887 -0.2426,-0.48507 -0.2426,-1.05834 0,-0.3638 0.088,-0.70555 0.088,-0.34176 0.2646,-0.65044 0.1874,-0.30868 0.452,-0.58429 0.2756,-0.28663 0.6284,-0.56224 -0.5402,-0.2756 -0.8048,-0.69453 -0.2536,-0.41892 -0.2536,-0.90399 0,-0.67249 0.2757,-1.20165 0.2756,-0.52917 0.6835,-0.94809 -0.3418,-0.4079 -0.5402,-0.91502 -0.1985,-0.51815 -0.1985,-1.24575 0,-0.84887 0.2867,-1.52136 0.2866,-0.67248 0.7937,-1.1355 0.5071,-0.46302 1.2127,-0.70556 0.7166,-0.25356 1.5544,-0.25356 0.452,0 0.8379,0.0551 0.3968,0.0441 0.7386,0.13229 h 2.9986 q 0.1874,0 0.2756,0.18741 0.099,0.17639 0.099,0.55122 z m -2.8442,2.61276 q 0,-1.01424 -0.5623,-1.57648 -0.5512,-0.57326 -1.5765,-0.57326 -0.5291,0 -0.926,0.17639 -0.3858,0.17639 -0.6504,0.48507 -0.2536,0.30868 -0.3859,0.71658 -0.1213,0.39687 -0.1213,0.83785 0,0.98116 0.5513,1.5434 0.5622,0.56224 1.5654,0.56224 0.5402,0 0.9371,-0.16536 0.3969,-0.17639 0.6504,-0.47405 0.2646,-0.30868 0.3859,-0.70556 0.1323,-0.39687 0.1323,-0.82682 z m 0.915,7.86034 q 0,-0.63941 -0.5292,-0.98117 -0.5181,-0.35277 -1.4111,-0.37482 l -2.5687,-0.0882 q -0.3527,0.27561 -0.5843,0.52917 -0.2204,0.24253 -0.3527,0.46302 -0.1323,0.23151 -0.1874,0.452 -0.044,0.22048 -0.044,0.45199 0,0.71659 0.7276,1.08039 0.7276,0.37482 2.0284,0.37482 0.8269,0 1.3781,-0.16536 0.5622,-0.15434 0.904,-0.41892 0.3417,-0.26459 0.485,-0.60634 0.1544,-0.34176 0.1544,-0.71658 z"
             id="path7529"
             style="stroke-width:0.5;stroke-miterlimit:4;stroke-dasharray:none" />
          <path
             d="m 1830.6319,330.3938 q 0,0.42995 -0.2204,0.61737 -0.2095,0.17638 -0.4851,0.17638 h -6.5044 q 0,0.82683 0.1654,1.48829 0.1654,0.66146 0.5512,1.1355 0.3859,0.47405 1.0032,0.72761 0.6174,0.25356 1.5104,0.25356 0.7055,0 1.2567,-0.11025 0.5513,-0.12126 0.9481,-0.26458 0.4079,-0.14332 0.6615,-0.25356 0.2646,-0.12127 0.3969,-0.12127 0.077,0 0.1323,0.0441 0.066,0.0331 0.099,0.11024 0.033,0.0772 0.044,0.22049 0.022,0.13229 0.022,0.33073 0,0.14332 -0.011,0.25356 -0.011,0.0992 -0.033,0.18741 -0.011,0.0772 -0.055,0.14332 -0.033,0.0661 -0.099,0.13229 -0.055,0.0551 -0.3528,0.19844 -0.2977,0.13229 -0.7717,0.26458 -0.474,0.13229 -1.1024,0.23151 -0.6174,0.11024 -1.3229,0.11024 -1.2237,0 -2.1498,-0.34175 -0.915,-0.34175 -1.5434,-1.01424 -0.6284,-0.67248 -0.9481,-1.68672 -0.3197,-1.01423 -0.3197,-2.3592 0,-1.27882 0.3307,-2.29306 0.3308,-1.02526 0.9481,-1.73082 0.6284,-0.71658 1.5104,-1.0914 0.8819,-0.38585 1.9733,-0.38585 1.1686,0 1.9844,0.37482 0.8268,0.37483 1.356,1.01424 0.5291,0.62839 0.7717,1.48828 0.2535,0.84887 0.2535,1.81901 z m -1.83,-0.54019 q 0.033,-1.43316 -0.6394,-2.24896 -0.6615,-0.8158 -1.9734,-0.8158 -0.6724,0 -1.1796,0.25356 -0.5071,0.25356 -0.8488,0.67248 -0.3418,0.41893 -0.5292,0.98117 -0.1874,0.55121 -0.2095,1.15755 z"
             id="path7531"
             style="stroke-width:0.5;stroke-miterlimit:4;stroke-dasharray:none" />
          <path
             d="m 1847.4771,328.8945 q 0,1.64262 -0.2646,2.99861 -0.2535,1.35599 -0.8599,2.33716 -0.5953,0.97014 -1.5654,1.51033 -0.9702,0.52916 -2.3923,0.52916 -1.345,0 -2.271,-0.47404 -0.915,-0.48507 -1.4773,-1.41111 -0.5622,-0.93707 -0.8047,-2.29306 -0.2316,-1.36702 -0.2316,-3.13091 0,-1.6316 0.2646,-2.98759 0.2646,-1.36701 0.8599,-2.33715 0.5953,-0.98117 1.5655,-1.51033 0.9701,-0.5402 2.3812,-0.5402 1.356,0 2.271,0.48507 0.9261,0.47405 1.4883,1.41112 0.5623,0.92604 0.7938,2.29306 0.2425,1.35599 0.2425,3.11988 z m -1.9403,0.13229 q 0,-1.06936 -0.077,-1.91823 -0.077,-0.84887 -0.2316,-1.49931 -0.1433,-0.65043 -0.3858,-1.11346 -0.2315,-0.47404 -0.5622,-0.7717 -0.3308,-0.30868 -0.7607,-0.44097 -0.419,-0.14332 -0.9481,-0.14332 -0.9371,0 -1.5214,0.44098 -0.5843,0.44097 -0.926,1.21267 -0.3307,0.7717 -0.452,1.80799 -0.1213,1.03628 -0.1213,2.22691 0,1.59853 0.1654,2.72301 0.1653,1.11345 0.5181,1.81901 0.3638,0.70556 0.915,1.02526 0.5623,0.31971 1.356,0.31971 0.6174,0 1.0804,-0.19844 0.4741,-0.19844 0.8048,-0.56224 0.3417,-0.37483 0.5622,-0.89297 0.2205,-0.51814 0.3528,-1.14653 0.1323,-0.62839 0.1764,-1.35599 0.055,-0.73863 0.055,-1.53238 z"
             id="path7533"
             style="stroke-width:0.5;stroke-miterlimit:4;stroke-dasharray:none" />
        </g>
      </g>
    </g>
  </g>
</svg>
