<?xml version="1.0" encoding="UTF-8" standalone="no"?>
<svg
   inkscape:label="LA410-complettTree"
   sodipodi:docname="toy.Wood1mm.01.Engrave.svg"
   inkscape:version="1.1.1 (eb90963e84, 2021-10-02)"
   id="svg1004"
   version="1.1"
   viewBox="0 0 193.60208 331.60134"
   height="331.60135mm"
   width="193.6021mm"
   xmlns:inkscape="http://www.inkscape.org/namespaces/inkscape"
   xmlns:sodipodi="http://sodipodi.sourceforge.net/DTD/sodipodi-0.dtd"
   xmlns="http://www.w3.org/2000/svg"
   xmlns:svg="http://www.w3.org/2000/svg">
  <defs
     id="defs27" />
  <sodipodi:namedview
     id="namedview25"
     pagecolor="#ffffff"
     bordercolor="#666666"
     borderopacity="1.0"
     inkscape:pageshadow="2"
     inkscape:pageopacity="0.0"
     inkscape:pagecheckerboard="0"
     inkscape:document-units="mm" />
  <g
     id="layer20"
     inkscape:label="Wood1mm"
     inkscape:groupmode="layer"
     transform="translate(-2003.0398,-1140.8607)"
     style="display:inline">
    <g
       inkscape:groupmode="layer"
       id="layer31"
       inkscape:label="01"
       style="display:inline">
      <g
         id="layer4-1"
         inkscape:label="Engrave"
         style="display:inline"
         transform="translate(1487.9624,1202.952)"
         inkscape:groupmode="layer">
        <path
           style="display:inline;fill:none;stroke:#0000bf;stroke-width:0.5;stroke-linecap:butt;stroke-linejoin:miter;stroke-miterlimit:4;stroke-dasharray:none;stroke-dashoffset:0;stroke-opacity:1"
           d="m 577.44515,265.99839 36.9717,-49.4539 -36.22938,-60.54185 33.47934,-55.67794 -30.0866,-40.674728 29.61582,-40.670117 -29.71351,-31.842389"
           id="path16218" />
        <g
           aria-label="Wood 1 mm. Page 01"
           id="text8197"
           style="font-size:22.5778px;line-height:1.25;font-family:Calibri;-inkscape-font-specification:Calibri;letter-spacing:0px;word-spacing:0px;fill:none;stroke:#0000bf;stroke-width:0.5;stroke-miterlimit:4;stroke-dasharray:none">
          <path
             d="m 530.21034,-46.947431 q -0.0441,0.15434 -0.13229,0.253559 -0.0882,0.08819 -0.24254,0.143316 -0.15434,0.0441 -0.38585,0.06615 -0.22048,0.02205 -0.55121,0.02205 -0.34176,0 -0.58429,-0.02205 -0.23151,-0.02205 -0.38585,-0.06615 -0.15434,-0.05512 -0.23151,-0.143316 -0.0772,-0.09922 -0.12127,-0.253559 l -2.98759,-10.770758 h -0.0221 l -2.75608,10.770758 q -0.0331,0.15434 -0.11024,0.253559 -0.0772,0.08819 -0.22049,0.143316 -0.14331,0.0441 -0.37483,0.06615 -0.22048,0.02205 -0.57326,0.02205 -0.3638,0 -0.60634,-0.02205 -0.24253,-0.02205 -0.39687,-0.06615 -0.15434,-0.05512 -0.24254,-0.143316 -0.0772,-0.09922 -0.11024,-0.253559 l -3.77032,-13.174059 q -0.0661,-0.253559 -0.0772,-0.396875 0,-0.143316 0.0882,-0.220487 0.0992,-0.07717 0.30868,-0.09922 0.20946,-0.02205 0.56224,-0.02205 0.34175,0 0.54019,0.02205 0.19844,0.01102 0.29766,0.05512 0.11024,0.0441 0.14331,0.121268 0.0441,0.07717 0.0661,0.198437 l 3.20807,11.95036 h 0.011 l 3.04271,-11.928311 q 0.0331,-0.121267 0.0772,-0.198438 0.0551,-0.08819 0.16537,-0.132292 0.11024,-0.0441 0.30868,-0.06614 0.20946,-0.02205 0.54019,-0.02205 0.30868,0 0.48507,0.02205 0.18741,0.02205 0.29765,0.06614 0.11025,0.0441 0.15434,0.132292 0.0551,0.07717 0.0882,0.198438 l 3.27422,11.928311 h 0.0221 l 3.14193,-11.939335 q 0.0331,-0.110243 0.0661,-0.187414 0.0331,-0.08819 0.13229,-0.132292 0.11024,-0.0441 0.29765,-0.06614 0.19844,-0.02205 0.51815,-0.02205 0.33073,0 0.51814,0.03307 0.19844,0.02205 0.28663,0.09922 0.0882,0.07717 0.0772,0.220486 0,0.143316 -0.0551,0.396876 z"
             id="path7417"
             style="stroke-width:0.5;stroke-miterlimit:4;stroke-dasharray:none" />
          <path
             d="m 544.70732,-51.875301 q 0,1.212675 -0.31971,2.237936 -0.3197,1.014238 -0.95911,1.752867 -0.62839,0.738629 -1.58751,1.157553 -0.94809,0.4079 -2.20486,0.4079 -1.2237,0 -2.13872,-0.363803 -0.90399,-0.363802 -1.51033,-1.058334 -0.60633,-0.694532 -0.90399,-1.686721 -0.29766,-0.992188 -0.29766,-2.24896 0,-1.212675 0.30868,-2.226912 0.31971,-1.025262 0.94809,-1.763891 0.63941,-0.738629 1.58751,-1.146529 0.94809,-0.4079 2.21588,-0.4079 1.2237,0 2.1277,0.363803 0.91501,0.363802 1.52135,1.058334 0.60634,0.694532 0.904,1.686721 0.30868,0.992188 0.30868,2.237936 z m -1.91823,0.121268 q 0,-0.804776 -0.15434,-1.521356 -0.14332,-0.716581 -0.48507,-1.256772 -0.34176,-0.540192 -0.92605,-0.848873 -0.58429,-0.319705 -1.45521,-0.319705 -0.80477,0 -1.38906,0.286632 -0.57327,0.286633 -0.94809,0.8158 -0.37483,0.518143 -0.56224,1.234723 -0.17639,0.716581 -0.17639,1.565453 0,0.8158 0.14331,1.53238 0.15435,0.716581 0.4961,1.256772 0.35278,0.529168 0.93707,0.848873 0.58428,0.308681 1.45521,0.308681 0.79375,0 1.37804,-0.286632 0.58428,-0.286633 0.95911,-0.804776 0.37483,-0.518142 0.55122,-1.234723 0.17639,-0.716581 0.17639,-1.576477 z"
             id="path7419"
             style="stroke-width:0.5;stroke-miterlimit:4;stroke-dasharray:none" />
          <path
             d="m 556.61358,-51.875301 q 0,1.212675 -0.31971,2.237936 -0.3197,1.014238 -0.95911,1.752867 -0.62839,0.738629 -1.5875,1.157553 -0.9481,0.4079 -2.20487,0.4079 -1.2237,0 -2.13871,-0.363803 -0.904,-0.363802 -1.51034,-1.058334 -0.60633,-0.694532 -0.90399,-1.686721 -0.29766,-0.992188 -0.29766,-2.24896 0,-1.212675 0.30868,-2.226912 0.31971,-1.025262 0.9481,-1.763891 0.63941,-0.738629 1.5875,-1.146529 0.94809,-0.4079 2.21588,-0.4079 1.2237,0 2.1277,0.363803 0.91502,0.363802 1.52135,1.058334 0.60634,0.694532 0.904,1.686721 0.30868,0.992188 0.30868,2.237936 z m -1.91823,0.121268 q 0,-0.804776 -0.15434,-1.521356 -0.14332,-0.716581 -0.48507,-1.256772 -0.34176,-0.540192 -0.92605,-0.848873 -0.58428,-0.319705 -1.45521,-0.319705 -0.80477,0 -1.38906,0.286632 -0.57326,0.286633 -0.94809,0.8158 -0.37483,0.518143 -0.56224,1.234723 -0.17639,0.716581 -0.17639,1.565453 0,0.8158 0.14332,1.53238 0.15434,0.716581 0.49609,1.256772 0.35278,0.529168 0.93707,0.848873 0.58429,0.308681 1.45521,0.308681 0.79375,0 1.37804,-0.286632 0.58429,-0.286633 0.95911,-0.804776 0.37483,-0.518142 0.55122,-1.234723 0.17639,-0.716581 0.17639,-1.576477 z"
             id="path7421"
             style="stroke-width:0.5;stroke-miterlimit:4;stroke-dasharray:none" />
          <path
             d="m 567.79223,-46.804115 q 0,0.08819 -0.0441,0.15434 -0.0331,0.06615 -0.13229,0.110243 -0.0882,0.03307 -0.24254,0.05512 -0.15434,0.02205 -0.37483,0.02205 -0.23151,0 -0.38585,-0.02205 -0.15434,-0.02205 -0.25356,-0.05512 -0.0992,-0.0441 -0.14331,-0.110243 -0.0441,-0.06615 -0.0441,-0.15434 v -1.311894 q -0.78273,0.848873 -1.6316,1.322918 -0.83785,0.474046 -1.84106,0.474046 -1.09141,0 -1.86311,-0.418924 -0.7717,-0.429949 -1.25677,-1.146529 -0.47405,-0.727605 -0.69453,-1.697745 -0.22049,-0.981164 -0.22049,-2.061547 0,-1.278821 0.27561,-2.304082 0.27561,-1.036286 0.8158,-1.763891 0.54019,-0.727605 1.33394,-1.113456 0.80478,-0.396876 1.85209,-0.396876 0.87092,0 1.5875,0.385852 0.7276,0.374826 1.43316,1.113456 v -5.765718 q 0,-0.07717 0.0331,-0.143316 0.0441,-0.07717 0.15434,-0.110243 0.11024,-0.0441 0.27561,-0.06615 0.17639,-0.03307 0.44097,-0.03307 0.27561,0 0.452,0.03307 0.17639,0.02205 0.27561,0.06615 0.0992,0.03307 0.14331,0.110243 0.0551,0.06615 0.0551,0.143316 z m -1.83003,-6.978393 q -0.73863,-0.915018 -1.43316,-1.389064 -0.68351,-0.48507 -1.43316,-0.48507 -0.69454,0 -1.17961,0.33073 -0.48507,0.330729 -0.79375,0.870921 -0.29765,0.540192 -0.44097,1.223699 -0.13229,0.683508 -0.13229,1.389064 0,0.749654 0.11024,1.466234 0.12127,0.716581 0.4079,1.278821 0.28663,0.551216 0.76068,0.89297 0.47405,0.330729 1.19063,0.330729 0.3638,0 0.69453,-0.09922 0.34175,-0.09922 0.69453,-0.330729 0.35278,-0.231511 0.73863,-0.595313 0.38585,-0.374827 0.8158,-0.915019 z"
             id="path7423"
             style="stroke-width:0.5;stroke-miterlimit:4;stroke-dasharray:none" />
          <path
             d="m 584.79173,-47.278161 q 0,0.209462 -0.0331,0.352778 -0.0331,0.143316 -0.0882,0.231511 -0.0551,0.08819 -0.13229,0.132292 -0.0661,0.03307 -0.14331,0.03307 h -7.45244 q -0.0772,0 -0.14332,-0.03307 -0.0661,-0.0441 -0.13229,-0.132292 -0.0551,-0.08819 -0.0882,-0.231511 -0.0331,-0.143316 -0.0331,-0.352778 0,-0.198437 0.0331,-0.341754 0.0331,-0.143316 0.0772,-0.23151 0.0551,-0.09922 0.12126,-0.143316 0.0772,-0.05512 0.16537,-0.05512 h 2.97656 v -10.847928 l -2.75608,1.642624 q -0.20946,0.110243 -0.34175,0.132291 -0.12127,0.02205 -0.19844,-0.0441 -0.0772,-0.07717 -0.11024,-0.242535 -0.0221,-0.165365 -0.0221,-0.418924 0,-0.187413 0.011,-0.319705 0.0221,-0.132292 0.0551,-0.220486 0.0331,-0.08819 0.0882,-0.154341 0.0661,-0.06615 0.16537,-0.132292 l 3.28524,-2.105644 q 0.0441,-0.03307 0.11025,-0.05512 0.0661,-0.02205 0.16536,-0.0441 0.0992,-0.02205 0.23151,-0.02205 0.13229,-0.01102 0.33073,-0.01102 0.26458,0 0.44097,0.02205 0.17639,0.02205 0.27561,0.06615 0.0992,0.03307 0.13229,0.09922 0.0331,0.05512 0.0331,0.121268 v 12.534648 h 2.57969 q 0.0882,0 0.16536,0.05512 0.0772,0.0441 0.12127,0.143316 0.0551,0.08819 0.0772,0.23151 0.0331,0.143317 0.0331,0.341754 z"
             id="path7425"
             style="stroke-width:0.5;stroke-miterlimit:4;stroke-dasharray:none" />
          <path
             d="m 607.52387,-46.804115 q 0,0.08819 -0.0441,0.15434 -0.0441,0.05512 -0.14332,0.09922 -0.0992,0.0441 -0.27561,0.06615 -0.17639,0.02205 -0.44097,0.02205 -0.27561,0 -0.452,-0.02205 -0.17639,-0.02205 -0.28663,-0.06615 -0.0992,-0.0441 -0.14332,-0.09922 -0.0441,-0.06615 -0.0441,-0.15434 v -6.030301 q 0,-0.628386 -0.11025,-1.146529 -0.11024,-0.518143 -0.35277,-0.89297 -0.24254,-0.374827 -0.61737,-0.573265 -0.37482,-0.198437 -0.88194,-0.198437 -0.62839,0 -1.2678,0.48507 -0.62838,0.48507 -1.38906,1.422137 v 6.934295 q 0,0.08819 -0.0441,0.15434 -0.0441,0.05512 -0.15434,0.09922 -0.0992,0.0441 -0.27561,0.06615 -0.17639,0.02205 -0.44097,0.02205 -0.25356,0 -0.44097,-0.02205 -0.17639,-0.02205 -0.28664,-0.06615 -0.0992,-0.0441 -0.14331,-0.09922 -0.0331,-0.06615 -0.0331,-0.15434 v -6.030301 q 0,-0.628386 -0.12127,-1.146529 -0.12127,-0.518143 -0.3638,-0.89297 -0.24254,-0.374827 -0.61737,-0.573265 -0.3638,-0.198437 -0.87092,-0.198437 -0.62838,0 -1.26779,0.48507 -0.63941,0.48507 -1.38907,1.422137 v 6.934295 q 0,0.08819 -0.0441,0.15434 -0.0441,0.05512 -0.14332,0.09922 -0.0992,0.0441 -0.27561,0.06615 -0.17639,0.02205 -0.452,0.02205 -0.26458,0 -0.44097,-0.02205 -0.17639,-0.02205 -0.28663,-0.06615 -0.0992,-0.0441 -0.14332,-0.09922 -0.0331,-0.06615 -0.0331,-0.15434 V -56.726 q 0,-0.08819 0.0331,-0.143316 0.0331,-0.06615 0.1323,-0.110244 0.0992,-0.05512 0.25355,-0.06614 0.15434,-0.02205 0.4079,-0.02205 0.24254,0 0.39688,0.02205 0.16536,0.01102 0.25356,0.06614 0.0882,0.0441 0.12127,0.110244 0.0441,0.05512 0.0441,0.143316 v 1.311893 q 0.83785,-0.937066 1.62058,-1.367015 0.79375,-0.440973 1.59852,-0.440973 0.61737,0 1.10244,0.143317 0.49609,0.143316 0.87092,0.407899 0.37482,0.25356 0.63941,0.617362 0.26458,0.352778 0.44097,0.793751 0.49609,-0.540192 0.93707,-0.915018 0.45199,-0.374827 0.85989,-0.606338 0.41893,-0.23151 0.80478,-0.330729 0.39687,-0.110244 0.79375,-0.110244 0.95911,0 1.60955,0.341754 0.65043,0.33073 1.04731,0.89297 0.4079,0.56224 0.57326,1.322918 0.17639,0.749654 0.17639,1.587502 z"
             id="path7427"
             style="stroke-width:0.5;stroke-miterlimit:4;stroke-dasharray:none" />
          <path
             d="m 625.55966,-46.804115 q 0,0.08819 -0.0441,0.15434 -0.0441,0.05512 -0.14332,0.09922 -0.0992,0.0441 -0.27561,0.06615 -0.17639,0.02205 -0.44097,0.02205 -0.27561,0 -0.452,-0.02205 -0.17638,-0.02205 -0.28663,-0.06615 -0.0992,-0.0441 -0.14331,-0.09922 -0.0441,-0.06615 -0.0441,-0.15434 v -6.030301 q 0,-0.628386 -0.11024,-1.146529 -0.11025,-0.518143 -0.35278,-0.89297 -0.24254,-0.374827 -0.61736,-0.573265 -0.37483,-0.198437 -0.88195,-0.198437 -0.62839,0 -1.2678,0.48507 -0.62838,0.48507 -1.38906,1.422137 v 6.934295 q 0,0.08819 -0.0441,0.15434 -0.0441,0.05512 -0.15434,0.09922 -0.0992,0.0441 -0.27561,0.06615 -0.17638,0.02205 -0.44097,0.02205 -0.25356,0 -0.44097,-0.02205 -0.17639,-0.02205 -0.28663,-0.06615 -0.0992,-0.0441 -0.14332,-0.09922 -0.0331,-0.06615 -0.0331,-0.15434 v -6.030301 q 0,-0.628386 -0.12127,-1.146529 -0.12127,-0.518143 -0.3638,-0.89297 -0.24254,-0.374827 -0.61736,-0.573265 -0.36381,-0.198437 -0.87093,-0.198437 -0.62838,0 -1.26779,0.48507 -0.63941,0.48507 -1.38907,1.422137 v 6.934295 q 0,0.08819 -0.0441,0.15434 -0.0441,0.05512 -0.14332,0.09922 -0.0992,0.0441 -0.27561,0.06615 -0.17639,0.02205 -0.45199,0.02205 -0.26459,0 -0.44098,-0.02205 -0.17639,-0.02205 -0.28663,-0.06615 -0.0992,-0.0441 -0.14331,-0.09922 -0.0331,-0.06615 -0.0331,-0.15434 V -56.726 q 0,-0.08819 0.0331,-0.143316 0.0331,-0.06615 0.13229,-0.110244 0.0992,-0.05512 0.25356,-0.06614 0.15434,-0.02205 0.4079,-0.02205 0.24253,0 0.39687,0.02205 0.16537,0.01102 0.25356,0.06614 0.0882,0.0441 0.12127,0.110244 0.0441,0.05512 0.0441,0.143316 v 1.311893 q 0.83784,-0.937066 1.62057,-1.367015 0.79375,-0.440973 1.59853,-0.440973 0.61736,0 1.10243,0.143317 0.49609,0.143316 0.87092,0.407899 0.37483,0.25356 0.63941,0.617362 0.26458,0.352778 0.44097,0.793751 0.4961,-0.540192 0.93707,-0.915018 0.452,-0.374827 0.8599,-0.606338 0.41892,-0.23151 0.80477,-0.330729 0.39688,-0.110244 0.79375,-0.110244 0.95912,0 1.60955,0.341754 0.65044,0.33073 1.04731,0.89297 0.4079,0.56224 0.57327,1.322918 0.17639,0.749654 0.17639,1.587502 z"
             id="path7429"
             style="stroke-width:0.5;stroke-miterlimit:4;stroke-dasharray:none" />
          <path
             d="m 631.22615,-47.730158 q 0,0.782727 -0.26458,1.04731 -0.25356,0.25356 -0.93707,0.25356 -0.66146,0 -0.91502,-0.25356 -0.25355,-0.253559 -0.25355,-1.014237 0,-0.782726 0.25355,-1.036286 0.26459,-0.264583 0.9481,-0.264583 0.66146,0 0.91501,0.253559 0.25356,0.253559 0.25356,1.014237 z"
             id="path7431"
             style="stroke-width:0.5;stroke-miterlimit:4;stroke-dasharray:none" />
          <path
             d="m 648.6556,-56.615757 q 0,1.069359 -0.35278,1.929255 -0.35278,0.859897 -1.01423,1.466234 -0.65044,0.606338 -1.60955,0.937067 -0.9481,0.33073 -2.27101,0.33073 h -1.62058 v 5.137332 q 0,0.08819 -0.0551,0.15434 -0.0441,0.06615 -0.15434,0.110243 -0.0992,0.03307 -0.28663,0.05512 -0.17639,0.03307 -0.452,0.03307 -0.27561,0 -0.46302,-0.03307 -0.17639,-0.02205 -0.28663,-0.05512 -0.11025,-0.0441 -0.15434,-0.110243 -0.0441,-0.06615 -0.0441,-0.15434 v -13.163035 q 0,-0.440972 0.23151,-0.628386 0.23151,-0.187413 0.51814,-0.187413 h 3.05374 q 0.46302,0 0.88194,0.0441 0.42995,0.03307 1.00322,0.165365 0.58429,0.121267 1.1796,0.474046 0.60634,0.341753 1.02526,0.848872 0.41892,0.507118 0.63941,1.179602 0.23151,0.661459 0.23151,1.466234 z m -1.9954,0.15434 q 0,-0.870921 -0.33073,-1.455209 -0.31971,-0.584289 -0.80477,-0.870921 -0.47405,-0.286633 -0.99219,-0.363803 -0.50712,-0.07717 -0.99219,-0.07717 h -1.75287 v 5.72162 h 1.70877 q 0.8599,0 1.42214,-0.220486 0.57326,-0.220486 0.95911,-0.606338 0.38585,-0.396875 0.58429,-0.937066 0.19844,-0.551216 0.19844,-1.190627 z"
             id="path7433"
             style="stroke-width:0.5;stroke-miterlimit:4;stroke-dasharray:none" />
          <path
             d="m 658.33494,-46.793091 q 0,0.132292 -0.0882,0.198438 -0.0882,0.06615 -0.24254,0.09922 -0.15434,0.03307 -0.45199,0.03307 -0.28663,0 -0.46302,-0.03307 -0.16537,-0.03307 -0.24254,-0.09922 -0.0772,-0.06615 -0.0772,-0.198438 v -0.992188 q -0.65043,0.694532 -1.45521,1.080383 -0.79375,0.385851 -1.68672,0.385851 -0.78273,0 -1.42214,-0.209462 -0.62838,-0.198438 -1.08038,-0.584289 -0.44097,-0.385851 -0.69453,-0.948091 -0.24254,-0.56224 -0.24254,-1.278821 0,-0.837848 0.34176,-1.45521 0.34175,-0.617362 0.98116,-1.025261 0.63941,-0.4079 1.56545,-0.606338 0.92605,-0.209462 2.0836,-0.209462 h 1.36702 v -0.771702 q 0,-0.573264 -0.12127,-1.014237 -0.12127,-0.440973 -0.39688,-0.727605 -0.26458,-0.297657 -0.69453,-0.440973 -0.42995,-0.15434 -1.05833,-0.15434 -0.67249,0 -1.21268,0.165365 -0.52917,0.15434 -0.93707,0.352778 -0.39687,0.187413 -0.67248,0.352778 -0.26458,0.15434 -0.39687,0.15434 -0.0882,0 -0.15434,-0.0441 -0.0661,-0.0441 -0.12127,-0.132292 -0.0441,-0.08819 -0.0661,-0.220486 -0.0221,-0.143316 -0.0221,-0.308681 0,-0.275608 0.0331,-0.429948 0.0441,-0.165365 0.18741,-0.308681 0.15434,-0.143316 0.51814,-0.33073 0.36381,-0.198437 0.83785,-0.352778 0.47405,-0.165364 1.03629,-0.264583 0.56224,-0.110244 1.1355,-0.110244 1.06936,0 1.81901,0.242535 0.74966,0.242535 1.21268,0.716581 0.46302,0.463021 0.67248,1.157553 0.20946,0.694532 0.20946,1.620575 z m -1.80798,-4.530994 h -1.55443 q -0.74966,0 -1.30087,0.132292 -0.55122,0.121267 -0.91502,0.374827 -0.3638,0.242535 -0.54019,0.595313 -0.16537,0.341753 -0.16537,0.79375 0,0.771703 0.48507,1.234724 0.4961,0.451997 1.37804,0.451997 0.71658,0 1.32292,-0.363803 0.61736,-0.363802 1.28985,-1.113456 z"
             id="path7435"
             style="stroke-width:0.5;stroke-miterlimit:4;stroke-dasharray:none" />
          <path
             d="m 669.96561,-56.274003 q 0,0.385851 -0.11024,0.56224 -0.0992,0.165365 -0.26459,0.165365 h -1.42214 q 0.38586,0.396875 0.5402,0.881945 0.15434,0.474046 0.15434,0.992188 0,0.859897 -0.27561,1.521356 -0.27561,0.661459 -0.79375,1.124481 -0.50712,0.451997 -1.21268,0.694531 -0.70555,0.242535 -1.56545,0.242535 -0.60634,0 -1.15755,-0.15434 -0.54019,-0.165365 -0.83785,-0.4079 -0.19844,0.198438 -0.33073,0.451997 -0.12127,0.25356 -0.12127,0.584289 0,0.385851 0.35278,0.63941 0.3638,0.25356 0.95912,0.275608 l 2.59071,0.110244 q 0.73863,0.02205 1.35599,0.209462 0.61736,0.176389 1.06936,0.518142 0.452,0.33073 0.70556,0.826824 0.25356,0.48507 0.25356,1.135505 0,0.683507 -0.28664,1.300869 -0.28663,0.617362 -0.88194,1.080383 -0.58429,0.474046 -1.49931,0.738629 -0.91502,0.275608 -2.16077,0.275608 -1.20165,0 -2.05052,-0.209462 -0.83785,-0.198437 -1.37804,-0.551215 -0.54019,-0.352779 -0.78272,-0.848873 -0.24254,-0.48507 -0.24254,-1.058334 0,-0.363803 0.0882,-0.705557 0.0882,-0.341753 0.26458,-0.650434 0.18741,-0.308681 0.452,-0.584289 0.2756,-0.286632 0.62838,-0.56224 -0.54019,-0.275608 -0.80477,-0.694532 -0.25356,-0.418924 -0.25356,-0.903994 0,-0.672483 0.27561,-1.201651 0.2756,-0.529167 0.6835,-0.948091 -0.34175,-0.4079 -0.54019,-0.915018 -0.19844,-0.518143 -0.19844,-1.245748 0,-0.848872 0.28664,-1.521356 0.28663,-0.672483 0.79375,-1.135504 0.50712,-0.463022 1.21267,-0.705557 0.71658,-0.253559 1.55443,-0.253559 0.452,0 0.83785,0.05512 0.39687,0.0441 0.73863,0.132292 h 2.99861 q 0.18741,0 0.27561,0.187413 0.0992,0.176389 0.0992,0.551216 z m -2.84428,2.612763 q 0,-1.014237 -0.56224,-1.576477 -0.55121,-0.573265 -1.57647,-0.573265 -0.52917,0 -0.92605,0.176389 -0.38585,0.176389 -0.65043,0.48507 -0.25356,0.308681 -0.38585,0.716581 -0.12127,0.396875 -0.12127,0.837848 0,0.981164 0.55122,1.543404 0.56224,0.56224 1.56545,0.56224 0.54019,0 0.93707,-0.165365 0.39687,-0.176389 0.65043,-0.474045 0.26459,-0.308681 0.38585,-0.705556 0.13229,-0.396876 0.13229,-0.826824 z m 0.91502,7.860338 q 0,-0.639411 -0.52916,-0.981165 -0.51815,-0.352778 -1.41112,-0.374826 l -2.56866,-0.0882 q -0.35278,0.275608 -0.58429,0.529167 -0.22049,0.242535 -0.35278,0.463022 -0.13229,0.23151 -0.18741,0.451997 -0.0441,0.220486 -0.0441,0.451997 0,0.71658 0.7276,1.080383 0.72761,0.374826 2.02848,0.374826 0.82682,0 1.37804,-0.165364 0.56224,-0.154341 0.90399,-0.418924 0.34176,-0.264584 0.48507,-0.606338 0.15434,-0.341754 0.15434,-0.71658 z"
             id="path7437"
             style="stroke-width:0.5;stroke-miterlimit:4;stroke-dasharray:none" />
          <path
             d="m 680.58202,-52.195006 q 0,0.429948 -0.22049,0.617362 -0.20946,0.176389 -0.48507,0.176389 h -6.50435 q 0,0.826824 0.16537,1.488283 0.16536,0.661459 0.55121,1.135504 0.38585,0.474046 1.00322,0.727605 0.61736,0.253559 1.51033,0.253559 0.70555,0 1.25677,-0.110243 0.55121,-0.121267 0.94809,-0.264583 0.4079,-0.143317 0.66146,-0.25356 0.26458,-0.121267 0.39687,-0.121267 0.0772,0 0.1323,0.0441 0.0661,0.03307 0.0992,0.110243 0.0331,0.07717 0.0441,0.220487 0.0221,0.132291 0.0221,0.330729 0,0.143316 -0.011,0.253559 -0.011,0.09922 -0.0331,0.187414 -0.011,0.07717 -0.0551,0.143316 -0.0331,0.06615 -0.0992,0.132292 -0.0551,0.05512 -0.35277,0.198437 -0.29766,0.132292 -0.77171,0.264584 -0.47404,0.132292 -1.10243,0.231511 -0.61736,0.110243 -1.32292,0.110243 -1.2237,0 -2.14974,-0.341754 -0.91502,-0.341754 -1.5434,-1.014237 -0.62839,-0.672484 -0.94809,-1.686721 -0.31971,-1.014237 -0.31971,-2.359203 0,-1.278821 0.33073,-2.293058 0.33073,-1.025262 0.94809,-1.730818 0.62839,-0.716581 1.51033,-1.091407 0.88195,-0.385852 1.97336,-0.385852 1.16857,0 1.98437,0.374827 0.82683,0.374827 1.35599,1.014237 0.52917,0.628386 0.77171,1.488283 0.25356,0.848873 0.25356,1.819012 z m -1.83004,-0.540192 q 0.0331,-1.433161 -0.63941,-2.24896 -0.66146,-0.8158 -1.97335,-0.8158 -0.67249,0 -1.17961,0.25356 -0.50711,0.253559 -0.84887,0.672483 -0.34175,0.418924 -0.52917,0.981164 -0.18741,0.551216 -0.20946,1.157553 z"
             id="path7439"
             style="stroke-width:0.5;stroke-miterlimit:4;stroke-dasharray:none" />
          <path
             d="m 697.42718,-53.694313 q 0,1.642623 -0.26459,2.998614 -0.25356,1.355991 -0.85989,2.337155 -0.59532,0.97014 -1.56546,1.510332 -0.97014,0.529167 -2.39227,0.529167 -1.34497,0 -2.27101,-0.474046 -0.91502,-0.48507 -1.47726,-1.411112 -0.56224,-0.937067 -0.80478,-2.293058 -0.23151,-1.367016 -0.23151,-3.130906 0,-1.631599 0.26459,-2.98759 0.26458,-1.367015 0.85989,-2.337155 0.59532,-0.981164 1.56546,-1.510332 0.97014,-0.540191 2.38125,-0.540191 1.35599,0 2.27101,0.48507 0.92604,0.474045 1.48828,1.411112 0.56224,0.926043 0.79375,2.293058 0.24254,1.355991 0.24254,3.119882 z m -1.94028,0.132292 q 0,-1.069359 -0.0772,-1.918231 -0.0772,-0.848873 -0.23151,-1.499308 -0.14332,-0.650434 -0.38585,-1.113456 -0.23152,-0.474045 -0.56224,-0.771702 -0.33073,-0.308681 -0.76068,-0.440972 -0.41893,-0.143316 -0.94809,-0.143316 -0.93707,0 -1.52136,0.440972 -0.58429,0.440973 -0.92604,1.212675 -0.33073,0.771702 -0.452,1.807988 -0.12127,1.036286 -0.12127,2.226912 0,1.598526 0.16537,2.723006 0.16536,1.113456 0.51814,1.819012 0.3638,0.705557 0.91502,1.025262 0.56224,0.319705 1.35599,0.319705 0.61736,0 1.08038,-0.198438 0.47405,-0.198437 0.80478,-0.56224 0.34175,-0.374827 0.56224,-0.892969 0.22048,-0.518143 0.35278,-1.146529 0.13229,-0.628386 0.17639,-1.355991 0.0551,-0.73863 0.0551,-1.53238 z"
             id="path7441"
             style="stroke-width:0.5;stroke-miterlimit:4;stroke-dasharray:none" />
          <path
             d="m 708.42944,-47.278161 c 0,0.139641 -0.011,0.257234 -0.0331,0.352778 -0.0221,0.09554 -0.0515,0.172714 -0.0882,0.231511 -0.0367,0.05879 -0.0808,0.102891 -0.13229,0.132292 -0.0441,0.02205 -0.0918,0.03307 -0.14331,0.03307 h -7.45244 c -0.0515,0 -0.0992,-0.01102 -0.14332,-0.03307 -0.0441,-0.0294 -0.0882,-0.0735 -0.13229,-0.132292 -0.0367,-0.05879 -0.0661,-0.135964 -0.0882,-0.231511 -0.0221,-0.09554 -0.0331,-0.213137 -0.0331,-0.352778 0,-0.132291 0.011,-0.246209 0.0331,-0.341754 0.0221,-0.09554 0.0478,-0.172714 0.0772,-0.23151 0.0367,-0.06615 0.0771,-0.113919 0.12126,-0.143316 0.0515,-0.03675 0.10659,-0.05512 0.16537,-0.05512 h 2.97656 v -10.847928 l -2.75608,1.642624 c -0.13964,0.0735 -0.25356,0.117592 -0.34175,0.132291 -0.0808,0.0147 -0.14699,0 -0.19844,-0.0441 -0.0515,-0.05145 -0.0882,-0.132292 -0.11024,-0.242535 -0.0147,-0.110243 -0.022,-0.249885 -0.022,-0.418924 0,-0.124942 0.004,-0.23151 0.011,-0.319705 0.0147,-0.08819 0.033,-0.16169 0.0551,-0.220486 0.0221,-0.05879 0.0515,-0.11024 0.0882,-0.154341 0.0441,-0.0441 0.0992,-0.0882 0.16537,-0.132292 l 3.28524,-2.105644 c 0.0294,-0.02205 0.0661,-0.04042 0.11025,-0.05512 0.0441,-0.0147 0.0992,-0.0294 0.16536,-0.0441 0.0661,-0.0147 0.1433,-0.02205 0.23151,-0.02205 0.0882,-0.0073 0.19844,-0.01102 0.33073,-0.01102 0.17639,0 0.32338,0.0074 0.44097,0.02205 0.11759,0.0147 0.20946,0.03675 0.27561,0.06615 0.0661,0.02205 0.11023,0.05512 0.13229,0.09922 0.0221,0.03675 0.0331,0.07717 0.0331,0.121268 v 12.534648 h 2.57969 c 0.0588,0 0.11392,0.01837 0.16536,0.05512 0.0515,0.0294 0.0919,0.07717 0.12127,0.143316 0.0367,0.05879 0.0625,0.135963 0.0772,0.23151 0.0221,0.09555 0.0331,0.209463 0.0331,0.341754 z"
             id="path7443"
             style="stroke-width:0.5;stroke-miterlimit:4;stroke-dasharray:none" />
        </g>
      </g>
    </g>
  </g>
</svg>
