<?xml version="1.0" encoding="UTF-8" standalone="no"?>
<svg
   inkscape:label="LA410-complettTree"
   sodipodi:docname="toy.Styrofoam.01.Cut.svg"
   inkscape:version="1.1.1 (eb90963e84, 2021-10-02)"
   id="svg1004"
   version="1.1"
   viewBox="0 0 227.40518 351.30388"
   height="351.30389mm"
   width="227.4052mm"
   xmlns:inkscape="http://www.inkscape.org/namespaces/inkscape"
   xmlns:sodipodi="http://sodipodi.sourceforge.net/DTD/sodipodi-0.dtd"
   xmlns="http://www.w3.org/2000/svg"
   xmlns:svg="http://www.w3.org/2000/svg">
  <defs
     id="defs83" />
  <sodipodi:namedview
     id="namedview81"
     pagecolor="#ffffff"
     bordercolor="#666666"
     borderopacity="1.0"
     inkscape:pageshadow="2"
     inkscape:pageopacity="0.0"
     inkscape:pagecheckerboard="0"
     inkscape:document-units="mm" />
  <g
     id="layer18"
     inkscape:label="Styrofoam"
     inkscape:groupmode="layer"
     transform="translate(-2554.2482,-1130.7087)"
     style="display:inline">
    <g
       inkscape:groupmode="layer"
       id="layer29"
       inkscape:label="01"
       style="display:inline">
      <g
         id="layer3-26"
         inkscape:label="Cut"
         style="display:inline"
         transform="translate(602.94339,214.84258)"
         inkscape:groupmode="layer">
        <path
           id="path8324"
           style="fill:none;fill-opacity:0.917647;stroke:#0011bf;stroke-width:0.5;stroke-miterlimit:4;stroke-dasharray:none"
           d="m 2033.98,1216.15 2.14,-13.1 12.48,4.53 -7.75,-10.78 12.02,-5.62 -13.1,-2.14 4.53,-12.48 -10.78,7.76 -5.62,-12.03 -2.14,13.1 -12.48,-4.53 7.76,10.78 -12.03,5.62 13.1,2.14 -4.53,12.48 10.78,-7.75 z" />
        <path
           id="path8322"
           style="fill:none;fill-opacity:0.917647;stroke:#0011bf;stroke-width:0.5;stroke-miterlimit:4;stroke-dasharray:none"
           d="m 1996.2,1087.62 2.08,-5.98 5.49,3.14 -2.76,-5.69 6.11,-1.67 -5.99,-2.07 3.15,-5.49 -5.7,2.76 -1.66,-6.11 -2.07,5.98 -5.5,-3.14 2.77,5.69 -6.11,1.67 5.98,2.07 -3.14,5.49 5.69,-2.76 z" />
        <path
           id="path8320"
           style="fill:none;fill-opacity:0.917647;stroke:#0011bf;stroke-width:0.5;stroke-miterlimit:4;stroke-dasharray:none"
           d="m 2097.21,1008.68 17.9,-9.622 6.14,19.372 5.85,-19.458 18.04,9.358 -9.62,-17.899 19.38,-6.137 -19.47,-5.856 9.37,-18.04 -17.91,9.622 -6.13,-19.376 -5.86,19.462 -18.04,-9.361 9.62,17.902 -19.37,6.137 19.46,5.856 z" />
        <path
           id="rect8296"
           style="fill:none;fill-opacity:0.917647;stroke:#0011bf;stroke-width:0.5;stroke-miterlimit:4;stroke-dasharray:none"
           d="m 2007.92,1213.89 h -47.84 v 23.37 h 47.84 z" />
        <path
           id="rect8294"
           style="fill:none;fill-opacity:0.917647;stroke:#0011bf;stroke-width:0.5;stroke-miterlimit:4;stroke-dasharray:none"
           d="m 2045.49,1030.51 h -21.92 v 56.22 h 21.92 z" />
        <path
           id="rect8292"
           style="fill:none;fill-opacity:0.917647;stroke:#0011bf;stroke-width:0.5;stroke-miterlimit:4;stroke-dasharray:none"
           d="m 2104.8,1050.36 h -11.99 v 36.37 h 11.99 z" />
        <path
           id="rect8290"
           style="fill:none;fill-opacity:0.917647;stroke:#0011bf;stroke-width:0.5;stroke-miterlimit:4;stroke-dasharray:none"
           d="m 2127.51,1110.06 h -55.4 v 12.03 h 55.4 z" />
        <path
           id="rect8288"
           style="fill:none;fill-opacity:0.917647;stroke:#0011bf;stroke-width:0.5;stroke-miterlimit:4;stroke-dasharray:none"
           d="m 1999.98,1040.92 h -29.22 v 23.42 h 29.22 z" />
        <path
           id="rect8286"
           style="fill:none;fill-opacity:0.917647;stroke:#0011bf;stroke-width:0.5;stroke-miterlimit:4;stroke-dasharray:none"
           d="m 1988.05,1178.84 h -15.9 v 15.91 h 15.9 z" />
        <path
           id="rect8238"
           style="fill:none;fill-opacity:0.917647;stroke:#0011bf;stroke-width:0.5;stroke-miterlimit:4;stroke-dasharray:none"
           d="m 2133.13,1053.47 c -1.39,0 -2.51,5.25 -2.51,11.79 v 9.68 c 0,6.53 1.12,11.79 2.51,11.79 1.39,0 2.51,-5.26 2.51,-11.79 v -9.68 c 0,-6.54 -1.12,-11.79 -2.51,-11.79 z" />
        <path
           id="rect8236"
           style="fill:none;fill-opacity:0.917647;stroke:#0011bf;stroke-width:0.5;stroke-miterlimit:4;stroke-dasharray:none"
           d="m 2126.94,1069.63 c -1.77,0 -3.19,3.81 -3.19,8.55 0,4.73 1.42,8.55 3.19,8.55 1.76,0 3.18,-3.82 3.18,-8.55 0,-4.74 -1.42,-8.55 -3.18,-8.55 z" />
        <path
           id="path8212"
           style="fill:none;fill-opacity:0.917647;stroke:#0011bf;stroke-width:0.5;stroke-miterlimit:4;stroke-dasharray:none"
           d="m 2116.07,1071.82 c 0,8.23 1.61,14.91 3.59,14.91 0.95,0 1.87,-1.57 2.54,-4.37 0.67,-2.79 1.05,-6.59 1.05,-10.54 0,-3.95 -0.38,-7.75 -1.05,-10.54 -0.67,-2.8 -1.59,-4.37 -2.54,-4.37 -1.98,0 -3.59,6.68 -3.59,14.91 z" />
        <path
           id="path8115"
           style="fill:none;fill-opacity:0.917647;stroke:#0011bf;stroke-width:0.5;stroke-miterlimit:4;stroke-dasharray:none"
           d="m 2010.63,1137.9 c 0,7 4.79,12.67 10.7,12.67 5.91,0 10.7,-5.67 10.7,-12.67 0,-6.99 -4.79,-12.66 -10.7,-12.66 -5.91,0 -10.7,5.67 -10.7,12.66 z" />
        <path
           id="path8113"
           style="fill:none;fill-opacity:0.917647;stroke:#0011bf;stroke-width:0.5;stroke-miterlimit:4;stroke-dasharray:none"
           d="m 2109.35,1261.65 c 0,2.91 8.61,5.27 19.25,5.27 10.63,0 19.25,-2.36 19.25,-5.27 0,-1.4 -2.03,-2.74 -5.64,-3.72 -3.61,-0.99 -8.51,-1.55 -13.61,-1.55 -5.11,0 -10.01,0.56 -13.62,1.55 -3.61,0.98 -5.63,2.32 -5.63,3.72 z" />
        <path
           id="path8111"
           style="fill:none;fill-opacity:0.917647;stroke:#0011bf;stroke-width:0.5;stroke-miterlimit:4;stroke-dasharray:none"
           d="m 2000.48,1034.25 c 0,17.21 5.06,31.16 11.3,31.16 2.99,0 5.86,-3.28 7.98,-9.13 2.12,-5.84 3.31,-13.77 3.31,-22.03 0,-8.27 -1.19,-16.2 -3.31,-22.04 -2.12,-5.85 -4.99,-9.13 -7.98,-9.13 -6.24,0 -11.3,13.95 -11.3,31.17 z" />
        <path
           id="path8109"
           style="fill:none;fill-opacity:0.917647;stroke:#0011bf;stroke-width:0.5;stroke-miterlimit:4;stroke-dasharray:none"
           d="m 1975.9921,1131.4491 a 7.1690168,17.991467 0 0 1 -7.169,17.9915 7.1690168,17.991467 0 0 1 -7.169,-17.9915 7.1690168,17.991467 0 0 1 7.169,-17.9915 7.1690168,17.991467 0 0 1 7.169,17.9915 z" />
        <path
           id="path8107"
           style="fill:none;fill-opacity:0.917647;stroke:#0011bf;stroke-width:0.5;stroke-miterlimit:4;stroke-dasharray:none"
           d="m 1974.98,1023.24 c 0,4.55 1.32,8.93 3.66,12.15 2.35,3.22 5.53,5.03 8.84,5.03 6.9,0 12.5,-7.69 12.5,-17.18 0,-9.49 -5.6,-17.19 -12.5,-17.19 -3.31,0 -6.49,1.81 -8.84,5.04 -2.34,3.22 -3.66,7.59 -3.66,12.15 z" />
        <path
           id="path8105"
           style="fill:none;fill-opacity:0.917647;stroke:#0011bf;stroke-width:0.5;stroke-miterlimit:4;stroke-dasharray:none"
           d="m 2116.01,1169.56 c 0,10.99 6.19,19.9 13.83,19.9 7.65,0 13.84,-8.91 13.84,-19.9 0,-10.99 -6.19,-19.9 -13.84,-19.9 -7.64,0 -13.83,8.91 -13.83,19.9 z" />
        <path
           id="path8103"
           style="fill:none;fill-opacity:0.917647;stroke:#0011bf;stroke-width:0.5;stroke-miterlimit:4;stroke-dasharray:none"
           d="m 1970.81,964.031 c 0,12.352 16.94,22.366 37.84,22.366 10.04,0 19.67,-2.357 26.77,-6.551 7.09,-4.195 11.08,-9.883 11.08,-15.815 0,-5.932 -3.99,-11.621 -11.08,-15.815 -7.1,-4.195 -16.73,-6.551 -26.77,-6.551 -20.9,0 -37.84,10.013 -37.84,22.366 z" />
        <path
           id="path8101"
           style="fill:none;fill-opacity:0.917647;stroke:#0011bf;stroke-width:0.5;stroke-miterlimit:4;stroke-dasharray:none"
           d="m 2105.3,1074.93 c 0,3.13 0.54,6.13 1.5,8.34 0.97,2.21 2.27,3.46 3.63,3.46 1.37,0 2.67,-1.25 3.63,-3.46 0.97,-2.21 1.51,-5.21 1.51,-8.34 0,-3.12 -0.54,-6.12 -1.51,-8.33 -0.96,-2.22 -2.26,-3.46 -3.63,-3.46 -2.83,0 -5.13,5.28 -5.13,11.79 z" />
        <path
           id="path8099"
           style="fill:none;fill-opacity:0.917647;stroke:#0011bf;stroke-width:0.5;stroke-miterlimit:4;stroke-dasharray:none"
           d="m 2053.97,1166.36 c 0,8.93 1.63,17.49 4.54,23.8 2.91,6.32 6.86,9.86 10.98,9.86 4.11,0 8.06,-3.54 10.97,-9.86 2.91,-6.31 4.54,-14.87 4.54,-23.8 0,-8.93 -1.63,-17.49 -4.54,-23.81 -2.91,-6.31 -6.86,-9.86 -10.97,-9.86 -4.12,0 -8.07,3.55 -10.98,9.86 -2.91,6.32 -4.54,14.88 -4.54,23.81 z" />
        <path
           id="path8097"
           style="fill:none;fill-opacity:0.917647;stroke:#0011bf;stroke-width:0.5;stroke-miterlimit:4;stroke-dasharray:none"
           d="m 2077.55,1069.34 c 0,7.51 2.79,13.6 6.24,13.6 1.66,0 3.25,-1.43 4.42,-3.98 1.17,-2.55 1.83,-6.01 1.83,-9.62 0,-3.61 -0.66,-7.06 -1.83,-9.61 -1.17,-2.55 -2.76,-3.99 -4.42,-3.99 -3.45,0 -6.24,6.09 -6.24,13.6 z" />
        <path
           id="path8095"
           style="fill:none;fill-opacity:0.917647;stroke:#0011bf;stroke-width:0.5;stroke-miterlimit:4;stroke-dasharray:none"
           d="m 2084.86,1206.6 c 0,7.73 1.62,15.15 4.49,20.62 2.87,5.47 6.77,8.55 10.83,8.55 8.46,0 15.32,-13.06 15.32,-29.17 0,-16.12 -6.86,-29.18 -15.32,-29.18 -4.06,0 -7.96,3.08 -10.83,8.55 -2.87,5.47 -4.49,12.89 -4.49,20.63 z" />
        <path
           id="path8093"
           style="fill:none;fill-opacity:0.917647;stroke:#0011bf;stroke-width:0.5;stroke-miterlimit:4;stroke-dasharray:none"
           d="m 2124.12,1228.04 c 0,6.05 12.16,10.96 27.17,10.96 15,0 27.17,-4.91 27.17,-10.96 0,-2.91 -2.87,-5.69 -7.96,-7.75 -5.1,-2.05 -12.01,-3.21 -19.21,-3.21 -7.21,0 -14.12,1.16 -19.21,3.21 -5.1,2.06 -7.96,4.84 -7.96,7.75 z" />
        <path
           id="path8091"
           style="fill:none;fill-opacity:0.917647;stroke:#0011bf;stroke-width:0.5;stroke-miterlimit:4;stroke-dasharray:none"
           d="m 2045.99,1073.34 c 0,7.39 3.79,13.39 8.46,13.39 4.67,0 8.46,-6 8.46,-13.39 0,-3.56 -0.89,-6.96 -2.48,-9.47 -1.58,-2.52 -3.74,-3.93 -5.98,-3.93 -2.24,0 -4.39,1.41 -5.98,3.93 -1.59,2.51 -2.48,5.91 -2.48,9.46 z" />
      </g>
    </g>
  </g>
</svg>
