<?xml version="1.0" encoding="UTF-8" standalone="no"?>
<svg
   inkscape:label="LA410-complettTree"
   sodipodi:docname="6bc6a93a19da2e13a8b7357b55484716toy.svg.Wood3mm.02_cropped.svg"
   inkscape:version="1.1.1 (eb90963e84, 2021-10-02)"
   id="svg1004"
   version="1.1"
   viewBox="0 0 195.21741 389.52702"
   height="389.52704mm"
   width="195.21742mm"
   xmlns:inkscape="http://www.inkscape.org/namespaces/inkscape"
   xmlns:sodipodi="http://sodipodi.sourceforge.net/DTD/sodipodi-0.dtd"
   xmlns="http://www.w3.org/2000/svg"
   xmlns:svg="http://www.w3.org/2000/svg">
  <defs
     id="defs36" />
  <sodipodi:namedview
     id="namedview34"
     pagecolor="#ffffff"
     bordercolor="#666666"
     borderopacity="1.0"
     inkscape:pageshadow="2"
     inkscape:pageopacity="0.0"
     inkscape:pagecheckerboard="0"
     inkscape:document-units="mm" />
  <g
     inkscape:groupmode="layer"
     id="layer19"
     inkscape:label="Wood3mm"
     transform="translate(-2286.1694,-1146.906)"
     style="display:inline">
    <g
       inkscape:groupmode="layer"
       id="layer35"
       inkscape:label="02"
       style="display:inline">
      <g
         inkscape:label="Cut"
         id="layer1-5"
         style="display:inline"
         transform="translate(894.14227,1201.6969)"
         inkscape:groupmode="layer">
        <path
           style="fill:none;stroke:#0000bf;stroke-width:0.5;stroke-linecap:butt;stroke-linejoin:miter;stroke-miterlimit:4;stroke-dasharray:none;stroke-opacity:1"
           d="m 1432.6581,29.309633 c 21.2199,-5.738315 48.8837,1.17671 56.9777,23.916246 8.0941,-22.739536 35.7578,-29.654561 56.9778,-23.916246 92.9463,43.491251 4.6339,155.477837 -56.9778,193.584287 -61.6117,-38.10645 -149.924,-150.093036 -56.9777,-193.584287 z"
           id="path22812" />
      </g>
      <g
         id="layer5-3"
         inkscape:label="Engrave"
         style="display:inline"
         transform="translate(894.14227,1201.6969)"
         inkscape:groupmode="layer">
        <path
           style="fill:none;stroke:#0000bf;stroke-width:0.5;stroke-miterlimit:4;stroke-dasharray:none;stroke-opacity:1"
           d="m 1506.9034,147.90942 c 0,1.89707 -1.5434,3.44049 -3.4405,3.44049 -1.8971,0 -3.4405,-1.54342 -3.4405,-3.44049 0,-1.89708 1.5434,-3.44049 3.4405,-3.44049 1.8971,0 3.4405,1.54341 3.4405,3.44049 z"
           id="path9112" />
        <path
           style="fill:none;stroke:#0000bf;stroke-width:0.5;stroke-miterlimit:4;stroke-dasharray:none;stroke-opacity:1"
           d="m 1505.397,161.59704 v 2.2e-4 c -9.1345,-0.64179 -29.1185,-9.74138 -36.7469,-13.35646 l 1.4151,-1.27157 c 1.0079,-0.20672 1.9918,-0.45285 2.9527,-0.7324 1.4644,1.5462 3.5337,2.51359 5.8262,2.51359 4.4265,0 8.0279,-3.60137 8.0279,-8.02788 0,-0.49634 -0.048,-0.98153 -0.1341,-1.45302 5.3881,-4.00944 9.1855,-8.49401 11.1974,-11.16783 l 14.1066,14.44616 h -2.6095 c -1.4708,-1.63573 -3.6016,-2.66653 -5.9691,-2.66653 -4.4265,0 -8.0279,3.60136 -8.0279,8.02788 0,4.42652 3.6014,8.02788 8.0279,8.02788 2.3028,0 4.3807,-0.97596 5.8459,-2.53458 l 9.1189,8.19454 z"
           id="path9110" />
        <path
           style="fill:none;stroke:#0000bf;stroke-width:0.5;stroke-miterlimit:4;stroke-dasharray:none;stroke-opacity:1"
           d="m 1493.5617,173.02664 h -14.9089 v -6.8422 h 14.9089 z"
           id="path9108" />
        <path
           style="fill:none;stroke:#0000bf;stroke-width:0.5;stroke-miterlimit:4;stroke-dasharray:none;stroke-opacity:1"
           d="m 1453.7869,161.59704 11.1674,-10.03528 c 3.6054,1.7437 13.5154,6.42664 23.2047,10.03528 z"
           id="path9106" />
        <path
           style="fill:none;stroke:#0000bf;stroke-width:0.5;stroke-miterlimit:4;stroke-dasharray:none;stroke-opacity:1"
           d="m 1482.2844,140.72232 c 0,1.89708 -1.5434,3.44049 -3.4405,3.44049 -1.8971,0 -3.4405,-1.54341 -3.4405,-3.44049 0,-1.89708 1.5434,-3.44049 3.4405,-3.44049 1.8971,0 3.4405,1.54341 3.4405,3.44049 z"
           id="path9104" />
        <path
           style="fill:none;stroke:#0000bf;stroke-width:0.5;stroke-miterlimit:4;stroke-dasharray:none;stroke-opacity:1"
           d="m 1460.1732,142.54828 v -4.3e-4 l 16.0367,-16.42292 c 0.6448,-0.66021 0.831,-1.64259 0.473,-2.49281 -0.3579,-0.85021 -1.1908,-1.40332 -2.1138,-1.40332 h -4.3334 l 2.7711,-3.81857 c 0.1789,0.003 0.3984,0.006 0.6555,0.006 0.7512,0 1.8229,-0.0214 3.1234,-0.1024 0,0.0788 -0.01,0.15724 -0.01,0.23671 0,4.42652 3.6014,8.02788 8.0279,8.02788 4.4265,0 8.0279,-3.60136 8.0279,-8.02788 0,-1.27286 -0.299,-2.47674 -0.8288,-3.54696 1.1865,-0.49097 2.3602,-1.05157 3.5005,-1.69314 l 6.472,8.91901 h -4.3333 c -0.7988,0 -1.5293,0.41557 -1.9434,1.07878 v -8.6e-4 c -0.062,0.10047 -4.0439,6.35337 -11.1201,11.80812 -1.4585,-1.49179 -3.4908,-2.41998 -5.7368,-2.41998 -4.4265,0 -8.0279,3.60137 -8.0279,8.02789 0,0.45477 0.04,0.90012 0.1131,1.33455 -0.7065,0.18722 -1.4273,0.35002 -2.1597,0.49098 h -8.5966 z"
           id="path9102" />
        <path
           style="fill:none;stroke:#0000bf;stroke-width:0.5;stroke-miterlimit:4;stroke-dasharray:none;stroke-opacity:1"
           d="m 1488.2479,118.55032 c 0,1.89708 -1.5434,3.44049 -3.4405,3.44049 -1.8971,0 -3.4405,-1.54341 -3.4405,-3.44049 0,-1.89708 1.5434,-3.44049 3.4405,-3.44049 1.8971,0 3.4405,1.54341 3.4405,3.44049 z"
           id="path9100" />
        <path
           style="fill:none;stroke:#0000bf;stroke-width:0.5;stroke-miterlimit:4;stroke-dasharray:none;stroke-opacity:1"
           d="m 1486.1075,100.35649 6.6856,9.21313 c -1.3832,0.74053 -2.83,1.35297 -4.2864,1.85916 -1.1079,-0.57795 -2.3656,-0.90677 -3.6993,-0.90677 -2.5391,0 -4.8048,1.18632 -6.2769,3.03199 -0.7656,0.0784 -1.4796,0.13517 -2.1273,0.17522 z"
           id="path9098" />
        <path
           style="fill:none;stroke:#0000bf;stroke-width:0.5;stroke-miterlimit:4;stroke-dasharray:none;stroke-opacity:1"
           d="m 1480.5876,92.74782 1.0051,-4.9432 c 0.1607,-0.78873 -0.1045,-1.60403 -0.6977,-2.14771 l -3.7187,-3.40814 5.0117,-0.57152 c 0.7999,-0.091 1.4935,-0.59509 1.8272,-1.32749 l 2.0923,-4.58996 2.0924,4.58996 c 0.3338,0.7324 1.0274,1.23623 1.827,1.32749 l 5.0118,0.57152 -3.7188,3.40814 c -0.5933,0.54411 -0.8583,1.35898 -0.6979,2.14793 l 1.0051,4.9432 -4.3907,-2.4836 c -0.3503,-0.19815 -0.7397,-0.29733 -1.1291,-0.29733 -0.3895,0 -0.7789,0.0992 -1.1292,0.29733 z"
           id="path9096" />
        <path
           d="m 1561.5461,333.92033 c 0,0.13964 -0.011,0.25723 -0.033,0.35278 -0.022,0.0955 -0.052,0.17271 -0.088,0.23151 -0.037,0.0588 -0.081,0.10289 -0.1323,0.13229 -0.044,0.022 -0.092,0.0331 -0.1433,0.0331 h -7.4525 c -0.052,0 -0.099,-0.011 -0.1433,-0.0331 -0.044,-0.0294 -0.088,-0.0735 -0.1323,-0.13229 -0.037,-0.0588 -0.066,-0.13597 -0.088,-0.23151 -0.022,-0.0955 -0.033,-0.21314 -0.033,-0.35278 0,-0.13229 0.011,-0.24621 0.033,-0.34175 0.022,-0.0955 0.048,-0.17272 0.077,-0.23152 0.037,-0.0661 0.077,-0.11391 0.1213,-0.14331 0.052,-0.0367 0.1066,-0.0551 0.1654,-0.0551 h 2.9765 v -10.84793 l -2.7561,1.64262 c -0.1396,0.0735 -0.2535,0.1176 -0.3417,0.13229 -0.081,0.0147 -0.147,0 -0.1985,-0.0441 -0.052,-0.0514 -0.088,-0.13229 -0.1102,-0.24253 -0.015,-0.11024 -0.022,-0.24988 -0.022,-0.41892 0,-0.12495 0,-0.23151 0.011,-0.31971 0.015,-0.0882 0.033,-0.16169 0.055,-0.22048 0.022,-0.0588 0.052,-0.11024 0.088,-0.15435 0.044,-0.0441 0.099,-0.0882 0.1654,-0.13229 l 3.2852,-2.10564 c 0.029,-0.022 0.066,-0.0404 0.1103,-0.0551 0.044,-0.0147 0.099,-0.0294 0.1653,-0.0441 0.066,-0.0147 0.1433,-0.022 0.2315,-0.022 0.088,-0.007 0.1985,-0.011 0.3308,-0.011 0.1763,0 0.3233,0.007 0.4409,0.022 0.1176,0.0147 0.2095,0.0367 0.2756,0.0661 0.066,0.022 0.1103,0.0551 0.1323,0.0992 0.022,0.0367 0.033,0.0772 0.033,0.12127 v 12.53465 h 2.5797 c 0.059,0 0.1139,0.0184 0.1654,0.0551 0.052,0.0294 0.092,0.0772 0.1213,0.14331 0.037,0.0588 0.062,0.13597 0.077,0.23151 0.022,0.0955 0.033,0.20947 0.033,0.34176 z"
           style="fill:none;stroke:#100324;stroke-width:0.132292;stroke-miterlimit:4;stroke-dasharray:none;stroke-opacity:1"
           id="path1216" />
        <path
           style="fill:none;stroke:#0000bf;stroke-width:0.5;stroke-miterlimit:4;stroke-dasharray:none;stroke-opacity:1"
           d="m 1525.9446,162.18485 -14.5447,-13.07027 c 0.059,-0.39329 0.091,-0.79559 0.091,-1.20538 0,-0.26113 -0.014,-0.51904 -0.038,-0.77395 h 6.0344 c 0.9229,0 1.7555,-0.5531 2.1139,-1.40332 0.3584,-0.85021 0.1718,-1.8326 -0.473,-2.49281 l -16.0367,-16.42292 h 3.3861 c 0.8624,0 1.6516,-0.48348 2.0434,-1.25187 0.3916,-0.76817 0.3196,-1.69122 -0.187,-2.38913 l -19.3339,-26.64307 4.7476,2.68538 c 0.3515,0.19879 0.7406,0.29733 1.1289,0.29733 0.4752,0 0.9484,-0.14738 1.3485,-0.43806 0.7268,-0.52826 1.0786,-1.43224 0.8995,-2.31266 l -1.7491,-8.60219 6.4714,-5.93115 c 0.6624,-0.60709 0.9092,-1.54513 0.6317,-2.39963 -0.2778,-0.85471 -1.0286,-1.46822 -1.9217,-1.56997 l -8.7215,-0.99481 -3.6408,-7.98761 c -0.3725,-0.81744 -1.1886,-1.34227 -2.087,-1.34227 -0.8985,0 -1.7146,0.52483 -2.0871,1.34227 l -3.6414,7.98739 -8.7216,0.99481 c -0.8928,0.10175 -1.6438,0.71569 -1.9217,1.56998 -0.2776,0.85471 -0.031,1.79254 0.6318,2.39962 l 6.4714,5.93116 -1.7491,8.60219 c -0.1789,0.88063 0.1727,1.7844 0.8995,2.31265 0.7266,0.52804 1.6955,0.58331 2.4774,0.14074 l 4.7476,-2.68539 -19.3335,26.64329 c -0.5064,0.6977 -0.5783,1.62074 -0.187,2.38913 0.3918,0.76817 1.181,1.25187 2.0434,1.25187 h 3.3861 l -16.0367,16.42292 c -0.6448,0.66021 -0.8309,1.6426 -0.473,2.49281 0.358,0.85022 1.1908,1.40332 2.1139,1.40332 h 8.2898 l -16.7472,15.04938 c -0.7067,0.63515 -0.949,1.63981 -0.6088,2.52687 0.3402,0.88728 1.1919,1.47272 2.1419,1.47272 h 26.2627 v 9.13601 c 0,1.26686 1.0271,2.29359 2.2935,2.29359 h 19.4963 c 1.2666,0 2.2936,-1.02694 2.2936,-2.29359 v -9.13601 h 26.2626 c 0.9501,0 1.8018,-0.58566 2.1419,-1.47272 0.3402,-0.88706 0.098,-1.89172 -0.609,-2.52665 z"
           id="path23957" />
        <g
           aria-label="Wood 3 mm. Page 02"
           id="text8197-6-5"
           style="font-size:22.5778px;line-height:1.25;font-family:Calibri;-inkscape-font-specification:Calibri;letter-spacing:0px;word-spacing:0px;display:inline;fill:none;stroke:#0000bf;stroke-width:0.5;stroke-miterlimit:4;stroke-dasharray:none">
          <path
             d="m 1407.9819,-39.647039 q -0.044,0.15434 -0.1322,0.253559 -0.088,0.08819 -0.2426,0.143316 -0.1543,0.0441 -0.3858,0.06615 -0.2205,0.02205 -0.5512,0.02205 -0.3418,0 -0.5843,-0.02205 -0.2315,-0.02205 -0.3859,-0.06615 -0.1543,-0.05512 -0.2315,-0.143316 -0.077,-0.09922 -0.1213,-0.253559 l -2.9876,-10.770758 h -0.022 l -2.7561,10.770758 q -0.033,0.15434 -0.1102,0.253559 -0.077,0.08819 -0.2205,0.143316 -0.1433,0.0441 -0.3748,0.06615 -0.2205,0.02205 -0.5733,0.02205 -0.3638,0 -0.6063,-0.02205 -0.2426,-0.02205 -0.3969,-0.06615 -0.1544,-0.05512 -0.2426,-0.143316 -0.077,-0.09922 -0.1102,-0.253559 l -3.7703,-13.174059 q -0.066,-0.253559 -0.077,-0.396875 0,-0.143316 0.088,-0.220486 0.099,-0.07717 0.3087,-0.09922 0.2095,-0.02205 0.5622,-0.02205 0.3418,0 0.5402,0.02205 0.1985,0.01102 0.2977,0.05512 0.1102,0.0441 0.1433,0.121268 0.044,0.07717 0.066,0.198438 l 3.2081,11.950359 h 0.011 l 3.0428,-11.928311 q 0.033,-0.121267 0.077,-0.198438 0.055,-0.08819 0.1654,-0.132291 0.1102,-0.0441 0.3087,-0.06615 0.2094,-0.02205 0.5402,-0.02205 0.3086,0 0.485,0.02205 0.1874,0.02205 0.2977,0.06615 0.1102,0.0441 0.1543,0.132291 0.055,0.07717 0.088,0.198438 l 3.2742,11.928311 h 0.022 l 3.1419,-11.939335 q 0.033,-0.110243 0.066,-0.187414 0.033,-0.08819 0.1323,-0.132291 0.1102,-0.0441 0.2976,-0.06615 0.1985,-0.02205 0.5182,-0.02205 0.3307,0 0.5181,0.03307 0.1984,0.02205 0.2866,0.09922 0.088,0.07717 0.077,0.220486 0,0.143316 -0.055,0.396876 z"
             id="path7479"
             style="stroke-width:0.5;stroke-miterlimit:4;stroke-dasharray:none" />
          <path
             d="m 1422.4789,-44.574909 q 0,1.212675 -0.3197,2.237937 -0.3197,1.014237 -0.9591,1.752866 -0.6284,0.738629 -1.5875,1.157553 -0.9481,0.4079 -2.2049,0.4079 -1.2237,0 -2.1387,-0.363803 -0.904,-0.363802 -1.5103,-1.058334 -0.6063,-0.694532 -0.904,-1.68672 -0.2977,-0.992189 -0.2977,-2.248961 0,-1.212675 0.3087,-2.226912 0.3197,-1.025261 0.9481,-1.763891 0.6394,-0.738629 1.5875,-1.146529 0.9481,-0.407899 2.2159,-0.407899 1.2237,0 2.1277,0.363802 0.915,0.363803 1.5213,1.058335 0.6064,0.694531 0.904,1.68672 0.3087,0.992188 0.3087,2.237936 z m -1.9182,0.121268 q 0,-0.804775 -0.1543,-1.521356 -0.1434,-0.716581 -0.4851,-1.256772 -0.3418,-0.540192 -0.9261,-0.848872 -0.5842,-0.319706 -1.4552,-0.319706 -0.8047,0 -1.389,0.286633 -0.5733,0.286632 -0.9481,0.815799 -0.3749,0.518143 -0.5623,1.234724 -0.1764,0.71658 -0.1764,1.565453 0,0.815799 0.1434,1.53238 0.1543,0.71658 0.4961,1.256772 0.3527,0.529167 0.937,0.848872 0.5843,0.308681 1.4552,0.308681 0.7938,0 1.3781,-0.286632 0.5843,-0.286633 0.9591,-0.804775 0.3748,-0.518143 0.5512,-1.234724 0.1764,-0.716581 0.1764,-1.576477 z"
             id="path7481"
             style="stroke-width:0.5;stroke-miterlimit:4;stroke-dasharray:none" />
          <path
             d="m 1434.3852,-44.574909 q 0,1.212675 -0.3197,2.237937 -0.3197,1.014237 -0.9591,1.752866 -0.6284,0.738629 -1.5875,1.157553 -0.9481,0.4079 -2.2049,0.4079 -1.2237,0 -2.1387,-0.363803 -0.904,-0.363802 -1.5103,-1.058334 -0.6064,-0.694532 -0.904,-1.68672 -0.2977,-0.992189 -0.2977,-2.248961 0,-1.212675 0.3087,-2.226912 0.3197,-1.025261 0.9481,-1.763891 0.6394,-0.738629 1.5875,-1.146529 0.9481,-0.407899 2.2159,-0.407899 1.2237,0 2.1277,0.363802 0.915,0.363803 1.5213,1.058335 0.6063,0.694531 0.904,1.68672 0.3087,0.992188 0.3087,2.237936 z m -1.9182,0.121268 q 0,-0.804775 -0.1544,-1.521356 -0.1433,-0.716581 -0.4851,-1.256772 -0.3417,-0.540192 -0.926,-0.848872 -0.5843,-0.319706 -1.4552,-0.319706 -0.8048,0 -1.3891,0.286633 -0.5732,0.286632 -0.9481,0.815799 -0.3748,0.518143 -0.5622,1.234724 -0.1764,0.71658 -0.1764,1.565453 0,0.815799 0.1433,1.53238 0.1544,0.71658 0.4961,1.256772 0.3528,0.529167 0.9371,0.848872 0.5843,0.308681 1.4552,0.308681 0.7937,0 1.378,-0.286632 0.5843,-0.286633 0.9591,-0.804775 0.3749,-0.518143 0.5513,-1.234724 0.1764,-0.716581 0.1764,-1.576477 z"
             id="path7483"
             style="stroke-width:0.5;stroke-miterlimit:4;stroke-dasharray:none" />
          <path
             d="m 1445.5638,-39.503723 q 0,0.08819 -0.044,0.15434 -0.033,0.06615 -0.1322,0.110244 -0.088,0.03307 -0.2426,0.05512 -0.1543,0.02205 -0.3748,0.02205 -0.2315,0 -0.3859,-0.02205 -0.1543,-0.02205 -0.2535,-0.05512 -0.099,-0.0441 -0.1433,-0.110244 -0.044,-0.06614 -0.044,-0.15434 v -1.311894 q -0.7828,0.848873 -1.6316,1.322918 -0.8379,0.474046 -1.8411,0.474046 -1.0914,0 -1.8631,-0.418924 -0.7717,-0.429948 -1.2568,-1.146529 -0.474,-0.727605 -0.6945,-1.697745 -0.2205,-0.981164 -0.2205,-2.061547 0,-1.278821 0.2756,-2.304082 0.2756,-1.036286 0.8158,-1.763891 0.5402,-0.727605 1.334,-1.113456 0.8047,-0.396875 1.852,-0.396875 0.871,0 1.5875,0.385851 0.7276,0.374827 1.4332,1.113456 v -5.765718 q 0,-0.07717 0.033,-0.143316 0.044,-0.07717 0.1543,-0.110243 0.1103,-0.0441 0.2756,-0.06615 0.1764,-0.03307 0.441,-0.03307 0.2756,0 0.452,0.03307 0.1764,0.02205 0.2756,0.06615 0.099,0.03307 0.1433,0.110243 0.055,0.06615 0.055,0.143316 z m -1.83,-6.978393 q -0.7386,-0.915018 -1.4332,-1.389063 -0.6835,-0.48507 -1.4331,-0.48507 -0.6945,0 -1.1796,0.330729 -0.4851,0.33073 -0.7938,0.870921 -0.2976,0.540192 -0.4409,1.223699 -0.1323,0.683508 -0.1323,1.389064 0,0.749654 0.1102,1.466234 0.1213,0.716581 0.4079,1.278821 0.2866,0.551216 0.7607,0.89297 0.474,0.330729 1.1906,0.330729 0.3638,0 0.6945,-0.09922 0.3418,-0.09922 0.6946,-0.330729 0.3528,-0.231511 0.7386,-0.595313 0.3859,-0.374827 0.8158,-0.915018 z"
             id="path7485"
             style="stroke-width:0.5;stroke-miterlimit:4;stroke-dasharray:none" />
          <path
             d="m 1462.42,-43.307112 q 0,0.981164 -0.3417,1.774915 -0.3418,0.782726 -0.9812,1.344966 -0.6394,0.562241 -1.5765,0.870921 -0.937,0.297657 -2.1166,0.297657 -0.7166,0 -1.345,-0.121268 -0.6174,-0.110243 -1.1024,-0.264583 -0.4851,-0.165365 -0.8048,-0.33073 -0.3197,-0.176389 -0.4079,-0.253559 -0.077,-0.07717 -0.1213,-0.15434 -0.044,-0.07717 -0.077,-0.187414 -0.033,-0.110243 -0.055,-0.264583 -0.011,-0.165365 -0.011,-0.396876 0,-0.396875 0.077,-0.551216 0.077,-0.15434 0.2205,-0.15434 0.099,0 0.3858,0.176389 0.2977,0.176389 0.7497,0.385851 0.463,0.198438 1.0693,0.374827 0.6174,0.176389 1.367,0.176389 0.7276,0 1.2789,-0.187413 0.5512,-0.187414 0.926,-0.529168 0.3748,-0.341753 0.5622,-0.804775 0.1875,-0.474045 0.1875,-1.025261 0,-0.606338 -0.2426,-1.091408 -0.2315,-0.48507 -0.6945,-0.837848 -0.452,-0.352778 -1.1245,-0.540191 -0.6615,-0.187414 -1.5103,-0.187414 h -1.356 q -0.088,0 -0.1764,-0.03307 -0.077,-0.0441 -0.1433,-0.132291 -0.055,-0.08819 -0.099,-0.231511 -0.033,-0.143316 -0.033,-0.374827 0,-0.209462 0.033,-0.341754 0.033,-0.143316 0.088,-0.220486 0.066,-0.08819 0.1433,-0.121267 0.077,-0.0441 0.1764,-0.0441 h 1.2457 q 0.7276,0 1.3009,-0.187413 0.5843,-0.187413 0.9811,-0.540192 0.4079,-0.352778 0.6174,-0.837848 0.2205,-0.496094 0.2205,-1.102431 0,-0.440973 -0.1433,-0.837848 -0.1433,-0.4079 -0.43,-0.705557 -0.2866,-0.297656 -0.7386,-0.463021 -0.441,-0.176389 -1.0253,-0.176389 -0.6394,0 -1.1796,0.198438 -0.5291,0.187413 -0.9481,0.407899 -0.4189,0.220487 -0.6945,0.418924 -0.2756,0.187414 -0.3858,0.187414 -0.077,0 -0.1434,-0.02205 -0.055,-0.03307 -0.099,-0.110243 -0.033,-0.08819 -0.055,-0.231511 -0.011,-0.15434 -0.011,-0.396875 0,-0.165365 0.011,-0.286632 0.011,-0.132292 0.044,-0.220487 0.033,-0.09922 0.077,-0.176389 0.044,-0.07717 0.1433,-0.176389 0.1102,-0.110243 0.4299,-0.308681 0.3197,-0.198437 0.7828,-0.385851 0.474,-0.198437 1.0803,-0.330729 0.6174,-0.132292 1.323,-0.132292 0.9921,0 1.7418,0.253559 0.7497,0.25356 1.2457,0.716581 0.5072,0.463021 0.7497,1.113456 0.2536,0.63941 0.2536,1.422137 0,0.672483 -0.1764,1.256772 -0.1764,0.573264 -0.5182,1.025261 -0.3417,0.440973 -0.8378,0.760678 -0.4961,0.308681 -1.1465,0.429949 v 0.02205 q 0.7386,0.07717 1.3449,0.374827 0.6174,0.286632 1.0584,0.727605 0.4409,0.440972 0.6835,1.036286 0.2535,0.584288 0.2535,1.256772 z"
             id="path7487"
             style="stroke-width:0.5;stroke-miterlimit:4;stroke-dasharray:none" />
          <path
             d="m 1485.2955,-39.503723 q 0,0.08819 -0.044,0.15434 -0.044,0.05512 -0.1433,0.09922 -0.099,0.0441 -0.2756,0.06615 -0.1764,0.02205 -0.441,0.02205 -0.2756,0 -0.452,-0.02205 -0.1764,-0.02205 -0.2866,-0.06615 -0.099,-0.0441 -0.1434,-0.09922 -0.044,-0.06614 -0.044,-0.15434 v -6.030301 q 0,-0.628386 -0.1102,-1.146529 -0.1102,-0.518143 -0.3528,-0.89297 -0.2425,-0.374827 -0.6173,-0.573264 -0.3749,-0.198438 -0.882,-0.198438 -0.6284,0 -1.2678,0.48507 -0.6284,0.48507 -1.389,1.422137 v 6.934295 q 0,0.08819 -0.044,0.15434 -0.044,0.05512 -0.1544,0.09922 -0.099,0.0441 -0.2756,0.06615 -0.1764,0.02205 -0.441,0.02205 -0.2535,0 -0.4409,-0.02205 -0.1764,-0.02205 -0.2867,-0.06615 -0.099,-0.0441 -0.1433,-0.09922 -0.033,-0.06614 -0.033,-0.15434 v -6.030301 q 0,-0.628386 -0.1212,-1.146529 -0.1213,-0.518143 -0.3638,-0.89297 -0.2426,-0.374827 -0.6174,-0.573264 -0.3638,-0.198438 -0.8709,-0.198438 -0.6284,0 -1.2678,0.48507 -0.6394,0.48507 -1.3891,1.422137 v 6.934295 q 0,0.08819 -0.044,0.15434 -0.044,0.05512 -0.1433,0.09922 -0.099,0.0441 -0.2756,0.06615 -0.1764,0.02205 -0.452,0.02205 -0.2646,0 -0.441,-0.02205 -0.1764,-0.02205 -0.2866,-0.06615 -0.099,-0.0441 -0.1433,-0.09922 -0.033,-0.06614 -0.033,-0.15434 v -9.921885 q 0,-0.0882 0.033,-0.143316 0.033,-0.06615 0.1323,-0.110243 0.099,-0.05512 0.2535,-0.06615 0.1544,-0.02205 0.4079,-0.02205 0.2426,0 0.3969,0.02205 0.1654,0.01102 0.2536,0.06615 0.088,0.0441 0.1212,0.110243 0.044,0.05512 0.044,0.143316 v 1.311894 q 0.8379,-0.937067 1.6206,-1.367016 0.7938,-0.440972 1.5985,-0.440972 0.6174,0 1.1025,0.143316 0.4961,0.143316 0.8709,0.407899 0.3748,0.25356 0.6394,0.617362 0.2646,0.352778 0.441,0.793751 0.4961,-0.540191 0.937,-0.915018 0.452,-0.374827 0.8599,-0.606338 0.419,-0.23151 0.8048,-0.330729 0.3969,-0.110243 0.7938,-0.110243 0.9591,0 1.6095,0.341753 0.6505,0.33073 1.0473,0.89297 0.4079,0.56224 0.5733,1.322918 0.1764,0.749654 0.1764,1.587502 z"
             id="path7489"
             style="stroke-width:0.5;stroke-miterlimit:4;stroke-dasharray:none" />
          <path
             d="m 1503.3313,-39.503723 q 0,0.08819 -0.044,0.15434 -0.044,0.05512 -0.1434,0.09922 -0.099,0.0441 -0.2756,0.06615 -0.1763,0.02205 -0.4409,0.02205 -0.2756,0 -0.452,-0.02205 -0.1764,-0.02205 -0.2867,-0.06615 -0.099,-0.0441 -0.1433,-0.09922 -0.044,-0.06614 -0.044,-0.15434 v -6.030301 q 0,-0.628386 -0.1102,-1.146529 -0.1103,-0.518143 -0.3528,-0.89297 -0.2425,-0.374827 -0.6174,-0.573264 -0.3748,-0.198438 -0.8819,-0.198438 -0.6284,0 -1.2678,0.48507 -0.6284,0.48507 -1.3891,1.422137 v 6.934295 q 0,0.08819 -0.044,0.15434 -0.044,0.05512 -0.1543,0.09922 -0.099,0.0441 -0.2756,0.06615 -0.1764,0.02205 -0.441,0.02205 -0.2535,0 -0.441,-0.02205 -0.1763,-0.02205 -0.2866,-0.06615 -0.099,-0.0441 -0.1433,-0.09922 -0.033,-0.06614 -0.033,-0.15434 v -6.030301 q 0,-0.628386 -0.1212,-1.146529 -0.1213,-0.518143 -0.3638,-0.89297 -0.2426,-0.374827 -0.6174,-0.573264 -0.3638,-0.198438 -0.8709,-0.198438 -0.6284,0 -1.2678,0.48507 -0.6394,0.48507 -1.3891,1.422137 v 6.934295 q 0,0.08819 -0.044,0.15434 -0.044,0.05512 -0.1433,0.09922 -0.099,0.0441 -0.2756,0.06615 -0.1764,0.02205 -0.452,0.02205 -0.2646,0 -0.441,-0.02205 -0.1764,-0.02205 -0.2866,-0.06615 -0.099,-0.0441 -0.1433,-0.09922 -0.033,-0.06614 -0.033,-0.15434 v -9.921885 q 0,-0.0882 0.033,-0.143316 0.033,-0.06615 0.1323,-0.110243 0.099,-0.05512 0.2535,-0.06615 0.1544,-0.02205 0.4079,-0.02205 0.2426,0 0.3969,0.02205 0.1654,0.01102 0.2536,0.06615 0.088,0.0441 0.1212,0.110243 0.044,0.05512 0.044,0.143316 v 1.311894 q 0.8379,-0.937067 1.6206,-1.367016 0.7937,-0.440972 1.5985,-0.440972 0.6174,0 1.1025,0.143316 0.496,0.143316 0.8709,0.407899 0.3748,0.25356 0.6394,0.617362 0.2646,0.352778 0.441,0.793751 0.4961,-0.540191 0.937,-0.915018 0.452,-0.374827 0.8599,-0.606338 0.4189,-0.23151 0.8048,-0.330729 0.3969,-0.110243 0.7937,-0.110243 0.9592,0 1.6096,0.341753 0.6504,0.33073 1.0473,0.89297 0.4079,0.56224 0.5733,1.322918 0.1764,0.749654 0.1764,1.587502 z"
             id="path7491"
             style="stroke-width:0.5;stroke-miterlimit:4;stroke-dasharray:none" />
          <path
             d="m 1508.9978,-40.429766 q 0,0.782727 -0.2646,1.04731 -0.2536,0.25356 -0.9371,0.25356 -0.6614,0 -0.915,-0.25356 -0.2536,-0.253559 -0.2536,-1.014237 0,-0.782726 0.2536,-1.036285 0.2646,-0.264584 0.9481,-0.264584 0.6614,0 0.915,0.253559 0.2536,0.25356 0.2536,1.014237 z"
             id="path7493"
             style="stroke-width:0.5;stroke-miterlimit:4;stroke-dasharray:none" />
          <path
             d="m 1526.4272,-49.315365 q 0,1.069359 -0.3528,1.929256 -0.3527,0.859896 -1.0142,1.466234 -0.6504,0.606337 -1.6096,0.937067 -0.948,0.330729 -2.271,0.330729 h -1.6205 v 5.137332 q 0,0.08819 -0.055,0.15434 -0.044,0.06615 -0.1543,0.110243 -0.099,0.03307 -0.2866,0.05512 -0.1764,0.03307 -0.452,0.03307 -0.2756,0 -0.4631,-0.03307 -0.1763,-0.02205 -0.2866,-0.05512 -0.1102,-0.0441 -0.1543,-0.110243 -0.044,-0.06615 -0.044,-0.15434 v -13.163035 q 0,-0.440972 0.2315,-0.628386 0.2315,-0.187413 0.5181,-0.187413 h 3.0538 q 0.463,0 0.8819,0.0441 0.43,0.03307 1.0032,0.165365 0.5843,0.121268 1.1796,0.474046 0.6064,0.341753 1.0253,0.848872 0.4189,0.507119 0.6394,1.179602 0.2315,0.661459 0.2315,1.466234 z m -1.9954,0.154341 q 0,-0.870922 -0.3307,-1.45521 -0.3197,-0.584289 -0.8048,-0.870921 -0.474,-0.286633 -0.9922,-0.363803 -0.5071,-0.07717 -0.9922,-0.07717 h -1.7528 v 5.72162 h 1.7087 q 0.8599,0 1.4222,-0.220486 0.5732,-0.220486 0.9591,-0.606337 0.3858,-0.396876 0.5843,-0.937067 0.1984,-0.551216 0.1984,-1.190626 z"
             id="path7495"
             style="stroke-width:0.5;stroke-miterlimit:4;stroke-dasharray:none" />
          <path
             d="m 1536.1066,-39.492699 q 0,0.132292 -0.088,0.198438 -0.088,0.06615 -0.2426,0.09922 -0.1543,0.03307 -0.452,0.03307 -0.2866,0 -0.463,-0.03307 -0.1654,-0.03307 -0.2425,-0.09922 -0.077,-0.06615 -0.077,-0.198438 v -0.992188 q -0.6504,0.694532 -1.4552,1.080383 -0.7938,0.385851 -1.6867,0.385851 -0.7828,0 -1.4222,-0.209462 -0.6284,-0.198438 -1.0804,-0.584289 -0.4409,-0.385851 -0.6945,-0.948091 -0.2425,-0.56224 -0.2425,-1.278821 0,-0.837848 0.3417,-1.45521 0.3418,-0.617361 0.9812,-1.025261 0.6394,-0.4079 1.5655,-0.606338 0.926,-0.209462 2.0835,-0.209462 h 1.3671 v -0.771702 q 0,-0.573264 -0.1213,-1.014237 -0.1213,-0.440973 -0.3969,-0.727605 -0.2646,-0.297656 -0.6945,-0.440972 -0.43,-0.154341 -1.0583,-0.154341 -0.6725,0 -1.2127,0.165365 -0.5292,0.15434 -0.9371,0.352778 -0.3969,0.187413 -0.6725,0.352778 -0.2646,0.154341 -0.3968,0.154341 -0.088,0 -0.1544,-0.0441 -0.066,-0.0441 -0.1213,-0.132292 -0.044,-0.08819 -0.066,-0.220486 -0.022,-0.143316 -0.022,-0.308681 0,-0.275608 0.033,-0.429948 0.044,-0.165365 0.1874,-0.308681 0.1544,-0.143316 0.5182,-0.330729 0.3638,-0.198438 0.8378,-0.352779 0.4741,-0.165364 1.0363,-0.264583 0.5623,-0.110243 1.1355,-0.110243 1.0694,0 1.819,0.242535 0.7497,0.242535 1.2127,0.71658 0.463,0.463022 0.6725,1.157553 0.2095,0.694532 0.2095,1.620575 z m -1.808,-4.530994 h -1.5545 q -0.7496,0 -1.3008,0.132292 -0.5513,0.121267 -0.9151,0.374827 -0.3638,0.242535 -0.5401,0.595313 -0.1654,0.341754 -0.1654,0.793751 0,0.771702 0.4851,1.234723 0.4961,0.451997 1.378,0.451997 0.7166,0 1.3229,-0.363802 0.6174,-0.363803 1.2899,-1.113456 z"
             id="path7497"
             style="stroke-width:0.5;stroke-miterlimit:4;stroke-dasharray:none" />
          <path
             d="m 1547.7372,-48.973611 q 0,0.385851 -0.1102,0.56224 -0.099,0.165365 -0.2646,0.165365 h -1.4221 q 0.3858,0.396875 0.5401,0.881945 0.1544,0.474046 0.1544,0.992189 0,0.859896 -0.2756,1.521355 -0.2756,0.661459 -0.7938,1.124481 -0.5071,0.451997 -1.2127,0.694532 -0.7055,0.242535 -1.5654,0.242535 -0.6063,0 -1.1576,-0.154341 -0.5401,-0.165365 -0.8378,-0.4079 -0.1984,0.198438 -0.3307,0.451997 -0.1213,0.25356 -0.1213,0.584289 0,0.385851 0.3528,0.639411 0.3638,0.253559 0.9591,0.275608 l 2.5907,0.110243 q 0.7386,0.02205 1.356,0.209462 0.6174,0.176389 1.0694,0.518143 0.452,0.330729 0.7055,0.826823 0.2536,0.48507 0.2536,1.135505 0,0.683508 -0.2867,1.300869 -0.2866,0.617362 -0.8819,1.080383 -0.5843,0.474046 -1.4993,0.73863 -0.915,0.275608 -2.1608,0.275608 -1.2016,0 -2.0505,-0.209462 -0.8379,-0.198438 -1.378,-0.551216 -0.5402,-0.352778 -0.7828,-0.848873 -0.2425,-0.48507 -0.2425,-1.058334 0,-0.363803 0.088,-0.705556 0.088,-0.341754 0.2646,-0.650435 0.1874,-0.308681 0.452,-0.584289 0.2756,-0.286632 0.6284,-0.56224 -0.5402,-0.275608 -0.8048,-0.694532 -0.2536,-0.418924 -0.2536,-0.903994 0,-0.672483 0.2756,-1.20165 0.2756,-0.529168 0.6835,-0.948092 -0.3417,-0.407899 -0.5402,-0.915018 -0.1984,-0.518143 -0.1984,-1.245748 0,-0.848872 0.2866,-1.521356 0.2867,-0.672483 0.7938,-1.135504 0.5071,-0.463021 1.2127,-0.705556 0.7165,-0.25356 1.5544,-0.25356 0.452,0 0.8378,0.05512 0.3969,0.0441 0.7387,0.132292 h 2.9986 q 0.1874,0 0.2756,0.187413 0.099,0.176389 0.099,0.551216 z m -2.8443,2.612763 q 0,-1.014237 -0.5622,-1.576477 -0.5512,-0.573265 -1.5765,-0.573265 -0.5291,0 -0.926,0.176389 -0.3859,0.176389 -0.6505,0.48507 -0.2535,0.308681 -0.3858,0.716581 -0.1213,0.396875 -0.1213,0.837848 0,0.981164 0.5512,1.543404 0.5623,0.56224 1.5655,0.56224 0.5402,0 0.9371,-0.165364 0.3968,-0.176389 0.6504,-0.474046 0.2646,-0.308681 0.3858,-0.705556 0.1323,-0.396876 0.1323,-0.826824 z m 0.9151,7.860338 q 0,-0.639411 -0.5292,-0.981164 -0.5182,-0.352779 -1.4111,-0.374827 l -2.5687,-0.08819 q -0.3528,0.275608 -0.5843,0.529168 -0.2205,0.242535 -0.3528,0.463021 -0.1322,0.23151 -0.1874,0.451997 -0.044,0.220486 -0.044,0.451997 0,0.71658 0.7276,1.080383 0.7276,0.374827 2.0285,0.374827 0.8268,0 1.3781,-0.165365 0.5622,-0.154341 0.9039,-0.418924 0.3418,-0.264584 0.4851,-0.606338 0.1544,-0.341753 0.1544,-0.71658 z"
             id="path7499"
             style="stroke-width:0.5;stroke-miterlimit:4;stroke-dasharray:none" />
          <path
             d="m 1558.3536,-44.894614 q 0,0.429948 -0.2205,0.617362 -0.2094,0.176389 -0.485,0.176389 h -6.5044 q 0,0.826824 0.1654,1.488283 0.1653,0.661459 0.5512,1.135504 0.3859,0.474046 1.0032,0.727605 0.6174,0.253559 1.5103,0.253559 0.7056,0 1.2568,-0.110243 0.5512,-0.121267 0.9481,-0.264583 0.4079,-0.143316 0.6615,-0.25356 0.2645,-0.121267 0.3968,-0.121267 0.077,0 0.1323,0.0441 0.066,0.03307 0.099,0.110243 0.033,0.07717 0.044,0.220487 0.022,0.132292 0.022,0.330729 0,0.143316 -0.011,0.25356 -0.011,0.09922 -0.033,0.187413 -0.011,0.07717 -0.055,0.143316 -0.033,0.06615 -0.099,0.132292 -0.055,0.05512 -0.3528,0.198438 -0.2977,0.132291 -0.7717,0.264583 -0.4741,0.132292 -1.1025,0.231511 -0.6173,0.110243 -1.3229,0.110243 -1.2237,0 -2.1497,-0.341754 -0.915,-0.341754 -1.5434,-1.014237 -0.6284,-0.672483 -0.9481,-1.68672 -0.3197,-1.014238 -0.3197,-2.359204 0,-1.278821 0.3307,-2.293058 0.3307,-1.025262 0.9481,-1.730818 0.6284,-0.71658 1.5103,-1.091407 0.882,-0.385851 1.9734,-0.385851 1.1686,0 1.9844,0.374826 0.8268,0.374827 1.356,1.014238 0.5291,0.628386 0.7717,1.488282 0.2535,0.848873 0.2535,1.819013 z m -1.83,-0.540191 q 0.033,-1.433162 -0.6394,-2.248961 -0.6615,-0.815799 -1.9734,-0.815799 -0.6725,0 -1.1796,0.253559 -0.5071,0.253559 -0.8489,0.672483 -0.3417,0.418924 -0.5291,0.981164 -0.1874,0.551216 -0.2095,1.157554 z"
             id="path7501"
             style="stroke-width:0.5;stroke-miterlimit:4;stroke-dasharray:none" />
          <path
             d="m 1575.1988,-46.393921 q 0,1.642623 -0.2646,2.998614 -0.2536,1.355991 -0.8599,2.337155 -0.5953,0.97014 -1.5654,1.510332 -0.9702,0.529167 -2.3923,0.529167 -1.345,0 -2.271,-0.474046 -0.9151,-0.48507 -1.4773,-1.411112 -0.5622,-0.937067 -0.8048,-2.293058 -0.2315,-1.367015 -0.2315,-3.130906 0,-1.631599 0.2646,-2.98759 0.2646,-1.367015 0.8599,-2.337155 0.5953,-0.981164 1.5655,-1.510331 0.9701,-0.540192 2.3812,-0.540192 1.356,0 2.271,0.48507 0.9261,0.474046 1.4883,1.411112 0.5622,0.926043 0.7937,2.293058 0.2426,1.355991 0.2426,3.119882 z m -1.9403,0.132292 q 0,-1.069359 -0.077,-1.918231 -0.077,-0.848873 -0.2315,-1.499307 -0.1433,-0.650435 -0.3858,-1.113456 -0.2315,-0.474046 -0.5623,-0.771703 -0.3307,-0.30868 -0.7606,-0.440972 -0.419,-0.143316 -0.9481,-0.143316 -0.9371,0 -1.5214,0.440972 -0.5843,0.440973 -0.926,1.212675 -0.3308,0.771702 -0.452,1.807988 -0.1213,1.036286 -0.1213,2.226912 0,1.598526 0.1654,2.723006 0.1653,1.113456 0.5181,1.819013 0.3638,0.705556 0.915,1.025261 0.5623,0.319705 1.356,0.319705 0.6174,0 1.0804,-0.198437 0.474,-0.198438 0.8048,-0.562241 0.3417,-0.374826 0.5622,-0.892969 0.2205,-0.518143 0.3528,-1.146529 0.1323,-0.628386 0.1764,-1.355991 0.055,-0.738629 0.055,-1.53238 z"
             id="path7503"
             style="stroke-width:0.5;stroke-miterlimit:4;stroke-dasharray:none" />
          <path
             d="m 1586.168,-40.043915 q 0,0.198438 -0.033,0.352779 -0.022,0.15434 -0.077,0.264583 -0.044,0.09922 -0.1323,0.154341 -0.077,0.0441 -0.1763,0.0441 h -7.8824 q -0.1544,0 -0.2756,-0.03307 -0.1103,-0.0441 -0.1985,-0.132292 -0.077,-0.08819 -0.1212,-0.253559 -0.033,-0.165365 -0.033,-0.4079 0,-0.220486 0.011,-0.385851 0.022,-0.165365 0.077,-0.286632 0.055,-0.132292 0.1323,-0.253559 0.088,-0.132292 0.2205,-0.275608 l 2.7671,-2.932469 q 0.9591,-1.014237 1.5323,-1.819012 0.5843,-0.804775 0.893,-1.466234 0.3197,-0.661459 0.4189,-1.201651 0.099,-0.540191 0.099,-1.014237 0,-0.474045 -0.1543,-0.892969 -0.1543,-0.429949 -0.452,-0.749654 -0.2866,-0.319705 -0.7276,-0.507118 -0.441,-0.187414 -1.0142,-0.187414 -0.6725,0 -1.2127,0.187414 -0.5292,0.187413 -0.9371,0.407899 -0.3968,0.220487 -0.6725,0.4079 -0.2645,0.187413 -0.3968,0.187413 -0.077,0 -0.1433,-0.0441 -0.055,-0.0441 -0.099,-0.143316 -0.033,-0.09922 -0.055,-0.264584 -0.022,-0.165364 -0.022,-0.396875 0,-0.165365 0.011,-0.286632 0.011,-0.121268 0.033,-0.209462 0.033,-0.0882 0.077,-0.165365 0.044,-0.07717 0.1764,-0.187413 0.1323,-0.121268 0.452,-0.319706 0.3307,-0.198437 0.8158,-0.385851 0.4961,-0.198437 1.0804,-0.330729 0.5953,-0.132292 1.2457,-0.132292 1.0363,0 1.808,0.297657 0.7828,0.286632 1.2899,0.79375 0.5181,0.507119 0.7717,1.179602 0.2535,0.672484 0.2535,1.433161 0,0.683508 -0.1212,1.367016 -0.1213,0.672483 -0.5182,1.466234 -0.3858,0.782726 -1.1245,1.752866 -0.7386,0.959116 -1.9623,2.215888 l -2.26,2.359204 h 6.2067 q 0.088,0 0.1654,0.05512 0.088,0.0441 0.1433,0.143316 0.066,0.09922 0.088,0.25356 0.033,0.143316 0.033,0.341753 z"
             id="path7505"
             style="stroke-width:0.5;stroke-miterlimit:4;stroke-dasharray:none" />
        </g>
      </g>
    </g>
  </g>
</svg>
