<?xml version="1.0" encoding="UTF-8" standalone="no"?>
<svg
   inkscape:label="LA410-complettTree"
   sodipodi:docname="6bc6a93a19da2e13a8b7357b55484716toy.svg.Styrofoam.01_cropped.svg"
   inkscape:version="1.1.1 (eb90963e84, 2021-10-02)"
   id="svg1004"
   version="1.1"
   viewBox="0 0 227.40518 351.30388"
   height="351.30389mm"
   width="227.4052mm"
   xmlns:inkscape="http://www.inkscape.org/namespaces/inkscape"
   xmlns:sodipodi="http://sodipodi.sourceforge.net/DTD/sodipodi-0.dtd"
   xmlns="http://www.w3.org/2000/svg"
   xmlns:svg="http://www.w3.org/2000/svg">
  <defs
     id="defs83" />
  <sodipodi:namedview
     id="namedview81"
     pagecolor="#ffffff"
     bordercolor="#666666"
     borderopacity="1.0"
     inkscape:pageshadow="2"
     inkscape:pageopacity="0.0"
     inkscape:pagecheckerboard="0"
     inkscape:document-units="mm" />
  <g
     id="layer18"
     inkscape:label="Styrofoam"
     inkscape:groupmode="layer"
     transform="translate(-2554.2482,-1130.7087)"
     style="display:inline">
    <g
       inkscape:groupmode="layer"
       id="layer29"
       inkscape:label="01"
       style="display:inline">
      <g
         id="layer1-6"
         inkscape:label="Engrave"
         style="display:inline"
         transform="translate(602.94339,214.84258)"
         inkscape:groupmode="layer">
        <g
           aria-label="Styrofoam. Page 01"
           id="text7755-7"
           style="font-size:22.5778px;line-height:1.25;font-family:Calibri;-inkscape-font-specification:Calibri;letter-spacing:0px;word-spacing:0px;display:inline;fill:none;stroke:#0000bf;stroke-width:0.5;stroke-miterlimit:4;stroke-dasharray:none">
          <path
             d="m 1960.3301,927.54834 q 0,1.00322 -0.3749,1.78594 -0.3638,0.78273 -1.0252,1.33395 -0.6505,0.54019 -1.5434,0.81579 -0.882,0.27561 -1.9072,0.27561 -0.7166,0 -1.334,-0.12126 -0.6063,-0.12127 -1.0914,-0.29766 -0.474,-0.17639 -0.8048,-0.3638 -0.3197,-0.18742 -0.452,-0.31971 -0.1212,-0.13229 -0.1874,-0.33073 -0.055,-0.20946 -0.055,-0.55121 0,-0.24254 0.022,-0.39688 0.022,-0.16536 0.066,-0.26458 0.044,-0.0992 0.1102,-0.13229 0.066,-0.0441 0.1544,-0.0441 0.1543,0 0.4299,0.18741 0.2867,0.18741 0.7276,0.4079 0.441,0.22049 1.0584,0.41892 0.6284,0.18742 1.4442,0.18742 0.6173,0 1.1244,-0.16537 0.5182,-0.16536 0.882,-0.46302 0.3748,-0.30868 0.5732,-0.74965 0.1985,-0.44097 0.1985,-1.00321 0,-0.60634 -0.2756,-1.03629 -0.2756,-0.42995 -0.7276,-0.74965 -0.452,-0.33073 -1.0363,-0.59532 -0.5733,-0.2756 -1.1796,-0.55121 -0.6064,-0.28663 -1.1796,-0.62839 -0.5733,-0.34175 -1.0253,-0.80477 -0.452,-0.46302 -0.7386,-1.08039 -0.2756,-0.62838 -0.2756,-1.4993 0,-0.89297 0.3197,-1.58751 0.3307,-0.70555 0.904,-1.1796 0.5843,-0.47404 1.378,-0.71658 0.8048,-0.25356 1.7308,-0.25356 0.4741,0 0.9481,0.0882 0.4851,0.0772 0.904,0.22048 0.43,0.1323 0.7607,0.30868 0.3307,0.16537 0.4299,0.27561 0.1103,0.0992 0.1434,0.16537 0.033,0.0551 0.055,0.15434 0.022,0.0882 0.033,0.22048 0.011,0.1323 0.011,0.34176 0,0.19844 -0.022,0.35278 -0.011,0.15434 -0.044,0.26458 -0.033,0.0992 -0.099,0.15434 -0.055,0.0441 -0.1323,0.0441 -0.1212,0 -0.3858,-0.15434 -0.2536,-0.15434 -0.6284,-0.34176 -0.3748,-0.19843 -0.893,-0.35277 -0.5071,-0.16537 -1.1465,-0.16537 -0.5953,0 -1.0363,0.16537 -0.441,0.15434 -0.7276,0.41892 -0.2866,0.26458 -0.43,0.62839 -0.1433,0.3638 -0.1433,0.7717 0,0.59531 0.2756,1.02526 0.2756,0.42995 0.7276,0.76068 0.4631,0.33073 1.0474,0.60633 0.5842,0.27561 1.1906,0.56224 0.6063,0.27561 1.1906,0.61737 0.5843,0.33073 1.0363,0.79375 0.463,0.45199 0.7386,1.08038 0.2867,0.61736 0.2867,1.46623 z"
             id="path7613"
             style="stroke-width:0.5;stroke-miterlimit:4;stroke-dasharray:none" />
          <path
             d="m 1967.992,930.54696 q 0,0.3197 -0.044,0.50712 -0.044,0.18741 -0.1323,0.2756 -0.088,0.0882 -0.2646,0.16537 -0.1764,0.0772 -0.4079,0.12127 -0.2205,0.0551 -0.4741,0.0882 -0.2535,0.0331 -0.5071,0.0331 -0.7717,0 -1.3229,-0.19843 -0.5512,-0.20947 -0.904,-0.61737 -0.3528,-0.41892 -0.5181,-1.04731 -0.1544,-0.63941 -0.1544,-1.4993 v -5.79879 h -1.389 q -0.1654,0 -0.2646,-0.17639 -0.099,-0.17639 -0.099,-0.57327 0,-0.20946 0.022,-0.35277 0.033,-0.14332 0.077,-0.23152 0.044,-0.0992 0.1102,-0.13229 0.077,-0.0441 0.1654,-0.0441 h 1.378 v -2.35921 q 0,-0.0772 0.033,-0.14331 0.044,-0.0661 0.1433,-0.11025 0.1103,-0.0551 0.2866,-0.0772 0.1764,-0.0221 0.441,-0.0221 0.2756,0 0.452,0.0221 0.1764,0.022 0.2756,0.0772 0.099,0.0441 0.1433,0.11025 0.044,0.0661 0.044,0.14331 v 2.35921 h 2.5467 q 0.088,0 0.1543,0.0441 0.066,0.0331 0.1102,0.13229 0.055,0.0882 0.077,0.23152 0.022,0.14331 0.022,0.35277 0,0.39688 -0.099,0.57327 -0.099,0.17639 -0.2645,0.17639 h -2.5467 v 5.5342 q 0,1.02527 0.2977,1.55443 0.3087,0.51815 1.0914,0.51815 0.2536,0 0.452,-0.0441 0.1984,-0.0551 0.3528,-0.11024 0.1543,-0.0551 0.2646,-0.0992 0.1102,-0.0551 0.1984,-0.0551 0.055,0 0.099,0.0331 0.055,0.0221 0.077,0.0992 0.033,0.0772 0.055,0.20946 0.022,0.13229 0.022,0.33073 z"
             id="path7615"
             style="stroke-width:0.5;stroke-miterlimit:4;stroke-dasharray:none" />
          <path
             d="m 1974.9152,931.55017 -1.3229,3.64905 q -0.066,0.17639 -0.3417,0.26458 -0.2646,0.0992 -0.8158,0.0992 -0.2867,0 -0.4631,-0.0331 -0.1764,-0.0221 -0.2756,-0.0882 -0.088,-0.0661 -0.099,-0.17638 -0.011,-0.11025 0.055,-0.26459 l 1.367,-3.45061 q -0.099,-0.0441 -0.1874,-0.14332 -0.088,-0.0992 -0.1212,-0.20946 l -3.5388,-9.48091 q -0.088,-0.23151 -0.088,-0.3638 0,-0.13229 0.088,-0.20946 0.088,-0.0772 0.2866,-0.0992 0.1984,-0.0331 0.5292,-0.0331 0.3307,0 0.5181,0.022 0.1874,0.011 0.2977,0.0551 0.1102,0.0441 0.1543,0.1323 0.055,0.0772 0.1102,0.22048 l 2.8333,7.95956 h 0.033 l 2.734,-8.00365 q 0.066,-0.20947 0.1543,-0.26459 0.099,-0.0661 0.2867,-0.0882 0.1874,-0.0331 0.5402,-0.0331 0.3086,0 0.5071,0.0331 0.1984,0.0221 0.2866,0.0992 0.099,0.0772 0.099,0.20946 0,0.13229 -0.066,0.33073 z"
             id="path7617"
             style="stroke-width:0.5;stroke-miterlimit:4;stroke-dasharray:none" />
          <path
             d="m 1986.4136,922.00311 q 0,0.24254 -0.011,0.4079 -0.011,0.16537 -0.044,0.26459 -0.033,0.0882 -0.088,0.14331 -0.044,0.0441 -0.1323,0.0441 -0.088,0 -0.2205,-0.0441 -0.1213,-0.0551 -0.2866,-0.0992 -0.1544,-0.0551 -0.3528,-0.0992 -0.1985,-0.0441 -0.43,-0.0441 -0.2756,0 -0.5402,0.11024 -0.2645,0.11024 -0.5622,0.3638 -0.2866,0.25356 -0.6063,0.67249 -0.3197,0.41892 -0.7056,1.02526 v 6.52639 q 0,0.0882 -0.044,0.15434 -0.044,0.0551 -0.1433,0.0992 -0.099,0.0441 -0.2756,0.0662 -0.1764,0.022 -0.452,0.022 -0.2646,0 -0.441,-0.022 -0.1764,-0.0221 -0.2866,-0.0662 -0.099,-0.0441 -0.1433,-0.0992 -0.033,-0.0661 -0.033,-0.15434 v -9.92188 q 0,-0.0882 0.033,-0.14332 0.033,-0.0661 0.1323,-0.11024 0.099,-0.0551 0.2535,-0.0661 0.1544,-0.022 0.4079,-0.022 0.2426,0 0.3969,0.022 0.1654,0.011 0.2536,0.0661 0.088,0.0441 0.1212,0.11024 0.044,0.0551 0.044,0.14332 v 1.44418 q 0.4079,-0.59531 0.7607,-0.97014 0.3638,-0.37482 0.6835,-0.58429 0.3197,-0.22048 0.6284,-0.29765 0.3197,-0.0882 0.6394,-0.0882 0.1433,0 0.3197,0.0221 0.1874,0.011 0.3859,0.0551 0.1984,0.0441 0.3527,0.0992 0.1654,0.0551 0.2315,0.11025 0.066,0.0551 0.088,0.11024 0.022,0.0441 0.033,0.12127 0.022,0.0772 0.022,0.23151 0.011,0.14331 0.011,0.39687 z"
             id="path7619"
             style="stroke-width:0.5;stroke-miterlimit:4;stroke-dasharray:none" />
          <path
             d="m 1997.3497,926.20338 q 0,1.21267 -0.3197,2.23793 -0.3197,1.01424 -0.9591,1.75287 -0.6284,0.73863 -1.5875,1.15755 -0.9481,0.4079 -2.2049,0.4079 -1.2237,0 -2.1387,-0.3638 -0.904,-0.3638 -1.5103,-1.05833 -0.6064,-0.69454 -0.904,-1.68672 -0.2977,-0.99219 -0.2977,-2.24897 0,-1.21267 0.3087,-2.22691 0.3197,-1.02526 0.9481,-1.76389 0.6394,-0.73863 1.5875,-1.14653 0.9481,-0.4079 2.2159,-0.4079 1.2237,0 2.1277,0.36381 0.915,0.3638 1.5213,1.05833 0.6064,0.69453 0.904,1.68672 0.3087,0.99219 0.3087,2.23794 z m -1.9182,0.12126 q 0,-0.80477 -0.1544,-1.52135 -0.1433,-0.71658 -0.485,-1.25677 -0.3418,-0.54019 -0.9261,-0.84888 -0.5843,-0.3197 -1.4552,-0.3197 -0.8048,0 -1.389,0.28663 -0.5733,0.28663 -0.9481,0.8158 -0.3749,0.51814 -0.5623,1.23472 -0.1764,0.71659 -0.1764,1.56546 0,0.8158 0.1433,1.53238 0.1544,0.71658 0.4961,1.25677 0.3528,0.52917 0.9371,0.84887 0.5843,0.30868 1.4552,0.30868 0.7938,0 1.3781,-0.28663 0.5842,-0.28663 0.9591,-0.80477 0.3748,-0.51815 0.5512,-1.23473 0.1764,-0.71658 0.1764,-1.57648 z"
             id="path7621"
             style="stroke-width:0.5;stroke-miterlimit:4;stroke-dasharray:none" />
          <path
             d="m 2005.4636,917.27368 q 0,0.20946 -0.022,0.34175 -0.022,0.12127 -0.055,0.19844 -0.022,0.0772 -0.066,0.11025 -0.044,0.022 -0.1103,0.022 -0.077,0 -0.1984,-0.0441 -0.1102,-0.0551 -0.2756,-0.11025 -0.1654,-0.0661 -0.3969,-0.11024 -0.2205,-0.0551 -0.5181,-0.0551 -0.4079,0 -0.6945,0.13229 -0.2867,0.13229 -0.4631,0.41892 -0.1764,0.27561 -0.2535,0.72761 -0.077,0.44097 -0.077,1.08038 v 1.08039 h 2.2159 q 0.088,0 0.1433,0.0441 0.066,0.0331 0.1102,0.13229 0.055,0.0882 0.077,0.23152 0.033,0.14331 0.033,0.35277 0,0.39688 -0.099,0.57327 -0.099,0.17639 -0.2646,0.17639 h -2.2159 v 8.69818 q 0,0.0882 -0.044,0.15434 -0.044,0.0551 -0.1543,0.0992 -0.099,0.0441 -0.2756,0.0662 -0.1764,0.022 -0.441,0.022 -0.2646,0 -0.441,-0.022 -0.1764,-0.0221 -0.2866,-0.0662 -0.099,-0.0441 -0.1433,-0.0992 -0.044,-0.0661 -0.044,-0.15434 v -8.69818 h -1.4001 q -0.1764,0 -0.2646,-0.17639 -0.088,-0.17639 -0.088,-0.57327 0,-0.20946 0.022,-0.35277 0.022,-0.14332 0.066,-0.23152 0.044,-0.0992 0.1102,-0.13229 0.066,-0.0441 0.1544,-0.0441 h 1.4001 v -1.02527 q 0,-1.03628 0.1874,-1.77491 0.1984,-0.74965 0.5953,-1.2237 0.3969,-0.47405 0.9922,-0.69453 0.6063,-0.23151 1.4221,-0.23151 0.3859,0 0.7497,0.0772 0.3638,0.0661 0.5622,0.15434 0.1984,0.0772 0.2646,0.14331 0.066,0.0661 0.1102,0.17639 0.044,0.0992 0.055,0.25356 0.022,0.14332 0.022,0.35278 z"
             id="path7623"
             style="stroke-width:0.5;stroke-miterlimit:4;stroke-dasharray:none" />
          <path
             d="m 2015.6721,926.20338 q 0,1.21267 -0.3197,2.23793 -0.3197,1.01424 -0.9591,1.75287 -0.6284,0.73863 -1.5875,1.15755 -0.9481,0.4079 -2.2049,0.4079 -1.2237,0 -2.1387,-0.3638 -0.904,-0.3638 -1.5103,-1.05833 -0.6063,-0.69454 -0.904,-1.68672 -0.2977,-0.99219 -0.2977,-2.24897 0,-1.21267 0.3087,-2.22691 0.3197,-1.02526 0.9481,-1.76389 0.6394,-0.73863 1.5875,-1.14653 0.9481,-0.4079 2.2159,-0.4079 1.2237,0 2.1277,0.36381 0.915,0.3638 1.5214,1.05833 0.6063,0.69453 0.9039,1.68672 0.3087,0.99219 0.3087,2.23794 z m -1.9182,0.12126 q 0,-0.80477 -0.1543,-1.52135 -0.1434,-0.71658 -0.4851,-1.25677 -0.3418,-0.54019 -0.9261,-0.84888 -0.5842,-0.3197 -1.4552,-0.3197 -0.8047,0 -1.389,0.28663 -0.5733,0.28663 -0.9481,0.8158 -0.3748,0.51814 -0.5623,1.23472 -0.1764,0.71659 -0.1764,1.56546 0,0.8158 0.1434,1.53238 0.1543,0.71658 0.4961,1.25677 0.3527,0.52917 0.937,0.84887 0.5843,0.30868 1.4552,0.30868 0.7938,0 1.3781,-0.28663 0.5843,-0.28663 0.9591,-0.80477 0.3748,-0.51815 0.5512,-1.23473 0.1764,-0.71658 0.1764,-1.57648 z"
             id="path7625"
             style="stroke-width:0.5;stroke-miterlimit:4;stroke-dasharray:none" />
          <path
             d="m 2025.8255,931.28559 q 0,0.13229 -0.088,0.19843 -0.088,0.0661 -0.2425,0.0992 -0.1543,0.0331 -0.452,0.0331 -0.2866,0 -0.463,-0.0331 -0.1654,-0.0331 -0.2426,-0.0992 -0.077,-0.0661 -0.077,-0.19843 v -0.99219 q -0.6505,0.69453 -1.4552,1.08038 -0.7938,0.38585 -1.6868,0.38585 -0.7827,0 -1.4221,-0.20946 -0.6284,-0.19844 -1.0804,-0.58429 -0.441,-0.38585 -0.6945,-0.94809 -0.2425,-0.56224 -0.2425,-1.27882 0,-0.83785 0.3417,-1.45521 0.3418,-0.61736 0.9812,-1.02526 0.6394,-0.4079 1.5654,-0.60634 0.9261,-0.20946 2.0836,-0.20946 h 1.367 v -0.7717 q 0,-0.57327 -0.1212,-1.01424 -0.1213,-0.44097 -0.3969,-0.7276 -0.2646,-0.29766 -0.6945,-0.44098 -0.43,-0.15434 -1.0584,-0.15434 -0.6725,0 -1.2127,0.16537 -0.5291,0.15434 -0.937,0.35277 -0.3969,0.18742 -0.6725,0.35278 -0.2646,0.15434 -0.3969,0.15434 -0.088,0 -0.1543,-0.0441 -0.066,-0.0441 -0.1213,-0.1323 -0.044,-0.0882 -0.066,-0.22048 -0.022,-0.14332 -0.022,-0.30868 0,-0.27561 0.033,-0.42995 0.044,-0.16537 0.1874,-0.30868 0.1543,-0.14332 0.5182,-0.33073 0.3638,-0.19844 0.8378,-0.35278 0.474,-0.16536 1.0363,-0.26458 0.5622,-0.11025 1.1355,-0.11025 1.0693,0 1.819,0.24254 0.7497,0.24253 1.2127,0.71658 0.463,0.46302 0.6725,1.15755 0.2094,0.69453 0.2094,1.62058 z m -1.808,-4.531 h -1.5544 q -0.7496,0 -1.3009,0.13229 -0.5512,0.12127 -0.915,0.37483 -0.3638,0.24254 -0.5402,0.59531 -0.1653,0.34176 -0.1653,0.79376 0,0.7717 0.485,1.23472 0.4961,0.452 1.3781,0.452 0.7166,0 1.3229,-0.36381 0.6174,-0.3638 1.2898,-1.11345 z"
             id="path7627"
             style="stroke-width:0.5;stroke-miterlimit:4;stroke-dasharray:none" />
          <path
             d="m 2043.8834,931.27456 q 0,0.0882 -0.044,0.15434 -0.044,0.0551 -0.1434,0.0992 -0.099,0.0441 -0.2756,0.0662 -0.1764,0.022 -0.4409,0.022 -0.2756,0 -0.452,-0.022 -0.1764,-0.0221 -0.2867,-0.0662 -0.099,-0.0441 -0.1433,-0.0992 -0.044,-0.0661 -0.044,-0.15434 v -6.0303 q 0,-0.62838 -0.1102,-1.14653 -0.1103,-0.51814 -0.3528,-0.89297 -0.2425,-0.37482 -0.6174,-0.57326 -0.3748,-0.19844 -0.8819,-0.19844 -0.6284,0 -1.2678,0.48507 -0.6284,0.48507 -1.3891,1.42214 v 6.93429 q 0,0.0882 -0.044,0.15434 -0.044,0.0551 -0.1543,0.0992 -0.099,0.0441 -0.2756,0.0662 -0.1764,0.022 -0.441,0.022 -0.2535,0 -0.441,-0.022 -0.1764,-0.0221 -0.2866,-0.0662 -0.099,-0.0441 -0.1433,-0.0992 -0.033,-0.0661 -0.033,-0.15434 v -6.0303 q 0,-0.62838 -0.1212,-1.14653 -0.1213,-0.51814 -0.3639,-0.89297 -0.2425,-0.37482 -0.6173,-0.57326 -0.3638,-0.19844 -0.8709,-0.19844 -0.6284,0 -1.2678,0.48507 -0.6394,0.48507 -1.3891,1.42214 v 6.93429 q 0,0.0882 -0.044,0.15434 -0.044,0.0551 -0.1433,0.0992 -0.099,0.0441 -0.2756,0.0662 -0.1764,0.022 -0.452,0.022 -0.2646,0 -0.441,-0.022 -0.1764,-0.0221 -0.2866,-0.0662 -0.099,-0.0441 -0.1433,-0.0992 -0.033,-0.0661 -0.033,-0.15434 v -9.92188 q 0,-0.0882 0.033,-0.14332 0.033,-0.0661 0.1323,-0.11024 0.099,-0.0551 0.2535,-0.0661 0.1544,-0.022 0.4079,-0.022 0.2426,0 0.3969,0.022 0.1654,0.011 0.2536,0.0661 0.088,0.0441 0.1212,0.11024 0.044,0.0551 0.044,0.14332 v 1.31189 q 0.8379,-0.93707 1.6206,-1.36701 0.7937,-0.44098 1.5985,-0.44098 0.6174,0 1.1024,0.14332 0.4961,0.14332 0.871,0.4079 0.3748,0.25356 0.6394,0.61736 0.2646,0.35278 0.441,0.79375 0.496,-0.54019 0.937,-0.91502 0.452,-0.37482 0.8599,-0.60633 0.4189,-0.23151 0.8048,-0.33073 0.3969,-0.11025 0.7937,-0.11025 0.9592,0 1.6096,0.34176 0.6504,0.33073 1.0473,0.89297 0.4079,0.56224 0.5733,1.32292 0.1764,0.74965 0.1764,1.5875 z"
             id="path7629"
             style="stroke-width:0.5;stroke-miterlimit:4;stroke-dasharray:none" />
          <path
             d="m 2049.5499,930.34852 q 0,0.78273 -0.2646,1.04731 -0.2536,0.25356 -0.9371,0.25356 -0.6615,0 -0.915,-0.25356 -0.2536,-0.25356 -0.2536,-1.01424 0,-0.78272 0.2536,-1.03628 0.2646,-0.26459 0.9481,-0.26459 0.6614,0 0.915,0.25356 0.2536,0.25356 0.2536,1.01424 z"
             id="path7631"
             style="stroke-width:0.5;stroke-miterlimit:4;stroke-dasharray:none" />
          <path
             d="m 2066.9793,921.46292 q 0,1.06936 -0.3528,1.92926 -0.3528,0.85989 -1.0142,1.46623 -0.6505,0.60634 -1.6096,0.93707 -0.9481,0.33073 -2.271,0.33073 h -1.6206 v 5.13733 q 0,0.0882 -0.055,0.15434 -0.044,0.0661 -0.1543,0.11024 -0.099,0.0331 -0.2867,0.0551 -0.1763,0.0331 -0.4519,0.0331 -0.2757,0 -0.4631,-0.0331 -0.1764,-0.022 -0.2866,-0.0551 -0.1102,-0.0441 -0.1543,-0.11024 -0.044,-0.0661 -0.044,-0.15434 V 918.1005 q 0,-0.44097 0.2315,-0.62838 0.2315,-0.18742 0.5181,-0.18742 h 3.0538 q 0.463,0 0.8819,0.0441 0.4299,0.0331 1.0032,0.16537 0.5843,0.12126 1.1796,0.47404 0.6063,0.34176 1.0253,0.84888 0.4189,0.50711 0.6394,1.1796 0.2315,0.66146 0.2315,1.46623 z m -1.9954,0.15434 q 0,-0.87092 -0.3307,-1.45521 -0.3197,-0.58429 -0.8048,-0.87092 -0.4741,-0.28663 -0.9922,-0.3638 -0.5071,-0.0772 -0.9922,-0.0772 h -1.7529 v 5.72162 h 1.7088 q 0.8599,0 1.4221,-0.22049 0.5733,-0.22048 0.9592,-0.60634 0.3858,-0.39687 0.5843,-0.93706 0.1984,-0.55122 0.1984,-1.19063 z"
             id="path7633"
             style="stroke-width:0.5;stroke-miterlimit:4;stroke-dasharray:none" />
          <path
             d="m 2076.6586,931.28559 q 0,0.13229 -0.088,0.19843 -0.088,0.0661 -0.2425,0.0992 -0.1543,0.0331 -0.452,0.0331 -0.2866,0 -0.463,-0.0331 -0.1654,-0.0331 -0.2425,-0.0992 -0.077,-0.0661 -0.077,-0.19843 v -0.99219 q -0.6504,0.69453 -1.4552,1.08038 -0.7938,0.38585 -1.6867,0.38585 -0.7828,0 -1.4222,-0.20946 -0.6284,-0.19844 -1.0804,-0.58429 -0.4409,-0.38585 -0.6945,-0.94809 -0.2425,-0.56224 -0.2425,-1.27882 0,-0.83785 0.3417,-1.45521 0.3418,-0.61736 0.9812,-1.02526 0.6394,-0.4079 1.5654,-0.60634 0.9261,-0.20946 2.0836,-0.20946 h 1.3671 v -0.7717 q 0,-0.57327 -0.1213,-1.01424 -0.1213,-0.44097 -0.3969,-0.7276 -0.2646,-0.29766 -0.6945,-0.44098 -0.43,-0.15434 -1.0584,-0.15434 -0.6724,0 -1.2126,0.16537 -0.5292,0.15434 -0.9371,0.35277 -0.3969,0.18742 -0.6725,0.35278 -0.2646,0.15434 -0.3969,0.15434 -0.088,0 -0.1543,-0.0441 -0.066,-0.0441 -0.1213,-0.1323 -0.044,-0.0882 -0.066,-0.22048 -0.022,-0.14332 -0.022,-0.30868 0,-0.27561 0.033,-0.42995 0.044,-0.16537 0.1874,-0.30868 0.1544,-0.14332 0.5182,-0.33073 0.3638,-0.19844 0.8378,-0.35278 0.4741,-0.16536 1.0363,-0.26458 0.5622,-0.11025 1.1355,-0.11025 1.0694,0 1.819,0.24254 0.7497,0.24253 1.2127,0.71658 0.463,0.46302 0.6725,1.15755 0.2094,0.69453 0.2094,1.62058 z m -1.8079,-4.531 h -1.5545 q -0.7496,0 -1.3008,0.13229 -0.5513,0.12127 -0.9151,0.37483 -0.3638,0.24254 -0.5402,0.59531 -0.1653,0.34176 -0.1653,0.79376 0,0.7717 0.4851,1.23472 0.496,0.452 1.378,0.452 0.7166,0 1.3229,-0.36381 0.6174,-0.3638 1.2899,-1.11345 z"
             id="path7635"
             style="stroke-width:0.5;stroke-miterlimit:4;stroke-dasharray:none" />
          <path
             d="m 2088.2893,921.80467 q 0,0.38586 -0.1102,0.56225 -0.099,0.16536 -0.2646,0.16536 h -1.4222 q 0.3859,0.39688 0.5402,0.88195 0.1544,0.47404 0.1544,0.99218 0,0.8599 -0.2756,1.52136 -0.2756,0.66146 -0.7938,1.12448 -0.5071,0.452 -1.2127,0.69453 -0.7055,0.24254 -1.5654,0.24254 -0.6064,0 -1.1576,-0.15434 -0.5402,-0.16537 -0.8378,-0.4079 -0.1985,0.19843 -0.3307,0.45199 -0.1213,0.25356 -0.1213,0.58429 0,0.38585 0.3528,0.63941 0.3638,0.25356 0.9591,0.27561 l 2.5907,0.11024 q 0.7386,0.0221 1.356,0.20947 0.6173,0.17638 1.0693,0.51814 0.452,0.33073 0.7056,0.82682 0.2536,0.48507 0.2536,1.13551 0,0.6835 -0.2867,1.30087 -0.2866,0.61736 -0.8819,1.08038 -0.5843,0.47404 -1.4993,0.73863 -0.915,0.27561 -2.1608,0.27561 -1.2016,0 -2.0505,-0.20947 -0.8379,-0.19843 -1.3781,-0.55121 -0.5401,-0.35278 -0.7827,-0.84887 -0.2425,-0.48507 -0.2425,-1.05834 0,-0.3638 0.088,-0.70555 0.088,-0.34176 0.2646,-0.65044 0.1874,-0.30868 0.452,-0.58429 0.2756,-0.28663 0.6283,-0.56224 -0.5401,-0.27561 -0.8047,-0.69453 -0.2536,-0.41892 -0.2536,-0.90399 0,-0.67249 0.2756,-1.20165 0.2756,-0.52917 0.6835,-0.9481 -0.3417,-0.4079 -0.5402,-0.91501 -0.1984,-0.51815 -0.1984,-1.24575 0,-0.84887 0.2866,-1.52136 0.2867,-0.67248 0.7938,-1.1355 0.5071,-0.46302 1.2127,-0.70556 0.7165,-0.25356 1.5544,-0.25356 0.452,0 0.8378,0.0551 0.3969,0.0441 0.7387,0.1323 h 2.9986 q 0.1874,0 0.2756,0.18741 0.099,0.17639 0.099,0.55121 z m -2.8443,2.61277 q 0,-1.01424 -0.5622,-1.57648 -0.5512,-0.57326 -1.5765,-0.57326 -0.5292,0 -0.926,0.17639 -0.3859,0.17638 -0.6505,0.48507 -0.2535,0.30868 -0.3858,0.71658 -0.1213,0.39687 -0.1213,0.83784 0,0.98117 0.5512,1.54341 0.5623,0.56224 1.5655,0.56224 0.5402,0 0.937,-0.16537 0.3969,-0.17639 0.6505,-0.47404 0.2646,-0.30868 0.3858,-0.70556 0.1323,-0.39687 0.1323,-0.82682 z m 0.915,7.86034 q 0,-0.63941 -0.5291,-0.98117 -0.5182,-0.35278 -1.4111,-0.37483 l -2.5687,-0.0882 q -0.3528,0.27561 -0.5843,0.52917 -0.2205,0.24253 -0.3528,0.46302 -0.1323,0.23151 -0.1874,0.452 -0.044,0.22048 -0.044,0.45199 0,0.71658 0.7276,1.08039 0.7276,0.37482 2.0285,0.37482 0.8268,0 1.378,-0.16536 0.5623,-0.15434 0.904,-0.41893 0.3418,-0.26458 0.4851,-0.60633 0.1543,-0.34176 0.1543,-0.71658 z"
             id="path7637"
             style="stroke-width:0.5;stroke-miterlimit:4;stroke-dasharray:none" />
          <path
             d="m 2098.9057,925.88367 q 0,0.42995 -0.2205,0.61736 -0.2094,0.17639 -0.485,0.17639 h -6.5044 q 0,0.82683 0.1654,1.48829 0.1653,0.66145 0.5512,1.1355 0.3858,0.47405 1.0032,0.72761 0.6174,0.25355 1.5103,0.25355 0.7056,0 1.2568,-0.11024 0.5512,-0.12127 0.9481,-0.26458 0.4079,-0.14332 0.6615,-0.25356 0.2645,-0.12127 0.3968,-0.12127 0.077,0 0.1323,0.0441 0.066,0.0331 0.099,0.11024 0.033,0.0772 0.044,0.22049 0.022,0.13229 0.022,0.33073 0,0.14331 -0.011,0.25356 -0.011,0.0992 -0.033,0.18741 -0.011,0.0772 -0.055,0.14332 -0.033,0.0661 -0.099,0.13229 -0.055,0.0551 -0.3528,0.19844 -0.2977,0.13229 -0.7717,0.26458 -0.4741,0.13229 -1.1025,0.23151 -0.6173,0.11024 -1.3229,0.11024 -1.2237,0 -2.1497,-0.34175 -0.915,-0.34175 -1.5434,-1.01424 -0.6284,-0.67248 -0.9481,-1.68672 -0.3197,-1.01424 -0.3197,-2.3592 0,-1.27882 0.3307,-2.29306 0.3307,-1.02526 0.9481,-1.73082 0.6284,-0.71658 1.5103,-1.09141 0.882,-0.38585 1.9734,-0.38585 1.1686,0 1.9844,0.37483 0.8268,0.37483 1.356,1.01424 0.5291,0.62838 0.7717,1.48828 0.2535,0.84887 0.2535,1.81901 z m -1.83,-0.54019 q 0.033,-1.43316 -0.6394,-2.24896 -0.6615,-0.8158 -1.9734,-0.8158 -0.6725,0 -1.1796,0.25356 -0.5071,0.25356 -0.8489,0.67248 -0.3417,0.41893 -0.5291,0.98117 -0.1874,0.55121 -0.2095,1.15755 z"
             id="path7639"
             style="stroke-width:0.5;stroke-miterlimit:4;stroke-dasharray:none" />
          <path
             d="m 2115.7509,924.38436 q 0,1.64263 -0.2646,2.99862 -0.2536,1.35599 -0.8599,2.33715 -0.5953,0.97014 -1.5655,1.51034 -0.9701,0.52916 -2.3922,0.52916 -1.345,0 -2.271,-0.47404 -0.9151,-0.48507 -1.4773,-1.41112 -0.5622,-0.93706 -0.8048,-2.29305 -0.2315,-1.36702 -0.2315,-3.13091 0,-1.6316 0.2646,-2.98759 0.2646,-1.36701 0.8599,-2.33715 0.5953,-0.98117 1.5654,-1.51034 0.9702,-0.54019 2.3813,-0.54019 1.356,0 2.271,0.48507 0.9261,0.47405 1.4883,1.41112 0.5622,0.92604 0.7937,2.29305 0.2426,1.35599 0.2426,3.11988 z m -1.9403,0.1323 q 0,-1.06936 -0.077,-1.91823 -0.077,-0.84888 -0.2315,-1.49931 -0.1433,-0.65044 -0.3858,-1.11346 -0.2315,-0.47404 -0.5623,-0.7717 -0.3307,-0.30868 -0.7607,-0.44097 -0.4189,-0.14332 -0.948,-0.14332 -0.9371,0 -1.5214,0.44097 -0.5843,0.44098 -0.926,1.21268 -0.3308,0.7717 -0.452,1.80799 -0.1213,1.03628 -0.1213,2.22691 0,1.59853 0.1654,2.72301 0.1653,1.11345 0.5181,1.81901 0.3638,0.70555 0.915,1.02526 0.5623,0.3197 1.356,0.3197 0.6174,0 1.0804,-0.19843 0.474,-0.19844 0.8048,-0.56224 0.3417,-0.37483 0.5622,-0.89297 0.2205,-0.51815 0.3528,-1.14653 0.1323,-0.62839 0.1764,-1.35599 0.055,-0.73863 0.055,-1.53238 z"
             id="path7641"
             style="stroke-width:0.5;stroke-miterlimit:4;stroke-dasharray:none" />
          <path
             d="m 2126.7531,930.80052 q 0,0.20946 -0.033,0.35278 -0.033,0.14331 -0.088,0.23151 -0.055,0.0882 -0.1323,0.13229 -0.066,0.0331 -0.1433,0.0331 h -7.4525 q -0.077,0 -0.1433,-0.0331 -0.066,-0.0441 -0.1323,-0.13229 -0.055,-0.0882 -0.088,-0.23151 -0.033,-0.14332 -0.033,-0.35278 0,-0.19844 0.033,-0.34176 0.033,-0.14331 0.077,-0.23151 0.055,-0.0992 0.1213,-0.14331 0.077,-0.0551 0.1653,-0.0551 h 2.9766 v -10.84793 l -2.7561,1.64262 q -0.2094,0.11024 -0.3417,0.13229 -0.1213,0.0221 -0.1985,-0.0441 -0.077,-0.0772 -0.1102,-0.24254 -0.022,-0.16536 -0.022,-0.41892 0,-0.18742 0.011,-0.31971 0.022,-0.13229 0.055,-0.22049 0.033,-0.0882 0.088,-0.15434 0.066,-0.0661 0.1653,-0.13229 l 3.2853,-2.10564 q 0.044,-0.0331 0.1102,-0.0551 0.066,-0.0221 0.1654,-0.0441 0.099,-0.0221 0.2315,-0.0221 0.1323,-0.011 0.3307,-0.011 0.2646,0 0.441,0.022 0.1764,0.0221 0.2756,0.0661 0.099,0.0331 0.1323,0.0992 0.033,0.0551 0.033,0.12127 v 12.53465 h 2.5797 q 0.088,0 0.1653,0.0551 0.077,0.0441 0.1213,0.14331 0.055,0.0882 0.077,0.23151 0.033,0.14332 0.033,0.34176 z"
             id="path7643"
             style="stroke-width:0.5;stroke-miterlimit:4;stroke-dasharray:none" />
        </g>
        <g
           aria-label="1"
           id="text12999"
           style="font-size:11.2889px;line-height:1.25;font-family:Calibri;-inkscape-font-specification:Calibri;letter-spacing:0px;word-spacing:0px;stroke-width:0.5;stroke-miterlimit:4;stroke-dasharray:none">
          <path
             d="m 2010.5043,964.93651 q 0,0.10473 -0.016,0.17639 -0.017,0.0717 -0.044,0.11576 -0.028,0.0441 -0.066,0.0661 -0.033,0.0165 -0.072,0.0165 h -3.7263 q -0.039,0 -0.072,-0.0165 -0.033,-0.022 -0.066,-0.0661 -0.028,-0.0441 -0.044,-0.11576 -0.016,-0.0717 -0.016,-0.17639 0,-0.0992 0.016,-0.17087 0.017,-0.0717 0.039,-0.11576 0.028,-0.0496 0.061,-0.0717 0.038,-0.0276 0.083,-0.0276 h 1.4883 v -5.42396 l -1.378,0.82131 q -0.1047,0.0551 -0.1709,0.0661 -0.061,0.011 -0.099,-0.022 -0.039,-0.0386 -0.055,-0.12127 -0.011,-0.0827 -0.011,-0.20946 0,-0.0937 0.01,-0.15985 0.011,-0.0661 0.027,-0.11025 0.017,-0.0441 0.044,-0.0772 0.033,-0.0331 0.083,-0.0661 l 1.6426,-1.05283 q 0.022,-0.0165 0.055,-0.0276 0.033,-0.011 0.083,-0.0221 0.05,-0.011 0.1158,-0.011 0.066,-0.006 0.1653,-0.006 0.1323,0 0.2205,0.011 0.088,0.011 0.1378,0.0331 0.05,0.0165 0.066,0.0496 0.017,0.0276 0.017,0.0606 v 6.26732 h 1.2899 q 0.044,0 0.083,0.0276 0.039,0.0221 0.061,0.0717 0.027,0.0441 0.039,0.11576 0.016,0.0717 0.016,0.17087 z"
             id="path7610"
             style="stroke-width:0.5;stroke-miterlimit:4;stroke-dasharray:none" />
        </g>
        <g
           aria-label="2"
           id="text15979"
           style="font-size:12.7px;line-height:1.25;font-family:Calibri;-inkscape-font-specification:Calibri;letter-spacing:0px;word-spacing:0px;stroke-width:0.5;stroke-miterlimit:4;stroke-dasharray:none">
          <path
             d="m 2122.8227,984.12327 q 0,0.11162 -0.019,0.19843 -0.012,0.0868 -0.043,0.14883 -0.025,0.0558 -0.074,0.0868 -0.043,0.0248 -0.099,0.0248 h -4.4338 q -0.087,0 -0.1551,-0.0186 -0.062,-0.0248 -0.1116,-0.0744 -0.043,-0.0496 -0.068,-0.14263 -0.019,-0.093 -0.019,-0.22944 0,-0.12403 0.01,-0.21705 0.012,-0.093 0.043,-0.16123 0.031,-0.0744 0.074,-0.14262 0.05,-0.0744 0.1241,-0.15503 l 1.5564,-1.64951 q 0.5395,-0.57051 0.862,-1.0232 0.3287,-0.45268 0.5023,-0.82475 0.1798,-0.37207 0.2357,-0.67593 0.056,-0.30386 0.056,-0.57051 0,-0.26665 -0.087,-0.50229 -0.087,-0.24185 -0.2542,-0.42168 -0.1612,-0.17984 -0.4093,-0.28526 -0.248,-0.10542 -0.5705,-0.10542 -0.3783,0 -0.6821,0.10542 -0.2977,0.10542 -0.5271,0.22945 -0.2233,0.12402 -0.3783,0.22944 -0.1488,0.10542 -0.2232,0.10542 -0.043,0 -0.081,-0.0248 -0.031,-0.0248 -0.056,-0.0806 -0.019,-0.0558 -0.031,-0.14883 -0.012,-0.093 -0.012,-0.22324 0,-0.093 0.01,-0.16123 0.01,-0.0682 0.019,-0.11782 0.019,-0.0496 0.043,-0.093 0.025,-0.0434 0.099,-0.10542 0.074,-0.0682 0.2542,-0.17984 0.186,-0.11162 0.4589,-0.21704 0.2791,-0.11162 0.6077,-0.18603 0.3349,-0.0744 0.7007,-0.0744 0.583,0 1.017,0.16744 0.4403,0.16123 0.7256,0.44648 0.2914,0.28525 0.4341,0.66353 0.1426,0.37827 0.1426,0.80615 0,0.38447 -0.068,0.76894 -0.068,0.37828 -0.2915,0.82476 -0.217,0.44028 -0.6325,0.98599 -0.4155,0.5395 -1.1038,1.24643 l -1.2712,1.32705 h 3.4912 q 0.05,0 0.093,0.031 0.05,0.0248 0.081,0.0806 0.037,0.0558 0.05,0.14263 0.019,0.0806 0.019,0.19224 z"
             id="path7607"
             style="stroke-width:0.5;stroke-miterlimit:4;stroke-dasharray:none" />
        </g>
        <g
           aria-label="3"
           id="text16929"
           style="font-size:12.7255px;line-height:1.25;font-family:Calibri;-inkscape-font-specification:Calibri;letter-spacing:0px;word-spacing:0px;stroke-width:0.5;stroke-miterlimit:4;stroke-dasharray:none">
          <path
             d="m 2017.4958,1031.5785 q 0,0.553 -0.1926,1.0004 -0.1927,0.4412 -0.5531,0.7581 -0.3603,0.3169 -0.8885,0.4909 -0.5282,0.1677 -1.193,0.1677 -0.4039,0 -0.7581,-0.068 -0.3479,-0.062 -0.6213,-0.1492 -0.2734,-0.093 -0.4536,-0.1864 -0.1802,-0.099 -0.2299,-0.1429 -0.043,-0.043 -0.068,-0.087 -0.025,-0.043 -0.043,-0.1056 -0.019,-0.062 -0.031,-0.1491 -0.01,-0.093 -0.01,-0.2237 0,-0.2237 0.043,-0.3107 0.043,-0.087 0.1243,-0.087 0.056,0 0.2175,0.099 0.1677,0.099 0.4225,0.2175 0.261,0.1119 0.6027,0.2113 0.348,0.099 0.7705,0.099 0.4101,0 0.7208,-0.1056 0.3107,-0.1057 0.5219,-0.2983 0.2113,-0.1926 0.3169,-0.4536 0.1057,-0.2672 0.1057,-0.5779 0,-0.3417 -0.1367,-0.6151 -0.1305,-0.2734 -0.3915,-0.4722 -0.2548,-0.1989 -0.6338,-0.3045 -0.3728,-0.1056 -0.8512,-0.1056 h -0.7643 q -0.05,0 -0.099,-0.019 -0.043,-0.025 -0.081,-0.075 -0.031,-0.05 -0.056,-0.1305 -0.019,-0.081 -0.019,-0.2113 0,-0.1181 0.019,-0.1926 0.019,-0.081 0.05,-0.1243 0.037,-0.05 0.081,-0.068 0.043,-0.025 0.1,-0.025 h 0.7021 q 0.4101,0 0.7332,-0.1056 0.3293,-0.1057 0.553,-0.3045 0.2299,-0.1988 0.348,-0.4722 0.1243,-0.2796 0.1243,-0.6214 0,-0.2485 -0.081,-0.4722 -0.081,-0.2299 -0.2424,-0.3977 -0.1615,-0.1678 -0.4163,-0.261 -0.2485,-0.099 -0.5778,-0.099 -0.3604,0 -0.6649,0.1119 -0.2982,0.1056 -0.5344,0.2299 -0.2361,0.1242 -0.3914,0.2361 -0.1554,0.1056 -0.2175,0.1056 -0.043,0 -0.081,-0.012 -0.031,-0.019 -0.056,-0.062 -0.019,-0.05 -0.031,-0.1304 -0.01,-0.087 -0.01,-0.2237 0,-0.093 0.01,-0.1616 0.01,-0.074 0.025,-0.1243 0.019,-0.056 0.043,-0.099 0.025,-0.043 0.081,-0.099 0.062,-0.062 0.2423,-0.174 0.1802,-0.1118 0.4412,-0.2175 0.2671,-0.1118 0.6089,-0.1864 0.348,-0.074 0.7456,-0.074 0.5593,0 0.9818,0.1429 0.4225,0.1429 0.7021,0.4039 0.2858,0.2609 0.4225,0.6276 0.143,0.3603 0.143,0.8015 0,0.379 -0.1,0.7084 -0.099,0.3231 -0.292,0.5778 -0.1926,0.2486 -0.4722,0.4288 -0.2796,0.1739 -0.6462,0.2423 v 0.012 q 0.4163,0.043 0.758,0.2113 0.348,0.1615 0.5965,0.4101 0.2486,0.2485 0.3853,0.5841 0.1429,0.3293 0.1429,0.7083 z"
             id="path7604"
             style="stroke-width:0.5;stroke-miterlimit:4;stroke-dasharray:none" />
        </g>
        <g
           aria-label="4"
           id="text17153"
           style="font-size:12.7255px;line-height:1.25;font-family:Calibri;-inkscape-font-specification:Calibri;letter-spacing:0px;word-spacing:0px;stroke-width:0.5;stroke-miterlimit:4;stroke-dasharray:none">
          <path
             d="m 2040.4641,1059.0896 q 0,0.2051 -0.062,0.3231 -0.062,0.1181 -0.174,0.1181 h -0.9072 v 1.6901 q 0,0.05 -0.025,0.087 -0.025,0.031 -0.087,0.056 -0.062,0.025 -0.1616,0.037 -0.099,0.012 -0.2547,0.012 -0.1492,0 -0.2486,-0.012 -0.099,-0.013 -0.1615,-0.037 -0.056,-0.025 -0.081,-0.056 -0.019,-0.037 -0.019,-0.087 v -1.6901 h -3.318 q -0.075,0 -0.1243,-0.019 -0.05,-0.019 -0.093,-0.068 -0.037,-0.05 -0.056,-0.1429 -0.013,-0.093 -0.013,-0.2424 0,-0.118 0.01,-0.2112 0.01,-0.093 0.025,-0.1678 0.019,-0.081 0.05,-0.1491 0.031,-0.075 0.075,-0.1554 l 2.8955,-4.8839 q 0.031,-0.05 0.087,-0.087 0.062,-0.037 0.1554,-0.062 0.093,-0.025 0.2299,-0.031 0.1367,-0.012 0.3231,-0.012 0.205,0 0.3541,0.019 0.1554,0.012 0.2486,0.037 0.093,0.025 0.1429,0.068 0.05,0.037 0.05,0.093 v 5.1324 h 0.9072 q 0.1056,0 0.1678,0.1119 0.068,0.1056 0.068,0.3293 z m -2.181,-4.8528 h -0.012 l -2.6159,4.4116 h 2.6283 z"
             id="path7601"
             style="stroke-width:0.5;stroke-miterlimit:4;stroke-dasharray:none" />
        </g>
        <g
           aria-label="5"
           id="text17409"
           style="font-size:12.7255px;line-height:1.25;font-family:Calibri;-inkscape-font-specification:Calibri;letter-spacing:0px;word-spacing:0px;stroke-width:0.5;stroke-miterlimit:4;stroke-dasharray:none">
          <path
             d="m 1996.5299,1024.4457 q 0,0.6462 -0.2175,1.1495 -0.2174,0.5033 -0.6151,0.8512 -0.3977,0.3418 -0.9507,0.522 -0.5468,0.1802 -1.2179,0.1802 -0.3728,0 -0.7083,-0.056 -0.3356,-0.05 -0.5965,-0.1243 -0.261,-0.081 -0.4288,-0.1554 -0.1677,-0.075 -0.2174,-0.118 -0.043,-0.043 -0.062,-0.081 -0.019,-0.037 -0.037,-0.087 -0.012,-0.056 -0.019,-0.1367 -0.01,-0.081 -0.01,-0.1926 0,-0.1056 0.01,-0.1864 0.012,-0.087 0.037,-0.1367 0.025,-0.056 0.056,-0.081 0.037,-0.025 0.081,-0.025 0.062,0 0.1926,0.081 0.1305,0.075 0.348,0.1678 0.2237,0.087 0.5468,0.1678 0.3293,0.081 0.7767,0.081 0.4163,0 0.7642,-0.099 0.348,-0.099 0.5965,-0.3107 0.2548,-0.2112 0.3977,-0.5281 0.1429,-0.3231 0.1429,-0.7829 0,-0.3853 -0.1242,-0.6773 -0.1181,-0.2983 -0.3729,-0.4909 -0.2485,-0.1988 -0.6337,-0.292 -0.3853,-0.099 -0.9197,-0.099 -0.379,0 -0.6524,0.037 -0.2734,0.037 -0.5095,0.037 -0.174,0 -0.2486,-0.081 -0.075,-0.081 -0.075,-0.3106 v -3.2746 q 0,-0.2051 0.093,-0.3045 0.099,-0.099 0.2796,-0.099 h 3.5604 q 0.05,0 0.093,0.031 0.05,0.025 0.081,0.081 0.031,0.056 0.043,0.1429 0.019,0.087 0.019,0.2051 0,0.2237 -0.062,0.348 -0.062,0.1242 -0.174,0.1242 h -3.0012 v 2.2556 q 0.2175,-0.031 0.4412,-0.037 0.2299,-0.01 0.5281,-0.01 0.6898,0 1.2055,0.1678 0.5157,0.1615 0.8575,0.466 0.3479,0.2982 0.5219,0.727 0.1802,0.4287 0.1802,0.9507 z"
             id="path7598"
             style="stroke-width:0.5;stroke-miterlimit:4;stroke-dasharray:none" />
        </g>
        <g
           aria-label="6"
           id="text17677"
           style="font-size:12.7255px;line-height:1.25;font-family:Calibri;-inkscape-font-specification:Calibri;letter-spacing:0px;word-spacing:0px;stroke-width:0.5;stroke-miterlimit:4;stroke-dasharray:none">
          <path
             d="m 1992.3472,1051.457 q 0,0.5282 -0.1616,1.0253 -0.1615,0.4909 -0.497,0.8699 -0.3356,0.3728 -0.8513,0.6027 -0.5157,0.2237 -1.2179,0.2237 -0.5033,0 -0.8885,-0.1243 -0.3853,-0.1242 -0.6711,-0.3541 -0.2858,-0.2299 -0.4785,-0.5655 -0.1864,-0.3355 -0.3044,-0.7643 -0.1119,-0.4287 -0.1616,-0.9382 -0.05,-0.5095 -0.05,-1.0936 0,-0.5157 0.056,-1.0439 0.056,-0.5282 0.1989,-1.019 0.1429,-0.4909 0.3852,-0.9197 0.2486,-0.4349 0.6152,-0.7518 0.3728,-0.3231 0.8885,-0.5095 0.5157,-0.1864 1.1992,-0.1864 0.2299,0 0.4661,0.031 0.2361,0.025 0.4349,0.075 0.1989,0.043 0.3356,0.099 0.1367,0.056 0.1801,0.093 0.043,0.031 0.062,0.075 0.025,0.037 0.037,0.087 0.012,0.043 0.019,0.1056 0.01,0.056 0.01,0.1429 0,0.1119 -0.01,0.1926 0,0.081 -0.025,0.1305 -0.019,0.05 -0.056,0.075 -0.031,0.025 -0.087,0.025 -0.068,0 -0.1864,-0.043 -0.118,-0.043 -0.2858,-0.093 -0.1678,-0.056 -0.4101,-0.099 -0.2361,-0.044 -0.553,-0.044 -0.5779,0 -0.9942,0.2362 -0.4163,0.2361 -0.6835,0.6337 -0.261,0.3977 -0.3914,0.9259 -0.1243,0.5219 -0.143,1.0936 0.1616,-0.093 0.3604,-0.1864 0.2051,-0.093 0.4412,-0.1678 0.2423,-0.075 0.5095,-0.1181 0.2672,-0.05 0.5717,-0.05 0.6524,0 1.0998,0.1802 0.4474,0.174 0.7208,0.4909 0.2796,0.3107 0.3976,0.7394 0.1181,0.4225 0.1181,0.9196 z m -1.0812,0.099 q 0,-0.3604 -0.075,-0.6525 -0.068,-0.2982 -0.2362,-0.5033 -0.1677,-0.205 -0.4473,-0.3169 -0.2797,-0.1118 -0.6898,-0.1118 -0.2299,0 -0.4598,0.043 -0.2299,0.037 -0.4473,0.1118 -0.2113,0.068 -0.4101,0.1678 -0.1927,0.093 -0.3542,0.205 0,0.8016 0.099,1.3422 0.1056,0.5406 0.2983,0.8699 0.1988,0.3231 0.4908,0.466 0.2921,0.1367 0.6835,0.1367 0.3977,0 0.6897,-0.1491 0.2921,-0.1491 0.4847,-0.3977 0.1926,-0.2547 0.2796,-0.5654 0.093,-0.3169 0.093,-0.6462 z"
             id="path7595"
             style="stroke-width:0.5;stroke-miterlimit:4;stroke-dasharray:none" />
        </g>
        <g
           aria-label="7"
           id="text17989"
           style="font-size:12.7255px;line-height:1.25;font-family:Calibri;-inkscape-font-specification:Calibri;letter-spacing:0px;word-spacing:0px;stroke-width:0.5;stroke-miterlimit:4;stroke-dasharray:none">
          <path
             d="m 2056.9185,1066.9009 q 0,0.1119 -0.012,0.2051 -0.01,0.087 -0.025,0.174 -0.012,0.081 -0.043,0.1615 -0.025,0.075 -0.062,0.1616 l -2.8955,6.6734 q -0.031,0.075 -0.081,0.1243 -0.044,0.044 -0.1181,0.075 -0.068,0.025 -0.1802,0.031 -0.1118,0.012 -0.2734,0.012 -0.2112,0 -0.3293,-0.019 -0.118,-0.019 -0.174,-0.056 -0.05,-0.044 -0.043,-0.099 0.01,-0.062 0.043,-0.1429 l 3.0447,-6.8226 h -3.8587 q -0.118,0 -0.1801,-0.1243 -0.056,-0.1242 -0.056,-0.3479 0,-0.1181 0.013,-0.2051 0.019,-0.087 0.05,-0.1429 0.031,-0.062 0.075,-0.087 0.044,-0.031 0.099,-0.031 h 4.6851 q 0.087,0 0.1491,0.019 0.068,0.019 0.1,0.074 0.037,0.056 0.056,0.143 0.019,0.087 0.019,0.2236 z"
             id="path7592"
             style="stroke-width:0.5;stroke-miterlimit:4;stroke-dasharray:none" />
        </g>
        <g
           aria-label="7"
           id="text18257"
           style="font-size:12.7255px;line-height:1.25;font-family:Calibri;-inkscape-font-specification:Calibri;letter-spacing:0px;word-spacing:0px;stroke-width:0.5;stroke-miterlimit:4;stroke-dasharray:none">
          <path
             d="m 1982.358,1181.255 q 0,0.1118 -0.012,0.205 -0.01,0.087 -0.025,0.174 -0.012,0.081 -0.043,0.1615 -0.025,0.075 -0.062,0.1616 l -2.8956,6.6734 q -0.031,0.075 -0.081,0.1243 -0.043,0.043 -0.118,0.075 -0.068,0.025 -0.1802,0.031 -0.1119,0.013 -0.2734,0.013 -0.2113,0 -0.3293,-0.019 -0.1181,-0.019 -0.174,-0.056 -0.05,-0.043 -0.043,-0.099 0.01,-0.062 0.043,-0.1429 l 3.0447,-6.8226 h -3.8587 q -0.1181,0 -0.1802,-0.1243 -0.056,-0.1242 -0.056,-0.3479 0,-0.1181 0.012,-0.2051 0.019,-0.087 0.05,-0.1429 0.031,-0.062 0.075,-0.087 0.043,-0.031 0.099,-0.031 h 4.6851 q 0.087,0 0.1491,0.019 0.068,0.019 0.099,0.075 0.037,0.056 0.056,0.143 0.019,0.087 0.019,0.2237 z"
             id="path7589"
             style="stroke-width:0.5;stroke-miterlimit:4;stroke-dasharray:none" />
        </g>
        <g
           aria-label="8"
           id="text18459"
           style="font-size:12.7255px;line-height:1.25;font-family:Calibri;-inkscape-font-specification:Calibri;letter-spacing:0px;word-spacing:0px;stroke-width:0.5;stroke-miterlimit:4;stroke-dasharray:none">
          <path
             d="m 2085.2408,1068.7591 q 0,0.5219 -0.1864,0.932 -0.1864,0.4039 -0.5406,0.6835 -0.348,0.2797 -0.8637,0.4226 -0.5157,0.1429 -1.1806,0.1429 -0.6214,0 -1.1122,-0.1305 -0.4909,-0.1305 -0.8327,-0.3853 -0.3417,-0.2547 -0.5219,-0.6275 -0.1802,-0.3728 -0.1802,-0.8513 0,-0.379 0.1243,-0.6959 0.1243,-0.3169 0.3542,-0.5841 0.2361,-0.2672 0.5778,-0.4971 0.3418,-0.2361 0.7705,-0.4474 -0.3728,-0.1926 -0.6586,-0.4039 -0.2859,-0.2174 -0.4847,-0.466 -0.1988,-0.2547 -0.3045,-0.5406 -0.099,-0.2858 -0.099,-0.6213 0,-0.4226 0.1491,-0.7892 0.1554,-0.3728 0.4599,-0.6462 0.3106,-0.2734 0.7829,-0.4287 0.4784,-0.1616 1.1122,-0.1616 0.6089,0 1.0501,0.1492 0.4474,0.1429 0.7332,0.3976 0.2921,0.2486 0.4288,0.5903 0.1367,0.3418 0.1367,0.7332 0,0.3169 -0.1057,0.609 -0.099,0.292 -0.2982,0.553 -0.1989,0.261 -0.4909,0.4909 -0.2858,0.2236 -0.6586,0.4225 0.4411,0.2175 0.7829,0.4474 0.3479,0.2299 0.5778,0.4971 0.2362,0.2609 0.3542,0.5592 0.1243,0.292 0.1243,0.6462 z m -1.3422,-4.1258 q 0,-0.261 -0.093,-0.4723 -0.087,-0.2112 -0.2609,-0.3604 -0.174,-0.1491 -0.435,-0.2237 -0.2547,-0.081 -0.5841,-0.081 -0.671,0 -1.019,0.3044 -0.3418,0.3045 -0.3418,0.8327 0,0.2423 0.081,0.4535 0.087,0.2051 0.261,0.3915 0.1802,0.1864 0.4474,0.3666 0.2734,0.174 0.6462,0.3666 0.6276,-0.3231 0.9631,-0.7146 0.3355,-0.3914 0.3355,-0.8636 z m 0.261,4.2376 q 0,-0.2858 -0.1056,-0.5157 -0.1056,-0.2361 -0.3231,-0.4349 -0.2113,-0.2051 -0.5344,-0.3915 -0.3169,-0.1926 -0.7394,-0.3977 -0.3915,0.1927 -0.6897,0.3853 -0.2921,0.1926 -0.4847,0.3976 -0.1864,0.2051 -0.2858,0.435 -0.093,0.2237 -0.093,0.4971 0,0.6027 0.4101,0.932 0.4163,0.3294 1.2365,0.3294 0.7953,0 1.1992,-0.3294 0.4101,-0.3355 0.4101,-0.9072 z"
             id="path7586"
             style="stroke-width:0.5;stroke-miterlimit:4;stroke-dasharray:none" />
        </g>
        <g
           aria-label="9"
           id="text18859"
           style="font-size:12.7255px;line-height:1.25;font-family:Calibri;-inkscape-font-specification:Calibri;letter-spacing:0px;word-spacing:0px;stroke-width:0.5;stroke-miterlimit:4;stroke-dasharray:none">
          <path
             d="m 2101.0767,1066.9892 q 0,0.5219 -0.062,1.0563 -0.062,0.5344 -0.2113,1.0315 -0.1491,0.4908 -0.4039,0.9258 -0.2485,0.4287 -0.6338,0.7518 -0.379,0.3231 -0.9071,0.5096 -0.522,0.1802 -1.2179,0.1802 -0.2672,0 -0.522,-0.037 -0.2485,-0.031 -0.4536,-0.081 -0.1988,-0.05 -0.3355,-0.1056 -0.1367,-0.056 -0.1988,-0.1119 -0.062,-0.056 -0.093,-0.1491 -0.025,-0.099 -0.025,-0.261 0,-0.1367 0.01,-0.2175 0.013,-0.081 0.031,-0.1242 0.019,-0.043 0.05,-0.056 0.037,-0.019 0.087,-0.019 0.068,0 0.1926,0.05 0.1243,0.043 0.3107,0.099 0.1926,0.056 0.4474,0.1057 0.2547,0.043 0.5716,0.043 0.6028,0 1.0315,-0.2299 0.4349,-0.2362 0.7083,-0.6276 0.2734,-0.3915 0.4101,-0.9072 0.1367,-0.5157 0.1492,-1.0874 -0.3293,0.1926 -0.7892,0.3418 -0.4598,0.1491 -1.0563,0.1491 -0.671,0 -1.1309,-0.1802 -0.4535,-0.1864 -0.7332,-0.5033 -0.2734,-0.3169 -0.3976,-0.7519 -0.1181,-0.4349 -0.1181,-0.9506 0,-0.5344 0.1554,-1.0129 0.1553,-0.4846 0.4846,-0.8512 0.3293,-0.3666 0.8389,-0.5841 0.5095,-0.2175 1.2178,-0.2175 0.5033,0 0.8886,0.1305 0.3914,0.1243 0.6773,0.3666 0.2858,0.2361 0.4846,0.5779 0.1989,0.3355 0.3169,0.7642 0.1243,0.4288 0.174,0.9321 0.056,0.4971 0.056,1.0501 z m -1.0874,-0.1181 q 0,-0.7953 -0.1056,-1.3359 -0.1056,-0.5468 -0.3107,-0.8823 -0.205,-0.3356 -0.5033,-0.4847 -0.2982,-0.1491 -0.6897,-0.1491 -0.4039,0 -0.6897,0.1491 -0.2858,0.1429 -0.4722,0.3915 -0.1802,0.2423 -0.2672,0.553 -0.087,0.3107 -0.087,0.64 0,0.3666 0.075,0.671 0.081,0.3045 0.2548,0.5158 0.174,0.2112 0.4536,0.3293 0.2796,0.1118 0.6897,0.1118 0.466,0 0.901,-0.1367 0.4349,-0.1429 0.7518,-0.3728 z"
             id="path7583"
             style="stroke-width:0.5;stroke-miterlimit:4;stroke-dasharray:none" />
        </g>
        <g
           aria-label="10"
           id="text19545"
           style="font-size:12.7255px;line-height:1.25;font-family:Calibri;-inkscape-font-specification:Calibri;letter-spacing:0px;word-spacing:0px;stroke-width:0.5;stroke-miterlimit:4;stroke-dasharray:none">
          <path
             d="m 2067.1731,1171.5321 q 0,0.118 -0.019,0.1988 -0.019,0.081 -0.05,0.1305 -0.031,0.05 -0.075,0.074 -0.037,0.019 -0.081,0.019 h -4.2004 q -0.043,0 -0.081,-0.019 -0.037,-0.025 -0.075,-0.074 -0.031,-0.05 -0.05,-0.1305 -0.019,-0.081 -0.019,-0.1988 0,-0.1119 0.019,-0.1927 0.019,-0.081 0.044,-0.1304 0.031,-0.056 0.068,-0.081 0.044,-0.031 0.093,-0.031 h 1.6777 v -6.1142 l -1.5534,0.9258 q -0.1181,0.062 -0.1926,0.075 -0.068,0.012 -0.1119,-0.025 -0.044,-0.043 -0.062,-0.1367 -0.012,-0.093 -0.012,-0.2361 0,-0.1056 0.01,-0.1802 0.012,-0.075 0.031,-0.1242 0.019,-0.05 0.05,-0.087 0.037,-0.037 0.093,-0.075 l 1.8516,-1.1868 q 0.025,-0.019 0.062,-0.031 0.037,-0.012 0.093,-0.025 0.056,-0.012 0.1304,-0.012 0.075,-0.01 0.1864,-0.01 0.1492,0 0.2486,0.013 0.099,0.012 0.1553,0.037 0.056,0.019 0.075,0.056 0.019,0.031 0.019,0.068 v 7.0649 h 1.454 q 0.05,0 0.093,0.031 0.043,0.025 0.068,0.081 0.031,0.05 0.044,0.1304 0.019,0.081 0.019,0.1927 z"
             id="path7578"
             style="stroke-width:0.5;stroke-miterlimit:4;stroke-dasharray:none" />
          <path
             d="m 2073.8714,1167.9157 q 0,0.9259 -0.1491,1.6901 -0.1429,0.7643 -0.4847,1.3173 -0.3355,0.5468 -0.8823,0.8513 -0.5468,0.2982 -1.3484,0.2982 -0.758,0 -1.28,-0.2671 -0.5157,-0.2734 -0.8326,-0.7954 -0.3169,-0.5281 -0.4536,-1.2924 -0.1305,-0.7705 -0.1305,-1.7647 0,-0.9196 0.1491,-1.6839 0.1492,-0.7705 0.4847,-1.3173 0.3355,-0.553 0.8823,-0.8512 0.5468,-0.3045 1.3422,-0.3045 0.7642,0 1.28,0.2734 0.5219,0.2672 0.8388,0.7953 0.3169,0.522 0.4474,1.2925 0.1367,0.7643 0.1367,1.7584 z m -1.0936,0.075 q 0,-0.6027 -0.043,-1.0812 -0.044,-0.4784 -0.1305,-0.845 -0.081,-0.3666 -0.2175,-0.6276 -0.1304,-0.2672 -0.3169,-0.435 -0.1864,-0.1739 -0.4287,-0.2485 -0.2361,-0.081 -0.5344,-0.081 -0.5281,0 -0.8574,0.2486 -0.3294,0.2485 -0.522,0.6835 -0.1864,0.4349 -0.2547,1.019 -0.068,0.5841 -0.068,1.2552 0,0.9009 0.093,1.5347 0.093,0.6276 0.292,1.0253 0.2051,0.3976 0.5158,0.5778 0.3169,0.1802 0.7643,0.1802 0.3479,0 0.6089,-0.1118 0.2672,-0.1119 0.4536,-0.3169 0.1926,-0.2113 0.3169,-0.5033 0.1243,-0.2921 0.1988,-0.6462 0.075,-0.3542 0.099,-0.7643 0.031,-0.4163 0.031,-0.8637 z"
             id="path7580"
             style="stroke-width:0.5;stroke-miterlimit:4;stroke-dasharray:none" />
        </g>
        <g
           aria-label="11"
           id="text19769"
           style="font-size:12.7255px;line-height:1.25;font-family:Calibri;-inkscape-font-specification:Calibri;letter-spacing:0px;word-spacing:0px;stroke-width:0.5;stroke-miterlimit:4;stroke-dasharray:none">
          <path
             d="m 2103.7344,1209.0564 q 0,0.118 -0.019,0.1988 -0.019,0.081 -0.05,0.1305 -0.031,0.05 -0.075,0.074 -0.037,0.019 -0.081,0.019 h -4.2004 q -0.044,0 -0.081,-0.019 -0.037,-0.025 -0.074,-0.074 -0.031,-0.05 -0.05,-0.1305 -0.019,-0.081 -0.019,-0.1988 0,-0.1119 0.019,-0.1927 0.019,-0.081 0.044,-0.1305 0.031,-0.056 0.068,-0.081 0.044,-0.031 0.093,-0.031 h 1.6777 v -6.1142 l -1.5534,0.9258 q -0.1181,0.062 -0.1927,0.075 -0.068,0.012 -0.1118,-0.025 -0.043,-0.043 -0.062,-0.1367 -0.013,-0.093 -0.013,-0.2361 0,-0.1056 0.01,-0.1802 0.012,-0.074 0.031,-0.1242 0.019,-0.05 0.05,-0.087 0.037,-0.037 0.093,-0.075 l 1.8517,-1.1868 q 0.025,-0.019 0.062,-0.031 0.037,-0.012 0.093,-0.025 0.056,-0.013 0.1305,-0.013 0.075,-0.01 0.1864,-0.01 0.1492,0 0.2486,0.013 0.099,0.012 0.1553,0.037 0.056,0.019 0.075,0.056 0.019,0.031 0.019,0.068 v 7.0649 h 1.454 q 0.05,0 0.093,0.031 0.043,0.025 0.068,0.081 0.031,0.05 0.043,0.1305 0.019,0.081 0.019,0.1927 z"
             id="path7573"
             style="stroke-width:0.5;stroke-miterlimit:4;stroke-dasharray:none" />
          <path
             d="m 2110.1841,1209.0564 q 0,0.118 -0.019,0.1988 -0.019,0.081 -0.05,0.1305 -0.031,0.05 -0.075,0.074 -0.037,0.019 -0.081,0.019 h -4.2004 q -0.044,0 -0.081,-0.019 -0.037,-0.025 -0.075,-0.074 -0.031,-0.05 -0.05,-0.1305 -0.019,-0.081 -0.019,-0.1988 0,-0.1119 0.019,-0.1927 0.019,-0.081 0.044,-0.1305 0.031,-0.056 0.068,-0.081 0.044,-0.031 0.093,-0.031 h 1.6777 v -6.1142 l -1.5534,0.9258 q -0.1181,0.062 -0.1926,0.075 -0.068,0.012 -0.1119,-0.025 -0.043,-0.043 -0.062,-0.1367 -0.012,-0.093 -0.012,-0.2361 0,-0.1056 0.01,-0.1802 0.012,-0.074 0.031,-0.1242 0.019,-0.05 0.05,-0.087 0.037,-0.037 0.093,-0.075 l 1.8516,-1.1868 q 0.025,-0.019 0.062,-0.031 0.037,-0.012 0.093,-0.025 0.056,-0.013 0.1305,-0.013 0.075,-0.01 0.1864,-0.01 0.1491,0 0.2485,0.013 0.099,0.012 0.1554,0.037 0.056,0.019 0.074,0.056 0.019,0.031 0.019,0.068 v 7.0649 h 1.4539 q 0.05,0 0.093,0.031 0.043,0.025 0.068,0.081 0.031,0.05 0.044,0.1305 0.019,0.081 0.019,0.1927 z"
             id="path7575"
             style="stroke-width:0.5;stroke-miterlimit:4;stroke-dasharray:none" />
        </g>
        <g
           aria-label="12"
           id="text20015"
           style="font-size:12.7255px;line-height:1.25;font-family:Calibri;-inkscape-font-specification:Calibri;letter-spacing:0px;word-spacing:0px;stroke-width:0.5;stroke-miterlimit:4;stroke-dasharray:none">
          <path
             d="m 2151.9458,1229.4776 q 0,0.1181 -0.019,0.1989 -0.019,0.081 -0.05,0.1304 -0.031,0.05 -0.075,0.075 -0.037,0.019 -0.081,0.019 h -4.2004 q -0.043,0 -0.081,-0.019 -0.037,-0.025 -0.075,-0.075 -0.031,-0.05 -0.05,-0.1304 -0.019,-0.081 -0.019,-0.1989 0,-0.1118 0.019,-0.1926 0.019,-0.081 0.044,-0.1305 0.031,-0.056 0.068,-0.081 0.044,-0.031 0.093,-0.031 h 1.6777 v -6.1142 l -1.5534,0.9258 q -0.1181,0.062 -0.1926,0.075 -0.068,0.012 -0.1119,-0.025 -0.044,-0.043 -0.062,-0.1367 -0.012,-0.093 -0.012,-0.2361 0,-0.1056 0.01,-0.1802 0.012,-0.075 0.031,-0.1243 0.019,-0.05 0.05,-0.087 0.037,-0.037 0.093,-0.074 l 1.8516,-1.1868 q 0.025,-0.019 0.062,-0.031 0.037,-0.012 0.093,-0.025 0.056,-0.012 0.1304,-0.012 0.075,-0.01 0.1865,-0.01 0.1491,0 0.2485,0.012 0.099,0.013 0.1553,0.037 0.056,0.019 0.075,0.056 0.019,0.031 0.019,0.068 v 7.0649 h 1.454 q 0.05,0 0.093,0.031 0.043,0.025 0.068,0.081 0.031,0.05 0.044,0.1305 0.019,0.081 0.019,0.1926 z"
             id="path7568"
             style="stroke-width:0.5;stroke-miterlimit:4;stroke-dasharray:none" />
          <path
             d="m 2158.3769,1229.4403 q 0,0.1119 -0.019,0.1989 -0.012,0.087 -0.043,0.1491 -0.025,0.056 -0.075,0.087 -0.044,0.025 -0.099,0.025 h -4.4427 q -0.087,0 -0.1554,-0.019 -0.062,-0.025 -0.1118,-0.075 -0.043,-0.05 -0.068,-0.1429 -0.019,-0.093 -0.019,-0.2299 0,-0.1242 0.01,-0.2175 0.012,-0.093 0.043,-0.1615 0.031,-0.075 0.075,-0.1429 0.05,-0.075 0.1242,-0.1554 l 1.5596,-1.6528 q 0.5406,-0.5716 0.8637,-1.0252 0.3294,-0.4536 0.5033,-0.8264 0.1802,-0.3729 0.2362,-0.6773 0.056,-0.3045 0.056,-0.5717 0,-0.2672 -0.087,-0.5033 -0.087,-0.2423 -0.2548,-0.4225 -0.1615,-0.1802 -0.4101,-0.2858 -0.2485,-0.1057 -0.5716,-0.1057 -0.379,0 -0.6835,0.1057 -0.2983,0.1056 -0.5282,0.2299 -0.2237,0.1242 -0.379,0.2299 -0.1491,0.1056 -0.2237,0.1056 -0.044,0 -0.081,-0.025 -0.031,-0.025 -0.056,-0.081 -0.019,-0.056 -0.031,-0.1492 -0.012,-0.093 -0.012,-0.2236 0,-0.093 0.01,-0.1616 0.01,-0.068 0.019,-0.1181 0.019,-0.05 0.044,-0.093 0.025,-0.044 0.099,-0.1056 0.074,-0.068 0.2547,-0.1802 0.1864,-0.1118 0.4598,-0.2175 0.2797,-0.1118 0.609,-0.1864 0.3355,-0.074 0.7021,-0.074 0.5841,0 1.0191,0.1677 0.4411,0.1616 0.7269,0.4474 0.2921,0.2858 0.435,0.6649 0.1429,0.379 0.1429,0.8077 0,0.3853 -0.068,0.7705 -0.068,0.3791 -0.2921,0.8264 -0.2175,0.4412 -0.6338,0.988 -0.4163,0.5406 -1.106,1.2489 l -1.2738,1.3298 h 3.4983 q 0.05,0 0.093,0.031 0.05,0.025 0.081,0.081 0.037,0.056 0.05,0.1429 0.019,0.081 0.019,0.1926 z"
             id="path7570"
             style="stroke-width:0.5;stroke-miterlimit:4;stroke-dasharray:none" />
        </g>
        <g
           aria-label="13"
           id="text20239"
           style="font-size:12.7255px;line-height:1.25;font-family:Calibri;-inkscape-font-specification:Calibri;letter-spacing:0px;word-spacing:0px;stroke-width:0.5;stroke-miterlimit:4;stroke-dasharray:none">
          <path
             d="m 2129.4082,1265.6136 q 0,0.1181 -0.019,0.1988 -0.019,0.081 -0.05,0.1305 -0.031,0.05 -0.075,0.075 -0.037,0.019 -0.081,0.019 h -4.2004 q -0.044,0 -0.081,-0.019 -0.037,-0.025 -0.075,-0.075 -0.031,-0.05 -0.05,-0.1305 -0.019,-0.081 -0.019,-0.1988 0,-0.1118 0.019,-0.1926 0.019,-0.081 0.043,-0.1305 0.031,-0.056 0.068,-0.081 0.044,-0.031 0.093,-0.031 h 1.6777 v -6.1143 l -1.5534,0.9259 q -0.1181,0.062 -0.1926,0.075 -0.068,0.012 -0.1119,-0.025 -0.043,-0.043 -0.062,-0.1367 -0.012,-0.093 -0.012,-0.2361 0,-0.1057 0.01,-0.1802 0.012,-0.075 0.031,-0.1243 0.019,-0.05 0.05,-0.087 0.037,-0.037 0.093,-0.075 l 1.8516,-1.1868 q 0.025,-0.019 0.062,-0.031 0.037,-0.012 0.093,-0.025 0.056,-0.012 0.1304,-0.012 0.075,-0.01 0.1865,-0.01 0.1491,0 0.2485,0.012 0.099,0.012 0.1553,0.037 0.056,0.019 0.075,0.056 0.019,0.031 0.019,0.068 v 7.0649 h 1.454 q 0.05,0 0.093,0.031 0.043,0.025 0.068,0.081 0.031,0.05 0.043,0.1305 0.019,0.081 0.019,0.1926 z"
             id="path7563"
             style="stroke-width:0.5;stroke-miterlimit:4;stroke-dasharray:none" />
          <path
             d="m 2135.7772,1263.7371 q 0,0.553 -0.1926,1.0004 -0.1927,0.4412 -0.553,0.758 -0.3604,0.3169 -0.8886,0.4909 -0.5282,0.1678 -1.193,0.1678 -0.4039,0 -0.7581,-0.068 -0.3479,-0.062 -0.6213,-0.1491 -0.2734,-0.093 -0.4536,-0.1864 -0.1802,-0.099 -0.2299,-0.1429 -0.043,-0.043 -0.068,-0.087 -0.025,-0.044 -0.043,-0.1056 -0.019,-0.062 -0.031,-0.1492 -0.01,-0.093 -0.01,-0.2236 0,-0.2237 0.043,-0.3107 0.044,-0.087 0.1243,-0.087 0.056,0 0.2175,0.099 0.1677,0.099 0.4225,0.2175 0.261,0.1118 0.6027,0.2112 0.348,0.1 0.7705,0.1 0.4101,0 0.7208,-0.1057 0.3107,-0.1056 0.5219,-0.2982 0.2113,-0.1927 0.3169,-0.4536 0.1057,-0.2672 0.1057,-0.5779 0,-0.3417 -0.1367,-0.6151 -0.1305,-0.2734 -0.3915,-0.4723 -0.2547,-0.1988 -0.6338,-0.3044 -0.3728,-0.1057 -0.8512,-0.1057 h -0.7643 q -0.05,0 -0.099,-0.019 -0.044,-0.025 -0.081,-0.075 -0.031,-0.05 -0.056,-0.1305 -0.019,-0.081 -0.019,-0.2112 0,-0.1181 0.019,-0.1926 0.019,-0.081 0.05,-0.1243 0.037,-0.05 0.081,-0.068 0.043,-0.025 0.099,-0.025 h 0.7021 q 0.4101,0 0.7332,-0.1057 0.3293,-0.1056 0.553,-0.3044 0.2299,-0.1989 0.348,-0.4723 0.1243,-0.2796 0.1243,-0.6213 0,-0.2486 -0.081,-0.4723 -0.081,-0.2299 -0.2423,-0.3976 -0.1616,-0.1678 -0.4164,-0.261 -0.2485,-0.099 -0.5778,-0.099 -0.3604,0 -0.6649,0.1118 -0.2982,0.1057 -0.5344,0.2299 -0.2361,0.1243 -0.3914,0.2361 -0.1554,0.1057 -0.2175,0.1057 -0.044,0 -0.081,-0.012 -0.031,-0.019 -0.056,-0.062 -0.019,-0.05 -0.031,-0.1305 -0.01,-0.087 -0.01,-0.2237 0,-0.093 0.01,-0.1615 0.01,-0.075 0.025,-0.1243 0.019,-0.056 0.044,-0.099 0.025,-0.043 0.081,-0.099 0.062,-0.062 0.2423,-0.174 0.1802,-0.1119 0.4412,-0.2175 0.2672,-0.1118 0.6089,-0.1864 0.348,-0.075 0.7456,-0.075 0.5593,0 0.9818,0.143 0.4225,0.1429 0.7021,0.4038 0.2859,0.261 0.4226,0.6276 0.1429,0.3604 0.1429,0.8016 0,0.379 -0.099,0.7083 -0.099,0.3231 -0.2921,0.5779 -0.1926,0.2485 -0.4722,0.4287 -0.2796,0.174 -0.6462,0.2424 v 0.012 q 0.4163,0.043 0.758,0.2113 0.348,0.1615 0.5965,0.4101 0.2486,0.2485 0.3853,0.584 0.1429,0.3294 0.1429,0.7084 z"
             id="path7565"
             style="stroke-width:0.5;stroke-miterlimit:4;stroke-dasharray:none" />
        </g>
      </g>
      <g
         id="layer3-26"
         inkscape:label="Cut"
         style="display:inline"
         transform="translate(602.94339,214.84258)"
         inkscape:groupmode="layer">
        <path
           id="path8324"
           style="fill:none;fill-opacity:0.917647;stroke:#0011bf;stroke-width:0.5;stroke-miterlimit:4;stroke-dasharray:none"
           d="m 2033.98,1216.15 2.14,-13.1 12.48,4.53 -7.75,-10.78 12.02,-5.62 -13.1,-2.14 4.53,-12.48 -10.78,7.76 -5.62,-12.03 -2.14,13.1 -12.48,-4.53 7.76,10.78 -12.03,5.62 13.1,2.14 -4.53,12.48 10.78,-7.75 z" />
        <path
           id="path8322"
           style="fill:none;fill-opacity:0.917647;stroke:#0011bf;stroke-width:0.5;stroke-miterlimit:4;stroke-dasharray:none"
           d="m 1996.2,1087.62 2.08,-5.98 5.49,3.14 -2.76,-5.69 6.11,-1.67 -5.99,-2.07 3.15,-5.49 -5.7,2.76 -1.66,-6.11 -2.07,5.98 -5.5,-3.14 2.77,5.69 -6.11,1.67 5.98,2.07 -3.14,5.49 5.69,-2.76 z" />
        <path
           id="path8320"
           style="fill:none;fill-opacity:0.917647;stroke:#0011bf;stroke-width:0.5;stroke-miterlimit:4;stroke-dasharray:none"
           d="m 2097.21,1008.68 17.9,-9.622 6.14,19.372 5.85,-19.458 18.04,9.358 -9.62,-17.899 19.38,-6.137 -19.47,-5.856 9.37,-18.04 -17.91,9.622 -6.13,-19.376 -5.86,19.462 -18.04,-9.361 9.62,17.902 -19.37,6.137 19.46,5.856 z" />
        <path
           id="rect8296"
           style="fill:none;fill-opacity:0.917647;stroke:#0011bf;stroke-width:0.5;stroke-miterlimit:4;stroke-dasharray:none"
           d="m 2007.92,1213.89 h -47.84 v 23.37 h 47.84 z" />
        <path
           id="rect8294"
           style="fill:none;fill-opacity:0.917647;stroke:#0011bf;stroke-width:0.5;stroke-miterlimit:4;stroke-dasharray:none"
           d="m 2045.49,1030.51 h -21.92 v 56.22 h 21.92 z" />
        <path
           id="rect8292"
           style="fill:none;fill-opacity:0.917647;stroke:#0011bf;stroke-width:0.5;stroke-miterlimit:4;stroke-dasharray:none"
           d="m 2104.8,1050.36 h -11.99 v 36.37 h 11.99 z" />
        <path
           id="rect8290"
           style="fill:none;fill-opacity:0.917647;stroke:#0011bf;stroke-width:0.5;stroke-miterlimit:4;stroke-dasharray:none"
           d="m 2127.51,1110.06 h -55.4 v 12.03 h 55.4 z" />
        <path
           id="rect8288"
           style="fill:none;fill-opacity:0.917647;stroke:#0011bf;stroke-width:0.5;stroke-miterlimit:4;stroke-dasharray:none"
           d="m 1999.98,1040.92 h -29.22 v 23.42 h 29.22 z" />
        <path
           id="rect8286"
           style="fill:none;fill-opacity:0.917647;stroke:#0011bf;stroke-width:0.5;stroke-miterlimit:4;stroke-dasharray:none"
           d="m 1988.05,1178.84 h -15.9 v 15.91 h 15.9 z" />
        <path
           id="rect8238"
           style="fill:none;fill-opacity:0.917647;stroke:#0011bf;stroke-width:0.5;stroke-miterlimit:4;stroke-dasharray:none"
           d="m 2133.13,1053.47 c -1.39,0 -2.51,5.25 -2.51,11.79 v 9.68 c 0,6.53 1.12,11.79 2.51,11.79 1.39,0 2.51,-5.26 2.51,-11.79 v -9.68 c 0,-6.54 -1.12,-11.79 -2.51,-11.79 z" />
        <path
           id="rect8236"
           style="fill:none;fill-opacity:0.917647;stroke:#0011bf;stroke-width:0.5;stroke-miterlimit:4;stroke-dasharray:none"
           d="m 2126.94,1069.63 c -1.77,0 -3.19,3.81 -3.19,8.55 0,4.73 1.42,8.55 3.19,8.55 1.76,0 3.18,-3.82 3.18,-8.55 0,-4.74 -1.42,-8.55 -3.18,-8.55 z" />
        <path
           id="path8212"
           style="fill:none;fill-opacity:0.917647;stroke:#0011bf;stroke-width:0.5;stroke-miterlimit:4;stroke-dasharray:none"
           d="m 2116.07,1071.82 c 0,8.23 1.61,14.91 3.59,14.91 0.95,0 1.87,-1.57 2.54,-4.37 0.67,-2.79 1.05,-6.59 1.05,-10.54 0,-3.95 -0.38,-7.75 -1.05,-10.54 -0.67,-2.8 -1.59,-4.37 -2.54,-4.37 -1.98,0 -3.59,6.68 -3.59,14.91 z" />
        <path
           id="path8115"
           style="fill:none;fill-opacity:0.917647;stroke:#0011bf;stroke-width:0.5;stroke-miterlimit:4;stroke-dasharray:none"
           d="m 2010.63,1137.9 c 0,7 4.79,12.67 10.7,12.67 5.91,0 10.7,-5.67 10.7,-12.67 0,-6.99 -4.79,-12.66 -10.7,-12.66 -5.91,0 -10.7,5.67 -10.7,12.66 z" />
        <path
           id="path8113"
           style="fill:none;fill-opacity:0.917647;stroke:#0011bf;stroke-width:0.5;stroke-miterlimit:4;stroke-dasharray:none"
           d="m 2109.35,1261.65 c 0,2.91 8.61,5.27 19.25,5.27 10.63,0 19.25,-2.36 19.25,-5.27 0,-1.4 -2.03,-2.74 -5.64,-3.72 -3.61,-0.99 -8.51,-1.55 -13.61,-1.55 -5.11,0 -10.01,0.56 -13.62,1.55 -3.61,0.98 -5.63,2.32 -5.63,3.72 z" />
        <path
           id="path8111"
           style="fill:none;fill-opacity:0.917647;stroke:#0011bf;stroke-width:0.5;stroke-miterlimit:4;stroke-dasharray:none"
           d="m 2000.48,1034.25 c 0,17.21 5.06,31.16 11.3,31.16 2.99,0 5.86,-3.28 7.98,-9.13 2.12,-5.84 3.31,-13.77 3.31,-22.03 0,-8.27 -1.19,-16.2 -3.31,-22.04 -2.12,-5.85 -4.99,-9.13 -7.98,-9.13 -6.24,0 -11.3,13.95 -11.3,31.17 z" />
        <path
           id="path8109"
           style="fill:none;fill-opacity:0.917647;stroke:#0011bf;stroke-width:0.5;stroke-miterlimit:4;stroke-dasharray:none"
           d="m 1975.9921,1131.4491 a 7.1690168,17.991467 0 0 1 -7.169,17.9915 7.1690168,17.991467 0 0 1 -7.169,-17.9915 7.1690168,17.991467 0 0 1 7.169,-17.9915 7.1690168,17.991467 0 0 1 7.169,17.9915 z" />
        <path
           id="path8107"
           style="fill:none;fill-opacity:0.917647;stroke:#0011bf;stroke-width:0.5;stroke-miterlimit:4;stroke-dasharray:none"
           d="m 1974.98,1023.24 c 0,4.55 1.32,8.93 3.66,12.15 2.35,3.22 5.53,5.03 8.84,5.03 6.9,0 12.5,-7.69 12.5,-17.18 0,-9.49 -5.6,-17.19 -12.5,-17.19 -3.31,0 -6.49,1.81 -8.84,5.04 -2.34,3.22 -3.66,7.59 -3.66,12.15 z" />
        <path
           id="path8105"
           style="fill:none;fill-opacity:0.917647;stroke:#0011bf;stroke-width:0.5;stroke-miterlimit:4;stroke-dasharray:none"
           d="m 2116.01,1169.56 c 0,10.99 6.19,19.9 13.83,19.9 7.65,0 13.84,-8.91 13.84,-19.9 0,-10.99 -6.19,-19.9 -13.84,-19.9 -7.64,0 -13.83,8.91 -13.83,19.9 z" />
        <path
           id="path8103"
           style="fill:none;fill-opacity:0.917647;stroke:#0011bf;stroke-width:0.5;stroke-miterlimit:4;stroke-dasharray:none"
           d="m 1970.81,964.031 c 0,12.352 16.94,22.366 37.84,22.366 10.04,0 19.67,-2.357 26.77,-6.551 7.09,-4.195 11.08,-9.883 11.08,-15.815 0,-5.932 -3.99,-11.621 -11.08,-15.815 -7.1,-4.195 -16.73,-6.551 -26.77,-6.551 -20.9,0 -37.84,10.013 -37.84,22.366 z" />
        <path
           id="path8101"
           style="fill:none;fill-opacity:0.917647;stroke:#0011bf;stroke-width:0.5;stroke-miterlimit:4;stroke-dasharray:none"
           d="m 2105.3,1074.93 c 0,3.13 0.54,6.13 1.5,8.34 0.97,2.21 2.27,3.46 3.63,3.46 1.37,0 2.67,-1.25 3.63,-3.46 0.97,-2.21 1.51,-5.21 1.51,-8.34 0,-3.12 -0.54,-6.12 -1.51,-8.33 -0.96,-2.22 -2.26,-3.46 -3.63,-3.46 -2.83,0 -5.13,5.28 -5.13,11.79 z" />
        <path
           id="path8099"
           style="fill:none;fill-opacity:0.917647;stroke:#0011bf;stroke-width:0.5;stroke-miterlimit:4;stroke-dasharray:none"
           d="m 2053.97,1166.36 c 0,8.93 1.63,17.49 4.54,23.8 2.91,6.32 6.86,9.86 10.98,9.86 4.11,0 8.06,-3.54 10.97,-9.86 2.91,-6.31 4.54,-14.87 4.54,-23.8 0,-8.93 -1.63,-17.49 -4.54,-23.81 -2.91,-6.31 -6.86,-9.86 -10.97,-9.86 -4.12,0 -8.07,3.55 -10.98,9.86 -2.91,6.32 -4.54,14.88 -4.54,23.81 z" />
        <path
           id="path8097"
           style="fill:none;fill-opacity:0.917647;stroke:#0011bf;stroke-width:0.5;stroke-miterlimit:4;stroke-dasharray:none"
           d="m 2077.55,1069.34 c 0,7.51 2.79,13.6 6.24,13.6 1.66,0 3.25,-1.43 4.42,-3.98 1.17,-2.55 1.83,-6.01 1.83,-9.62 0,-3.61 -0.66,-7.06 -1.83,-9.61 -1.17,-2.55 -2.76,-3.99 -4.42,-3.99 -3.45,0 -6.24,6.09 -6.24,13.6 z" />
        <path
           id="path8095"
           style="fill:none;fill-opacity:0.917647;stroke:#0011bf;stroke-width:0.5;stroke-miterlimit:4;stroke-dasharray:none"
           d="m 2084.86,1206.6 c 0,7.73 1.62,15.15 4.49,20.62 2.87,5.47 6.77,8.55 10.83,8.55 8.46,0 15.32,-13.06 15.32,-29.17 0,-16.12 -6.86,-29.18 -15.32,-29.18 -4.06,0 -7.96,3.08 -10.83,8.55 -2.87,5.47 -4.49,12.89 -4.49,20.63 z" />
        <path
           id="path8093"
           style="fill:none;fill-opacity:0.917647;stroke:#0011bf;stroke-width:0.5;stroke-miterlimit:4;stroke-dasharray:none"
           d="m 2124.12,1228.04 c 0,6.05 12.16,10.96 27.17,10.96 15,0 27.17,-4.91 27.17,-10.96 0,-2.91 -2.87,-5.69 -7.96,-7.75 -5.1,-2.05 -12.01,-3.21 -19.21,-3.21 -7.21,0 -14.12,1.16 -19.21,3.21 -5.1,2.06 -7.96,4.84 -7.96,7.75 z" />
        <path
           id="path8091"
           style="fill:none;fill-opacity:0.917647;stroke:#0011bf;stroke-width:0.5;stroke-miterlimit:4;stroke-dasharray:none"
           d="m 2045.99,1073.34 c 0,7.39 3.79,13.39 8.46,13.39 4.67,0 8.46,-6 8.46,-13.39 0,-3.56 -0.89,-6.96 -2.48,-9.47 -1.58,-2.52 -3.74,-3.93 -5.98,-3.93 -2.24,0 -4.39,1.41 -5.98,3.93 -1.59,2.51 -2.48,5.91 -2.48,9.46 z" />
      </g>
    </g>
  </g>
</svg>
