<?xml version="1.0" encoding="UTF-8" standalone="no"?>
<svg
   inkscape:label="LA410-complettTree"
   sodipodi:docname="6bc6a93a19da2e13a8b7357b55484716toy.svg.Styrofoam.02_cropped.svg"
   inkscape:version="1.1.1 (eb90963e84, 2021-10-02)"
   id="svg1004"
   version="1.1"
   viewBox="0 0 198.60829 330.54463"
   height="330.54465mm"
   width="198.60831mm"
   xmlns:inkscape="http://www.inkscape.org/namespaces/inkscape"
   xmlns:sodipodi="http://sodipodi.sourceforge.net/DTD/sodipodi-0.dtd"
   xmlns="http://www.w3.org/2000/svg"
   xmlns:svg="http://www.w3.org/2000/svg">
  <defs
     id="defs56" />
  <sodipodi:namedview
     id="namedview54"
     pagecolor="#ffffff"
     bordercolor="#666666"
     borderopacity="1.0"
     inkscape:pageshadow="2"
     inkscape:pageopacity="0.0"
     inkscape:pagecheckerboard="0"
     inkscape:document-units="mm" />
  <g
     id="layer18"
     inkscape:label="Styrofoam"
     inkscape:groupmode="layer"
     transform="translate(-2553.9872,-1517.4404)"
     style="display:inline">
    <g
       inkscape:groupmode="layer"
       id="layer28"
       inkscape:label="02"
       style="display:inline">
      <g
         id="layer1-20"
         inkscape:label="Cut"
         transform="translate(606.10701,1185.6299)"
         style="display:inline"
         inkscape:groupmode="layer">
        <path
           id="rect22356"
           style="fill:none;fill-opacity:0.917647;stroke:#0011bf;stroke-width:0.5;stroke-miterlimit:4;stroke-dasharray:none"
           d="m 1948.1302,360.62589 h 198.1083 v 301.47924 h -198.1083 z" />
      </g>
      <g
         inkscape:groupmode="layer"
         id="layer16"
         inkscape:label="Engrave"
         style="display:inline"
         transform="translate(596.5275,1199.7434)">
        <g
           aria-label="Styrofoam. Page 02"
           id="text29312"
           style="font-size:22.5778px;line-height:1.25;font-family:Calibri;-inkscape-font-specification:Calibri;letter-spacing:0px;word-spacing:0px;display:inline;fill:none;stroke:#0000bf;stroke-width:0.5;stroke-miterlimit:4;stroke-dasharray:none">
          <path
             d="m 1972.4696,329.37922 q 0,1.00321 -0.3748,1.78593 -0.3638,0.78273 -1.0253,1.33395 -0.6504,0.54019 -1.5434,0.8158 -0.882,0.2756 -1.9072,0.2756 -0.7166,0 -1.334,-0.12126 -0.6063,-0.12127 -1.0914,-0.29766 -0.474,-0.17639 -0.8047,-0.3638 -0.3197,-0.18742 -0.452,-0.31971 -0.1213,-0.13229 -0.1875,-0.33073 -0.055,-0.20946 -0.055,-0.55121 0,-0.24254 0.022,-0.39688 0.022,-0.16536 0.066,-0.26458 0.044,-0.0992 0.1103,-0.13229 0.066,-0.0441 0.1543,-0.0441 0.1543,0 0.43,0.18741 0.2866,0.18742 0.7276,0.4079 0.4409,0.22049 1.0583,0.41893 0.6284,0.18741 1.4442,0.18741 0.6173,0 1.1245,-0.16536 0.5181,-0.16537 0.8819,-0.46303 0.3748,-0.30868 0.5733,-0.74965 0.1984,-0.44097 0.1984,-1.00321 0,-0.60634 -0.2756,-1.03629 -0.2756,-0.42995 -0.7276,-0.74965 -0.452,-0.33073 -1.0363,-0.59531 -0.5733,-0.27561 -1.1796,-0.55122 -0.6063,-0.28663 -1.1796,-0.62839 -0.5733,-0.34175 -1.0253,-0.80477 -0.452,-0.46302 -0.7386,-1.08038 -0.2756,-0.62839 -0.2756,-1.49931 0,-0.89297 0.3197,-1.5875 0.3307,-0.70556 0.904,-1.17961 0.5843,-0.47404 1.378,-0.71658 0.8048,-0.25356 1.7309,-0.25356 0.474,0 0.9481,0.0882 0.485,0.0772 0.9039,0.22049 0.43,0.13229 0.7607,0.30868 0.3308,0.16536 0.43,0.2756 0.1102,0.0992 0.1433,0.16537 0.033,0.0551 0.055,0.15434 0.022,0.0882 0.033,0.22049 0.011,0.13229 0.011,0.34175 0,0.19844 -0.022,0.35278 -0.011,0.15434 -0.044,0.26458 -0.033,0.0992 -0.099,0.15434 -0.055,0.0441 -0.1323,0.0441 -0.1212,0 -0.3858,-0.15434 -0.2536,-0.15434 -0.6284,-0.34176 -0.3748,-0.19843 -0.893,-0.35277 -0.5071,-0.16537 -1.1465,-0.16537 -0.5953,0 -1.0363,0.16537 -0.4409,0.15434 -0.7276,0.41892 -0.2866,0.26458 -0.4299,0.62839 -0.1433,0.3638 -0.1433,0.7717 0,0.59531 0.2756,1.02526 0.2756,0.42995 0.7276,0.76068 0.463,0.33073 1.0473,0.60634 0.5843,0.2756 1.1906,0.56224 0.6063,0.2756 1.1906,0.61736 0.5843,0.33073 1.0363,0.79375 0.463,0.452 0.7386,1.08038 0.2867,0.61736 0.2867,1.46624 z"
             id="path7673"
             style="stroke-width:0.5;stroke-miterlimit:4;stroke-dasharray:none" />
          <path
             d="m 1980.1315,332.37783 q 0,0.3197 -0.044,0.50712 -0.044,0.18741 -0.1323,0.27561 -0.088,0.0882 -0.2646,0.16536 -0.1764,0.0772 -0.4079,0.12127 -0.2205,0.0551 -0.474,0.0882 -0.2536,0.0331 -0.5072,0.0331 -0.7717,0 -1.3229,-0.19844 -0.5512,-0.20946 -0.904,-0.61736 -0.3527,-0.41893 -0.5181,-1.04731 -0.1543,-0.63941 -0.1543,-1.49931 v -5.79879 h -1.3891 q -0.1654,0 -0.2646,-0.17639 -0.099,-0.17639 -0.099,-0.57326 0,-0.20947 0.022,-0.35278 0.033,-0.14332 0.077,-0.23151 0.044,-0.0992 0.1102,-0.1323 0.077,-0.0441 0.1654,-0.0441 h 1.3781 v -2.35921 q 0,-0.0772 0.033,-0.14331 0.044,-0.0661 0.1433,-0.11025 0.1103,-0.0551 0.2867,-0.0772 0.1764,-0.022 0.4409,-0.022 0.2757,0 0.452,0.022 0.1764,0.0221 0.2756,0.0772 0.099,0.0441 0.1434,0.11025 0.044,0.0661 0.044,0.14331 v 2.35921 h 2.5466 q 0.088,0 0.1543,0.0441 0.066,0.0331 0.1103,0.1323 0.055,0.0882 0.077,0.23151 0.022,0.14331 0.022,0.35278 0,0.39687 -0.099,0.57326 -0.099,0.17639 -0.2646,0.17639 h -2.5466 v 5.53421 q 0,1.02526 0.2976,1.55442 0.3087,0.51815 1.0914,0.51815 0.2536,0 0.452,-0.0441 0.1985,-0.0551 0.3528,-0.11024 0.1543,-0.0551 0.2646,-0.0992 0.1102,-0.0551 0.1984,-0.0551 0.055,0 0.099,0.0331 0.055,0.022 0.077,0.0992 0.033,0.0772 0.055,0.20946 0.022,0.13229 0.022,0.33073 z"
             id="path7675"
             style="stroke-width:0.5;stroke-miterlimit:4;stroke-dasharray:none" />
          <path
             d="m 1987.0548,333.38104 -1.323,3.64905 q -0.066,0.17639 -0.3417,0.26458 -0.2646,0.0992 -0.8158,0.0992 -0.2867,0 -0.463,-0.0331 -0.1764,-0.022 -0.2756,-0.0882 -0.088,-0.0661 -0.099,-0.17639 -0.011,-0.11025 0.055,-0.26459 l 1.367,-3.45061 q -0.099,-0.0441 -0.1874,-0.14331 -0.088,-0.0992 -0.1213,-0.20947 l -3.5388,-9.48091 q -0.088,-0.23151 -0.088,-0.3638 0,-0.13229 0.088,-0.20946 0.088,-0.0772 0.2866,-0.0992 0.1985,-0.0331 0.5292,-0.0331 0.3307,0 0.5181,0.022 0.1874,0.011 0.2977,0.0551 0.1102,0.0441 0.1543,0.13229 0.055,0.0772 0.1103,0.22048 l 2.8332,7.95956 h 0.033 l 2.734,-8.00365 q 0.066,-0.20947 0.1544,-0.26459 0.099,-0.0661 0.2866,-0.0882 0.1874,-0.0331 0.5402,-0.0331 0.3087,0 0.5071,0.0331 0.1984,0.0221 0.2866,0.0992 0.099,0.0772 0.099,0.20946 0,0.13229 -0.066,0.33073 z"
             id="path7677"
             style="stroke-width:0.5;stroke-miterlimit:4;stroke-dasharray:none" />
          <path
             d="m 1998.5531,323.83398 q 0,0.24254 -0.011,0.4079 -0.011,0.16537 -0.044,0.26459 -0.033,0.0882 -0.088,0.14331 -0.044,0.0441 -0.1323,0.0441 -0.088,0 -0.2205,-0.0441 -0.1212,-0.0551 -0.2866,-0.0992 -0.1544,-0.0551 -0.3528,-0.0992 -0.1984,-0.0441 -0.4299,-0.0441 -0.2756,0 -0.5402,0.11024 -0.2646,0.11024 -0.5623,0.3638 -0.2866,0.25356 -0.6063,0.67249 -0.3197,0.41892 -0.7056,1.02526 v 6.52639 q 0,0.0882 -0.044,0.15434 -0.044,0.0551 -0.1433,0.0992 -0.099,0.0441 -0.2756,0.0661 -0.1764,0.022 -0.452,0.022 -0.2646,0 -0.441,-0.022 -0.1763,-0.022 -0.2866,-0.0661 -0.099,-0.0441 -0.1433,-0.0992 -0.033,-0.0661 -0.033,-0.15434 v -9.92188 q 0,-0.0882 0.033,-0.14332 0.033,-0.0661 0.1323,-0.11024 0.099,-0.0551 0.2535,-0.0661 0.1544,-0.022 0.4079,-0.022 0.2426,0 0.3969,0.022 0.1654,0.011 0.2536,0.0661 0.088,0.0441 0.1213,0.11024 0.044,0.0551 0.044,0.14332 v 1.44418 q 0.4079,-0.59531 0.7607,-0.97013 0.3638,-0.37483 0.6835,-0.58429 0.3197,-0.22049 0.6284,-0.29766 0.3197,-0.0882 0.6394,-0.0882 0.1433,0 0.3197,0.022 0.1874,0.011 0.3859,0.0551 0.1984,0.0441 0.3528,0.0992 0.1653,0.0551 0.2315,0.11025 0.066,0.0551 0.088,0.11024 0.022,0.0441 0.033,0.12127 0.022,0.0772 0.022,0.23151 0.011,0.14331 0.011,0.39687 z"
             id="path7679"
             style="stroke-width:0.5;stroke-miterlimit:4;stroke-dasharray:none" />
          <path
             d="m 2009.4892,328.03425 q 0,1.21267 -0.3197,2.23794 -0.3197,1.01423 -0.9591,1.75286 -0.6284,0.73863 -1.5875,1.15755 -0.9481,0.4079 -2.2048,0.4079 -1.2237,0 -2.1388,-0.3638 -0.904,-0.3638 -1.5103,-1.05833 -0.6063,-0.69453 -0.904,-1.68672 -0.2976,-0.99219 -0.2976,-2.24896 0,-1.21268 0.3086,-2.22692 0.3197,-1.02526 0.9481,-1.76389 0.6394,-0.73863 1.5875,-1.14653 0.9481,-0.40789 2.2159,-0.40789 1.2237,0 2.1277,0.3638 0.915,0.3638 1.5214,1.05833 0.6063,0.69453 0.904,1.68672 0.3086,0.99219 0.3086,2.23794 z m -1.9182,0.12127 q 0,-0.80478 -0.1543,-1.52136 -0.1433,-0.71658 -0.4851,-1.25677 -0.3418,-0.54019 -0.926,-0.84887 -0.5843,-0.31971 -1.4553,-0.31971 -0.8047,0 -1.389,0.28663 -0.5733,0.28664 -0.9481,0.8158 -0.3748,0.51815 -0.5623,1.23473 -0.1763,0.71658 -0.1763,1.56545 0,0.8158 0.1433,1.53238 0.1543,0.71658 0.4961,1.25677 0.3527,0.52917 0.937,0.84887 0.5843,0.30868 1.4552,0.30868 0.7938,0 1.3781,-0.28663 0.5843,-0.28663 0.9591,-0.80477 0.3748,-0.51815 0.5512,-1.23473 0.1764,-0.71658 0.1764,-1.57647 z"
             id="path7681"
             style="stroke-width:0.5;stroke-miterlimit:4;stroke-dasharray:none" />
          <path
             d="m 2017.6031,319.10455 q 0,0.20946 -0.022,0.34176 -0.022,0.12126 -0.055,0.19843 -0.022,0.0772 -0.066,0.11025 -0.044,0.022 -0.1102,0.022 -0.077,0 -0.1985,-0.0441 -0.1102,-0.0551 -0.2756,-0.11024 -0.1653,-0.0661 -0.3968,-0.11025 -0.2205,-0.0551 -0.5182,-0.0551 -0.4079,0 -0.6945,0.13229 -0.2867,0.13229 -0.463,0.41893 -0.1764,0.2756 -0.2536,0.7276 -0.077,0.44097 -0.077,1.08038 v 1.08039 h 2.2159 q 0.088,0 0.1433,0.0441 0.066,0.0331 0.1103,0.1323 0.055,0.0882 0.077,0.23151 0.033,0.14331 0.033,0.35278 0,0.39687 -0.099,0.57326 -0.099,0.17639 -0.2646,0.17639 h -2.2159 v 8.69818 q 0,0.0882 -0.044,0.15434 -0.044,0.0551 -0.1543,0.0992 -0.099,0.0441 -0.2756,0.0661 -0.1764,0.022 -0.441,0.022 -0.2646,0 -0.441,-0.022 -0.1764,-0.022 -0.2866,-0.0661 -0.099,-0.0441 -0.1433,-0.0992 -0.044,-0.0661 -0.044,-0.15434 v -8.69818 h -1.4001 q -0.1764,0 -0.2646,-0.17639 -0.088,-0.17639 -0.088,-0.57326 0,-0.20947 0.022,-0.35278 0.022,-0.14332 0.066,-0.23151 0.044,-0.0992 0.1103,-0.1323 0.066,-0.0441 0.1543,-0.0441 h 1.4001 v -1.02526 q 0,-1.03629 0.1874,-1.77492 0.1984,-0.74965 0.5953,-1.2237 0.3969,-0.47404 0.9922,-0.69453 0.6063,-0.23151 1.4221,-0.23151 0.3859,0 0.7497,0.0772 0.3638,0.0661 0.5622,0.15434 0.1985,0.0772 0.2646,0.14332 0.066,0.0661 0.1103,0.17638 0.044,0.0992 0.055,0.25356 0.022,0.14332 0.022,0.35278 z"
             id="path7683"
             style="stroke-width:0.5;stroke-miterlimit:4;stroke-dasharray:none" />
          <path
             d="m 2027.8117,328.03425 q 0,1.21267 -0.3198,2.23794 -0.3197,1.01423 -0.9591,1.75286 -0.6284,0.73863 -1.5875,1.15755 -0.9481,0.4079 -2.2048,0.4079 -1.2237,0 -2.1388,-0.3638 -0.9039,-0.3638 -1.5103,-1.05833 -0.6063,-0.69453 -0.904,-1.68672 -0.2976,-0.99219 -0.2976,-2.24896 0,-1.21268 0.3086,-2.22692 0.3198,-1.02526 0.9481,-1.76389 0.6395,-0.73863 1.5875,-1.14653 0.9481,-0.40789 2.2159,-0.40789 1.2237,0 2.1277,0.3638 0.915,0.3638 1.5214,1.05833 0.6063,0.69453 0.904,1.68672 0.3087,0.99219 0.3087,2.23794 z m -1.9183,0.12127 q 0,-0.80478 -0.1543,-1.52136 -0.1433,-0.71658 -0.4851,-1.25677 -0.3417,-0.54019 -0.926,-0.84887 -0.5843,-0.31971 -1.4552,-0.31971 -0.8048,0 -1.3891,0.28663 -0.5733,0.28664 -0.9481,0.8158 -0.3748,0.51815 -0.5622,1.23473 -0.1764,0.71658 -0.1764,1.56545 0,0.8158 0.1433,1.53238 0.1543,0.71658 0.4961,1.25677 0.3528,0.52917 0.9371,0.84887 0.5842,0.30868 1.4552,0.30868 0.7937,0 1.378,-0.28663 0.5843,-0.28663 0.9591,-0.80477 0.3748,-0.51815 0.5512,-1.23473 0.1764,-0.71658 0.1764,-1.57647 z"
             id="path7685"
             style="stroke-width:0.5;stroke-miterlimit:4;stroke-dasharray:none" />
          <path
             d="m 2037.965,333.11646 q 0,0.13229 -0.088,0.19844 -0.088,0.0661 -0.2426,0.0992 -0.1543,0.0331 -0.452,0.0331 -0.2866,0 -0.463,-0.0331 -0.1654,-0.0331 -0.2425,-0.0992 -0.077,-0.0662 -0.077,-0.19844 v -0.99219 q -0.6504,0.69453 -1.4552,1.08038 -0.7938,0.38585 -1.6867,0.38585 -0.7828,0 -1.4222,-0.20946 -0.6284,-0.19844 -1.0804,-0.58429 -0.4409,-0.38585 -0.6945,-0.94809 -0.2425,-0.56224 -0.2425,-1.27882 0,-0.83785 0.3417,-1.45521 0.3418,-0.61736 0.9812,-1.02526 0.6394,-0.4079 1.5654,-0.60634 0.9261,-0.20946 2.0836,-0.20946 h 1.3671 v -0.7717 q 0,-0.57327 -0.1213,-1.01424 -0.1213,-0.44097 -0.3969,-0.7276 -0.2646,-0.29766 -0.6945,-0.44098 -0.43,-0.15434 -1.0583,-0.15434 -0.6725,0 -1.2127,0.16537 -0.5292,0.15434 -0.9371,0.35278 -0.3969,0.18741 -0.6725,0.35277 -0.2646,0.15435 -0.3968,0.15435 -0.088,0 -0.1544,-0.0441 -0.066,-0.0441 -0.1213,-0.13229 -0.044,-0.0882 -0.066,-0.22049 -0.022,-0.14332 -0.022,-0.30868 0,-0.27561 0.033,-0.42995 0.044,-0.16536 0.1874,-0.30868 0.1544,-0.14332 0.5182,-0.33073 0.3638,-0.19844 0.8378,-0.35278 0.4741,-0.16536 1.0363,-0.26458 0.5623,-0.11024 1.1355,-0.11024 1.0694,0 1.819,0.24253 0.7497,0.24254 1.2127,0.71658 0.463,0.46302 0.6725,1.15755 0.2094,0.69454 0.2094,1.62058 z m -1.8079,-4.531 h -1.5545 q -0.7496,0 -1.3008,0.1323 -0.5513,0.12126 -0.9151,0.37482 -0.3638,0.24254 -0.5401,0.59532 -0.1654,0.34175 -0.1654,0.79375 0,0.7717 0.4851,1.23472 0.4961,0.452 1.378,0.452 0.7166,0 1.3229,-0.3638 0.6174,-0.36381 1.2899,-1.11346 z"
             id="path7687"
             style="stroke-width:0.5;stroke-miterlimit:4;stroke-dasharray:none" />
          <path
             d="m 2056.0229,333.10543 q 0,0.0882 -0.044,0.15434 -0.044,0.0551 -0.1433,0.0992 -0.099,0.0441 -0.2756,0.0661 -0.1764,0.022 -0.441,0.022 -0.2756,0 -0.452,-0.022 -0.1764,-0.022 -0.2866,-0.0661 -0.099,-0.0441 -0.1434,-0.0992 -0.044,-0.0661 -0.044,-0.15434 v -6.0303 q 0,-0.62838 -0.1102,-1.14653 -0.1102,-0.51814 -0.3528,-0.89297 -0.2425,-0.37482 -0.6173,-0.57326 -0.3749,-0.19844 -0.882,-0.19844 -0.6284,0 -1.2678,0.48507 -0.6284,0.48507 -1.389,1.42214 v 6.93429 q 0,0.0882 -0.044,0.15434 -0.044,0.0551 -0.1544,0.0992 -0.099,0.0441 -0.2756,0.0661 -0.1764,0.022 -0.441,0.022 -0.2535,0 -0.4409,-0.022 -0.1764,-0.022 -0.2867,-0.0661 -0.099,-0.0441 -0.1433,-0.0992 -0.033,-0.0661 -0.033,-0.15434 v -6.0303 q 0,-0.62838 -0.1212,-1.14653 -0.1213,-0.51814 -0.3638,-0.89297 -0.2426,-0.37482 -0.6174,-0.57326 -0.3638,-0.19844 -0.8709,-0.19844 -0.6284,0 -1.2678,0.48507 -0.6394,0.48507 -1.3891,1.42214 v 6.93429 q 0,0.0882 -0.044,0.15434 -0.044,0.0551 -0.1433,0.0992 -0.099,0.0441 -0.2756,0.0661 -0.1764,0.022 -0.452,0.022 -0.2646,0 -0.441,-0.022 -0.1763,-0.022 -0.2866,-0.0661 -0.099,-0.0441 -0.1433,-0.0992 -0.033,-0.0661 -0.033,-0.15434 v -9.92188 q 0,-0.0882 0.033,-0.14332 0.033,-0.0661 0.1323,-0.11024 0.099,-0.0551 0.2535,-0.0661 0.1544,-0.022 0.4079,-0.022 0.2426,0 0.3969,0.022 0.1654,0.011 0.2536,0.0661 0.088,0.0441 0.1212,0.11024 0.044,0.0551 0.044,0.14332 v 1.31189 q 0.8379,-0.93706 1.6206,-1.36701 0.7938,-0.44097 1.5985,-0.44097 0.6174,0 1.1025,0.14331 0.4961,0.14332 0.8709,0.4079 0.3748,0.25356 0.6394,0.61736 0.2646,0.35278 0.441,0.79375 0.4961,-0.54019 0.937,-0.91501 0.452,-0.37483 0.8599,-0.60634 0.419,-0.23151 0.8048,-0.33073 0.3969,-0.11024 0.7938,-0.11024 0.9591,0 1.6095,0.34175 0.6505,0.33073 1.0473,0.89297 0.4079,0.56224 0.5733,1.32292 0.1764,0.74965 0.1764,1.5875 z"
             id="path7689"
             style="stroke-width:0.5;stroke-miterlimit:4;stroke-dasharray:none" />
          <path
             d="m 2061.6894,332.17939 q 0,0.78273 -0.2646,1.04731 -0.2536,0.25356 -0.9371,0.25356 -0.6614,0 -0.915,-0.25356 -0.2535,-0.25356 -0.2535,-1.01424 0,-0.78272 0.2535,-1.03628 0.2646,-0.26458 0.9481,-0.26458 0.6615,0 0.915,0.25355 0.2536,0.25356 0.2536,1.01424 z"
             id="path7691"
             style="stroke-width:0.5;stroke-miterlimit:4;stroke-dasharray:none" />
          <path
             d="m 2079.1188,323.29379 q 0,1.06936 -0.3528,1.92926 -0.3527,0.85989 -1.0142,1.46623 -0.6504,0.60634 -1.6095,0.93707 -0.9481,0.33073 -2.2711,0.33073 h -1.6205 v 5.13733 q 0,0.0882 -0.055,0.15434 -0.044,0.0662 -0.1543,0.11024 -0.099,0.0331 -0.2866,0.0551 -0.1764,0.0331 -0.452,0.0331 -0.2756,0 -0.463,-0.0331 -0.1764,-0.0221 -0.2867,-0.0551 -0.1102,-0.0441 -0.1543,-0.11024 -0.044,-0.0661 -0.044,-0.15434 v -13.16303 q 0,-0.44098 0.2315,-0.62839 0.2315,-0.18741 0.5181,-0.18741 h 3.0538 q 0.463,0 0.8819,0.0441 0.43,0.0331 1.0032,0.16537 0.5843,0.12127 1.1796,0.47404 0.6064,0.34176 1.0253,0.84888 0.4189,0.50712 0.6394,1.1796 0.2315,0.66146 0.2315,1.46623 z m -1.9954,0.15434 q 0,-0.87092 -0.3307,-1.45521 -0.3197,-0.58429 -0.8048,-0.87092 -0.474,-0.28663 -0.9922,-0.3638 -0.5071,-0.0772 -0.9922,-0.0772 h -1.7528 v 5.72162 h 1.7087 q 0.8599,0 1.4222,-0.22049 0.5732,-0.22048 0.9591,-0.60633 0.3858,-0.39688 0.5843,-0.93707 0.1984,-0.55122 0.1984,-1.19063 z"
             id="path7693"
             style="stroke-width:0.5;stroke-miterlimit:4;stroke-dasharray:none" />
          <path
             d="m 2088.7982,333.11646 q 0,0.13229 -0.088,0.19844 -0.088,0.0661 -0.2426,0.0992 -0.1543,0.0331 -0.452,0.0331 -0.2866,0 -0.463,-0.0331 -0.1653,-0.0331 -0.2425,-0.0992 -0.077,-0.0662 -0.077,-0.19844 v -0.99219 q -0.6504,0.69453 -1.4552,1.08038 -0.7937,0.38585 -1.6867,0.38585 -0.7827,0 -1.4221,-0.20946 -0.6284,-0.19844 -1.0804,-0.58429 -0.441,-0.38585 -0.6946,-0.94809 -0.2425,-0.56224 -0.2425,-1.27882 0,-0.83785 0.3418,-1.45521 0.3417,-0.61736 0.9811,-1.02526 0.6394,-0.4079 1.5655,-0.60634 0.926,-0.20946 2.0836,-0.20946 h 1.367 v -0.7717 q 0,-0.57327 -0.1213,-1.01424 -0.1213,-0.44097 -0.3969,-0.7276 -0.2645,-0.29766 -0.6945,-0.44098 -0.4299,-0.15434 -1.0583,-0.15434 -0.6725,0 -1.2127,0.16537 -0.5292,0.15434 -0.9371,0.35278 -0.3968,0.18741 -0.6725,0.35277 -0.2645,0.15435 -0.3968,0.15435 -0.088,0 -0.1544,-0.0441 -0.066,-0.0441 -0.1212,-0.13229 -0.044,-0.0882 -0.066,-0.22049 -0.022,-0.14332 -0.022,-0.30868 0,-0.27561 0.033,-0.42995 0.044,-0.16536 0.1875,-0.30868 0.1543,-0.14332 0.5181,-0.33073 0.3638,-0.19844 0.8378,-0.35278 0.4741,-0.16536 1.0363,-0.26458 0.5623,-0.11024 1.1355,-0.11024 1.0694,0 1.819,0.24253 0.7497,0.24254 1.2127,0.71658 0.463,0.46302 0.6725,1.15755 0.2095,0.69454 0.2095,1.62058 z m -1.808,-4.531 h -1.5544 q -0.7497,0 -1.3009,0.1323 -0.5512,0.12126 -0.915,0.37482 -0.3638,0.24254 -0.5402,0.59532 -0.1654,0.34175 -0.1654,0.79375 0,0.7717 0.4851,1.23472 0.4961,0.452 1.378,0.452 0.7166,0 1.3229,-0.3638 0.6174,-0.36381 1.2899,-1.11346 z"
             id="path7695"
             style="stroke-width:0.5;stroke-miterlimit:4;stroke-dasharray:none" />
          <path
             d="m 2100.4288,323.63555 q 0,0.38585 -0.1102,0.56224 -0.099,0.16536 -0.2646,0.16536 h -1.4221 q 0.3858,0.39688 0.5402,0.88195 0.1543,0.47404 0.1543,0.99219 0,0.85989 -0.2756,1.52135 -0.2756,0.66146 -0.7938,1.12448 -0.5071,0.452 -1.2126,0.69453 -0.7056,0.24254 -1.5655,0.24254 -0.6063,0 -1.1575,-0.15434 -0.5402,-0.16537 -0.8379,-0.4079 -0.1984,0.19844 -0.3307,0.45199 -0.1213,0.25356 -0.1213,0.58429 0,0.38585 0.3528,0.63941 0.3638,0.25356 0.9591,0.27561 l 2.5907,0.11025 q 0.7386,0.022 1.356,0.20946 0.6174,0.17639 1.0694,0.51814 0.452,0.33073 0.7055,0.82682 0.2536,0.48507 0.2536,1.13551 0,0.68351 -0.2866,1.30087 -0.2867,0.61736 -0.882,1.08038 -0.5843,0.47405 -1.4993,0.73863 -0.915,0.27561 -2.1608,0.27561 -1.2016,0 -2.0505,-0.20946 -0.8378,-0.19844 -1.378,-0.55122 -0.5402,-0.35278 -0.7828,-0.84887 -0.2425,-0.48507 -0.2425,-1.05834 0,-0.3638 0.088,-0.70555 0.088,-0.34176 0.2646,-0.65044 0.1874,-0.30868 0.452,-0.58429 0.2756,-0.28663 0.6284,-0.56224 -0.5402,-0.2756 -0.8048,-0.69453 -0.2536,-0.41892 -0.2536,-0.90399 0,-0.67249 0.2756,-1.20165 0.2757,-0.52917 0.6836,-0.94809 -0.3418,-0.4079 -0.5402,-0.91502 -0.1985,-0.51815 -0.1985,-1.24575 0,-0.84887 0.2867,-1.52136 0.2866,-0.67248 0.7937,-1.1355 0.5071,-0.46302 1.2127,-0.70556 0.7166,-0.25356 1.5544,-0.25356 0.452,0 0.8379,0.0551 0.3968,0.0441 0.7386,0.13229 h 2.9986 q 0.1874,0 0.2756,0.18741 0.099,0.17639 0.099,0.55122 z m -2.8442,2.61276 q 0,-1.01424 -0.5623,-1.57648 -0.5512,-0.57326 -1.5765,-0.57326 -0.5291,0 -0.926,0.17639 -0.3859,0.17639 -0.6504,0.48507 -0.2536,0.30868 -0.3859,0.71658 -0.1213,0.39687 -0.1213,0.83785 0,0.98116 0.5513,1.5434 0.5622,0.56224 1.5654,0.56224 0.5402,0 0.9371,-0.16536 0.3969,-0.17639 0.6504,-0.47405 0.2646,-0.30868 0.3859,-0.70556 0.1323,-0.39687 0.1323,-0.82682 z m 0.915,7.86034 q 0,-0.63941 -0.5292,-0.98117 -0.5181,-0.35277 -1.4111,-0.37482 l -2.5687,-0.0882 q -0.3528,0.27561 -0.5843,0.52917 -0.2204,0.24253 -0.3527,0.46302 -0.1323,0.23151 -0.1875,0.452 -0.044,0.22048 -0.044,0.45199 0,0.71658 0.7277,1.08039 0.7276,0.37482 2.0284,0.37482 0.8269,0 1.3781,-0.16536 0.5622,-0.15434 0.904,-0.41892 0.3417,-0.26459 0.485,-0.60634 0.1544,-0.34176 0.1544,-0.71658 z"
             id="path7697"
             style="stroke-width:0.5;stroke-miterlimit:4;stroke-dasharray:none" />
          <path
             d="m 2111.0452,327.71454 q 0,0.42995 -0.2204,0.61737 -0.2095,0.17638 -0.4851,0.17638 h -6.5044 q 0,0.82683 0.1654,1.48829 0.1654,0.66146 0.5512,1.1355 0.3859,0.47405 1.0032,0.72761 0.6174,0.25356 1.5104,0.25356 0.7055,0 1.2567,-0.11025 0.5513,-0.12126 0.9481,-0.26458 0.4079,-0.14332 0.6615,-0.25356 0.2646,-0.12127 0.3969,-0.12127 0.077,0 0.1323,0.0441 0.066,0.0331 0.099,0.11024 0.033,0.0772 0.044,0.22049 0.022,0.13229 0.022,0.33073 0,0.14331 -0.011,0.25356 -0.011,0.0992 -0.033,0.18741 -0.011,0.0772 -0.055,0.14332 -0.033,0.0661 -0.099,0.13229 -0.055,0.0551 -0.3528,0.19844 -0.2977,0.13229 -0.7717,0.26458 -0.474,0.13229 -1.1024,0.23151 -0.6174,0.11024 -1.323,0.11024 -1.2236,0 -2.1497,-0.34175 -0.915,-0.34175 -1.5434,-1.01424 -0.6284,-0.67248 -0.9481,-1.68672 -0.3197,-1.01423 -0.3197,-2.3592 0,-1.27882 0.3307,-2.29306 0.3308,-1.02526 0.9481,-1.73082 0.6284,-0.71658 1.5104,-1.0914 0.8819,-0.38585 1.9733,-0.38585 1.1686,0 1.9844,0.37482 0.8268,0.37483 1.356,1.01424 0.5291,0.62839 0.7717,1.48828 0.2535,0.84887 0.2535,1.81901 z m -1.83,-0.54019 q 0.033,-1.43316 -0.6394,-2.24896 -0.6615,-0.8158 -1.9734,-0.8158 -0.6724,0 -1.1796,0.25356 -0.5071,0.25356 -0.8488,0.67248 -0.3418,0.41893 -0.5292,0.98117 -0.1874,0.55121 -0.2095,1.15755 z"
             id="path7699"
             style="stroke-width:0.5;stroke-miterlimit:4;stroke-dasharray:none" />
          <path
             d="m 2127.8904,326.21524 q 0,1.64262 -0.2646,2.99861 -0.2535,1.35599 -0.8599,2.33716 -0.5953,0.97014 -1.5654,1.51033 -0.9702,0.52916 -2.3923,0.52916 -1.345,0 -2.271,-0.47404 -0.915,-0.48507 -1.4773,-1.41111 -0.5622,-0.93707 -0.8047,-2.29306 -0.2316,-1.36702 -0.2316,-3.13091 0,-1.6316 0.2646,-2.98759 0.2646,-1.36701 0.8599,-2.33715 0.5953,-0.98117 1.5655,-1.51033 0.9701,-0.5402 2.3812,-0.5402 1.356,0 2.271,0.48507 0.9261,0.47405 1.4883,1.41112 0.5623,0.92604 0.7938,2.29305 0.2425,1.356 0.2425,3.11989 z m -1.9403,0.13229 q 0,-1.06936 -0.077,-1.91823 -0.077,-0.84888 -0.2316,-1.49931 -0.1433,-0.65043 -0.3858,-1.11346 -0.2315,-0.47404 -0.5622,-0.7717 -0.3308,-0.30868 -0.7607,-0.44097 -0.419,-0.14332 -0.9481,-0.14332 -0.9371,0 -1.5214,0.44098 -0.5843,0.44097 -0.926,1.21267 -0.3307,0.7717 -0.452,1.80799 -0.1213,1.03628 -0.1213,2.22691 0,1.59853 0.1654,2.72301 0.1653,1.11345 0.5181,1.81901 0.3638,0.70556 0.915,1.02526 0.5623,0.31971 1.356,0.31971 0.6174,0 1.0804,-0.19844 0.4741,-0.19844 0.8048,-0.56224 0.3417,-0.37483 0.5622,-0.89297 0.2205,-0.51814 0.3528,-1.14653 0.1323,-0.62839 0.1764,-1.35599 0.055,-0.73863 0.055,-1.53238 z"
             id="path7701"
             style="stroke-width:0.5;stroke-miterlimit:4;stroke-dasharray:none" />
          <path
             d="m 2138.8596,332.56524 q 0,0.19844 -0.033,0.35278 -0.022,0.15434 -0.077,0.26458 -0.044,0.0992 -0.1323,0.15435 -0.077,0.0441 -0.1764,0.0441 h -7.8824 q -0.1544,0 -0.2756,-0.0331 -0.1103,-0.0441 -0.1985,-0.13229 -0.077,-0.0882 -0.1212,-0.25356 -0.033,-0.16537 -0.033,-0.4079 0,-0.22049 0.011,-0.38585 0.022,-0.16537 0.077,-0.28663 0.055,-0.1323 0.1323,-0.25356 0.088,-0.1323 0.2205,-0.27561 l 2.7671,-2.93247 q 0.9591,-1.01424 1.5324,-1.81901 0.5842,-0.80478 0.8929,-1.46624 0.3197,-0.66146 0.4189,-1.20165 0.099,-0.54019 0.099,-1.01423 0,-0.47405 -0.1544,-0.89297 -0.1543,-0.42995 -0.452,-0.74966 -0.2866,-0.3197 -0.7276,-0.50712 -0.4409,-0.18741 -1.0142,-0.18741 -0.6725,0 -1.2127,0.18741 -0.5292,0.18742 -0.9371,0.4079 -0.3968,0.22049 -0.6724,0.4079 -0.2646,0.18742 -0.3969,0.18742 -0.077,0 -0.1433,-0.0441 -0.055,-0.0441 -0.099,-0.14332 -0.033,-0.0992 -0.055,-0.26458 -0.022,-0.16536 -0.022,-0.39688 0,-0.16536 0.011,-0.28663 0.011,-0.12127 0.033,-0.20946 0.033,-0.0882 0.077,-0.16536 0.044,-0.0772 0.1764,-0.18742 0.1323,-0.12127 0.452,-0.3197 0.3308,-0.19844 0.8158,-0.38585 0.4961,-0.19844 1.0804,-0.33073 0.5953,-0.1323 1.2458,-0.1323 1.0363,0 1.808,0.29766 0.7827,0.28663 1.2898,0.79375 0.5181,0.50712 0.7717,1.1796 0.2536,0.67249 0.2536,1.43316 0,0.68351 -0.1213,1.36702 -0.1213,0.67248 -0.5182,1.46623 -0.3858,0.78273 -1.1244,1.75287 -0.7387,0.95912 -1.9624,2.21589 l -2.2599,2.3592 h 6.2066 q 0.088,0 0.1654,0.0551 0.088,0.0441 0.1433,0.14332 0.066,0.0992 0.088,0.25356 0.033,0.14332 0.033,0.34175 z"
             id="path7703"
             style="stroke-width:0.5;stroke-miterlimit:4;stroke-dasharray:none" />
        </g>
        <path
           style="fill:none;fill-opacity:0.917647;stroke:#0011bf;stroke-width:0.5;stroke-miterlimit:4;stroke-dasharray:none;stroke-dashoffset:0"
           d="m 1959.2486,600.87732 h 189.4348"
           id="path22608" />
        <path
           style="fill:none;fill-opacity:0.917647;stroke:#0011bf;stroke-width:0.5;stroke-miterlimit:4;stroke-dasharray:none;stroke-dashoffset:0"
           d="m 1959.2486,399.62182 h 189.4348"
           id="path22606" />
        <path
           style="fill:none;fill-opacity:0.917647;stroke:#0011bf;stroke-width:0.5;stroke-miterlimit:4;stroke-dasharray:none;stroke-dashoffset:0"
           d="m 2096.9447,367.06772 v 268.4271"
           id="path22604" />
        <path
           style="fill:none;fill-opacity:0.917647;stroke:#0011bf;stroke-width:0.5;stroke-miterlimit:4;stroke-dasharray:none;stroke-dashoffset:0"
           d="M 2081.9709,635.49482 V 367.06772"
           id="path22602" />
        <path
           style="fill:none;fill-opacity:0.917647;stroke:#0011bf;stroke-width:0.5;stroke-miterlimit:4;stroke-dasharray:none;stroke-dashoffset:0"
           d="m 2031.8969,367.06772 v 268.4271"
           id="path22600" />
        <path
           style="fill:none;fill-opacity:0.917647;stroke:#0011bf;stroke-width:0.5;stroke-miterlimit:4;stroke-dasharray:none;stroke-dashoffset:0"
           d="M 2016.9231,635.49482 V 367.06772"
           id="path22598" />
        <path
           style="fill:none;fill-opacity:0.917647;stroke:#0011bf;stroke-width:0.5;stroke-miterlimit:4;stroke-dasharray:none;stroke-dashoffset:0"
           d="m 2137.127,367.06772 v 268.4271"
           id="path22596" />
        <path
           style="fill:none;fill-opacity:0.917647;stroke:#0011bf;stroke-width:0.5;stroke-miterlimit:4;stroke-dasharray:none;stroke-dashoffset:0"
           d="M 2122.1532,635.49482 V 367.06772"
           id="path22594" />
        <path
           style="fill:none;fill-opacity:0.917647;stroke:#0011bf;stroke-width:0.5;stroke-miterlimit:4;stroke-dasharray:none;stroke-dashoffset:0"
           d="m 1992.883,367.06772 v 268.4271"
           id="rect22448" />
        <path
           style="fill:none;fill-opacity:0.917647;stroke:#0011bf;stroke-width:0.5;stroke-miterlimit:4;stroke-dasharray:none;stroke-dashoffset:0"
           d="M 1977.9092,635.49482 V 367.06772"
           id="path22574" />
        <g
           aria-label="1"
           id="text24441"
           style="font-size:12.7px;line-height:1.25;font-family:Calibri;-inkscape-font-specification:Calibri;letter-spacing:0px;word-spacing:0px;stroke-width:0.5;stroke-miterlimit:4;stroke-dasharray:none">
          <path
             d="m 1989.6038,388.95607 q 0,0.11782 -0.019,0.19843 -0.019,0.0806 -0.05,0.13023 -0.031,0.0496 -0.074,0.0744 -0.037,0.0186 -0.081,0.0186 h -4.192 q -0.043,0 -0.081,-0.0186 -0.037,-0.0248 -0.074,-0.0744 -0.031,-0.0496 -0.05,-0.13023 -0.019,-0.0806 -0.019,-0.19843 0,-0.11162 0.019,-0.19224 0.019,-0.0806 0.043,-0.13022 0.031,-0.0558 0.068,-0.0806 0.043,-0.031 0.093,-0.031 h 1.6743 v -6.10195 l -1.5503,0.92398 q -0.1178,0.062 -0.1922,0.0744 -0.068,0.0124 -0.1116,-0.0248 -0.043,-0.0434 -0.062,-0.13643 -0.012,-0.093 -0.012,-0.23564 0,-0.10542 0.01,-0.17984 0.012,-0.0744 0.031,-0.12402 0.019,-0.0496 0.05,-0.0868 0.037,-0.0372 0.093,-0.0744 l 1.8479,-1.18443 q 0.025,-0.0186 0.062,-0.031 0.037,-0.0124 0.093,-0.0248 0.056,-0.0124 0.1302,-0.0124 0.074,-0.006 0.186,-0.006 0.1489,0 0.2481,0.0124 0.099,0.0124 0.155,0.0372 0.056,0.0186 0.074,0.0558 0.019,0.031 0.019,0.0682 v 7.05073 h 1.4511 q 0.05,0 0.093,0.031 0.043,0.0248 0.068,0.0806 0.031,0.0496 0.043,0.13022 0.019,0.0806 0.019,0.19224 z"
             id="path7670"
             style="stroke-width:0.5;stroke-miterlimit:4;stroke-dasharray:none" />
        </g>
        <g
           aria-label="2"
           id="text25919"
           style="font-size:12.7px;line-height:1.25;font-family:Calibri;-inkscape-font-specification:Calibri;letter-spacing:0px;word-spacing:0px;stroke-width:0.5;stroke-miterlimit:4;stroke-dasharray:none">
          <path
             d="m 2028.7417,388.91886 q 0,0.11162 -0.019,0.19844 -0.012,0.0868 -0.043,0.14883 -0.025,0.0558 -0.074,0.0868 -0.043,0.0248 -0.099,0.0248 h -4.4339 q -0.087,0 -0.155,-0.0186 -0.062,-0.0248 -0.1116,-0.0744 -0.043,-0.0496 -0.068,-0.14263 -0.019,-0.093 -0.019,-0.22944 0,-0.12402 0.01,-0.21704 0.012,-0.093 0.043,-0.16123 0.031,-0.0744 0.074,-0.14263 0.05,-0.0744 0.124,-0.15503 l 1.5565,-1.64951 q 0.5395,-0.57051 0.862,-1.02319 0.3286,-0.45269 0.5023,-0.82476 0.1798,-0.37207 0.2356,-0.67593 0.056,-0.30386 0.056,-0.57051 0,-0.26665 -0.087,-0.50229 -0.087,-0.24185 -0.2542,-0.42168 -0.1613,-0.17983 -0.4093,-0.28525 -0.2481,-0.10542 -0.5705,-0.10542 -0.3783,0 -0.6822,0.10542 -0.2976,0.10542 -0.527,0.22944 -0.2233,0.12402 -0.3783,0.22944 -0.1488,0.10542 -0.2233,0.10542 -0.043,0 -0.081,-0.0248 -0.031,-0.0248 -0.056,-0.0806 -0.019,-0.0558 -0.031,-0.14883 -0.012,-0.093 -0.012,-0.22324 0,-0.093 0.01,-0.16123 0.01,-0.0682 0.019,-0.11782 0.019,-0.0496 0.043,-0.093 0.025,-0.0434 0.099,-0.10542 0.074,-0.0682 0.2543,-0.17983 0.186,-0.11162 0.4589,-0.21704 0.279,-0.11162 0.6077,-0.18604 0.3348,-0.0744 0.7007,-0.0744 0.5829,0 1.017,0.16743 0.4403,0.16123 0.7255,0.44648 0.2915,0.28526 0.4341,0.66353 0.1427,0.37827 0.1427,0.80615 0,0.38447 -0.068,0.76895 -0.068,0.37827 -0.2914,0.82475 -0.2171,0.44029 -0.6325,0.98599 -0.4155,0.5395 -1.1038,1.24643 l -1.2713,1.32706 h 3.4913 q 0.05,0 0.093,0.031 0.05,0.0248 0.081,0.0806 0.037,0.0558 0.05,0.14262 0.019,0.0806 0.019,0.19224 z"
             id="path7667"
             style="stroke-width:0.5;stroke-miterlimit:4;stroke-dasharray:none" />
        </g>
        <g
           aria-label="3"
           id="text26561"
           style="font-size:12.7px;line-height:1.25;font-family:Calibri;-inkscape-font-specification:Calibri;letter-spacing:0px;word-spacing:0px;stroke-width:0.264583">
          <path
             d="m 2093.0065,386.96548 q 0,0.55191 -0.1922,0.99839 -0.1923,0.44029 -0.5519,0.75655 -0.3597,0.31626 -0.8868,0.48989 -0.5271,0.16743 -1.1906,0.16743 -0.4031,0 -0.7566,-0.0682 -0.3472,-0.062 -0.6201,-0.14883 -0.2729,-0.093 -0.4527,-0.18604 -0.1798,-0.0992 -0.2294,-0.14262 -0.043,-0.0434 -0.068,-0.0868 -0.025,-0.0434 -0.043,-0.10542 -0.019,-0.062 -0.031,-0.14883 -0.01,-0.093 -0.01,-0.22324 0,-0.22324 0.043,-0.31006 0.043,-0.0868 0.124,-0.0868 0.056,0 0.217,0.0992 0.1674,0.0992 0.4217,0.21705 0.2604,0.11162 0.6015,0.21084 0.3473,0.0992 0.769,0.0992 0.4092,0 0.7193,-0.10542 0.31,-0.10542 0.5209,-0.29765 0.2108,-0.19224 0.3162,-0.45269 0.1055,-0.26665 0.1055,-0.57671 0,-0.34106 -0.1365,-0.61391 -0.1302,-0.27285 -0.3906,-0.47129 -0.2543,-0.19844 -0.6326,-0.30386 -0.372,-0.10542 -0.8495,-0.10542 h -0.7628 q -0.05,0 -0.099,-0.0186 -0.043,-0.0248 -0.081,-0.0744 -0.031,-0.0496 -0.056,-0.13022 -0.019,-0.0806 -0.019,-0.21084 0,-0.11782 0.019,-0.19224 0.019,-0.0806 0.05,-0.12402 0.037,-0.0496 0.081,-0.0682 0.043,-0.0248 0.099,-0.0248 h 0.7008 q 0.4093,0 0.7317,-0.10542 0.3287,-0.10542 0.5519,-0.30386 0.2295,-0.19843 0.3473,-0.47128 0.124,-0.27906 0.124,-0.62012 0,-0.24805 -0.081,-0.47129 -0.081,-0.22944 -0.2419,-0.39688 -0.1612,-0.16743 -0.4154,-0.26045 -0.2481,-0.0992 -0.5767,-0.0992 -0.3597,0 -0.6636,0.11162 -0.2976,0.10542 -0.5333,0.22944 -0.2356,0.12402 -0.3906,0.23565 -0.1551,0.10541 -0.2171,0.10541 -0.043,0 -0.081,-0.0124 -0.031,-0.0186 -0.056,-0.062 -0.019,-0.0496 -0.031,-0.13022 -0.01,-0.0868 -0.01,-0.22325 0,-0.093 0.01,-0.16123 0.01,-0.0744 0.025,-0.12402 0.019,-0.0558 0.043,-0.0992 0.025,-0.0434 0.081,-0.0992 0.062,-0.062 0.2419,-0.17363 0.1798,-0.11162 0.4402,-0.21704 0.2667,-0.11162 0.6078,-0.18604 0.3472,-0.0744 0.7441,-0.0744 0.5581,0 0.9798,0.14263 0.4217,0.14262 0.7007,0.40307 0.2853,0.26045 0.4217,0.62632 0.1426,0.35967 0.1426,0.79995 0,0.37827 -0.099,0.70694 -0.099,0.32246 -0.2915,0.5767 -0.1922,0.24805 -0.4712,0.42789 -0.2791,0.17363 -0.645,0.24184 v 0.0124 q 0.4155,0.0434 0.7566,0.21084 0.3472,0.16123 0.5953,0.40928 0.248,0.24805 0.3845,0.58291 0.1426,0.32866 0.1426,0.70693 z"
             id="path7664"
             style="stroke-width:0.5;stroke-miterlimit:4;stroke-dasharray:none" />
        </g>
        <g
           aria-label="4"
           id="text26873"
           style="font-size:12.7px;line-height:1.25;font-family:Calibri;-inkscape-font-specification:Calibri;letter-spacing:0px;word-spacing:0px;stroke-width:0.5;stroke-miterlimit:4;stroke-dasharray:none">
          <path
             d="m 2134.8947,387.05851 q 0,0.20464 -0.062,0.32247 -0.062,0.11782 -0.1737,0.11782 h -0.9053 v 1.68672 q 0,0.0496 -0.025,0.0868 -0.025,0.031 -0.087,0.0558 -0.062,0.0248 -0.1612,0.0372 -0.099,0.0124 -0.2542,0.0124 -0.1489,0 -0.2481,-0.0124 -0.099,-0.0124 -0.1612,-0.0372 -0.056,-0.0248 -0.081,-0.0558 -0.019,-0.0372 -0.019,-0.0868 v -1.68672 h -3.3115 q -0.074,0 -0.124,-0.0186 -0.05,-0.0186 -0.093,-0.0682 -0.037,-0.0496 -0.056,-0.14263 -0.012,-0.093 -0.012,-0.24184 0,-0.11782 0.01,-0.21084 0.01,-0.093 0.025,-0.16743 0.019,-0.0806 0.05,-0.14883 0.031,-0.0744 0.074,-0.15503 l 2.8898,-4.87412 q 0.031,-0.0496 0.087,-0.0868 0.062,-0.0372 0.155,-0.062 0.093,-0.0248 0.2295,-0.031 0.1364,-0.0124 0.3224,-0.0124 0.2047,0 0.3535,0.0186 0.155,0.0124 0.248,0.0372 0.093,0.0248 0.1427,0.0682 0.05,0.0372 0.05,0.093 v 5.12217 h 0.9053 q 0.1055,0 0.1675,0.11162 0.068,0.10542 0.068,0.32866 z m -2.1766,-4.84311 h -0.012 l -2.6107,4.40283 h 2.6231 z"
             id="path7661"
             style="stroke-width:0.5;stroke-miterlimit:4;stroke-dasharray:none" />
        </g>
        <g
           aria-label="11"
           id="text27515"
           style="font-size:12.7px;line-height:1.25;font-family:Calibri;-inkscape-font-specification:Calibri;letter-spacing:0px;word-spacing:0px;stroke-width:0.5;stroke-miterlimit:4;stroke-dasharray:none">
          <path
             d="m 1983.6577,635.19093 q 0,0.11782 -0.019,0.19844 -0.019,0.0806 -0.05,0.13022 -0.031,0.0496 -0.074,0.0744 -0.037,0.0186 -0.081,0.0186 h -4.192 q -0.043,0 -0.081,-0.0186 -0.037,-0.0248 -0.074,-0.0744 -0.031,-0.0496 -0.05,-0.13022 -0.019,-0.0806 -0.019,-0.19844 0,-0.11162 0.019,-0.19224 0.019,-0.0806 0.043,-0.13022 0.031,-0.0558 0.068,-0.0806 0.043,-0.031 0.093,-0.031 h 1.6743 v -6.10195 l -1.5502,0.92397 q -0.1179,0.062 -0.1923,0.0744 -0.068,0.0124 -0.1116,-0.0248 -0.043,-0.0434 -0.062,-0.13643 -0.012,-0.093 -0.012,-0.23564 0,-0.10542 0.01,-0.17984 0.012,-0.0744 0.031,-0.12402 0.019,-0.0496 0.05,-0.0868 0.037,-0.0372 0.093,-0.0744 l 1.848,-1.18442 q 0.025,-0.0186 0.062,-0.031 0.037,-0.0124 0.093,-0.0248 0.056,-0.0124 0.1302,-0.0124 0.074,-0.006 0.1861,-0.006 0.1488,0 0.248,0.0124 0.099,0.0124 0.155,0.0372 0.056,0.0186 0.074,0.0558 0.019,0.031 0.019,0.0682 v 7.05073 h 1.4511 q 0.05,0 0.093,0.031 0.043,0.0248 0.068,0.0806 0.031,0.0496 0.043,0.13022 0.019,0.0806 0.019,0.19224 z"
             id="path7656"
             style="stroke-width:0.5;stroke-miterlimit:4;stroke-dasharray:none" />
          <path
             d="m 1990.0945,635.19093 q 0,0.11782 -0.019,0.19844 -0.019,0.0806 -0.05,0.13022 -0.031,0.0496 -0.074,0.0744 -0.037,0.0186 -0.081,0.0186 h -4.192 q -0.043,0 -0.081,-0.0186 -0.037,-0.0248 -0.074,-0.0744 -0.031,-0.0496 -0.05,-0.13022 -0.019,-0.0806 -0.019,-0.19844 0,-0.11162 0.019,-0.19224 0.019,-0.0806 0.043,-0.13022 0.031,-0.0558 0.068,-0.0806 0.043,-0.031 0.093,-0.031 h 1.6744 v -6.10195 l -1.5503,0.92397 q -0.1179,0.062 -0.1923,0.0744 -0.068,0.0124 -0.1116,-0.0248 -0.043,-0.0434 -0.062,-0.13643 -0.012,-0.093 -0.012,-0.23564 0,-0.10542 0.01,-0.17984 0.012,-0.0744 0.031,-0.12402 0.019,-0.0496 0.05,-0.0868 0.037,-0.0372 0.093,-0.0744 l 1.848,-1.18442 q 0.025,-0.0186 0.062,-0.031 0.037,-0.0124 0.093,-0.0248 0.056,-0.0124 0.1302,-0.0124 0.074,-0.006 0.1861,-0.006 0.1488,0 0.248,0.0124 0.099,0.0124 0.155,0.0372 0.056,0.0186 0.074,0.0558 0.019,0.031 0.019,0.0682 v 7.05073 h 1.451 q 0.05,0 0.093,0.031 0.043,0.0248 0.068,0.0806 0.031,0.0496 0.043,0.13022 0.019,0.0806 0.019,0.19224 z"
             id="path7658"
             style="stroke-width:0.5;stroke-miterlimit:4;stroke-dasharray:none" />
        </g>
        <g
           aria-label="12"
           id="text28157"
           style="font-size:12.7px;line-height:1.25;font-family:Calibri;-inkscape-font-specification:Calibri;letter-spacing:0px;word-spacing:0px;stroke-width:0.264583">
          <path
             d="m 2037.6453,635.19093 q 0,0.11782 -0.019,0.19844 -0.019,0.0806 -0.05,0.13022 -0.031,0.0496 -0.074,0.0744 -0.037,0.0186 -0.081,0.0186 h -4.192 q -0.043,0 -0.081,-0.0186 -0.037,-0.0248 -0.074,-0.0744 -0.031,-0.0496 -0.05,-0.13022 -0.019,-0.0806 -0.019,-0.19844 0,-0.11162 0.019,-0.19224 0.019,-0.0806 0.043,-0.13022 0.031,-0.0558 0.068,-0.0806 0.043,-0.031 0.093,-0.031 h 1.6743 v -6.10195 l -1.5503,0.92397 q -0.1178,0.062 -0.1922,0.0744 -0.068,0.0124 -0.1116,-0.0248 -0.043,-0.0434 -0.062,-0.13643 -0.012,-0.093 -0.012,-0.23564 0,-0.10542 0.01,-0.17984 0.012,-0.0744 0.031,-0.12402 0.019,-0.0496 0.05,-0.0868 0.037,-0.0372 0.093,-0.0744 l 1.8479,-1.18442 q 0.025,-0.0186 0.062,-0.031 0.037,-0.0124 0.093,-0.0248 0.056,-0.0124 0.1302,-0.0124 0.074,-0.006 0.186,-0.006 0.1489,0 0.2481,0.0124 0.099,0.0124 0.155,0.0372 0.056,0.0186 0.074,0.0558 0.019,0.031 0.019,0.0682 v 7.05073 h 1.4511 q 0.05,0 0.093,0.031 0.043,0.0248 0.068,0.0806 0.031,0.0496 0.043,0.13022 0.019,0.0806 0.019,0.19224 z"
             id="path58" />
          <path
             d="m 2044.0635,635.15372 q 0,0.11162 -0.019,0.19844 -0.012,0.0868 -0.043,0.14883 -0.025,0.0558 -0.074,0.0868 -0.043,0.0248 -0.099,0.0248 h -4.4338 q -0.087,0 -0.1551,-0.0186 -0.062,-0.0248 -0.1116,-0.0744 -0.043,-0.0496 -0.068,-0.14262 -0.019,-0.093 -0.019,-0.22945 0,-0.12402 0.01,-0.21704 0.012,-0.093 0.043,-0.16123 0.031,-0.0744 0.074,-0.14263 0.05,-0.0744 0.124,-0.15503 l 1.5565,-1.64951 q 0.5395,-0.57051 0.862,-1.02319 0.3287,-0.45269 0.5023,-0.82476 0.1798,-0.37207 0.2356,-0.67592 0.056,-0.30386 0.056,-0.57051 0,-0.26665 -0.087,-0.5023 -0.087,-0.24184 -0.2542,-0.42168 -0.1612,-0.17983 -0.4093,-0.28525 -0.248,-0.10542 -0.5705,-0.10542 -0.3783,0 -0.6821,0.10542 -0.2977,0.10542 -0.5271,0.22944 -0.2233,0.12403 -0.3783,0.22945 -0.1488,0.10542 -0.2232,0.10542 -0.043,0 -0.081,-0.0248 -0.031,-0.0248 -0.056,-0.0806 -0.019,-0.0558 -0.031,-0.14883 -0.012,-0.093 -0.012,-0.22324 0,-0.093 0.01,-0.16123 0.01,-0.0682 0.019,-0.11783 0.019,-0.0496 0.043,-0.093 0.025,-0.0434 0.099,-0.10542 0.074,-0.0682 0.2542,-0.17984 0.186,-0.11162 0.4589,-0.21704 0.279,-0.11162 0.6077,-0.18603 0.3349,-0.0744 0.7007,-0.0744 0.583,0 1.017,0.16743 0.4403,0.16123 0.7256,0.44649 0.2914,0.28525 0.4341,0.66352 0.1426,0.37827 0.1426,0.80616 0,0.38447 -0.068,0.76894 -0.068,0.37827 -0.2915,0.82476 -0.217,0.44028 -0.6325,0.98598 -0.4155,0.5395 -1.1038,1.24644 l -1.2713,1.32705 h 3.4913 q 0.05,0 0.093,0.031 0.05,0.0248 0.081,0.0806 0.037,0.0558 0.05,0.14263 0.019,0.0806 0.019,0.19223 z"
             id="path60" />
        </g>
        <g
           aria-label="13"
           id="text28535"
           style="font-size:12.7px;line-height:1.25;font-family:Calibri;-inkscape-font-specification:Calibri;letter-spacing:0px;word-spacing:0px;stroke-width:0.5;stroke-miterlimit:4;stroke-dasharray:none">
          <path
             d="m 2087.7194,635.07313 q 0,0.11782 -0.019,0.19844 -0.019,0.0806 -0.05,0.13022 -0.031,0.0496 -0.074,0.0744 -0.037,0.0186 -0.081,0.0186 h -4.192 q -0.043,0 -0.081,-0.0186 -0.037,-0.0248 -0.074,-0.0744 -0.031,-0.0496 -0.05,-0.13022 -0.019,-0.0806 -0.019,-0.19844 0,-0.11162 0.019,-0.19223 0.019,-0.0806 0.043,-0.13023 0.031,-0.0558 0.068,-0.0806 0.043,-0.031 0.093,-0.031 h 1.6743 v -6.10195 l -1.5503,0.92397 q -0.1178,0.062 -0.1922,0.0744 -0.068,0.0124 -0.1116,-0.0248 -0.043,-0.0434 -0.062,-0.13642 -0.012,-0.093 -0.012,-0.23565 0,-0.10542 0.01,-0.17983 0.012,-0.0744 0.031,-0.12403 0.019,-0.0496 0.05,-0.0868 0.037,-0.0372 0.093,-0.0744 l 1.8479,-1.18442 q 0.025,-0.0186 0.062,-0.031 0.037,-0.0124 0.093,-0.0248 0.056,-0.0124 0.1302,-0.0124 0.074,-0.006 0.186,-0.006 0.1489,0 0.2481,0.0124 0.099,0.0124 0.155,0.0372 0.056,0.0186 0.074,0.0558 0.019,0.031 0.019,0.0682 v 7.05073 h 1.4511 q 0.05,0 0.093,0.031 0.043,0.0248 0.068,0.0806 0.031,0.0496 0.043,0.13023 0.019,0.0806 0.019,0.19223 z"
             id="path7651"
             style="stroke-width:0.5;stroke-miterlimit:4;stroke-dasharray:none" />
          <path
             d="m 2094.0756,633.20038 q 0,0.5519 -0.1922,0.99839 -0.1922,0.44028 -0.5519,0.75654 -0.3597,0.31626 -0.8868,0.48989 -0.5271,0.16743 -1.1906,0.16743 -0.4031,0 -0.7565,-0.0682 -0.3473,-0.062 -0.6202,-0.14883 -0.2728,-0.093 -0.4526,-0.18603 -0.1799,-0.0992 -0.2295,-0.14263 -0.043,-0.0434 -0.068,-0.0868 -0.025,-0.0434 -0.043,-0.10542 -0.019,-0.062 -0.031,-0.14882 -0.01,-0.093 -0.01,-0.22325 0,-0.22324 0.043,-0.31005 0.043,-0.0868 0.124,-0.0868 0.056,0 0.2171,0.0992 0.1674,0.0992 0.4216,0.21704 0.2605,0.11162 0.6016,0.21084 0.3472,0.0992 0.7689,0.0992 0.4093,0 0.7193,-0.10542 0.3101,-0.10542 0.5209,-0.29766 0.2109,-0.19223 0.3163,-0.45268 0.1054,-0.26665 0.1054,-0.57671 0,-0.34107 -0.1364,-0.61392 -0.1302,-0.27285 -0.3907,-0.47129 -0.2542,-0.19844 -0.6325,-0.30386 -0.3721,-0.10542 -0.8496,-0.10542 h -0.7627 q -0.05,0 -0.099,-0.0186 -0.043,-0.0248 -0.081,-0.0744 -0.031,-0.0496 -0.056,-0.13023 -0.019,-0.0806 -0.019,-0.21084 0,-0.11782 0.019,-0.19223 0.019,-0.0806 0.05,-0.12403 0.037,-0.0496 0.081,-0.0682 0.043,-0.0248 0.099,-0.0248 h 0.7007 q 0.4093,0 0.7318,-0.10542 0.3286,-0.10542 0.5519,-0.30386 0.2294,-0.19844 0.3472,-0.47129 0.124,-0.27905 0.124,-0.62012 0,-0.24805 -0.081,-0.47129 -0.081,-0.22944 -0.2418,-0.39687 -0.1612,-0.16743 -0.4155,-0.26045 -0.248,-0.0992 -0.5767,-0.0992 -0.3597,0 -0.6635,0.11162 -0.2977,0.10542 -0.5333,0.22944 -0.2357,0.12403 -0.3907,0.23565 -0.155,0.10542 -0.217,0.10542 -0.043,0 -0.081,-0.0124 -0.031,-0.0186 -0.056,-0.062 -0.019,-0.0496 -0.031,-0.13022 -0.01,-0.0868 -0.01,-0.22324 0,-0.093 0.01,-0.16123 0.01,-0.0744 0.025,-0.12403 0.019,-0.0558 0.043,-0.0992 0.025,-0.0434 0.081,-0.0992 0.062,-0.062 0.2418,-0.17364 0.1798,-0.11162 0.4403,-0.21704 0.2666,-0.11162 0.6077,-0.18603 0.3473,-0.0744 0.7441,-0.0744 0.5581,0 0.9798,0.14263 0.4217,0.14263 0.7008,0.40308 0.2852,0.26045 0.4216,0.62631 0.1427,0.35967 0.1427,0.79996 0,0.37827 -0.099,0.70693 -0.099,0.32246 -0.2914,0.57671 -0.1922,0.24805 -0.4713,0.42788 -0.2791,0.17363 -0.6449,0.24185 v 0.0124 q 0.4155,0.0434 0.7565,0.21084 0.3473,0.16123 0.5953,0.40927 0.2481,0.24805 0.3845,0.58291 0.1426,0.32867 0.1426,0.70694 z"
             id="path7653"
             style="stroke-width:0.5;stroke-miterlimit:4;stroke-dasharray:none" />
        </g>
        <g
           aria-label="14"
           id="text28861"
           style="font-size:12.7px;line-height:1.25;font-family:Calibri;-inkscape-font-specification:Calibri;letter-spacing:0px;word-spacing:0px;stroke-width:0.5;stroke-miterlimit:4;stroke-dasharray:none">
          <path
             d="m 2127.9016,635.15376 q 0,0.11782 -0.019,0.19844 -0.019,0.0806 -0.05,0.13022 -0.031,0.0496 -0.074,0.0744 -0.037,0.0186 -0.081,0.0186 h -4.192 q -0.043,0 -0.081,-0.0186 -0.037,-0.0248 -0.074,-0.0744 -0.031,-0.0496 -0.05,-0.13022 -0.019,-0.0806 -0.019,-0.19844 0,-0.11162 0.019,-0.19224 0.019,-0.0806 0.043,-0.13022 0.031,-0.0558 0.068,-0.0806 0.043,-0.031 0.093,-0.031 h 1.6743 v -6.10196 l -1.5502,0.92398 q -0.1179,0.062 -0.1923,0.0744 -0.068,0.0124 -0.1116,-0.0248 -0.043,-0.0434 -0.062,-0.13643 -0.012,-0.093 -0.012,-0.23564 0,-0.10542 0.01,-0.17984 0.012,-0.0744 0.031,-0.12402 0.019,-0.0496 0.05,-0.0868 0.037,-0.0372 0.093,-0.0744 l 1.848,-1.18442 q 0.025,-0.0186 0.062,-0.031 0.037,-0.0124 0.093,-0.0248 0.056,-0.0124 0.1302,-0.0124 0.074,-0.006 0.1861,-0.006 0.1488,0 0.248,0.0124 0.099,0.0124 0.155,0.0372 0.056,0.0186 0.074,0.0558 0.019,0.031 0.019,0.0682 v 7.05073 h 1.4511 q 0.05,0 0.093,0.031 0.043,0.0248 0.068,0.0806 0.031,0.0496 0.043,0.13022 0.019,0.0806 0.019,0.19224 z"
             id="path7646"
             style="stroke-width:0.5;stroke-miterlimit:4;stroke-dasharray:none" />
          <path
             d="m 2134.6608,633.29341 q 0,0.20464 -0.062,0.32246 -0.062,0.11782 -0.1736,0.11782 h -0.9054 v 1.68672 q 0,0.0496 -0.025,0.0868 -0.025,0.031 -0.087,0.0558 -0.062,0.0248 -0.1612,0.0372 -0.099,0.0124 -0.2543,0.0124 -0.1488,0 -0.248,-0.0124 -0.099,-0.0124 -0.1613,-0.0372 -0.056,-0.0248 -0.081,-0.0558 -0.019,-0.0372 -0.019,-0.0868 v -1.68672 h -3.3114 q -0.074,0 -0.124,-0.0186 -0.05,-0.0186 -0.093,-0.0682 -0.037,-0.0496 -0.056,-0.14263 -0.013,-0.093 -0.013,-0.24185 0,-0.11782 0.01,-0.21084 0.01,-0.093 0.025,-0.16743 0.019,-0.0806 0.05,-0.14883 0.031,-0.0744 0.074,-0.15503 l 2.8897,-4.87412 q 0.031,-0.0496 0.087,-0.0868 0.062,-0.0372 0.1551,-0.062 0.093,-0.0248 0.2294,-0.031 0.1364,-0.0124 0.3225,-0.0124 0.2046,0 0.3534,0.0186 0.1551,0.0124 0.2481,0.0372 0.093,0.0248 0.1426,0.0682 0.05,0.0372 0.05,0.093 v 5.12217 h 0.9054 q 0.1054,0 0.1674,0.11162 0.068,0.10542 0.068,0.32866 z m -2.1766,-4.84312 h -0.012 l -2.6107,4.40284 h 2.6231 z"
             id="path7648"
             style="stroke-width:0.5;stroke-miterlimit:4;stroke-dasharray:none" />
        </g>
      </g>
    </g>
  </g>
</svg>
