<?xml version="1.0" encoding="UTF-8" standalone="no"?>
<svg
   inkscape:label="LA410-complettTree"
   sodipodi:docname="6bc6a93a19da2e13a8b7357b55484716toy.svg.Wood1mm.02_cropped.svg"
   inkscape:version="1.1.1 (eb90963e84, 2021-10-02)"
   id="svg1004"
   version="1.1"
   viewBox="0 0 193.56888 333.94194"
   height="333.94196mm"
   width="193.56889mm"
   xmlns:inkscape="http://www.inkscape.org/namespaces/inkscape"
   xmlns:sodipodi="http://sodipodi.sourceforge.net/DTD/sodipodi-0.dtd"
   xmlns="http://www.w3.org/2000/svg"
   xmlns:svg="http://www.w3.org/2000/svg">
  <defs
     id="defs26" />
  <sodipodi:namedview
     id="namedview24"
     pagecolor="#ffffff"
     bordercolor="#666666"
     borderopacity="1.0"
     inkscape:pageshadow="2"
     inkscape:pageopacity="0.0"
     inkscape:pagecheckerboard="0"
     inkscape:document-units="mm" />
  <g
     id="layer20"
     inkscape:label="Wood1mm"
     inkscape:groupmode="layer"
     transform="translate(-1983.7321,-1523.5866)"
     style="display:inline">
    <g
       inkscape:groupmode="layer"
       id="layer30"
       inkscape:label="02"
       style="display:inline">
      <g
         id="layer3-5"
         inkscape:label="Cut"
         style="display:inline"
         transform="translate(1191.2232,1203.0115)"
         inkscape:groupmode="layer">
        <path
           id="path20926"
           style="display:inline;fill:#ffffff;stroke:#0000bf;stroke-width:0.5;stroke-miterlimit:4;stroke-dasharray:none"
           d="m 927.5415,489.20944 a 50,50 0 0 1 -50,50 50,50 0 0 1 -50,-50 50,50 0 0 1 50,-50 50,50 0 0 1 50,50 z" />
        <path
           id="path21058"
           style="display:inline;fill:#ffffff;stroke:#0000bf;stroke-width:0.5;stroke-miterlimit:4;stroke-dasharray:none"
           d="m 902.332,654.162 -50.842,-12.188 -51.711,-7.721 35.977,-37.937 32.541,-40.922 14.866,50.125 z" />
      </g>
      <g
         id="layer4"
         inkscape:label="Engrave"
         style="display:inline"
         transform="translate(1191.2232,1203.0115)"
         inkscape:groupmode="layer">
        <g
           aria-label="Wood 1 mm. Page 02"
           id="text8197-6"
           style="font-size:22.5778px;line-height:1.25;font-family:Calibri;-inkscape-font-specification:Calibri;letter-spacing:0px;word-spacing:0px;display:inline;fill:none;stroke:#0000bf;stroke-width:0.5;stroke-miterlimit:4;stroke-dasharray:none">
          <path
             d="m 807.64168,335.71892 q -0.0441,0.15434 -0.1323,0.25356 -0.0882,0.0882 -0.24253,0.14332 -0.15434,0.0441 -0.38585,0.0661 -0.22049,0.022 -0.55122,0.022 -0.34175,0 -0.58429,-0.022 -0.23151,-0.022 -0.38585,-0.0661 -0.15434,-0.0551 -0.23151,-0.14332 -0.0772,-0.0992 -0.12127,-0.25356 l -2.98759,-10.77075 h -0.022 l -2.75608,10.77075 q -0.0331,0.15434 -0.11025,0.25356 -0.0772,0.0882 -0.22048,0.14332 -0.14332,0.0441 -0.37483,0.0661 -0.22049,0.022 -0.57326,0.022 -0.36381,0 -0.60634,-0.022 -0.24254,-0.022 -0.39688,-0.0661 -0.15434,-0.0551 -0.24253,-0.14332 -0.0772,-0.0992 -0.11025,-0.25356 l -3.77031,-13.17405 q -0.0661,-0.25356 -0.0772,-0.39688 0,-0.14332 0.0882,-0.22049 0.0992,-0.0772 0.30868,-0.0992 0.20947,-0.022 0.56224,-0.022 0.34176,0 0.5402,0.022 0.19843,0.011 0.29765,0.0551 0.11024,0.0441 0.14332,0.12126 0.0441,0.0772 0.0661,0.19844 l 3.20808,11.95036 h 0.011 l 3.04272,-11.92831 q 0.0331,-0.12127 0.0772,-0.19844 0.0551,-0.0882 0.16536,-0.13229 0.11024,-0.0441 0.30868,-0.0661 0.20946,-0.022 0.54019,-0.022 0.30868,0 0.48507,0.022 0.18742,0.022 0.29766,0.0661 0.11024,0.0441 0.15434,0.13229 0.0551,0.0772 0.0882,0.19844 l 3.27423,11.92831 h 0.0221 l 3.14193,-11.93933 q 0.0331,-0.11025 0.0661,-0.18742 0.0331,-0.0882 0.13229,-0.13229 0.11025,-0.0441 0.29766,-0.0661 0.19844,-0.022 0.51814,-0.022 0.33073,0 0.51815,0.0331 0.19843,0.022 0.28663,0.0992 0.0882,0.0772 0.0772,0.22048 0,0.14332 -0.0551,0.39688 z"
             id="path7448"
             style="stroke-width:0.5;stroke-miterlimit:4;stroke-dasharray:none" />
          <path
             d="m 822.13865,330.79105 q 0,1.21268 -0.3197,2.23794 -0.31971,1.01424 -0.95912,1.75287 -0.62838,0.73863 -1.5875,1.15755 -0.94809,0.4079 -2.20486,0.4079 -1.2237,0 -2.13872,-0.3638 -0.90399,-0.3638 -1.51033,-1.05834 -0.60634,-0.69453 -0.904,-1.68672 -0.29765,-0.99219 -0.29765,-2.24896 0,-1.21267 0.30868,-2.22691 0.3197,-1.02526 0.94809,-1.76389 0.63941,-0.73863 1.5875,-1.14653 0.94809,-0.4079 2.21589,-0.4079 1.2237,0 2.12769,0.3638 0.91502,0.36381 1.52136,1.05834 0.60634,0.69453 0.90399,1.68672 0.30868,0.99219 0.30868,2.23793 z m -1.91823,0.12127 q 0,-0.80477 -0.15434,-1.52135 -0.14332,-0.71658 -0.48507,-1.25678 -0.34175,-0.54019 -0.92604,-0.84887 -0.58429,-0.3197 -1.45521,-0.3197 -0.80478,0 -1.38907,0.28663 -0.57326,0.28663 -0.94809,0.8158 -0.37482,0.51814 -0.56224,1.23472 -0.17639,0.71658 -0.17639,1.56545 0,0.8158 0.14332,1.53238 0.15434,0.71659 0.49609,1.25678 0.35278,0.52916 0.93707,0.84887 0.58429,0.30868 1.45521,0.30868 0.79375,0 1.37804,-0.28663 0.58429,-0.28663 0.95912,-0.80478 0.37482,-0.51814 0.55121,-1.23472 0.17639,-0.71658 0.17639,-1.57648 z"
             id="path7450"
             style="stroke-width:0.5;stroke-miterlimit:4;stroke-dasharray:none" />
          <path
             d="m 834.04491,330.79105 q 0,1.21268 -0.3197,2.23794 -0.31971,1.01424 -0.95912,1.75287 -0.62838,0.73863 -1.5875,1.15755 -0.94809,0.4079 -2.20486,0.4079 -1.2237,0 -2.13872,-0.3638 -0.90399,-0.3638 -1.51033,-1.05834 -0.60634,-0.69453 -0.90399,-1.68672 -0.29766,-0.99219 -0.29766,-2.24896 0,-1.21267 0.30868,-2.22691 0.3197,-1.02526 0.94809,-1.76389 0.63941,-0.73863 1.5875,-1.14653 0.94809,-0.4079 2.21589,-0.4079 1.2237,0 2.12769,0.3638 0.91502,0.36381 1.52136,1.05834 0.60634,0.69453 0.90399,1.68672 0.30868,0.99219 0.30868,2.23793 z m -1.91823,0.12127 q 0,-0.80477 -0.15434,-1.52135 -0.14331,-0.71658 -0.48507,-1.25678 -0.34175,-0.54019 -0.92604,-0.84887 -0.58429,-0.3197 -1.45521,-0.3197 -0.80478,0 -1.38906,0.28663 -0.57327,0.28663 -0.9481,0.8158 -0.37482,0.51814 -0.56224,1.23472 -0.17638,0.71658 -0.17638,1.56545 0,0.8158 0.14331,1.53238 0.15434,0.71659 0.4961,1.25678 0.35277,0.52916 0.93706,0.84887 0.58429,0.30868 1.45521,0.30868 0.79375,0 1.37804,-0.28663 0.58429,-0.28663 0.95912,-0.80478 0.37482,-0.51814 0.55121,-1.23472 0.17639,-0.71658 0.17639,-1.57648 z"
             id="path7452"
             style="stroke-width:0.5;stroke-miterlimit:4;stroke-dasharray:none" />
          <path
             d="m 845.22357,335.86224 q 0,0.0882 -0.0441,0.15434 -0.0331,0.0662 -0.13229,0.11024 -0.0882,0.0331 -0.24253,0.0551 -0.15434,0.022 -0.37483,0.022 -0.23151,0 -0.38585,-0.022 -0.15434,-0.022 -0.25356,-0.0551 -0.0992,-0.0441 -0.14332,-0.11024 -0.0441,-0.0661 -0.0441,-0.15434 v -1.31189 q -0.78273,0.84887 -1.6316,1.32291 -0.83785,0.47405 -1.84106,0.47405 -1.09141,0 -1.86311,-0.41892 -0.77171,-0.42995 -1.25678,-1.14653 -0.47404,-0.72761 -0.69453,-1.69775 -0.22048,-0.98116 -0.22048,-2.06155 0,-1.27882 0.2756,-2.30408 0.27561,-1.03628 0.8158,-1.76389 0.5402,-0.7276 1.33395,-1.11345 0.80477,-0.39688 1.85208,-0.39688 0.87092,0 1.5875,0.38585 0.72761,0.37483 1.43316,1.11346 v -5.76572 q 0,-0.0772 0.0331,-0.14332 0.0441,-0.0772 0.15434,-0.11024 0.11024,-0.0441 0.27561,-0.0661 0.17638,-0.0331 0.44097,-0.0331 0.27561,0 0.45199,0.0331 0.17639,0.0221 0.27561,0.0661 0.0992,0.0331 0.14332,0.11024 0.0551,0.0661 0.0551,0.14332 z m -1.83004,-6.97839 q -0.73863,-0.91502 -1.43316,-1.38907 -0.6835,-0.48507 -1.43316,-0.48507 -0.69453,0 -1.1796,0.33073 -0.48507,0.33073 -0.79375,0.87092 -0.29766,0.5402 -0.44097,1.2237 -0.1323,0.68351 -0.1323,1.38907 0,0.74965 0.11025,1.46623 0.12126,0.71658 0.4079,1.27882 0.28663,0.55122 0.76068,0.89297 0.47404,0.33073 1.19062,0.33073 0.3638,0 0.69453,-0.0992 0.34176,-0.0992 0.69454,-0.33073 0.35277,-0.23151 0.73862,-0.59531 0.38586,-0.37483 0.8158,-0.91502 z"
             id="path7454"
             style="stroke-width:0.5;stroke-miterlimit:4;stroke-dasharray:none" />
          <path
             d="m 862.22307,335.38819 q 0,0.20947 -0.0331,0.35278 -0.0331,0.14332 -0.0882,0.23151 -0.0551,0.0882 -0.13229,0.13229 -0.0661,0.0331 -0.14332,0.0331 h -7.45244 q -0.0772,0 -0.14331,-0.0331 -0.0661,-0.0441 -0.1323,-0.13229 -0.0551,-0.0882 -0.0882,-0.23151 -0.0331,-0.14331 -0.0331,-0.35278 0,-0.19843 0.0331,-0.34175 0.0331,-0.14332 0.0772,-0.23151 0.0551,-0.0992 0.12127,-0.14332 0.0772,-0.0551 0.16536,-0.0551 h 2.97657 v -10.84793 l -2.75608,1.64263 q -0.20946,0.11024 -0.34175,0.13229 -0.12127,0.0221 -0.19844,-0.0441 -0.0772,-0.0772 -0.11025,-0.24253 -0.022,-0.16537 -0.022,-0.41893 0,-0.18741 0.011,-0.3197 0.0221,-0.13229 0.0551,-0.22049 0.0331,-0.0882 0.0882,-0.15434 0.0661,-0.0661 0.16536,-0.13229 l 3.28525,-2.10565 q 0.0441,-0.0331 0.11024,-0.0551 0.0661,-0.022 0.16537,-0.0441 0.0992,-0.022 0.23151,-0.022 0.13229,-0.011 0.33073,-0.011 0.26458,0 0.44097,0.022 0.17639,0.022 0.27561,0.0661 0.0992,0.0331 0.13229,0.0992 0.0331,0.0551 0.0331,0.12126 v 12.53465 h 2.57969 q 0.0882,0 0.16537,0.0551 0.0772,0.0441 0.12126,0.14332 0.0551,0.0882 0.0772,0.23151 0.0331,0.14332 0.0331,0.34175 z"
             id="path7456"
             style="stroke-width:0.5;stroke-miterlimit:4;stroke-dasharray:none" />
          <path
             d="m 884.95521,335.86224 q 0,0.0882 -0.0441,0.15434 -0.0441,0.0551 -0.14331,0.0992 -0.0992,0.0441 -0.27561,0.0661 -0.17639,0.022 -0.44098,0.022 -0.2756,0 -0.45199,-0.022 -0.17639,-0.022 -0.28663,-0.0661 -0.0992,-0.0441 -0.14332,-0.0992 -0.0441,-0.0661 -0.0441,-0.15434 v -6.0303 q 0,-0.62839 -0.11024,-1.14653 -0.11024,-0.51814 -0.35278,-0.89297 -0.24253,-0.37483 -0.61736,-0.57326 -0.37483,-0.19844 -0.88195,-0.19844 -0.62838,0 -1.26779,0.48507 -0.62839,0.48507 -1.38907,1.42213 v 6.9343 q 0,0.0882 -0.0441,0.15434 -0.0441,0.0551 -0.15434,0.0992 -0.0992,0.0441 -0.27561,0.0661 -0.17639,0.022 -0.44097,0.022 -0.25356,0 -0.44098,-0.022 -0.17639,-0.022 -0.28663,-0.0661 -0.0992,-0.0441 -0.14332,-0.0992 -0.0331,-0.0661 -0.0331,-0.15434 v -6.0303 q 0,-0.62839 -0.12127,-1.14653 -0.12126,-0.51814 -0.3638,-0.89297 -0.24253,-0.37483 -0.61736,-0.57326 -0.3638,-0.19844 -0.87092,-0.19844 -0.62839,0 -1.2678,0.48507 -0.63941,0.48507 -1.38906,1.42213 v 6.9343 q 0,0.0882 -0.0441,0.15434 -0.0441,0.0551 -0.14332,0.0992 -0.0992,0.0441 -0.2756,0.0661 -0.17639,0.022 -0.452,0.022 -0.26458,0 -0.44097,-0.022 -0.17639,-0.022 -0.28664,-0.0661 -0.0992,-0.0441 -0.14331,-0.0992 -0.0331,-0.0661 -0.0331,-0.15434 v -9.92189 q 0,-0.0882 0.0331,-0.14331 0.0331,-0.0661 0.13229,-0.11024 0.0992,-0.0551 0.25356,-0.0661 0.15434,-0.0221 0.4079,-0.0221 0.24253,0 0.39688,0.0221 0.16536,0.011 0.25355,0.0661 0.0882,0.0441 0.12127,0.11024 0.0441,0.0551 0.0441,0.14331 v 1.3119 q 0.83785,-0.93707 1.62057,-1.36702 0.79375,-0.44097 1.59853,-0.44097 0.61736,0 1.10243,0.14332 0.4961,0.14331 0.87092,0.4079 0.37483,0.25356 0.63941,0.61736 0.26459,0.35278 0.44098,0.79375 0.49609,-0.54019 0.93706,-0.91502 0.452,-0.37483 0.8599,-0.60634 0.41892,-0.23151 0.80477,-0.33073 0.39688,-0.11024 0.79375,-0.11024 0.95912,0 1.60956,0.34175 0.65043,0.33073 1.04731,0.89297 0.40789,0.56224 0.57326,1.32292 0.17639,0.74966 0.17639,1.5875 z"
             id="path7458"
             style="stroke-width:0.5;stroke-miterlimit:4;stroke-dasharray:none" />
          <path
             d="m 902.99099,335.86224 q 0,0.0882 -0.0441,0.15434 -0.0441,0.0551 -0.14331,0.0992 -0.0992,0.0441 -0.27561,0.0661 -0.17639,0.022 -0.44097,0.022 -0.27561,0 -0.452,-0.022 -0.17639,-0.022 -0.28663,-0.0661 -0.0992,-0.0441 -0.14332,-0.0992 -0.0441,-0.0661 -0.0441,-0.15434 v -6.0303 q 0,-0.62839 -0.11024,-1.14653 -0.11024,-0.51814 -0.35278,-0.89297 -0.24253,-0.37483 -0.61736,-0.57326 -0.37483,-0.19844 -0.88194,-0.19844 -0.62839,0 -1.2678,0.48507 -0.62839,0.48507 -1.38906,1.42213 v 6.9343 q 0,0.0882 -0.0441,0.15434 -0.0441,0.0551 -0.15434,0.0992 -0.0992,0.0441 -0.27561,0.0661 -0.17639,0.022 -0.44097,0.022 -0.25356,0 -0.44098,-0.022 -0.17638,-0.022 -0.28663,-0.0661 -0.0992,-0.0441 -0.14331,-0.0992 -0.0331,-0.0661 -0.0331,-0.15434 v -6.0303 q 0,-0.62839 -0.12126,-1.14653 -0.12127,-0.51814 -0.36381,-0.89297 -0.24253,-0.37483 -0.61736,-0.57326 -0.3638,-0.19844 -0.87092,-0.19844 -0.62839,0 -1.2678,0.48507 -0.63941,0.48507 -1.38906,1.42213 v 6.9343 q 0,0.0882 -0.0441,0.15434 -0.0441,0.0551 -0.14331,0.0992 -0.0992,0.0441 -0.27561,0.0661 -0.17639,0.022 -0.452,0.022 -0.26458,0 -0.44097,-0.022 -0.17639,-0.022 -0.28663,-0.0661 -0.0992,-0.0441 -0.14332,-0.0992 -0.0331,-0.0661 -0.0331,-0.15434 v -9.92189 q 0,-0.0882 0.0331,-0.14331 0.0331,-0.0661 0.13229,-0.11024 0.0992,-0.0551 0.25356,-0.0661 0.15434,-0.0221 0.4079,-0.0221 0.24254,0 0.39688,0.0221 0.16536,0.011 0.25356,0.0661 0.0882,0.0441 0.12126,0.11024 0.0441,0.0551 0.0441,0.14331 v 1.3119 q 0.83785,-0.93707 1.62058,-1.36702 0.79375,-0.44097 1.59852,-0.44097 0.61736,0 1.10243,0.14332 0.4961,0.14331 0.87092,0.4079 0.37483,0.25356 0.63941,0.61736 0.26459,0.35278 0.44098,0.79375 0.49609,-0.54019 0.93706,-0.91502 0.452,-0.37483 0.8599,-0.60634 0.41892,-0.23151 0.80478,-0.33073 0.39687,-0.11024 0.79375,-0.11024 0.95911,0 1.60955,0.34175 0.65043,0.33073 1.04731,0.89297 0.4079,0.56224 0.57326,1.32292 0.17639,0.74966 0.17639,1.5875 z"
             id="path7460"
             style="stroke-width:0.5;stroke-miterlimit:4;stroke-dasharray:none" />
          <path
             d="m 908.65749,334.9362 q 0,0.78272 -0.26458,1.04731 -0.25356,0.25356 -0.93707,0.25356 -0.66146,0 -0.91502,-0.25356 -0.25356,-0.25356 -0.25356,-1.01424 0,-0.78273 0.25356,-1.03629 0.26458,-0.26458 0.94809,-0.26458 0.66146,0 0.91502,0.25356 0.25356,0.25356 0.25356,1.01424 z"
             id="path7462"
             style="stroke-width:0.5;stroke-miterlimit:4;stroke-dasharray:none" />
          <path
             d="m 926.08694,326.0506 q 0,1.06936 -0.35278,1.92925 -0.35278,0.8599 -1.01424,1.46624 -0.65043,0.60634 -1.60955,0.93706 -0.94809,0.33073 -2.27101,0.33073 h -1.62057 v 5.13734 q 0,0.0882 -0.0551,0.15434 -0.0441,0.0661 -0.15434,0.11024 -0.0992,0.0331 -0.28664,0.0551 -0.17639,0.0331 -0.45199,0.0331 -0.27561,0 -0.46303,-0.0331 -0.17638,-0.0221 -0.28663,-0.0551 -0.11024,-0.0441 -0.15434,-0.11024 -0.0441,-0.0661 -0.0441,-0.15434 v -13.16304 q 0,-0.44097 0.23152,-0.62838 0.23151,-0.18742 0.51814,-0.18742 h 3.05373 q 0.46303,0 0.88195,0.0441 0.42995,0.0331 1.00321,0.16536 0.58429,0.12127 1.1796,0.47405 0.60634,0.34175 1.02527,0.84887 0.41892,0.50712 0.63941,1.1796 0.23151,0.66146 0.23151,1.46624 z m -1.9954,0.15434 q 0,-0.87092 -0.33073,-1.45521 -0.31971,-0.58429 -0.80478,-0.87092 -0.47405,-0.28663 -0.99219,-0.3638 -0.50712,-0.0772 -0.99219,-0.0772 h -1.75286 v 5.72163 h 1.70877 q 0.85989,0 1.42213,-0.22049 0.57327,-0.22049 0.95912,-0.60634 0.38585,-0.39687 0.58429,-0.93707 0.19844,-0.55121 0.19844,-1.19062 z"
             id="path7464"
             style="stroke-width:0.5;stroke-miterlimit:4;stroke-dasharray:none" />
          <path
             d="m 935.76628,335.87326 q 0,0.1323 -0.0882,0.19844 -0.0882,0.0661 -0.24253,0.0992 -0.15434,0.0331 -0.452,0.0331 -0.28663,0 -0.46302,-0.0331 -0.16536,-0.0331 -0.24253,-0.0992 -0.0772,-0.0661 -0.0772,-0.19844 v -0.99218 q -0.65044,0.69453 -1.45521,1.08038 -0.79375,0.38585 -1.68672,0.38585 -0.78273,0 -1.42214,-0.20946 -0.62839,-0.19844 -1.08038,-0.58429 -0.44098,-0.38585 -0.69454,-0.94809 -0.24253,-0.56224 -0.24253,-1.27882 0,-0.83785 0.34175,-1.45521 0.34176,-0.61736 0.98117,-1.02526 0.63941,-0.4079 1.56545,-0.60634 0.92604,-0.20946 2.0836,-0.20946 h 1.36701 v -0.77171 q 0,-0.57326 -0.12127,-1.01423 -0.12126,-0.44098 -0.39687,-0.72761 -0.26459,-0.29765 -0.69453,-0.44097 -0.42995,-0.15434 -1.05834,-0.15434 -0.67248,0 -1.21267,0.16536 -0.52917,0.15434 -0.93707,0.35278 -0.39688,0.18742 -0.67248,0.35278 -0.26459,0.15434 -0.39688,0.15434 -0.0882,0 -0.15434,-0.0441 -0.0661,-0.0441 -0.12127,-0.13229 -0.0441,-0.0882 -0.0661,-0.22048 -0.0221,-0.14332 -0.0221,-0.30869 0,-0.2756 0.0331,-0.42994 0.0441,-0.16537 0.18742,-0.30868 0.15434,-0.14332 0.51814,-0.33073 0.3638,-0.19844 0.83785,-0.35278 0.47404,-0.16537 1.03628,-0.26459 0.56224,-0.11024 1.13551,-0.11024 1.06936,0 1.81901,0.24254 0.74965,0.24253 1.21267,0.71658 0.46303,0.46302 0.67249,1.15755 0.20946,0.69453 0.20946,1.62057 z m -1.80799,-4.53099 h -1.55443 q -0.74965,0 -1.30087,0.13229 -0.55121,0.12127 -0.91502,0.37483 -0.3638,0.24253 -0.54019,0.59531 -0.16536,0.34176 -0.16536,0.79375 0,0.7717 0.48507,1.23473 0.49609,0.45199 1.37804,0.45199 0.71658,0 1.32292,-0.3638 0.61736,-0.3638 1.28984,-1.11346 z"
             id="path7466"
             style="stroke-width:0.5;stroke-miterlimit:4;stroke-dasharray:none" />
          <path
             d="m 947.39694,326.39235 q 0,0.38585 -0.11024,0.56224 -0.0992,0.16537 -0.26458,0.16537 h -1.42214 q 0.38585,0.39687 0.54019,0.88194 0.15434,0.47405 0.15434,0.99219 0,0.8599 -0.27561,1.52136 -0.2756,0.66146 -0.79375,1.12448 -0.50712,0.45199 -1.21267,0.69453 -0.70556,0.24253 -1.56545,0.24253 -0.60634,0 -1.15756,-0.15434 -0.54019,-0.16536 -0.83785,-0.4079 -0.19843,0.19844 -0.33073,0.452 -0.12126,0.25356 -0.12126,0.58429 0,0.38585 0.35278,0.63941 0.3638,0.25356 0.95911,0.27561 l 2.59072,0.11024 q 0.73862,0.022 1.35599,0.20946 0.61736,0.17639 1.06936,0.51815 0.45199,0.33073 0.70555,0.82682 0.25356,0.48507 0.25356,1.1355 0,0.68351 -0.28663,1.30087 -0.28663,0.61737 -0.88195,1.08039 -0.58429,0.47404 -1.4993,0.73863 -0.91502,0.2756 -2.16077,0.2756 -1.20165,0 -2.05052,-0.20946 -0.83785,-0.19844 -1.37804,-0.55121 -0.54019,-0.35278 -0.78273,-0.84888 -0.24253,-0.48507 -0.24253,-1.05833 0,-0.3638 0.0882,-0.70556 0.0882,-0.34175 0.26458,-0.65043 0.18742,-0.30868 0.452,-0.58429 0.27561,-0.28663 0.62839,-0.56224 -0.54019,-0.27561 -0.80478,-0.69453 -0.25356,-0.41893 -0.25356,-0.904 0,-0.67248 0.27561,-1.20165 0.27561,-0.52916 0.68351,-0.94809 -0.34176,-0.4079 -0.54019,-0.91502 -0.19844,-0.51814 -0.19844,-1.24574 0,-0.84888 0.28663,-1.52136 0.28663,-0.67248 0.79375,-1.13551 0.50712,-0.46302 1.21268,-0.70555 0.71658,-0.25356 1.55443,-0.25356 0.45199,0 0.83784,0.0551 0.39688,0.0441 0.73863,0.13229 h 2.99862 q 0.18741,0 0.2756,0.18742 0.0992,0.17639 0.0992,0.55121 z m -2.84427,2.61276 q 0,-1.01423 -0.56224,-1.57647 -0.55122,-0.57327 -1.57648,-0.57327 -0.52916,0 -0.92604,0.17639 -0.38585,0.17639 -0.65043,0.48507 -0.25356,0.30868 -0.38586,0.71658 -0.12126,0.39688 -0.12126,0.83785 0,0.98117 0.55121,1.54341 0.56224,0.56224 1.56546,0.56224 0.54019,0 0.93706,-0.16537 0.39688,-0.17639 0.65044,-0.47405 0.26458,-0.30868 0.38585,-0.70555 0.13229,-0.39688 0.13229,-0.82683 z m 0.91502,7.86034 q 0,-0.63941 -0.52917,-0.98116 -0.51814,-0.35278 -1.41111,-0.37483 l -2.56867,-0.0882 q -0.35278,0.27561 -0.58429,0.52916 -0.22048,0.24254 -0.35277,0.46303 -0.1323,0.23151 -0.18742,0.45199 -0.0441,0.22049 -0.0441,0.452 0,0.71658 0.7276,1.08038 0.72761,0.37483 2.02847,0.37483 0.82683,0 1.37804,-0.16537 0.56224,-0.15434 0.904,-0.41892 0.34175,-0.26458 0.48507,-0.60634 0.15434,-0.34175 0.15434,-0.71658 z"
             id="path7468"
             style="stroke-width:0.5;stroke-miterlimit:4;stroke-dasharray:none" />
          <path
             d="m 958.01335,330.47135 q 0,0.42995 -0.22049,0.61736 -0.20946,0.17639 -0.48507,0.17639 h -6.50434 q 0,0.82682 0.16536,1.48828 0.16537,0.66146 0.55122,1.13551 0.38585,0.47404 1.00321,0.7276 0.61736,0.25356 1.51033,0.25356 0.70556,0 1.25677,-0.11024 0.55122,-0.12127 0.9481,-0.26459 0.4079,-0.14331 0.66145,-0.25355 0.26459,-0.12127 0.39688,-0.12127 0.0772,0 0.13229,0.0441 0.0661,0.0331 0.0992,0.11024 0.0331,0.0772 0.0441,0.22048 0.0221,0.1323 0.0221,0.33073 0,0.14332 -0.011,0.25356 -0.011,0.0992 -0.0331,0.18742 -0.011,0.0772 -0.0551,0.14331 -0.0331,0.0661 -0.0992,0.13229 -0.0551,0.0551 -0.35278,0.19844 -0.29766,0.13229 -0.7717,0.26459 -0.47405,0.13229 -1.10243,0.23151 -0.61736,0.11024 -1.32292,0.11024 -1.2237,0 -2.14974,-0.34175 -0.91502,-0.34176 -1.54341,-1.01424 -0.62838,-0.67248 -0.94809,-1.68672 -0.3197,-1.01424 -0.3197,-2.35921 0,-1.27882 0.33073,-2.29305 0.33073,-1.02526 0.94809,-1.73082 0.62838,-0.71658 1.51033,-1.09141 0.88194,-0.38585 1.97335,-0.38585 1.16858,0 1.98438,0.37483 0.82682,0.37482 1.35599,1.01423 0.52917,0.62839 0.7717,1.48829 0.25356,0.84887 0.25356,1.81901 z m -1.83004,-0.54019 q 0.0331,-1.43316 -0.63941,-2.24896 -0.66146,-0.8158 -1.97335,-0.8158 -0.67248,0 -1.1796,0.25356 -0.50712,0.25356 -0.84887,0.67248 -0.34176,0.41892 -0.52917,0.98116 -0.18741,0.55122 -0.20946,1.15756 z"
             id="path7470"
             style="stroke-width:0.5;stroke-miterlimit:4;stroke-dasharray:none" />
          <path
             d="m 974.85851,328.97204 q 0,1.64263 -0.26458,2.99862 -0.25356,1.35599 -0.8599,2.33715 -0.59531,0.97014 -1.56545,1.51033 -0.97014,0.52917 -2.39228,0.52917 -1.34496,0 -2.27101,-0.47405 -0.91502,-0.48507 -1.47726,-1.41111 -0.56224,-0.93707 -0.80477,-2.29306 -0.23151,-1.36701 -0.23151,-3.1309 0,-1.6316 0.26458,-2.98759 0.26459,-1.36702 0.8599,-2.33716 0.59531,-0.98116 1.56545,-1.51033 0.97014,-0.54019 2.38125,-0.54019 1.356,0 2.27101,0.48507 0.92605,0.47405 1.48829,1.41111 0.56224,0.92605 0.79375,2.29306 0.24253,1.35599 0.24253,3.11988 z m -1.94028,0.13229 q 0,-1.06935 -0.0772,-1.91823 -0.0772,-0.84887 -0.23151,-1.4993 -0.14331,-0.65044 -0.38585,-1.11346 -0.23151,-0.47405 -0.56224,-0.7717 -0.33073,-0.30868 -0.76068,-0.44098 -0.41892,-0.14331 -0.94809,-0.14331 -0.93707,0 -1.52135,0.44097 -0.58429,0.44097 -0.92605,1.21268 -0.33073,0.7717 -0.45199,1.80798 -0.12127,1.03629 -0.12127,2.22692 0,1.59852 0.16536,2.723 0.16537,1.11346 0.51815,1.81901 0.3638,0.70556 0.91501,1.02527 0.56224,0.3197 1.356,0.3197 0.61736,0 1.08038,-0.19844 0.47404,-0.19843 0.80477,-0.56224 0.34176,-0.37482 0.56224,-0.89297 0.22049,-0.51814 0.35278,-1.14653 0.13229,-0.62838 0.17639,-1.35599 0.0551,-0.73863 0.0551,-1.53238 z"
             id="path7472"
             style="stroke-width:0.5;stroke-miterlimit:4;stroke-dasharray:none" />
          <path
             d="m 985.8277,335.32205 q 0,0.19844 -0.0331,0.35278 -0.0221,0.15434 -0.0772,0.26458 -0.0441,0.0992 -0.13229,0.15434 -0.0772,0.0441 -0.17639,0.0441 h -7.88239 q -0.15434,0 -0.2756,-0.0331 -0.11025,-0.0441 -0.19844,-0.13229 -0.0772,-0.0882 -0.12127,-0.25356 -0.0331,-0.16536 -0.0331,-0.4079 0,-0.22048 0.011,-0.38585 0.022,-0.16536 0.0772,-0.28663 0.0551,-0.13229 0.13229,-0.25356 0.0882,-0.13229 0.22049,-0.27561 l 2.7671,-2.93246 q 0.95912,-1.01424 1.53238,-1.81902 0.58429,-0.80477 0.89297,-1.46623 0.31971,-0.66146 0.41893,-1.20165 0.0992,-0.54019 0.0992,-1.01424 0,-0.47404 -0.15434,-0.89297 -0.15434,-0.42995 -0.452,-0.74965 -0.28663,-0.31971 -0.72761,-0.50712 -0.44097,-0.18741 -1.01423,-0.18741 -0.67249,0 -1.21268,0.18741 -0.52917,0.18741 -0.93707,0.4079 -0.39687,0.22049 -0.67248,0.4079 -0.26458,0.18741 -0.39687,0.18741 -0.0772,0 -0.14332,-0.0441 -0.0551,-0.0441 -0.0992,-0.14332 -0.0331,-0.0992 -0.0551,-0.26458 -0.022,-0.16537 -0.022,-0.39688 0,-0.16536 0.011,-0.28663 0.011,-0.12127 0.0331,-0.20946 0.0331,-0.0882 0.0772,-0.16537 0.0441,-0.0772 0.17639,-0.18741 0.13229,-0.12127 0.45199,-0.31971 0.33073,-0.19844 0.8158,-0.38585 0.4961,-0.19844 1.08039,-0.33073 0.59531,-0.13229 1.24574,-0.13229 1.03629,0 1.80799,0.29766 0.78273,0.28663 1.28985,0.79375 0.51814,0.50712 0.7717,1.1796 0.25356,0.67248 0.25356,1.43316 0,0.68351 -0.12127,1.36702 -0.12127,0.67248 -0.51814,1.46623 -0.38585,0.78273 -1.12448,1.75287 -0.73863,0.95911 -1.96233,2.21588 l -2.25998,2.35921 h 6.20669 q 0.0882,0 0.16536,0.0551 0.0882,0.0441 0.14332,0.14332 0.0661,0.0992 0.0882,0.25355 0.0331,0.14332 0.0331,0.34176 z"
             id="path7474"
             style="stroke-width:0.5;stroke-miterlimit:4;stroke-dasharray:none" />
        </g>
      </g>
    </g>
  </g>
</svg>
